<svg width="486" height="85" viewBox="0 0 486 85" fill="none" xmlns="http://www.w3.org/2000/svg">
<line x1="95.4513" y1="4" x2="428.73" y2="4" stroke="black" stroke-width="8"/>
<path d="M96.4 23.8C96.5067 24.2267 96.56 24.76 96.56 25.4C96.56 26.0133 96.5067 26.5467 96.4 27C96.5067 27.4267 96.56 27.96 96.56 28.6C96.56 29.2133 96.5067 29.7467 96.4 30.2C96.5067 30.6267 96.56 31.16 96.56 31.8C96.56 32.4133 96.5067 32.9467 96.4 33.4H95.2C95.3067 33.8267 95.36 34.36 95.36 35C95.36 35.6133 95.3067 36.1467 95.2 36.6C95.3067 37.0267 95.36 37.56 95.36 38.2C95.36 38.8133 95.3067 39.3467 95.2 39.8H94.4C94.5067 40.2267 94.56 40.76 94.56 41.4C94.56 42.0133 94.5067 42.5467 94.4 43H92C91.8933 42.5467 91.84 42.0133 91.84 41.4C91.84 40.76 91.8933 40.2267 92 39.8H91.2C91.0933 39.3467 91.04 38.8133 91.04 38.2C91.04 37.56 91.0933 37.0267 91.2 36.6H88.8C88.9067 37.0267 88.96 37.56 88.96 38.2C88.96 38.8133 88.9067 39.3467 88.8 39.8H88C88.1067 40.2267 88.16 40.76 88.16 41.4C88.16 42.0133 88.1067 42.5467 88 43H85.6C85.4933 42.5467 85.44 42.0133 85.44 41.4C85.44 40.76 85.4933 40.2267 85.6 39.8H84.8C84.6933 39.3467 84.64 38.8133 84.64 38.2C84.64 37.56 84.6933 37.0267 84.8 36.6C84.6933 36.1467 84.64 35.6133 84.64 35C84.64 34.36 84.6933 33.8267 84.8 33.4H83.6C83.4933 32.9467 83.44 32.4133 83.44 31.8C83.44 31.16 83.4933 30.6267 83.6 30.2C83.4933 29.7467 83.44 29.2133 83.44 28.6C83.44 27.96 83.4933 27.4267 83.6 27C83.4933 26.5467 83.44 26.0133 83.44 25.4C83.44 24.76 83.4933 24.2267 83.6 23.8C83.4933 23.3467 83.44 22.8133 83.44 22.2C83.44 21.56 83.4933 21.0267 83.6 20.6H86.8C86.9067 21.0267 86.96 21.56 86.96 22.2C86.96 22.8133 86.9067 23.3467 86.8 23.8C86.9067 24.2267 86.96 24.76 86.96 25.4C86.96 26.0133 86.9067 26.5467 86.8 27C86.9067 27.4267 86.96 27.96 86.96 28.6C86.96 29.2133 86.9067 29.7467 86.8 30.2C86.9067 30.6267 86.96 31.16 86.96 31.8C86.96 32.4133 86.9067 32.9467 86.8 33.4C86.9067 33.8267 86.96 34.36 86.96 35C86.96 35.6133 86.9067 36.1467 86.8 36.6H88C87.8933 36.1467 87.84 35.6133 87.84 35C87.84 34.36 87.8933 33.8267 88 33.4H88.8C88.6933 32.9467 88.64 32.4133 88.64 31.8C88.64 31.16 88.6933 30.6267 88.8 30.2C88.6933 29.7467 88.64 29.2133 88.64 28.6C88.64 27.96 88.6933 27.4267 88.8 27C88.6933 26.5467 88.64 26.0133 88.64 25.4C88.64 24.76 88.6933 24.2267 88.8 23.8C88.6933 23.3467 88.64 22.8133 88.64 22.2C88.64 21.56 88.6933 21.0267 88.8 20.6H91.2C91.3067 21.0267 91.36 21.56 91.36 22.2C91.36 22.8133 91.3067 23.3467 91.2 23.8C91.3067 24.2267 91.36 24.76 91.36 25.4C91.36 26.0133 91.3067 26.5467 91.2 27C91.3067 27.4267 91.36 27.96 91.36 28.6C91.36 29.2133 91.3067 29.7467 91.2 30.2C91.3067 30.6267 91.36 31.16 91.36 31.8C91.36 32.4133 91.3067 32.9467 91.2 33.4H92C92.1067 33.8267 92.16 34.36 92.16 35C92.16 35.6133 92.1067 36.1467 92 36.6H93.2C93.0933 36.1467 93.04 35.6133 93.04 35C93.04 34.36 93.0933 33.8267 93.2 33.4C93.0933 32.9467 93.04 32.4133 93.04 31.8C93.04 31.16 93.0933 30.6267 93.2 30.2C93.0933 29.7467 93.04 29.2133 93.04 28.6C93.04 27.96 93.0933 27.4267 93.2 27C93.0933 26.5467 93.04 26.0133 93.04 25.4C93.04 24.76 93.0933 24.2267 93.2 23.8C93.0933 23.3467 93.04 22.8133 93.04 22.2C93.04 21.56 93.0933 21.0267 93.2 20.6H96.4C96.5067 21.0267 96.56 21.56 96.56 22.2C96.56 22.8133 96.5067 23.3467 96.4 23.8ZM102.976 28.6C102.976 29.2133 102.922 29.7467 102.816 30.2H104.016C104.122 30.6267 104.176 31.16 104.176 31.8C104.176 32.4133 104.122 32.9467 104.016 33.4H102.816C102.922 33.8267 102.976 34.36 102.976 35C102.976 35.6133 102.922 36.1467 102.816 36.6C102.922 37.0267 102.976 37.56 102.976 38.2C102.976 38.8133 102.922 39.3467 102.816 39.8C102.922 40.2267 102.976 40.76 102.976 41.4C102.976 42.0133 102.922 42.5467 102.816 43H99.6156C99.509 42.5467 99.4556 42.0133 99.4556 41.4C99.4556 40.76 99.509 40.2267 99.6156 39.8C99.509 39.3467 99.4556 38.8133 99.4556 38.2C99.4556 37.56 99.509 37.0267 99.6156 36.6C99.509 36.1467 99.4556 35.6133 99.4556 35C99.4556 34.36 99.509 33.8267 99.6156 33.4C99.509 32.9467 99.4556 32.4133 99.4556 31.8C99.4556 31.16 99.509 30.6267 99.6156 30.2C99.509 29.7467 99.4556 29.2133 99.4556 28.6C99.4556 27.96 99.509 27.4267 99.6156 27C99.509 26.5467 99.4556 26.0133 99.4556 25.4C99.4556 24.76 99.509 24.2267 99.6156 23.8C99.509 23.3467 99.4556 22.8133 99.4556 22.2C99.4556 21.56 99.509 21.0267 99.6156 20.6H102.816C102.922 21.0267 102.976 21.56 102.976 22.2C102.976 22.8133 102.922 23.3467 102.816 23.8C102.922 24.2267 102.976 24.76 102.976 25.4C102.976 26.0133 102.922 26.5467 102.816 27C102.922 27.4267 102.976 27.96 102.976 28.6ZM112.416 33.4C112.522 33.8267 112.576 34.36 112.576 35C112.576 35.6133 112.522 36.1467 112.416 36.6C112.522 37.0267 112.576 37.56 112.576 38.2C112.576 38.8133 112.522 39.3467 112.416 39.8C112.522 40.2267 112.576 40.76 112.576 41.4C112.576 42.0133 112.522 42.5467 112.416 43H109.216C109.109 42.5467 109.056 42.0133 109.056 41.4C109.056 40.76 109.109 40.2267 109.216 39.8C109.109 39.3467 109.056 38.8133 109.056 38.2C109.056 37.56 109.109 37.0267 109.216 36.6C109.109 36.1467 109.056 35.6133 109.056 35C109.056 34.36 109.109 33.8267 109.216 33.4C109.109 32.9467 109.056 32.4133 109.056 31.8C109.056 31.16 109.109 30.6267 109.216 30.2H104.016C103.909 29.7467 103.856 29.2133 103.856 28.6C103.856 27.96 103.909 27.4267 104.016 27H110.416C110.522 27.4267 110.576 27.96 110.576 28.6C110.576 29.2133 110.522 29.7467 110.416 30.2H112.416C112.522 30.6267 112.576 31.16 112.576 31.8C112.576 32.4133 112.522 32.9467 112.416 33.4ZM128.431 39.8C128.538 40.2267 128.591 40.76 128.591 41.4C128.591 42.0133 128.538 42.5467 128.431 43H125.231C125.125 42.5467 125.071 42.0133 125.071 41.4C125.071 40.76 125.125 40.2267 125.231 39.8H123.631C123.525 39.3467 123.471 38.8133 123.471 38.2C123.471 37.56 123.525 37.0267 123.631 36.6H118.831C118.938 37.0267 118.991 37.56 118.991 38.2C118.991 38.8133 118.938 39.3467 118.831 39.8H123.631C123.738 40.2267 123.791 40.76 123.791 41.4C123.791 42.0133 123.738 42.5467 123.631 43H117.231C117.125 42.5467 117.071 42.0133 117.071 41.4C117.071 40.76 117.125 40.2267 117.231 39.8H115.631C115.525 39.3467 115.471 38.8133 115.471 38.2C115.471 37.56 115.525 37.0267 115.631 36.6H117.231C117.125 36.1467 117.071 35.6133 117.071 35C117.071 34.36 117.125 33.8267 117.231 33.4H123.631C123.525 32.9467 123.471 32.4133 123.471 31.8C123.471 31.16 123.525 30.6267 123.631 30.2H118.031C117.925 29.7467 117.871 29.2133 117.871 28.6C117.871 27.96 117.925 27.4267 118.031 27H125.231C125.338 27.4267 125.391 27.96 125.391 28.6C125.391 29.2133 125.338 29.7467 125.231 30.2H126.831C126.938 30.6267 126.991 31.16 126.991 31.8C126.991 32.4133 126.938 32.9467 126.831 33.4C126.938 33.8267 126.991 34.36 126.991 35C126.991 35.6133 126.938 36.1467 126.831 36.6C126.938 37.0267 126.991 37.56 126.991 38.2C126.991 38.8133 126.938 39.3467 126.831 39.8H128.431ZM142.847 39.8C142.954 40.2267 143.007 40.76 143.007 41.4C143.007 42.0133 142.954 42.5467 142.847 43H136.447C136.34 42.5467 136.287 42.0133 136.287 41.4C136.287 40.76 136.34 40.2267 136.447 39.8H134.847C134.74 39.3467 134.687 38.8133 134.687 38.2C134.687 37.56 134.74 37.0267 134.847 36.6C134.74 36.1467 134.687 35.6133 134.687 35C134.687 34.36 134.74 33.8267 134.847 33.4C134.74 32.9467 134.687 32.4133 134.687 31.8C134.687 31.16 134.74 30.6267 134.847 30.2H131.647C131.54 29.7467 131.487 29.2133 131.487 28.6C131.487 27.96 131.54 27.4267 131.647 27H134.847C134.74 26.5467 134.687 26.0133 134.687 25.4C134.687 24.76 134.74 24.2267 134.847 23.8C134.74 23.3467 134.687 22.8133 134.687 22.2C134.687 21.56 134.74 21.0267 134.847 20.6H138.047C138.154 21.0267 138.207 21.56 138.207 22.2C138.207 22.8133 138.154 23.3467 138.047 23.8C138.154 24.2267 138.207 24.76 138.207 25.4C138.207 26.0133 138.154 26.5467 138.047 27H142.847C142.954 27.4267 143.007 27.96 143.007 28.6C143.007 29.2133 142.954 29.7467 142.847 30.2H138.047C138.154 30.6267 138.207 31.16 138.207 31.8C138.207 32.4133 138.154 32.9467 138.047 33.4C138.154 33.8267 138.207 34.36 138.207 35C138.207 35.6133 138.154 36.1467 138.047 36.6C138.154 37.0267 138.207 37.56 138.207 38.2C138.207 38.8133 138.154 39.3467 138.047 39.8H142.847ZM168.478 23.8C168.371 23.3467 168.318 22.8133 168.318 22.2C168.318 21.56 168.371 21.0267 168.478 20.6H171.678C171.785 21.0267 171.838 21.56 171.838 22.2C171.838 22.8133 171.785 23.3467 171.678 23.8H168.478ZM174.878 39.8C174.985 40.2267 175.038 40.76 175.038 41.4C175.038 42.0133 174.985 42.5467 174.878 43H165.278C165.171 42.5467 165.118 42.0133 165.118 41.4C165.118 40.76 165.171 40.2267 165.278 39.8H168.478C168.371 39.3467 168.318 38.8133 168.318 38.2C168.318 37.56 168.371 37.0267 168.478 36.6C168.371 36.1467 168.318 35.6133 168.318 35C168.318 34.36 168.371 33.8267 168.478 33.4C168.371 32.9467 168.318 32.4133 168.318 31.8C168.318 31.16 168.371 30.6267 168.478 30.2H166.078C165.971 29.7467 165.918 29.2133 165.918 28.6C165.918 27.96 165.971 27.4267 166.078 27H171.678C171.785 27.4267 171.838 27.96 171.838 28.6C171.838 29.2133 171.785 29.7467 171.678 30.2C171.785 30.6267 171.838 31.16 171.838 31.8C171.838 32.4133 171.785 32.9467 171.678 33.4C171.785 33.8267 171.838 34.36 171.838 35C171.838 35.6133 171.785 36.1467 171.678 36.6C171.785 37.0267 171.838 37.56 171.838 38.2C171.838 38.8133 171.785 39.3467 171.678 39.8H174.878ZM191.854 38.2C191.854 38.8133 191.8 39.3467 191.694 39.8H190.094C190.2 40.2267 190.254 40.76 190.254 41.4C190.254 42.0133 190.2 42.5467 190.094 43H181.294C181.187 42.5467 181.134 42.0133 181.134 41.4C181.134 40.76 181.187 40.2267 181.294 39.8H188.494C188.387 39.3467 188.334 38.8133 188.334 38.2C188.334 37.56 188.387 37.0267 188.494 36.6H182.094C181.987 36.1467 181.934 35.6133 181.934 35C181.934 34.36 181.987 33.8267 182.094 33.4H180.494C180.387 32.9467 180.334 32.4133 180.334 31.8C180.334 31.16 180.387 30.6267 180.494 30.2H182.094C181.987 29.7467 181.934 29.2133 181.934 28.6C181.934 27.96 181.987 27.4267 182.094 27H190.894C191 27.4267 191.054 27.96 191.054 28.6C191.054 29.2133 191 29.7467 190.894 30.2H183.694C183.8 30.6267 183.854 31.16 183.854 31.8C183.854 32.4133 183.8 32.9467 183.694 33.4H190.094C190.2 33.8267 190.254 34.36 190.254 35C190.254 35.6133 190.2 36.1467 190.094 36.6H191.694C191.8 37.0267 191.854 37.56 191.854 38.2ZM224.525 36.6C224.632 37.0267 224.685 37.56 224.685 38.2C224.685 38.8133 224.632 39.3467 224.525 39.8H222.925C223.032 40.2267 223.085 40.76 223.085 41.4C223.085 42.0133 223.032 42.5467 222.925 43H214.925C214.818 42.5467 214.765 42.0133 214.765 41.4C214.765 40.76 214.818 40.2267 214.925 39.8H213.325C213.218 39.3467 213.165 38.8133 213.165 38.2C213.165 37.56 213.218 37.0267 213.325 36.6H211.725C211.618 36.1467 211.565 35.6133 211.565 35C211.565 34.36 211.618 33.8267 211.725 33.4H213.325C213.218 32.9467 213.165 32.4133 213.165 31.8C213.165 31.16 213.218 30.6267 213.325 30.2H214.925C214.818 29.7467 214.765 29.2133 214.765 28.6C214.765 27.96 214.818 27.4267 214.925 27H222.925C223.032 27.4267 223.085 27.96 223.085 28.6C223.085 29.2133 223.032 29.7467 222.925 30.2H224.525C224.632 30.6267 224.685 31.16 224.685 31.8C224.685 32.4133 224.632 32.9467 224.525 33.4H221.325C221.218 32.9467 221.165 32.4133 221.165 31.8C221.165 31.16 221.218 30.6267 221.325 30.2H216.525C216.632 30.6267 216.685 31.16 216.685 31.8C216.685 32.4133 216.632 32.9467 216.525 33.4H214.925C215.032 33.8267 215.085 34.36 215.085 35C215.085 35.6133 215.032 36.1467 214.925 36.6H216.525C216.632 37.0267 216.685 37.56 216.685 38.2C216.685 38.8133 216.632 39.3467 216.525 39.8H221.325C221.218 39.3467 221.165 38.8133 221.165 38.2C221.165 37.56 221.218 37.0267 221.325 36.6H224.525ZM240.541 30.2C240.647 30.6267 240.701 31.16 240.701 31.8C240.701 32.4133 240.647 32.9467 240.541 33.4H237.341C237.234 32.9467 237.181 32.4133 237.181 31.8C237.181 31.16 237.234 30.6267 237.341 30.2H234.541C234.647 30.6267 234.701 31.16 234.701 31.8C234.701 32.4133 234.647 32.9467 234.541 33.4H233.341C233.447 33.8267 233.501 34.36 233.501 35C233.501 35.6133 233.447 36.1467 233.341 36.6C233.447 37.0267 233.501 37.56 233.501 38.2C233.501 38.8133 233.447 39.3467 233.341 39.8H235.741C235.847 40.2267 235.901 40.76 235.901 41.4C235.901 42.0133 235.847 42.5467 235.741 43H227.741C227.634 42.5467 227.581 42.0133 227.581 41.4C227.581 40.76 227.634 40.2267 227.741 39.8H230.141C230.034 39.3467 229.981 38.8133 229.981 38.2C229.981 37.56 230.034 37.0267 230.141 36.6C230.034 36.1467 229.981 35.6133 229.981 35C229.981 34.36 230.034 33.8267 230.141 33.4C230.034 32.9467 229.981 32.4133 229.981 31.8C229.981 31.16 230.034 30.6267 230.141 30.2H227.741C227.634 29.7467 227.581 29.2133 227.581 28.6C227.581 27.96 227.634 27.4267 227.741 27H231.741C231.847 27.4267 231.901 27.96 231.901 28.6C231.901 29.2133 231.847 29.7467 231.741 30.2H233.341C233.234 29.7467 233.181 29.2133 233.181 28.6C233.181 27.96 233.234 27.4267 233.341 27H239.341C239.447 27.4267 239.501 27.96 239.501 28.6C239.501 29.2133 239.447 29.7467 239.341 30.2H240.541ZM256.716 28.6C256.716 29.2133 256.663 29.7467 256.556 30.2H255.356C255.463 30.6267 255.516 31.16 255.516 31.8C255.516 32.4133 255.463 32.9467 255.356 33.4H254.156C254.263 33.8267 254.316 34.36 254.316 35C254.316 35.6133 254.263 36.1467 254.156 36.6H253.356C253.463 37.0267 253.516 37.56 253.516 38.2C253.516 38.8133 253.463 39.3467 253.356 39.8H252.156C252.263 40.2267 252.316 40.76 252.316 41.4C252.316 42.0133 252.263 42.5467 252.156 43H251.356C251.463 43.4267 251.516 43.96 251.516 44.6C251.516 45.2133 251.463 45.7467 251.356 46.2H249.756C249.863 46.6267 249.916 47.16 249.916 47.8C249.916 48.4133 249.863 48.9467 249.756 49.4H244.956C244.85 48.9467 244.796 48.4133 244.796 47.8C244.796 47.16 244.85 46.6267 244.956 46.2H248.156C248.05 45.7467 247.996 45.2133 247.996 44.6C247.996 43.96 248.05 43.4267 248.156 43C248.05 42.5467 247.996 42.0133 247.996 41.4C247.996 40.76 248.05 40.2267 248.156 39.8H246.556C246.45 39.3467 246.396 38.8133 246.396 38.2C246.396 37.56 246.45 37.0267 246.556 36.6H245.756C245.65 36.1467 245.596 35.6133 245.596 35C245.596 34.36 245.65 33.8267 245.756 33.4H244.556C244.45 32.9467 244.396 32.4133 244.396 31.8C244.396 31.16 244.45 30.6267 244.556 30.2H243.356C243.25 29.7467 243.196 29.2133 243.196 28.6C243.196 27.96 243.25 27.4267 243.356 27H246.556C246.663 27.4267 246.716 27.96 246.716 28.6C246.716 29.2133 246.663 29.7467 246.556 30.2H247.756C247.863 30.6267 247.916 31.16 247.916 31.8C247.916 32.4133 247.863 32.9467 247.756 33.4H248.956C249.063 33.8267 249.116 34.36 249.116 35C249.116 35.6133 249.063 36.1467 248.956 36.6C249.063 37.0267 249.116 37.56 249.116 38.2C249.116 38.8133 249.063 39.3467 248.956 39.8H250.156C250.05 39.3467 249.996 38.8133 249.996 38.2C249.996 37.56 250.05 37.0267 250.156 36.6H250.956C250.85 36.1467 250.796 35.6133 250.796 35C250.796 34.36 250.85 33.8267 250.956 33.4H252.156C252.05 32.9467 251.996 32.4133 251.996 31.8C251.996 31.16 252.05 30.6267 252.156 30.2H253.356C253.25 29.7467 253.196 29.2133 253.196 28.6C253.196 27.96 253.25 27.4267 253.356 27H256.556C256.663 27.4267 256.716 27.96 256.716 28.6ZM272.732 35C272.732 35.6133 272.679 36.1467 272.572 36.6H270.972C271.079 37.0267 271.132 37.56 271.132 38.2C271.132 38.8133 271.079 39.3467 270.972 39.8H269.372C269.479 40.2267 269.532 40.76 269.532 41.4C269.532 42.0133 269.479 42.5467 269.372 43H262.972C263.079 43.4267 263.132 43.96 263.132 44.6C263.132 45.2133 263.079 45.7467 262.972 46.2C263.079 46.6267 263.132 47.16 263.132 47.8C263.132 48.4133 263.079 48.9467 262.972 49.4H259.772C259.665 48.9467 259.612 48.4133 259.612 47.8C259.612 47.16 259.665 46.6267 259.772 46.2C259.665 45.7467 259.612 45.2133 259.612 44.6C259.612 43.96 259.665 43.4267 259.772 43C259.665 42.5467 259.612 42.0133 259.612 41.4C259.612 40.76 259.665 40.2267 259.772 39.8C259.665 39.3467 259.612 38.8133 259.612 38.2C259.612 37.56 259.665 37.0267 259.772 36.6C259.665 36.1467 259.612 35.6133 259.612 35C259.612 34.36 259.665 33.8267 259.772 33.4C259.665 32.9467 259.612 32.4133 259.612 31.8C259.612 31.16 259.665 30.6267 259.772 30.2C259.665 29.7467 259.612 29.2133 259.612 28.6C259.612 27.96 259.665 27.4267 259.772 27H262.972C263.079 27.4267 263.132 27.96 263.132 28.6C263.132 29.2133 263.079 29.7467 262.972 30.2H264.572C264.679 30.6267 264.732 31.16 264.732 31.8C264.732 32.4133 264.679 32.9467 264.572 33.4H262.972C263.079 33.8267 263.132 34.36 263.132 35C263.132 35.6133 263.079 36.1467 262.972 36.6C263.079 37.0267 263.132 37.56 263.132 38.2C263.132 38.8133 263.079 39.3467 262.972 39.8H267.772C267.665 39.3467 267.612 38.8133 267.612 38.2C267.612 37.56 267.665 37.0267 267.772 36.6H269.372C269.265 36.1467 269.212 35.6133 269.212 35C269.212 34.36 269.265 33.8267 269.372 33.4H267.772C267.665 32.9467 267.612 32.4133 267.612 31.8C267.612 31.16 267.665 30.6267 267.772 30.2H264.572C264.465 29.7467 264.412 29.2133 264.412 28.6C264.412 27.96 264.465 27.4267 264.572 27H269.372C269.479 27.4267 269.532 27.96 269.532 28.6C269.532 29.2133 269.479 29.7467 269.372 30.2H270.972C271.079 30.6267 271.132 31.16 271.132 31.8C271.132 32.4133 271.079 32.9467 270.972 33.4H272.572C272.679 33.8267 272.732 34.36 272.732 35ZM286.988 39.8C287.094 40.2267 287.148 40.76 287.148 41.4C287.148 42.0133 287.094 42.5467 286.988 43H280.588C280.481 42.5467 280.428 42.0133 280.428 41.4C280.428 40.76 280.481 40.2267 280.588 39.8H278.988C278.881 39.3467 278.828 38.8133 278.828 38.2C278.828 37.56 278.881 37.0267 278.988 36.6C278.881 36.1467 278.828 35.6133 278.828 35C278.828 34.36 278.881 33.8267 278.988 33.4C278.881 32.9467 278.828 32.4133 278.828 31.8C278.828 31.16 278.881 30.6267 278.988 30.2H275.788C275.681 29.7467 275.628 29.2133 275.628 28.6C275.628 27.96 275.681 27.4267 275.788 27H278.988C278.881 26.5467 278.828 26.0133 278.828 25.4C278.828 24.76 278.881 24.2267 278.988 23.8C278.881 23.3467 278.828 22.8133 278.828 22.2C278.828 21.56 278.881 21.0267 278.988 20.6H282.188C282.294 21.0267 282.348 21.56 282.348 22.2C282.348 22.8133 282.294 23.3467 282.188 23.8C282.294 24.2267 282.348 24.76 282.348 25.4C282.348 26.0133 282.294 26.5467 282.188 27H286.988C287.094 27.4267 287.148 27.96 287.148 28.6C287.148 29.2133 287.094 29.7467 286.988 30.2H282.188C282.294 30.6267 282.348 31.16 282.348 31.8C282.348 32.4133 282.294 32.9467 282.188 33.4C282.294 33.8267 282.348 34.36 282.348 35C282.348 35.6133 282.294 36.1467 282.188 36.6C282.294 37.0267 282.348 37.56 282.348 38.2C282.348 38.8133 282.294 39.3467 282.188 39.8H286.988ZM304.763 35C304.763 35.6133 304.71 36.1467 304.603 36.6H303.403C303.51 37.0267 303.563 37.56 303.563 38.2C303.563 38.8133 303.51 39.3467 303.403 39.8H301.403C301.51 40.2267 301.563 40.76 301.563 41.4C301.563 42.0133 301.51 42.5467 301.403 43H295.003C294.896 42.5467 294.843 42.0133 294.843 41.4C294.843 40.76 294.896 40.2267 295.003 39.8H293.003C292.896 39.3467 292.843 38.8133 292.843 38.2C292.843 37.56 292.896 37.0267 293.003 36.6H291.803C291.696 36.1467 291.643 35.6133 291.643 35C291.643 34.36 291.696 33.8267 291.803 33.4H293.003C292.896 32.9467 292.843 32.4133 292.843 31.8C292.843 31.16 292.896 30.6267 293.003 30.2H295.003C294.896 29.7467 294.843 29.2133 294.843 28.6C294.843 27.96 294.896 27.4267 295.003 27H301.403C301.51 27.4267 301.563 27.96 301.563 28.6C301.563 29.2133 301.51 29.7467 301.403 30.2H303.403C303.51 30.6267 303.563 31.16 303.563 31.8C303.563 32.4133 303.51 32.9467 303.403 33.4H304.603C304.71 33.8267 304.763 34.36 304.763 35ZM301.403 36.6C301.296 36.1467 301.243 35.6133 301.243 35C301.243 34.36 301.296 33.8267 301.403 33.4H300.203C300.096 32.9467 300.043 32.4133 300.043 31.8C300.043 31.16 300.096 30.6267 300.203 30.2H296.203C296.31 30.6267 296.363 31.16 296.363 31.8C296.363 32.4133 296.31 32.9467 296.203 33.4H295.003C295.11 33.8267 295.163 34.36 295.163 35C295.163 35.6133 295.11 36.1467 295.003 36.6H296.203C296.31 37.0267 296.363 37.56 296.363 38.2C296.363 38.8133 296.31 39.3467 296.203 39.8H300.203C300.096 39.3467 300.043 38.8133 300.043 38.2C300.043 37.56 300.096 37.0267 300.203 36.6H301.403ZM320.619 36.6C320.725 37.0267 320.779 37.56 320.779 38.2C320.779 38.8133 320.725 39.3467 320.619 39.8H319.019C319.125 40.2267 319.179 40.76 319.179 41.4C319.179 42.0133 319.125 42.5467 319.019 43H311.019C310.912 42.5467 310.859 42.0133 310.859 41.4C310.859 40.76 310.912 40.2267 311.019 39.8H309.419C309.312 39.3467 309.259 38.8133 309.259 38.2C309.259 37.56 309.312 37.0267 309.419 36.6H307.819C307.712 36.1467 307.659 35.6133 307.659 35C307.659 34.36 307.712 33.8267 307.819 33.4H309.419C309.312 32.9467 309.259 32.4133 309.259 31.8C309.259 31.16 309.312 30.6267 309.419 30.2H311.019C310.912 29.7467 310.859 29.2133 310.859 28.6C310.859 27.96 310.912 27.4267 311.019 27H319.019C319.125 27.4267 319.179 27.96 319.179 28.6C319.179 29.2133 319.125 29.7467 319.019 30.2H320.619C320.725 30.6267 320.779 31.16 320.779 31.8C320.779 32.4133 320.725 32.9467 320.619 33.4H317.419C317.312 32.9467 317.259 32.4133 317.259 31.8C317.259 31.16 317.312 30.6267 317.419 30.2H312.619C312.725 30.6267 312.779 31.16 312.779 31.8C312.779 32.4133 312.725 32.9467 312.619 33.4H311.019C311.125 33.8267 311.179 34.36 311.179 35C311.179 35.6133 311.125 36.1467 311.019 36.6H312.619C312.725 37.0267 312.779 37.56 312.779 38.2C312.779 38.8133 312.725 39.3467 312.619 39.8H317.419C317.312 39.3467 317.259 38.8133 317.259 38.2C317.259 37.56 317.312 37.0267 317.419 36.6H320.619ZM328.394 38.2C328.394 38.8133 328.341 39.3467 328.234 39.8H332.234C332.341 40.2267 332.394 40.76 332.394 41.4C332.394 42.0133 332.341 42.5467 332.234 43H325.834C325.728 42.5467 325.674 42.0133 325.674 41.4C325.674 40.76 325.728 40.2267 325.834 39.8H323.834C323.728 39.3467 323.674 38.8133 323.674 38.2C323.674 37.56 323.728 37.0267 323.834 36.6C323.728 36.1467 323.674 35.6133 323.674 35C323.674 34.36 323.728 33.8267 323.834 33.4C323.728 32.9467 323.674 32.4133 323.674 31.8C323.674 31.16 323.728 30.6267 323.834 30.2C323.728 29.7467 323.674 29.2133 323.674 28.6C323.674 27.96 323.728 27.4267 323.834 27H327.034C327.141 27.4267 327.194 27.96 327.194 28.6C327.194 29.2133 327.141 29.7467 327.034 30.2C327.141 30.6267 327.194 31.16 327.194 31.8C327.194 32.4133 327.141 32.9467 327.034 33.4C327.141 33.8267 327.194 34.36 327.194 35C327.194 35.6133 327.141 36.1467 327.034 36.6H328.234C328.341 37.0267 328.394 37.56 328.394 38.2ZM336.634 30.2C336.741 30.6267 336.794 31.16 336.794 31.8C336.794 32.4133 336.741 32.9467 336.634 33.4C336.741 33.8267 336.794 34.36 336.794 35C336.794 35.6133 336.741 36.1467 336.634 36.6C336.741 37.0267 336.794 37.56 336.794 38.2C336.794 38.8133 336.741 39.3467 336.634 39.8C336.741 40.2267 336.794 40.76 336.794 41.4C336.794 42.0133 336.741 42.5467 336.634 43H333.434C333.328 42.5467 333.274 42.0133 333.274 41.4C333.274 40.76 333.328 40.2267 333.434 39.8H332.234C332.128 39.3467 332.074 38.8133 332.074 38.2C332.074 37.56 332.128 37.0267 332.234 36.6H333.434C333.328 36.1467 333.274 35.6133 333.274 35C333.274 34.36 333.328 33.8267 333.434 33.4C333.328 32.9467 333.274 32.4133 333.274 31.8C333.274 31.16 333.328 30.6267 333.434 30.2C333.328 29.7467 333.274 29.2133 333.274 28.6C333.274 27.96 333.328 27.4267 333.434 27H336.634C336.741 27.4267 336.794 27.96 336.794 28.6C336.794 29.2133 336.741 29.7467 336.634 30.2ZM352.65 30.2C352.757 30.6267 352.81 31.16 352.81 31.8C352.81 32.4133 352.757 32.9467 352.65 33.4H349.45C349.343 32.9467 349.29 32.4133 349.29 31.8C349.29 31.16 349.343 30.6267 349.45 30.2H346.65C346.757 30.6267 346.81 31.16 346.81 31.8C346.81 32.4133 346.757 32.9467 346.65 33.4H345.45C345.557 33.8267 345.61 34.36 345.61 35C345.61 35.6133 345.557 36.1467 345.45 36.6C345.557 37.0267 345.61 37.56 345.61 38.2C345.61 38.8133 345.557 39.3467 345.45 39.8H347.85C347.957 40.2267 348.01 40.76 348.01 41.4C348.01 42.0133 347.957 42.5467 347.85 43H339.85C339.743 42.5467 339.69 42.0133 339.69 41.4C339.69 40.76 339.743 40.2267 339.85 39.8H342.25C342.143 39.3467 342.09 38.8133 342.09 38.2C342.09 37.56 342.143 37.0267 342.25 36.6C342.143 36.1467 342.09 35.6133 342.09 35C342.09 34.36 342.143 33.8267 342.25 33.4C342.143 32.9467 342.09 32.4133 342.09 31.8C342.09 31.16 342.143 30.6267 342.25 30.2H339.85C339.743 29.7467 339.69 29.2133 339.69 28.6C339.69 27.96 339.743 27.4267 339.85 27H343.85C343.957 27.4267 344.01 27.96 344.01 28.6C344.01 29.2133 343.957 29.7467 343.85 30.2H345.45C345.343 29.7467 345.29 29.2133 345.29 28.6C345.29 27.96 345.343 27.4267 345.45 27H351.45C351.557 27.4267 351.61 27.96 351.61 28.6C351.61 29.2133 351.557 29.7467 351.45 30.2H352.65ZM368.666 30.2C368.772 30.6267 368.826 31.16 368.826 31.8C368.826 32.4133 368.772 32.9467 368.666 33.4H365.466C365.359 32.9467 365.306 32.4133 365.306 31.8C365.306 31.16 365.359 30.6267 365.466 30.2H362.666C362.772 30.6267 362.826 31.16 362.826 31.8C362.826 32.4133 362.772 32.9467 362.666 33.4H361.466C361.572 33.8267 361.626 34.36 361.626 35C361.626 35.6133 361.572 36.1467 361.466 36.6C361.572 37.0267 361.626 37.56 361.626 38.2C361.626 38.8133 361.572 39.3467 361.466 39.8H363.866C363.972 40.2267 364.026 40.76 364.026 41.4C364.026 42.0133 363.972 42.5467 363.866 43H355.866C355.759 42.5467 355.706 42.0133 355.706 41.4C355.706 40.76 355.759 40.2267 355.866 39.8H358.266C358.159 39.3467 358.106 38.8133 358.106 38.2C358.106 37.56 358.159 37.0267 358.266 36.6C358.159 36.1467 358.106 35.6133 358.106 35C358.106 34.36 358.159 33.8267 358.266 33.4C358.159 32.9467 358.106 32.4133 358.106 31.8C358.106 31.16 358.159 30.6267 358.266 30.2H355.866C355.759 29.7467 355.706 29.2133 355.706 28.6C355.706 27.96 355.759 27.4267 355.866 27H359.866C359.972 27.4267 360.026 27.96 360.026 28.6C360.026 29.2133 359.972 29.7467 359.866 30.2H361.466C361.359 29.7467 361.306 29.2133 361.306 28.6C361.306 27.96 361.359 27.4267 361.466 27H367.466C367.572 27.4267 367.626 27.96 367.626 28.6C367.626 29.2133 367.572 29.7467 367.466 30.2H368.666ZM384.841 31.8C384.841 32.4133 384.788 32.9467 384.681 33.4C384.788 33.8267 384.841 34.36 384.841 35C384.841 35.6133 384.788 36.1467 384.681 36.6H376.281C376.388 37.0267 376.441 37.56 376.441 38.2C376.441 38.8133 376.388 39.3467 376.281 39.8H383.081C383.188 40.2267 383.241 40.76 383.241 41.4C383.241 42.0133 383.188 42.5467 383.081 43H375.081C374.975 42.5467 374.921 42.0133 374.921 41.4C374.921 40.76 374.975 40.2267 375.081 39.8H373.081C372.975 39.3467 372.921 38.8133 372.921 38.2C372.921 37.56 372.975 37.0267 373.081 36.6H371.881C371.775 36.1467 371.721 35.6133 371.721 35C371.721 34.36 371.775 33.8267 371.881 33.4H373.081C372.975 32.9467 372.921 32.4133 372.921 31.8C372.921 31.16 372.975 30.6267 373.081 30.2H375.081C374.975 29.7467 374.921 29.2133 374.921 28.6C374.921 27.96 374.975 27.4267 375.081 27H383.081C383.188 27.4267 383.241 27.96 383.241 28.6C383.241 29.2133 383.188 29.7467 383.081 30.2H384.681C384.788 30.6267 384.841 31.16 384.841 31.8ZM381.481 33.4C381.375 32.9467 381.321 32.4133 381.321 31.8C381.321 31.16 381.375 30.6267 381.481 30.2H376.281C376.388 30.6267 376.441 31.16 376.441 31.8C376.441 32.4133 376.388 32.9467 376.281 33.4H381.481ZM390.857 28.6C390.857 29.2133 390.804 29.7467 390.697 30.2H392.297C392.404 30.6267 392.457 31.16 392.457 31.8C392.457 32.4133 392.404 32.9467 392.297 33.4H391.097C391.204 33.8267 391.257 34.36 391.257 35C391.257 35.6133 391.204 36.1467 391.097 36.6C391.204 37.0267 391.257 37.56 391.257 38.2C391.257 38.8133 391.204 39.3467 391.097 39.8C391.204 40.2267 391.257 40.76 391.257 41.4C391.257 42.0133 391.204 42.5467 391.097 43H387.897C387.79 42.5467 387.737 42.0133 387.737 41.4C387.737 40.76 387.79 40.2267 387.897 39.8C387.79 39.3467 387.737 38.8133 387.737 38.2C387.737 37.56 387.79 37.0267 387.897 36.6C387.79 36.1467 387.737 35.6133 387.737 35C387.737 34.36 387.79 33.8267 387.897 33.4C387.79 32.9467 387.737 32.4133 387.737 31.8C387.737 31.16 387.79 30.6267 387.897 30.2C387.79 29.7467 387.737 29.2133 387.737 28.6C387.737 27.96 387.79 27.4267 387.897 27H390.697C390.804 27.4267 390.857 27.96 390.857 28.6ZM400.697 33.4C400.804 33.8267 400.857 34.36 400.857 35C400.857 35.6133 400.804 36.1467 400.697 36.6C400.804 37.0267 400.857 37.56 400.857 38.2C400.857 38.8133 400.804 39.3467 400.697 39.8C400.804 40.2267 400.857 40.76 400.857 41.4C400.857 42.0133 400.804 42.5467 400.697 43H397.497C397.39 42.5467 397.337 42.0133 397.337 41.4C397.337 40.76 397.39 40.2267 397.497 39.8C397.39 39.3467 397.337 38.8133 397.337 38.2C397.337 37.56 397.39 37.0267 397.497 36.6C397.39 36.1467 397.337 35.6133 397.337 35C397.337 34.36 397.39 33.8267 397.497 33.4C397.39 32.9467 397.337 32.4133 397.337 31.8C397.337 31.16 397.39 30.6267 397.497 30.2H392.297C392.19 29.7467 392.137 29.2133 392.137 28.6C392.137 27.96 392.19 27.4267 392.297 27H398.697C398.804 27.4267 398.857 27.96 398.857 28.6C398.857 29.2133 398.804 29.7467 398.697 30.2H400.697C400.804 30.6267 400.857 31.16 400.857 31.8C400.857 32.4133 400.804 32.9467 400.697 33.4ZM416.713 36.6C416.819 37.0267 416.873 37.56 416.873 38.2C416.873 38.8133 416.819 39.3467 416.713 39.8H415.113C415.219 40.2267 415.273 40.76 415.273 41.4C415.273 42.0133 415.219 42.5467 415.113 43H407.113C407.006 42.5467 406.953 42.0133 406.953 41.4C406.953 40.76 407.006 40.2267 407.113 39.8H405.513C405.406 39.3467 405.353 38.8133 405.353 38.2C405.353 37.56 405.406 37.0267 405.513 36.6H403.913C403.806 36.1467 403.753 35.6133 403.753 35C403.753 34.36 403.806 33.8267 403.913 33.4H405.513C405.406 32.9467 405.353 32.4133 405.353 31.8C405.353 31.16 405.406 30.6267 405.513 30.2H407.113C407.006 29.7467 406.953 29.2133 406.953 28.6C406.953 27.96 407.006 27.4267 407.113 27H415.113C415.219 27.4267 415.273 27.96 415.273 28.6C415.273 29.2133 415.219 29.7467 415.113 30.2H416.713C416.819 30.6267 416.873 31.16 416.873 31.8C416.873 32.4133 416.819 32.9467 416.713 33.4H413.513C413.406 32.9467 413.353 32.4133 413.353 31.8C413.353 31.16 413.406 30.6267 413.513 30.2H408.713C408.819 30.6267 408.873 31.16 408.873 31.8C408.873 32.4133 408.819 32.9467 408.713 33.4H407.113C407.219 33.8267 407.273 34.36 407.273 35C407.273 35.6133 407.219 36.1467 407.113 36.6H408.713C408.819 37.0267 408.873 37.56 408.873 38.2C408.873 38.8133 408.819 39.3467 408.713 39.8H413.513C413.406 39.3467 413.353 38.8133 413.353 38.2C413.353 37.56 413.406 37.0267 413.513 36.6H416.713ZM432.888 28.6C432.888 29.2133 432.835 29.7467 432.728 30.2H431.528C431.635 30.6267 431.688 31.16 431.688 31.8C431.688 32.4133 431.635 32.9467 431.528 33.4H430.328C430.435 33.8267 430.488 34.36 430.488 35C430.488 35.6133 430.435 36.1467 430.328 36.6H429.528C429.635 37.0267 429.688 37.56 429.688 38.2C429.688 38.8133 429.635 39.3467 429.528 39.8H428.328C428.435 40.2267 428.488 40.76 428.488 41.4C428.488 42.0133 428.435 42.5467 428.328 43H427.528C427.635 43.4267 427.688 43.96 427.688 44.6C427.688 45.2133 427.635 45.7467 427.528 46.2H425.928C426.035 46.6267 426.088 47.16 426.088 47.8C426.088 48.4133 426.035 48.9467 425.928 49.4H421.128C421.021 48.9467 420.968 48.4133 420.968 47.8C420.968 47.16 421.021 46.6267 421.128 46.2H424.328C424.221 45.7467 424.168 45.2133 424.168 44.6C424.168 43.96 424.221 43.4267 424.328 43C424.221 42.5467 424.168 42.0133 424.168 41.4C424.168 40.76 424.221 40.2267 424.328 39.8H422.728C422.621 39.3467 422.568 38.8133 422.568 38.2C422.568 37.56 422.621 37.0267 422.728 36.6H421.928C421.821 36.1467 421.768 35.6133 421.768 35C421.768 34.36 421.821 33.8267 421.928 33.4H420.728C420.621 32.9467 420.568 32.4133 420.568 31.8C420.568 31.16 420.621 30.6267 420.728 30.2H419.528C419.421 29.7467 419.368 29.2133 419.368 28.6C419.368 27.96 419.421 27.4267 419.528 27H422.728C422.835 27.4267 422.888 27.96 422.888 28.6C422.888 29.2133 422.835 29.7467 422.728 30.2H423.928C424.035 30.6267 424.088 31.16 424.088 31.8C424.088 32.4133 424.035 32.9467 423.928 33.4H425.128C425.235 33.8267 425.288 34.36 425.288 35C425.288 35.6133 425.235 36.1467 425.128 36.6C425.235 37.0267 425.288 37.56 425.288 38.2C425.288 38.8133 425.235 39.3467 425.128 39.8H426.328C426.221 39.3467 426.168 38.8133 426.168 38.2C426.168 37.56 426.221 37.0267 426.328 36.6H427.128C427.021 36.1467 426.968 35.6133 426.968 35C426.968 34.36 427.021 33.8267 427.128 33.4H428.328C428.221 32.9467 428.168 32.4133 428.168 31.8C428.168 31.16 428.221 30.6267 428.328 30.2H429.528C429.421 29.7467 429.368 29.2133 429.368 28.6C429.368 27.96 429.421 27.4267 429.528 27H432.728C432.835 27.4267 432.888 27.96 432.888 28.6ZM448.104 25.4C448.104 26.0133 448.05 26.5467 447.944 27C448.05 27.4267 448.104 27.96 448.104 28.6C448.104 29.2133 448.05 29.7467 447.944 30.2H445.944C446.05 30.6267 446.104 31.16 446.104 31.8C446.104 32.4133 446.05 32.9467 445.944 33.4H443.944C444.05 33.8267 444.104 34.36 444.104 35C444.104 35.6133 444.05 36.1467 443.944 36.6H440.744C440.637 36.1467 440.584 35.6133 440.584 35C440.584 34.36 440.637 33.8267 440.744 33.4H442.744C442.637 32.9467 442.584 32.4133 442.584 31.8C442.584 31.16 442.637 30.6267 442.744 30.2H444.744C444.637 29.7467 444.584 29.2133 444.584 28.6C444.584 27.96 444.637 27.4267 444.744 27C444.637 26.5467 444.584 26.0133 444.584 25.4C444.584 24.76 444.637 24.2267 444.744 23.8H439.144C439.25 24.2267 439.304 24.76 439.304 25.4C439.304 26.0133 439.25 26.5467 439.144 27H435.944C435.837 26.5467 435.784 26.0133 435.784 25.4C435.784 24.76 435.837 24.2267 435.944 23.8H438.344C438.237 23.3467 438.184 22.8133 438.184 22.2C438.184 21.56 438.237 21.0267 438.344 20.6H446.344C446.45 21.0267 446.504 21.56 446.504 22.2C446.504 22.8133 446.45 23.3467 446.344 23.8H447.944C448.05 24.2267 448.104 24.76 448.104 25.4ZM443.944 39.8C444.05 40.2267 444.104 40.76 444.104 41.4C444.104 42.0133 444.05 42.5467 443.944 43H440.744C440.637 42.5467 440.584 42.0133 440.584 41.4C440.584 40.76 440.637 40.2267 440.744 39.8H443.944Z" fill="black"/>
<line x1="93.5563" y1="59.1338" x2="426.835" y2="59.1338" stroke="black" stroke-width="8"/>
<line x1="428.688" y1="6.96698" x2="455.887" y2="6.96698" stroke="black" stroke-width="10"/>
<line x1="69.2715" y1="8.98669" x2="96.4706" y2="8.98669" stroke="black" stroke-width="10"/>
<line x1="66.3572" y1="54.0943" x2="93.5563" y2="54.0943" stroke="black" stroke-width="10"/>
<line x1="426.745" y1="53.421" x2="453.944" y2="53.421" stroke="black" stroke-width="10"/>
<line x1="453.944" y1="11.3333" x2="481.143" y2="11.3333" stroke="black" stroke-width="8"/>
<line x1="451.03" y1="47.6886" x2="478.229" y2="47.6886" stroke="black" stroke-width="8"/>
<line x1="482" y1="46.983" x2="482" y2="15.3332" stroke="black" stroke-width="8"/>
<line x1="65.2715" y1="53.7083" x2="65.2715" y2="13.3135" stroke="black" stroke-width="8"/>
<rect x="30.5014" y="60.0746" width="13.4279" height="7.46495" fill="white" stroke="black" stroke-width="6"/>
<rect x="3.30237" y="73.5395" width="13.4279" height="7.46495" fill="white" stroke="black" stroke-width="6"/>
</svg>
