<svg width="554" height="103" viewBox="0 0 554 103" fill="none" xmlns="http://www.w3.org/2000/svg">
<rect x="499" y="92" width="13.4279" height="7.46495" fill="white" stroke="black" stroke-width="6"/>
<line x1="457.745" y1="94.5736" x2="92.7238" y2="94.5736" stroke="black" stroke-width="8"/>
<line x1="459.82" y1="4" x2="94.7993" y2="4" stroke="black" stroke-width="8"/>
<line x1="92.7708" y1="89.0567" x2="62.9812" y2="89.0567" stroke="black" stroke-width="10"/>
<line x1="486.418" y1="85.7387" x2="456.628" y2="85.7387" stroke="black" stroke-width="10"/>
<line x1="489.61" y1="11.636" x2="459.82" y2="11.636" stroke="black" stroke-width="10"/>
<line x1="94.8986" y1="12.742" x2="65.109" y2="12.742" stroke="black" stroke-width="10"/>
<line x1="65.1091" y1="82.5267" x2="35.3195" y2="82.5267" stroke="black" stroke-width="8"/>
<line x1="68.3009" y1="22.8021" x2="38.5114" y2="22.8021" stroke="black" stroke-width="8"/>
<line x1="34" y1="26.5325" x2="34" y2="78.5267" stroke="black" stroke-width="8"/>
<line x1="490.418" y1="15.484" x2="490.418" y2="81.8447" stroke="black" stroke-width="8"/>
<path d="M107.22 23.8C107.327 24.2267 107.38 24.76 107.38 25.4C107.38 26.0133 107.327 26.5467 107.22 27C107.327 27.4267 107.38 27.96 107.38 28.6C107.38 29.2133 107.327 29.7467 107.22 30.2C107.327 30.6267 107.38 31.16 107.38 31.8C107.38 32.4133 107.327 32.9467 107.22 33.4H106.02C106.127 33.8267 106.18 34.36 106.18 35C106.18 35.6133 106.127 36.1467 106.02 36.6C106.127 37.0267 106.18 37.56 106.18 38.2C106.18 38.8133 106.127 39.3467 106.02 39.8H105.22C105.327 40.2267 105.38 40.76 105.38 41.4C105.38 42.0133 105.327 42.5467 105.22 43H102.82C102.714 42.5467 102.66 42.0133 102.66 41.4C102.66 40.76 102.714 40.2267 102.82 39.8H102.02C101.914 39.3467 101.86 38.8133 101.86 38.2C101.86 37.56 101.914 37.0267 102.02 36.6H99.6203C99.727 37.0267 99.7803 37.56 99.7803 38.2C99.7803 38.8133 99.727 39.3467 99.6203 39.8H98.8203C98.927 40.2267 98.9803 40.76 98.9803 41.4C98.9803 42.0133 98.927 42.5467 98.8203 43H96.4203C96.3136 42.5467 96.2603 42.0133 96.2603 41.4C96.2603 40.76 96.3136 40.2267 96.4203 39.8H95.6203C95.5136 39.3467 95.4603 38.8133 95.4603 38.2C95.4603 37.56 95.5136 37.0267 95.6203 36.6C95.5136 36.1467 95.4603 35.6133 95.4603 35C95.4603 34.36 95.5136 33.8267 95.6203 33.4H94.4203C94.3136 32.9467 94.2603 32.4133 94.2603 31.8C94.2603 31.16 94.3136 30.6267 94.4203 30.2C94.3136 29.7467 94.2603 29.2133 94.2603 28.6C94.2603 27.96 94.3136 27.4267 94.4203 27C94.3136 26.5467 94.2603 26.0133 94.2603 25.4C94.2603 24.76 94.3136 24.2267 94.4203 23.8C94.3136 23.3467 94.2603 22.8133 94.2603 22.2C94.2603 21.56 94.3136 21.0267 94.4203 20.6H97.6203C97.727 21.0267 97.7803 21.56 97.7803 22.2C97.7803 22.8133 97.727 23.3467 97.6203 23.8C97.727 24.2267 97.7803 24.76 97.7803 25.4C97.7803 26.0133 97.727 26.5467 97.6203 27C97.727 27.4267 97.7803 27.96 97.7803 28.6C97.7803 29.2133 97.727 29.7467 97.6203 30.2C97.727 30.6267 97.7803 31.16 97.7803 31.8C97.7803 32.4133 97.727 32.9467 97.6203 33.4C97.727 33.8267 97.7803 34.36 97.7803 35C97.7803 35.6133 97.727 36.1467 97.6203 36.6H98.8203C98.7136 36.1467 98.6603 35.6133 98.6603 35C98.6603 34.36 98.7136 33.8267 98.8203 33.4H99.6203C99.5136 32.9467 99.4603 32.4133 99.4603 31.8C99.4603 31.16 99.5136 30.6267 99.6203 30.2C99.5136 29.7467 99.4603 29.2133 99.4603 28.6C99.4603 27.96 99.5136 27.4267 99.6203 27C99.5136 26.5467 99.4603 26.0133 99.4603 25.4C99.4603 24.76 99.5136 24.2267 99.6203 23.8C99.5136 23.3467 99.4603 22.8133 99.4603 22.2C99.4603 21.56 99.5136 21.0267 99.6203 20.6H102.02C102.127 21.0267 102.18 21.56 102.18 22.2C102.18 22.8133 102.127 23.3467 102.02 23.8C102.127 24.2267 102.18 24.76 102.18 25.4C102.18 26.0133 102.127 26.5467 102.02 27C102.127 27.4267 102.18 27.96 102.18 28.6C102.18 29.2133 102.127 29.7467 102.02 30.2C102.127 30.6267 102.18 31.16 102.18 31.8C102.18 32.4133 102.127 32.9467 102.02 33.4H102.82C102.927 33.8267 102.98 34.36 102.98 35C102.98 35.6133 102.927 36.1467 102.82 36.6H104.02C103.914 36.1467 103.86 35.6133 103.86 35C103.86 34.36 103.914 33.8267 104.02 33.4C103.914 32.9467 103.86 32.4133 103.86 31.8C103.86 31.16 103.914 30.6267 104.02 30.2C103.914 29.7467 103.86 29.2133 103.86 28.6C103.86 27.96 103.914 27.4267 104.02 27C103.914 26.5467 103.86 26.0133 103.86 25.4C103.86 24.76 103.914 24.2267 104.02 23.8C103.914 23.3467 103.86 22.8133 103.86 22.2C103.86 21.56 103.914 21.0267 104.02 20.6H107.22C107.327 21.0267 107.38 21.56 107.38 22.2C107.38 22.8133 107.327 23.3467 107.22 23.8ZM113.796 28.6C113.796 29.2133 113.743 29.7467 113.636 30.2H114.836C114.943 30.6267 114.996 31.16 114.996 31.8C114.996 32.4133 114.943 32.9467 114.836 33.4H113.636C113.743 33.8267 113.796 34.36 113.796 35C113.796 35.6133 113.743 36.1467 113.636 36.6C113.743 37.0267 113.796 37.56 113.796 38.2C113.796 38.8133 113.743 39.3467 113.636 39.8C113.743 40.2267 113.796 40.76 113.796 41.4C113.796 42.0133 113.743 42.5467 113.636 43H110.436C110.329 42.5467 110.276 42.0133 110.276 41.4C110.276 40.76 110.329 40.2267 110.436 39.8C110.329 39.3467 110.276 38.8133 110.276 38.2C110.276 37.56 110.329 37.0267 110.436 36.6C110.329 36.1467 110.276 35.6133 110.276 35C110.276 34.36 110.329 33.8267 110.436 33.4C110.329 32.9467 110.276 32.4133 110.276 31.8C110.276 31.16 110.329 30.6267 110.436 30.2C110.329 29.7467 110.276 29.2133 110.276 28.6C110.276 27.96 110.329 27.4267 110.436 27C110.329 26.5467 110.276 26.0133 110.276 25.4C110.276 24.76 110.329 24.2267 110.436 23.8C110.329 23.3467 110.276 22.8133 110.276 22.2C110.276 21.56 110.329 21.0267 110.436 20.6H113.636C113.743 21.0267 113.796 21.56 113.796 22.2C113.796 22.8133 113.743 23.3467 113.636 23.8C113.743 24.2267 113.796 24.76 113.796 25.4C113.796 26.0133 113.743 26.5467 113.636 27C113.743 27.4267 113.796 27.96 113.796 28.6ZM123.236 33.4C123.343 33.8267 123.396 34.36 123.396 35C123.396 35.6133 123.343 36.1467 123.236 36.6C123.343 37.0267 123.396 37.56 123.396 38.2C123.396 38.8133 123.343 39.3467 123.236 39.8C123.343 40.2267 123.396 40.76 123.396 41.4C123.396 42.0133 123.343 42.5467 123.236 43H120.036C119.929 42.5467 119.876 42.0133 119.876 41.4C119.876 40.76 119.929 40.2267 120.036 39.8C119.929 39.3467 119.876 38.8133 119.876 38.2C119.876 37.56 119.929 37.0267 120.036 36.6C119.929 36.1467 119.876 35.6133 119.876 35C119.876 34.36 119.929 33.8267 120.036 33.4C119.929 32.9467 119.876 32.4133 119.876 31.8C119.876 31.16 119.929 30.6267 120.036 30.2H114.836C114.729 29.7467 114.676 29.2133 114.676 28.6C114.676 27.96 114.729 27.4267 114.836 27H121.236C121.343 27.4267 121.396 27.96 121.396 28.6C121.396 29.2133 121.343 29.7467 121.236 30.2H123.236C123.343 30.6267 123.396 31.16 123.396 31.8C123.396 32.4133 123.343 32.9467 123.236 33.4ZM139.252 39.8C139.358 40.2267 139.412 40.76 139.412 41.4C139.412 42.0133 139.358 42.5467 139.252 43H136.052C135.945 42.5467 135.892 42.0133 135.892 41.4C135.892 40.76 135.945 40.2267 136.052 39.8H134.452C134.345 39.3467 134.292 38.8133 134.292 38.2C134.292 37.56 134.345 37.0267 134.452 36.6H129.652C129.758 37.0267 129.812 37.56 129.812 38.2C129.812 38.8133 129.758 39.3467 129.652 39.8H134.452C134.558 40.2267 134.612 40.76 134.612 41.4C134.612 42.0133 134.558 42.5467 134.452 43H128.052C127.945 42.5467 127.892 42.0133 127.892 41.4C127.892 40.76 127.945 40.2267 128.052 39.8H126.452C126.345 39.3467 126.292 38.8133 126.292 38.2C126.292 37.56 126.345 37.0267 126.452 36.6H128.052C127.945 36.1467 127.892 35.6133 127.892 35C127.892 34.36 127.945 33.8267 128.052 33.4H134.452C134.345 32.9467 134.292 32.4133 134.292 31.8C134.292 31.16 134.345 30.6267 134.452 30.2H128.852C128.745 29.7467 128.692 29.2133 128.692 28.6C128.692 27.96 128.745 27.4267 128.852 27H136.052C136.158 27.4267 136.212 27.96 136.212 28.6C136.212 29.2133 136.158 29.7467 136.052 30.2H137.652C137.758 30.6267 137.812 31.16 137.812 31.8C137.812 32.4133 137.758 32.9467 137.652 33.4C137.758 33.8267 137.812 34.36 137.812 35C137.812 35.6133 137.758 36.1467 137.652 36.6C137.758 37.0267 137.812 37.56 137.812 38.2C137.812 38.8133 137.758 39.3467 137.652 39.8H139.252ZM153.667 39.8C153.774 40.2267 153.827 40.76 153.827 41.4C153.827 42.0133 153.774 42.5467 153.667 43H147.267C147.161 42.5467 147.107 42.0133 147.107 41.4C147.107 40.76 147.161 40.2267 147.267 39.8H145.667C145.561 39.3467 145.507 38.8133 145.507 38.2C145.507 37.56 145.561 37.0267 145.667 36.6C145.561 36.1467 145.507 35.6133 145.507 35C145.507 34.36 145.561 33.8267 145.667 33.4C145.561 32.9467 145.507 32.4133 145.507 31.8C145.507 31.16 145.561 30.6267 145.667 30.2H142.467C142.361 29.7467 142.307 29.2133 142.307 28.6C142.307 27.96 142.361 27.4267 142.467 27H145.667C145.561 26.5467 145.507 26.0133 145.507 25.4C145.507 24.76 145.561 24.2267 145.667 23.8C145.561 23.3467 145.507 22.8133 145.507 22.2C145.507 21.56 145.561 21.0267 145.667 20.6H148.867C148.974 21.0267 149.027 21.56 149.027 22.2C149.027 22.8133 148.974 23.3467 148.867 23.8C148.974 24.2267 149.027 24.76 149.027 25.4C149.027 26.0133 148.974 26.5467 148.867 27H153.667C153.774 27.4267 153.827 27.96 153.827 28.6C153.827 29.2133 153.774 29.7467 153.667 30.2H148.867C148.974 30.6267 149.027 31.16 149.027 31.8C149.027 32.4133 148.974 32.9467 148.867 33.4C148.974 33.8267 149.027 34.36 149.027 35C149.027 35.6133 148.974 36.1467 148.867 36.6C148.974 37.0267 149.027 37.56 149.027 38.2C149.027 38.8133 148.974 39.3467 148.867 39.8H153.667ZM187.298 39.8C187.405 40.2267 187.458 40.76 187.458 41.4C187.458 42.0133 187.405 42.5467 187.298 43H184.098C183.992 42.5467 183.938 42.0133 183.938 41.4C183.938 40.76 183.992 40.2267 184.098 39.8H182.498C182.392 39.3467 182.338 38.8133 182.338 38.2C182.338 37.56 182.392 37.0267 182.498 36.6H177.698C177.805 37.0267 177.858 37.56 177.858 38.2C177.858 38.8133 177.805 39.3467 177.698 39.8H182.498C182.605 40.2267 182.658 40.76 182.658 41.4C182.658 42.0133 182.605 42.5467 182.498 43H176.098C175.992 42.5467 175.938 42.0133 175.938 41.4C175.938 40.76 175.992 40.2267 176.098 39.8H174.498C174.392 39.3467 174.338 38.8133 174.338 38.2C174.338 37.56 174.392 37.0267 174.498 36.6H176.098C175.992 36.1467 175.938 35.6133 175.938 35C175.938 34.36 175.992 33.8267 176.098 33.4H182.498C182.392 32.9467 182.338 32.4133 182.338 31.8C182.338 31.16 182.392 30.6267 182.498 30.2H176.898C176.792 29.7467 176.738 29.2133 176.738 28.6C176.738 27.96 176.792 27.4267 176.898 27H184.098C184.205 27.4267 184.258 27.96 184.258 28.6C184.258 29.2133 184.205 29.7467 184.098 30.2H185.698C185.805 30.6267 185.858 31.16 185.858 31.8C185.858 32.4133 185.805 32.9467 185.698 33.4C185.805 33.8267 185.858 34.36 185.858 35C185.858 35.6133 185.805 36.1467 185.698 36.6C185.805 37.0267 185.858 37.56 185.858 38.2C185.858 38.8133 185.805 39.3467 185.698 39.8H187.298ZM203.314 30.2C203.421 30.6267 203.474 31.16 203.474 31.8C203.474 32.4133 203.421 32.9467 203.314 33.4H200.114C200.007 32.9467 199.954 32.4133 199.954 31.8C199.954 31.16 200.007 30.6267 200.114 30.2H197.314C197.421 30.6267 197.474 31.16 197.474 31.8C197.474 32.4133 197.421 32.9467 197.314 33.4H196.114C196.221 33.8267 196.274 34.36 196.274 35C196.274 35.6133 196.221 36.1467 196.114 36.6C196.221 37.0267 196.274 37.56 196.274 38.2C196.274 38.8133 196.221 39.3467 196.114 39.8H198.514C198.621 40.2267 198.674 40.76 198.674 41.4C198.674 42.0133 198.621 42.5467 198.514 43H190.514C190.407 42.5467 190.354 42.0133 190.354 41.4C190.354 40.76 190.407 40.2267 190.514 39.8H192.914C192.807 39.3467 192.754 38.8133 192.754 38.2C192.754 37.56 192.807 37.0267 192.914 36.6C192.807 36.1467 192.754 35.6133 192.754 35C192.754 34.36 192.807 33.8267 192.914 33.4C192.807 32.9467 192.754 32.4133 192.754 31.8C192.754 31.16 192.807 30.6267 192.914 30.2H190.514C190.407 29.7467 190.354 29.2133 190.354 28.6C190.354 27.96 190.407 27.4267 190.514 27H194.514C194.621 27.4267 194.674 27.96 194.674 28.6C194.674 29.2133 194.621 29.7467 194.514 30.2H196.114C196.007 29.7467 195.954 29.2133 195.954 28.6C195.954 27.96 196.007 27.4267 196.114 27H202.114C202.221 27.4267 202.274 27.96 202.274 28.6C202.274 29.2133 202.221 29.7467 202.114 30.2H203.314ZM219.49 31.8C219.49 32.4133 219.436 32.9467 219.33 33.4C219.436 33.8267 219.49 34.36 219.49 35C219.49 35.6133 219.436 36.1467 219.33 36.6H210.93C211.036 37.0267 211.09 37.56 211.09 38.2C211.09 38.8133 211.036 39.3467 210.93 39.8H217.73C217.836 40.2267 217.89 40.76 217.89 41.4C217.89 42.0133 217.836 42.5467 217.73 43H209.73C209.623 42.5467 209.57 42.0133 209.57 41.4C209.57 40.76 209.623 40.2267 209.73 39.8H207.73C207.623 39.3467 207.57 38.8133 207.57 38.2C207.57 37.56 207.623 37.0267 207.73 36.6H206.53C206.423 36.1467 206.37 35.6133 206.37 35C206.37 34.36 206.423 33.8267 206.53 33.4H207.73C207.623 32.9467 207.57 32.4133 207.57 31.8C207.57 31.16 207.623 30.6267 207.73 30.2H209.73C209.623 29.7467 209.57 29.2133 209.57 28.6C209.57 27.96 209.623 27.4267 209.73 27H217.73C217.836 27.4267 217.89 27.96 217.89 28.6C217.89 29.2133 217.836 29.7467 217.73 30.2H219.33C219.436 30.6267 219.49 31.16 219.49 31.8ZM216.13 33.4C216.023 32.9467 215.97 32.4133 215.97 31.8C215.97 31.16 216.023 30.6267 216.13 30.2H210.93C211.036 30.6267 211.09 31.16 211.09 31.8C211.09 32.4133 211.036 32.9467 210.93 33.4H216.13ZM249.761 39.8C249.868 40.2267 249.921 40.76 249.921 41.4C249.921 42.0133 249.868 42.5467 249.761 43H243.361C243.254 42.5467 243.201 42.0133 243.201 41.4C243.201 40.76 243.254 40.2267 243.361 39.8H241.761C241.654 39.3467 241.601 38.8133 241.601 38.2C241.601 37.56 241.654 37.0267 241.761 36.6C241.654 36.1467 241.601 35.6133 241.601 35C241.601 34.36 241.654 33.8267 241.761 33.4C241.654 32.9467 241.601 32.4133 241.601 31.8C241.601 31.16 241.654 30.6267 241.761 30.2H238.561C238.454 29.7467 238.401 29.2133 238.401 28.6C238.401 27.96 238.454 27.4267 238.561 27H241.761C241.654 26.5467 241.601 26.0133 241.601 25.4C241.601 24.76 241.654 24.2267 241.761 23.8C241.654 23.3467 241.601 22.8133 241.601 22.2C241.601 21.56 241.654 21.0267 241.761 20.6H244.961C245.068 21.0267 245.121 21.56 245.121 22.2C245.121 22.8133 245.068 23.3467 244.961 23.8C245.068 24.2267 245.121 24.76 245.121 25.4C245.121 26.0133 245.068 26.5467 244.961 27H249.761C249.868 27.4267 249.921 27.96 249.921 28.6C249.921 29.2133 249.868 29.7467 249.761 30.2H244.961C245.068 30.6267 245.121 31.16 245.121 31.8C245.121 32.4133 245.068 32.9467 244.961 33.4C245.068 33.8267 245.121 34.36 245.121 35C245.121 35.6133 245.068 36.1467 244.961 36.6C245.068 37.0267 245.121 37.56 245.121 38.2C245.121 38.8133 245.068 39.3467 244.961 39.8H249.761ZM257.937 28.6C257.937 29.2133 257.883 29.7467 257.777 30.2H258.977C259.083 30.6267 259.137 31.16 259.137 31.8C259.137 32.4133 259.083 32.9467 258.977 33.4H257.777C257.883 33.8267 257.937 34.36 257.937 35C257.937 35.6133 257.883 36.1467 257.777 36.6C257.883 37.0267 257.937 37.56 257.937 38.2C257.937 38.8133 257.883 39.3467 257.777 39.8C257.883 40.2267 257.937 40.76 257.937 41.4C257.937 42.0133 257.883 42.5467 257.777 43H254.577C254.47 42.5467 254.417 42.0133 254.417 41.4C254.417 40.76 254.47 40.2267 254.577 39.8C254.47 39.3467 254.417 38.8133 254.417 38.2C254.417 37.56 254.47 37.0267 254.577 36.6C254.47 36.1467 254.417 35.6133 254.417 35C254.417 34.36 254.47 33.8267 254.577 33.4C254.47 32.9467 254.417 32.4133 254.417 31.8C254.417 31.16 254.47 30.6267 254.577 30.2C254.47 29.7467 254.417 29.2133 254.417 28.6C254.417 27.96 254.47 27.4267 254.577 27C254.47 26.5467 254.417 26.0133 254.417 25.4C254.417 24.76 254.47 24.2267 254.577 23.8C254.47 23.3467 254.417 22.8133 254.417 22.2C254.417 21.56 254.47 21.0267 254.577 20.6H257.777C257.883 21.0267 257.937 21.56 257.937 22.2C257.937 22.8133 257.883 23.3467 257.777 23.8C257.883 24.2267 257.937 24.76 257.937 25.4C257.937 26.0133 257.883 26.5467 257.777 27C257.883 27.4267 257.937 27.96 257.937 28.6ZM267.377 33.4C267.483 33.8267 267.537 34.36 267.537 35C267.537 35.6133 267.483 36.1467 267.377 36.6C267.483 37.0267 267.537 37.56 267.537 38.2C267.537 38.8133 267.483 39.3467 267.377 39.8C267.483 40.2267 267.537 40.76 267.537 41.4C267.537 42.0133 267.483 42.5467 267.377 43H264.177C264.07 42.5467 264.017 42.0133 264.017 41.4C264.017 40.76 264.07 40.2267 264.177 39.8C264.07 39.3467 264.017 38.8133 264.017 38.2C264.017 37.56 264.07 37.0267 264.177 36.6C264.07 36.1467 264.017 35.6133 264.017 35C264.017 34.36 264.07 33.8267 264.177 33.4C264.07 32.9467 264.017 32.4133 264.017 31.8C264.017 31.16 264.07 30.6267 264.177 30.2H258.977C258.87 29.7467 258.817 29.2133 258.817 28.6C258.817 27.96 258.87 27.4267 258.977 27H265.377C265.483 27.4267 265.537 27.96 265.537 28.6C265.537 29.2133 265.483 29.7467 265.377 30.2H267.377C267.483 30.6267 267.537 31.16 267.537 31.8C267.537 32.4133 267.483 32.9467 267.377 33.4ZM283.552 31.8C283.552 32.4133 283.499 32.9467 283.392 33.4C283.499 33.8267 283.552 34.36 283.552 35C283.552 35.6133 283.499 36.1467 283.392 36.6H274.992C275.099 37.0267 275.152 37.56 275.152 38.2C275.152 38.8133 275.099 39.3467 274.992 39.8H281.792C281.899 40.2267 281.952 40.76 281.952 41.4C281.952 42.0133 281.899 42.5467 281.792 43H273.792C273.686 42.5467 273.632 42.0133 273.632 41.4C273.632 40.76 273.686 40.2267 273.792 39.8H271.792C271.686 39.3467 271.632 38.8133 271.632 38.2C271.632 37.56 271.686 37.0267 271.792 36.6H270.592C270.486 36.1467 270.432 35.6133 270.432 35C270.432 34.36 270.486 33.8267 270.592 33.4H271.792C271.686 32.9467 271.632 32.4133 271.632 31.8C271.632 31.16 271.686 30.6267 271.792 30.2H273.792C273.686 29.7467 273.632 29.2133 273.632 28.6C273.632 27.96 273.686 27.4267 273.792 27H281.792C281.899 27.4267 281.952 27.96 281.952 28.6C281.952 29.2133 281.899 29.7467 281.792 30.2H283.392C283.499 30.6267 283.552 31.16 283.552 31.8ZM280.192 33.4C280.086 32.9467 280.032 32.4133 280.032 31.8C280.032 31.16 280.086 30.6267 280.192 30.2H274.992C275.099 30.6267 275.152 31.16 275.152 31.8C275.152 32.4133 275.099 32.9467 274.992 33.4H280.192ZM305.823 36.6C305.93 37.0267 305.983 37.56 305.983 38.2C305.983 38.8133 305.93 39.3467 305.823 39.8H304.223C304.33 40.2267 304.383 40.76 304.383 41.4C304.383 42.0133 304.33 42.5467 304.223 43H302.623C302.517 42.5467 302.463 42.0133 302.463 41.4C302.463 40.76 302.517 40.2267 302.623 39.8C302.517 39.3467 302.463 38.8133 302.463 38.2C302.463 37.56 302.517 37.0267 302.623 36.6C302.517 36.1467 302.463 35.6133 302.463 35C302.463 34.36 302.517 33.8267 302.623 33.4C302.517 32.9467 302.463 32.4133 302.463 31.8C302.463 31.16 302.517 30.6267 302.623 30.2C302.517 29.7467 302.463 29.2133 302.463 28.6C302.463 27.96 302.517 27.4267 302.623 27C302.517 26.5467 302.463 26.0133 302.463 25.4C302.463 24.76 302.517 24.2267 302.623 23.8C302.517 23.3467 302.463 22.8133 302.463 22.2C302.463 21.56 302.517 21.0267 302.623 20.6H305.823C305.93 21.0267 305.983 21.56 305.983 22.2C305.983 22.8133 305.93 23.3467 305.823 23.8C305.93 24.2267 305.983 24.76 305.983 25.4C305.983 26.0133 305.93 26.5467 305.823 27C305.93 27.4267 305.983 27.96 305.983 28.6C305.983 29.2133 305.93 29.7467 305.823 30.2H307.423C307.53 30.6267 307.583 31.16 307.583 31.8C307.583 32.4133 307.53 32.9467 307.423 33.4H305.823C305.93 33.8267 305.983 34.36 305.983 35C305.983 35.6133 305.93 36.1467 305.823 36.6ZM315.583 35C315.583 35.6133 315.53 36.1467 315.423 36.6H313.823C313.93 37.0267 313.983 37.56 313.983 38.2C313.983 38.8133 313.93 39.3467 313.823 39.8H310.623C310.517 39.3467 310.463 38.8133 310.463 38.2C310.463 37.56 310.517 37.0267 310.623 36.6H312.223C312.117 36.1467 312.063 35.6133 312.063 35C312.063 34.36 312.117 33.8267 312.223 33.4H310.623C310.517 32.9467 310.463 32.4133 310.463 31.8C310.463 31.16 310.517 30.6267 310.623 30.2H307.423C307.317 29.7467 307.263 29.2133 307.263 28.6C307.263 27.96 307.317 27.4267 307.423 27H312.223C312.33 27.4267 312.383 27.96 312.383 28.6C312.383 29.2133 312.33 29.7467 312.223 30.2H313.823C313.93 30.6267 313.983 31.16 313.983 31.8C313.983 32.4133 313.93 32.9467 313.823 33.4H315.423C315.53 33.8267 315.583 34.36 315.583 35ZM305.663 41.4C305.663 40.76 305.717 40.2267 305.823 39.8H310.623C310.73 40.2267 310.783 40.76 310.783 41.4C310.783 42.0133 310.73 42.5467 310.623 43H305.823C305.717 42.5467 305.663 42.0133 305.663 41.4ZM331.599 31.8C331.599 32.4133 331.546 32.9467 331.439 33.4C331.546 33.8267 331.599 34.36 331.599 35C331.599 35.6133 331.546 36.1467 331.439 36.6H323.039C323.146 37.0267 323.199 37.56 323.199 38.2C323.199 38.8133 323.146 39.3467 323.039 39.8H329.839C329.946 40.2267 329.999 40.76 329.999 41.4C329.999 42.0133 329.946 42.5467 329.839 43H321.839C321.732 42.5467 321.679 42.0133 321.679 41.4C321.679 40.76 321.732 40.2267 321.839 39.8H319.839C319.732 39.3467 319.679 38.8133 319.679 38.2C319.679 37.56 319.732 37.0267 319.839 36.6H318.639C318.532 36.1467 318.479 35.6133 318.479 35C318.479 34.36 318.532 33.8267 318.639 33.4H319.839C319.732 32.9467 319.679 32.4133 319.679 31.8C319.679 31.16 319.732 30.6267 319.839 30.2H321.839C321.732 29.7467 321.679 29.2133 321.679 28.6C321.679 27.96 321.732 27.4267 321.839 27H329.839C329.946 27.4267 329.999 27.96 329.999 28.6C329.999 29.2133 329.946 29.7467 329.839 30.2H331.439C331.546 30.6267 331.599 31.16 331.599 31.8ZM328.239 33.4C328.132 32.9467 328.079 32.4133 328.079 31.8C328.079 31.16 328.132 30.6267 328.239 30.2H323.039C323.146 30.6267 323.199 31.16 323.199 31.8C323.199 32.4133 323.146 32.9467 323.039 33.4H328.239ZM337.615 28.6C337.615 29.2133 337.561 29.7467 337.455 30.2H339.055C339.161 30.6267 339.215 31.16 339.215 31.8C339.215 32.4133 339.161 32.9467 339.055 33.4H337.855C337.961 33.8267 338.015 34.36 338.015 35C338.015 35.6133 337.961 36.1467 337.855 36.6C337.961 37.0267 338.015 37.56 338.015 38.2C338.015 38.8133 337.961 39.3467 337.855 39.8C337.961 40.2267 338.015 40.76 338.015 41.4C338.015 42.0133 337.961 42.5467 337.855 43H334.655C334.548 42.5467 334.495 42.0133 334.495 41.4C334.495 40.76 334.548 40.2267 334.655 39.8C334.548 39.3467 334.495 38.8133 334.495 38.2C334.495 37.56 334.548 37.0267 334.655 36.6C334.548 36.1467 334.495 35.6133 334.495 35C334.495 34.36 334.548 33.8267 334.655 33.4C334.548 32.9467 334.495 32.4133 334.495 31.8C334.495 31.16 334.548 30.6267 334.655 30.2C334.548 29.7467 334.495 29.2133 334.495 28.6C334.495 27.96 334.548 27.4267 334.655 27H337.455C337.561 27.4267 337.615 27.96 337.615 28.6ZM347.455 33.4C347.561 33.8267 347.615 34.36 347.615 35C347.615 35.6133 347.561 36.1467 347.455 36.6C347.561 37.0267 347.615 37.56 347.615 38.2C347.615 38.8133 347.561 39.3467 347.455 39.8C347.561 40.2267 347.615 40.76 347.615 41.4C347.615 42.0133 347.561 42.5467 347.455 43H344.255C344.148 42.5467 344.095 42.0133 344.095 41.4C344.095 40.76 344.148 40.2267 344.255 39.8C344.148 39.3467 344.095 38.8133 344.095 38.2C344.095 37.56 344.148 37.0267 344.255 36.6C344.148 36.1467 344.095 35.6133 344.095 35C344.095 34.36 344.148 33.8267 344.255 33.4C344.148 32.9467 344.095 32.4133 344.095 31.8C344.095 31.16 344.148 30.6267 344.255 30.2H339.055C338.948 29.7467 338.895 29.2133 338.895 28.6C338.895 27.96 338.948 27.4267 339.055 27H345.455C345.561 27.4267 345.615 27.96 345.615 28.6C345.615 29.2133 345.561 29.7467 345.455 30.2H347.455C347.561 30.6267 347.615 31.16 347.615 31.8C347.615 32.4133 347.561 32.9467 347.455 33.4ZM363.63 31.8C363.63 32.4133 363.577 32.9467 363.47 33.4C363.577 33.8267 363.63 34.36 363.63 35C363.63 35.6133 363.577 36.1467 363.47 36.6H355.07C355.177 37.0267 355.23 37.56 355.23 38.2C355.23 38.8133 355.177 39.3467 355.07 39.8H361.87C361.977 40.2267 362.03 40.76 362.03 41.4C362.03 42.0133 361.977 42.5467 361.87 43H353.87C353.764 42.5467 353.71 42.0133 353.71 41.4C353.71 40.76 353.764 40.2267 353.87 39.8H351.87C351.764 39.3467 351.71 38.8133 351.71 38.2C351.71 37.56 351.764 37.0267 351.87 36.6H350.67C350.564 36.1467 350.51 35.6133 350.51 35C350.51 34.36 350.564 33.8267 350.67 33.4H351.87C351.764 32.9467 351.71 32.4133 351.71 31.8C351.71 31.16 351.764 30.6267 351.87 30.2H353.87C353.764 29.7467 353.71 29.2133 353.71 28.6C353.71 27.96 353.764 27.4267 353.87 27H361.87C361.977 27.4267 362.03 27.96 362.03 28.6C362.03 29.2133 361.977 29.7467 361.87 30.2H363.47C363.577 30.6267 363.63 31.16 363.63 31.8ZM360.27 33.4C360.164 32.9467 360.11 32.4133 360.11 31.8C360.11 31.16 360.164 30.6267 360.27 30.2H355.07C355.177 30.6267 355.23 31.16 355.23 31.8C355.23 32.4133 355.177 32.9467 355.07 33.4H360.27ZM379.486 30.2C379.593 30.6267 379.646 31.16 379.646 31.8C379.646 32.4133 379.593 32.9467 379.486 33.4C379.593 33.8267 379.646 34.36 379.646 35C379.646 35.6133 379.593 36.1467 379.486 36.6C379.593 37.0267 379.646 37.56 379.646 38.2C379.646 38.8133 379.593 39.3467 379.486 39.8C379.593 40.2267 379.646 40.76 379.646 41.4C379.646 42.0133 379.593 42.5467 379.486 43H376.286C376.179 42.5467 376.126 42.0133 376.126 41.4C376.126 40.76 376.179 40.2267 376.286 39.8C376.179 39.3467 376.126 38.8133 376.126 38.2C376.126 37.56 376.179 37.0267 376.286 36.6C376.179 36.1467 376.126 35.6133 376.126 35C376.126 34.36 376.179 33.8267 376.286 33.4C376.179 32.9467 376.126 32.4133 376.126 31.8C376.126 31.16 376.179 30.6267 376.286 30.2H371.486C371.593 30.6267 371.646 31.16 371.646 31.8C371.646 32.4133 371.593 32.9467 371.486 33.4C371.593 33.8267 371.646 34.36 371.646 35C371.646 35.6133 371.593 36.1467 371.486 36.6C371.593 37.0267 371.646 37.56 371.646 38.2C371.646 38.8133 371.593 39.3467 371.486 39.8H373.086C373.193 40.2267 373.246 40.76 373.246 41.4C373.246 42.0133 373.193 42.5467 373.086 43H366.686C366.579 42.5467 366.526 42.0133 366.526 41.4C366.526 40.76 366.579 40.2267 366.686 39.8H368.286C368.179 39.3467 368.126 38.8133 368.126 38.2C368.126 37.56 368.179 37.0267 368.286 36.6C368.179 36.1467 368.126 35.6133 368.126 35C368.126 34.36 368.179 33.8267 368.286 33.4C368.179 32.9467 368.126 32.4133 368.126 31.8C368.126 31.16 368.179 30.6267 368.286 30.2H366.686C366.579 29.7467 366.526 29.2133 366.526 28.6C366.526 27.96 366.579 27.4267 366.686 27H368.286C368.179 26.5467 368.126 26.0133 368.126 25.4C368.126 24.76 368.179 24.2267 368.286 23.8H369.886C369.779 23.3467 369.726 22.8133 369.726 22.2C369.726 21.56 369.779 21.0267 369.886 20.6H376.286C376.393 21.0267 376.446 21.56 376.446 22.2C376.446 22.8133 376.393 23.3467 376.286 23.8H371.486C371.593 24.2267 371.646 24.76 371.646 25.4C371.646 26.0133 371.593 26.5467 371.486 27H379.486C379.593 27.4267 379.646 27.96 379.646 28.6C379.646 29.2133 379.593 29.7467 379.486 30.2ZM393.902 39.8C394.008 40.2267 394.062 40.76 394.062 41.4C394.062 42.0133 394.008 42.5467 393.902 43H387.502C387.395 42.5467 387.342 42.0133 387.342 41.4C387.342 40.76 387.395 40.2267 387.502 39.8H385.902C385.795 39.3467 385.742 38.8133 385.742 38.2C385.742 37.56 385.795 37.0267 385.902 36.6C385.795 36.1467 385.742 35.6133 385.742 35C385.742 34.36 385.795 33.8267 385.902 33.4C385.795 32.9467 385.742 32.4133 385.742 31.8C385.742 31.16 385.795 30.6267 385.902 30.2H382.702C382.595 29.7467 382.542 29.2133 382.542 28.6C382.542 27.96 382.595 27.4267 382.702 27H385.902C385.795 26.5467 385.742 26.0133 385.742 25.4C385.742 24.76 385.795 24.2267 385.902 23.8C385.795 23.3467 385.742 22.8133 385.742 22.2C385.742 21.56 385.795 21.0267 385.902 20.6H389.102C389.208 21.0267 389.262 21.56 389.262 22.2C389.262 22.8133 389.208 23.3467 389.102 23.8C389.208 24.2267 389.262 24.76 389.262 25.4C389.262 26.0133 389.208 26.5467 389.102 27H393.902C394.008 27.4267 394.062 27.96 394.062 28.6C394.062 29.2133 394.008 29.7467 393.902 30.2H389.102C389.208 30.6267 389.262 31.16 389.262 31.8C389.262 32.4133 389.208 32.9467 389.102 33.4C389.208 33.8267 389.262 34.36 389.262 35C389.262 35.6133 389.208 36.1467 389.102 36.6C389.208 37.0267 389.262 37.56 389.262 38.2C389.262 38.8133 389.208 39.3467 389.102 39.8H393.902ZM410.877 38.2C410.877 38.8133 410.824 39.3467 410.717 39.8H409.117C409.224 40.2267 409.277 40.76 409.277 41.4C409.277 42.0133 409.224 42.5467 409.117 43H400.317C400.211 42.5467 400.157 42.0133 400.157 41.4C400.157 40.76 400.211 40.2267 400.317 39.8H407.517C407.411 39.3467 407.357 38.8133 407.357 38.2C407.357 37.56 407.411 37.0267 407.517 36.6H401.117C401.011 36.1467 400.957 35.6133 400.957 35C400.957 34.36 401.011 33.8267 401.117 33.4H399.517C399.411 32.9467 399.357 32.4133 399.357 31.8C399.357 31.16 399.411 30.6267 399.517 30.2H401.117C401.011 29.7467 400.957 29.2133 400.957 28.6C400.957 27.96 401.011 27.4267 401.117 27H409.917C410.024 27.4267 410.077 27.96 410.077 28.6C410.077 29.2133 410.024 29.7467 409.917 30.2H402.717C402.824 30.6267 402.877 31.16 402.877 31.8C402.877 32.4133 402.824 32.9467 402.717 33.4H409.117C409.224 33.8267 409.277 34.36 409.277 35C409.277 35.6133 409.224 36.1467 409.117 36.6H410.717C410.824 37.0267 410.877 37.56 410.877 38.2ZM443.708 35C443.708 35.6133 443.655 36.1467 443.548 36.6H442.348C442.455 37.0267 442.508 37.56 442.508 38.2C442.508 38.8133 442.455 39.3467 442.348 39.8H440.348C440.455 40.2267 440.508 40.76 440.508 41.4C440.508 42.0133 440.455 42.5467 440.348 43H433.948C433.842 42.5467 433.788 42.0133 433.788 41.4C433.788 40.76 433.842 40.2267 433.948 39.8H431.948C431.842 39.3467 431.788 38.8133 431.788 38.2C431.788 37.56 431.842 37.0267 431.948 36.6H430.748C430.642 36.1467 430.588 35.6133 430.588 35C430.588 34.36 430.642 33.8267 430.748 33.4H431.948C431.842 32.9467 431.788 32.4133 431.788 31.8C431.788 31.16 431.842 30.6267 431.948 30.2H433.948C433.842 29.7467 433.788 29.2133 433.788 28.6C433.788 27.96 433.842 27.4267 433.948 27H440.348C440.455 27.4267 440.508 27.96 440.508 28.6C440.508 29.2133 440.455 29.7467 440.348 30.2H442.348C442.455 30.6267 442.508 31.16 442.508 31.8C442.508 32.4133 442.455 32.9467 442.348 33.4H443.548C443.655 33.8267 443.708 34.36 443.708 35ZM440.348 36.6C440.242 36.1467 440.188 35.6133 440.188 35C440.188 34.36 440.242 33.8267 440.348 33.4H439.148C439.042 32.9467 438.988 32.4133 438.988 31.8C438.988 31.16 439.042 30.6267 439.148 30.2H435.148C435.255 30.6267 435.308 31.16 435.308 31.8C435.308 32.4133 435.255 32.9467 435.148 33.4H433.948C434.055 33.8267 434.108 34.36 434.108 35C434.108 35.6133 434.055 36.1467 433.948 36.6H435.148C435.255 37.0267 435.308 37.56 435.308 38.2C435.308 38.8133 435.255 39.3467 435.148 39.8H439.148C439.042 39.3467 438.988 38.8133 438.988 38.2C438.988 37.56 439.042 37.0267 439.148 36.6H440.348ZM457.964 27C458.071 27.4267 458.124 27.96 458.124 28.6C458.124 29.2133 458.071 29.7467 457.964 30.2H453.164C453.271 30.6267 453.324 31.16 453.324 31.8C453.324 32.4133 453.271 32.9467 453.164 33.4C453.271 33.8267 453.324 34.36 453.324 35C453.324 35.6133 453.271 36.1467 453.164 36.6C453.271 37.0267 453.324 37.56 453.324 38.2C453.324 38.8133 453.271 39.3467 453.164 39.8H456.364C456.471 40.2267 456.524 40.76 456.524 41.4C456.524 42.0133 456.471 42.5467 456.364 43H448.364C448.257 42.5467 448.204 42.0133 448.204 41.4C448.204 40.76 448.257 40.2267 448.364 39.8H449.964C449.857 39.3467 449.804 38.8133 449.804 38.2C449.804 37.56 449.857 37.0267 449.964 36.6C449.857 36.1467 449.804 35.6133 449.804 35C449.804 34.36 449.857 33.8267 449.964 33.4C449.857 32.9467 449.804 32.4133 449.804 31.8C449.804 31.16 449.857 30.6267 449.964 30.2H448.364C448.257 29.7467 448.204 29.2133 448.204 28.6C448.204 27.96 448.257 27.4267 448.364 27H449.964C449.857 26.5467 449.804 26.0133 449.804 25.4C449.804 24.76 449.857 24.2267 449.964 23.8H451.564C451.457 23.3467 451.404 22.8133 451.404 22.2C451.404 21.56 451.457 21.0267 451.564 20.6H457.964C458.071 21.0267 458.124 21.56 458.124 22.2C458.124 22.8133 458.071 23.3467 457.964 23.8H453.164C453.271 24.2267 453.324 24.76 453.324 25.4C453.324 26.0133 453.271 26.5467 453.164 27H457.964ZM171.283 76.6C171.389 77.0267 171.443 77.56 171.443 78.2C171.443 78.8133 171.389 79.3467 171.283 79.8H169.683C169.789 80.2267 169.843 80.76 169.843 81.4C169.843 82.0133 169.789 82.5467 169.683 83H161.683C161.576 82.5467 161.523 82.0133 161.523 81.4C161.523 80.76 161.576 80.2267 161.683 79.8H160.083C159.976 79.3467 159.923 78.8133 159.923 78.2C159.923 77.56 159.976 77.0267 160.083 76.6H158.483C158.376 76.1467 158.323 75.6133 158.323 75C158.323 74.36 158.376 73.8267 158.483 73.4H160.083C159.976 72.9467 159.923 72.4133 159.923 71.8C159.923 71.16 159.976 70.6267 160.083 70.2H161.683C161.576 69.7467 161.523 69.2133 161.523 68.6C161.523 67.96 161.576 67.4267 161.683 67H169.683C169.789 67.4267 169.843 67.96 169.843 68.6C169.843 69.2133 169.789 69.7467 169.683 70.2H171.283C171.389 70.6267 171.443 71.16 171.443 71.8C171.443 72.4133 171.389 72.9467 171.283 73.4H168.083C167.976 72.9467 167.923 72.4133 167.923 71.8C167.923 71.16 167.976 70.6267 168.083 70.2H163.283C163.389 70.6267 163.443 71.16 163.443 71.8C163.443 72.4133 163.389 72.9467 163.283 73.4H161.683C161.789 73.8267 161.843 74.36 161.843 75C161.843 75.6133 161.789 76.1467 161.683 76.6H163.283C163.389 77.0267 163.443 77.56 163.443 78.2C163.443 78.8133 163.389 79.3467 163.283 79.8H168.083C167.976 79.3467 167.923 78.8133 167.923 78.2C167.923 77.56 167.976 77.0267 168.083 76.6H171.283ZM187.298 70.2C187.405 70.6267 187.458 71.16 187.458 71.8C187.458 72.4133 187.405 72.9467 187.298 73.4H184.098C183.992 72.9467 183.938 72.4133 183.938 71.8C183.938 71.16 183.992 70.6267 184.098 70.2H181.298C181.405 70.6267 181.458 71.16 181.458 71.8C181.458 72.4133 181.405 72.9467 181.298 73.4H180.098C180.205 73.8267 180.258 74.36 180.258 75C180.258 75.6133 180.205 76.1467 180.098 76.6C180.205 77.0267 180.258 77.56 180.258 78.2C180.258 78.8133 180.205 79.3467 180.098 79.8H182.498C182.605 80.2267 182.658 80.76 182.658 81.4C182.658 82.0133 182.605 82.5467 182.498 83H174.498C174.392 82.5467 174.338 82.0133 174.338 81.4C174.338 80.76 174.392 80.2267 174.498 79.8H176.898C176.792 79.3467 176.738 78.8133 176.738 78.2C176.738 77.56 176.792 77.0267 176.898 76.6C176.792 76.1467 176.738 75.6133 176.738 75C176.738 74.36 176.792 73.8267 176.898 73.4C176.792 72.9467 176.738 72.4133 176.738 71.8C176.738 71.16 176.792 70.6267 176.898 70.2H174.498C174.392 69.7467 174.338 69.2133 174.338 68.6C174.338 67.96 174.392 67.4267 174.498 67H178.498C178.605 67.4267 178.658 67.96 178.658 68.6C178.658 69.2133 178.605 69.7467 178.498 70.2H180.098C179.992 69.7467 179.938 69.2133 179.938 68.6C179.938 67.96 179.992 67.4267 180.098 67H186.098C186.205 67.4267 186.258 67.96 186.258 68.6C186.258 69.2133 186.205 69.7467 186.098 70.2H187.298ZM203.474 68.6C203.474 69.2133 203.421 69.7467 203.314 70.2H202.114C202.221 70.6267 202.274 71.16 202.274 71.8C202.274 72.4133 202.221 72.9467 202.114 73.4H200.914C201.021 73.8267 201.074 74.36 201.074 75C201.074 75.6133 201.021 76.1467 200.914 76.6H200.114C200.221 77.0267 200.274 77.56 200.274 78.2C200.274 78.8133 200.221 79.3467 200.114 79.8H198.914C199.021 80.2267 199.074 80.76 199.074 81.4C199.074 82.0133 199.021 82.5467 198.914 83H198.114C198.221 83.4267 198.274 83.96 198.274 84.6C198.274 85.2133 198.221 85.7467 198.114 86.2H196.514C196.621 86.6267 196.674 87.16 196.674 87.8C196.674 88.4133 196.621 88.9467 196.514 89.4H191.714C191.607 88.9467 191.554 88.4133 191.554 87.8C191.554 87.16 191.607 86.6267 191.714 86.2H194.914C194.807 85.7467 194.754 85.2133 194.754 84.6C194.754 83.96 194.807 83.4267 194.914 83C194.807 82.5467 194.754 82.0133 194.754 81.4C194.754 80.76 194.807 80.2267 194.914 79.8H193.314C193.207 79.3467 193.154 78.8133 193.154 78.2C193.154 77.56 193.207 77.0267 193.314 76.6H192.514C192.407 76.1467 192.354 75.6133 192.354 75C192.354 74.36 192.407 73.8267 192.514 73.4H191.314C191.207 72.9467 191.154 72.4133 191.154 71.8C191.154 71.16 191.207 70.6267 191.314 70.2H190.114C190.007 69.7467 189.954 69.2133 189.954 68.6C189.954 67.96 190.007 67.4267 190.114 67H193.314C193.421 67.4267 193.474 67.96 193.474 68.6C193.474 69.2133 193.421 69.7467 193.314 70.2H194.514C194.621 70.6267 194.674 71.16 194.674 71.8C194.674 72.4133 194.621 72.9467 194.514 73.4H195.714C195.821 73.8267 195.874 74.36 195.874 75C195.874 75.6133 195.821 76.1467 195.714 76.6C195.821 77.0267 195.874 77.56 195.874 78.2C195.874 78.8133 195.821 79.3467 195.714 79.8H196.914C196.807 79.3467 196.754 78.8133 196.754 78.2C196.754 77.56 196.807 77.0267 196.914 76.6H197.714C197.607 76.1467 197.554 75.6133 197.554 75C197.554 74.36 197.607 73.8267 197.714 73.4H198.914C198.807 72.9467 198.754 72.4133 198.754 71.8C198.754 71.16 198.807 70.6267 198.914 70.2H200.114C200.007 69.7467 199.954 69.2133 199.954 68.6C199.954 67.96 200.007 67.4267 200.114 67H203.314C203.421 67.4267 203.474 67.96 203.474 68.6ZM219.49 75C219.49 75.6133 219.436 76.1467 219.33 76.6H217.73C217.836 77.0267 217.89 77.56 217.89 78.2C217.89 78.8133 217.836 79.3467 217.73 79.8H216.13C216.236 80.2267 216.29 80.76 216.29 81.4C216.29 82.0133 216.236 82.5467 216.13 83H209.73C209.836 83.4267 209.89 83.96 209.89 84.6C209.89 85.2133 209.836 85.7467 209.73 86.2C209.836 86.6267 209.89 87.16 209.89 87.8C209.89 88.4133 209.836 88.9467 209.73 89.4H206.53C206.423 88.9467 206.37 88.4133 206.37 87.8C206.37 87.16 206.423 86.6267 206.53 86.2C206.423 85.7467 206.37 85.2133 206.37 84.6C206.37 83.96 206.423 83.4267 206.53 83C206.423 82.5467 206.37 82.0133 206.37 81.4C206.37 80.76 206.423 80.2267 206.53 79.8C206.423 79.3467 206.37 78.8133 206.37 78.2C206.37 77.56 206.423 77.0267 206.53 76.6C206.423 76.1467 206.37 75.6133 206.37 75C206.37 74.36 206.423 73.8267 206.53 73.4C206.423 72.9467 206.37 72.4133 206.37 71.8C206.37 71.16 206.423 70.6267 206.53 70.2C206.423 69.7467 206.37 69.2133 206.37 68.6C206.37 67.96 206.423 67.4267 206.53 67H209.73C209.836 67.4267 209.89 67.96 209.89 68.6C209.89 69.2133 209.836 69.7467 209.73 70.2H211.33C211.436 70.6267 211.49 71.16 211.49 71.8C211.49 72.4133 211.436 72.9467 211.33 73.4H209.73C209.836 73.8267 209.89 74.36 209.89 75C209.89 75.6133 209.836 76.1467 209.73 76.6C209.836 77.0267 209.89 77.56 209.89 78.2C209.89 78.8133 209.836 79.3467 209.73 79.8H214.53C214.423 79.3467 214.37 78.8133 214.37 78.2C214.37 77.56 214.423 77.0267 214.53 76.6H216.13C216.023 76.1467 215.97 75.6133 215.97 75C215.97 74.36 216.023 73.8267 216.13 73.4H214.53C214.423 72.9467 214.37 72.4133 214.37 71.8C214.37 71.16 214.423 70.6267 214.53 70.2H211.33C211.223 69.7467 211.17 69.2133 211.17 68.6C211.17 67.96 211.223 67.4267 211.33 67H216.13C216.236 67.4267 216.29 67.96 216.29 68.6C216.29 69.2133 216.236 69.7467 216.13 70.2H217.73C217.836 70.6267 217.89 71.16 217.89 71.8C217.89 72.4133 217.836 72.9467 217.73 73.4H219.33C219.436 73.8267 219.49 74.36 219.49 75ZM233.745 79.8C233.852 80.2267 233.905 80.76 233.905 81.4C233.905 82.0133 233.852 82.5467 233.745 83H227.345C227.239 82.5467 227.185 82.0133 227.185 81.4C227.185 80.76 227.239 80.2267 227.345 79.8H225.745C225.639 79.3467 225.585 78.8133 225.585 78.2C225.585 77.56 225.639 77.0267 225.745 76.6C225.639 76.1467 225.585 75.6133 225.585 75C225.585 74.36 225.639 73.8267 225.745 73.4C225.639 72.9467 225.585 72.4133 225.585 71.8C225.585 71.16 225.639 70.6267 225.745 70.2H222.545C222.439 69.7467 222.385 69.2133 222.385 68.6C222.385 67.96 222.439 67.4267 222.545 67H225.745C225.639 66.5467 225.585 66.0133 225.585 65.4C225.585 64.76 225.639 64.2267 225.745 63.8C225.639 63.3467 225.585 62.8133 225.585 62.2C225.585 61.56 225.639 61.0267 225.745 60.6H228.945C229.052 61.0267 229.105 61.56 229.105 62.2C229.105 62.8133 229.052 63.3467 228.945 63.8C229.052 64.2267 229.105 64.76 229.105 65.4C229.105 66.0133 229.052 66.5467 228.945 67H233.745C233.852 67.4267 233.905 67.96 233.905 68.6C233.905 69.2133 233.852 69.7467 233.745 70.2H228.945C229.052 70.6267 229.105 71.16 229.105 71.8C229.105 72.4133 229.052 72.9467 228.945 73.4C229.052 73.8267 229.105 74.36 229.105 75C229.105 75.6133 229.052 76.1467 228.945 76.6C229.052 77.0267 229.105 77.56 229.105 78.2C229.105 78.8133 229.052 79.3467 228.945 79.8H233.745ZM251.521 75C251.521 75.6133 251.468 76.1467 251.361 76.6H250.161C250.268 77.0267 250.321 77.56 250.321 78.2C250.321 78.8133 250.268 79.3467 250.161 79.8H248.161C248.268 80.2267 248.321 80.76 248.321 81.4C248.321 82.0133 248.268 82.5467 248.161 83H241.761C241.654 82.5467 241.601 82.0133 241.601 81.4C241.601 80.76 241.654 80.2267 241.761 79.8H239.761C239.654 79.3467 239.601 78.8133 239.601 78.2C239.601 77.56 239.654 77.0267 239.761 76.6H238.561C238.454 76.1467 238.401 75.6133 238.401 75C238.401 74.36 238.454 73.8267 238.561 73.4H239.761C239.654 72.9467 239.601 72.4133 239.601 71.8C239.601 71.16 239.654 70.6267 239.761 70.2H241.761C241.654 69.7467 241.601 69.2133 241.601 68.6C241.601 67.96 241.654 67.4267 241.761 67H248.161C248.268 67.4267 248.321 67.96 248.321 68.6C248.321 69.2133 248.268 69.7467 248.161 70.2H250.161C250.268 70.6267 250.321 71.16 250.321 71.8C250.321 72.4133 250.268 72.9467 250.161 73.4H251.361C251.468 73.8267 251.521 74.36 251.521 75ZM248.161 76.6C248.054 76.1467 248.001 75.6133 248.001 75C248.001 74.36 248.054 73.8267 248.161 73.4H246.961C246.854 72.9467 246.801 72.4133 246.801 71.8C246.801 71.16 246.854 70.6267 246.961 70.2H242.961C243.068 70.6267 243.121 71.16 243.121 71.8C243.121 72.4133 243.068 72.9467 242.961 73.4H241.761C241.868 73.8267 241.921 74.36 241.921 75C241.921 75.6133 241.868 76.1467 241.761 76.6H242.961C243.068 77.0267 243.121 77.56 243.121 78.2C243.121 78.8133 243.068 79.3467 242.961 79.8H246.961C246.854 79.3467 246.801 78.8133 246.801 78.2C246.801 77.56 246.854 77.0267 246.961 76.6H248.161ZM267.377 76.6C267.483 77.0267 267.537 77.56 267.537 78.2C267.537 78.8133 267.483 79.3467 267.377 79.8H265.777C265.883 80.2267 265.937 80.76 265.937 81.4C265.937 82.0133 265.883 82.5467 265.777 83H257.777C257.67 82.5467 257.617 82.0133 257.617 81.4C257.617 80.76 257.67 80.2267 257.777 79.8H256.177C256.07 79.3467 256.017 78.8133 256.017 78.2C256.017 77.56 256.07 77.0267 256.177 76.6H254.577C254.47 76.1467 254.417 75.6133 254.417 75C254.417 74.36 254.47 73.8267 254.577 73.4H256.177C256.07 72.9467 256.017 72.4133 256.017 71.8C256.017 71.16 256.07 70.6267 256.177 70.2H257.777C257.67 69.7467 257.617 69.2133 257.617 68.6C257.617 67.96 257.67 67.4267 257.777 67H265.777C265.883 67.4267 265.937 67.96 265.937 68.6C265.937 69.2133 265.883 69.7467 265.777 70.2H267.377C267.483 70.6267 267.537 71.16 267.537 71.8C267.537 72.4133 267.483 72.9467 267.377 73.4H264.177C264.07 72.9467 264.017 72.4133 264.017 71.8C264.017 71.16 264.07 70.6267 264.177 70.2H259.377C259.483 70.6267 259.537 71.16 259.537 71.8C259.537 72.4133 259.483 72.9467 259.377 73.4H257.777C257.883 73.8267 257.937 74.36 257.937 75C257.937 75.6133 257.883 76.1467 257.777 76.6H259.377C259.483 77.0267 259.537 77.56 259.537 78.2C259.537 78.8133 259.483 79.3467 259.377 79.8H264.177C264.07 79.3467 264.017 78.8133 264.017 78.2C264.017 77.56 264.07 77.0267 264.177 76.6H267.377ZM275.152 78.2C275.152 78.8133 275.099 79.3467 274.992 79.8H278.992C279.099 80.2267 279.152 80.76 279.152 81.4C279.152 82.0133 279.099 82.5467 278.992 83H272.592C272.486 82.5467 272.432 82.0133 272.432 81.4C272.432 80.76 272.486 80.2267 272.592 79.8H270.592C270.486 79.3467 270.432 78.8133 270.432 78.2C270.432 77.56 270.486 77.0267 270.592 76.6C270.486 76.1467 270.432 75.6133 270.432 75C270.432 74.36 270.486 73.8267 270.592 73.4C270.486 72.9467 270.432 72.4133 270.432 71.8C270.432 71.16 270.486 70.6267 270.592 70.2C270.486 69.7467 270.432 69.2133 270.432 68.6C270.432 67.96 270.486 67.4267 270.592 67H273.792C273.899 67.4267 273.952 67.96 273.952 68.6C273.952 69.2133 273.899 69.7467 273.792 70.2C273.899 70.6267 273.952 71.16 273.952 71.8C273.952 72.4133 273.899 72.9467 273.792 73.4C273.899 73.8267 273.952 74.36 273.952 75C273.952 75.6133 273.899 76.1467 273.792 76.6H274.992C275.099 77.0267 275.152 77.56 275.152 78.2ZM283.392 70.2C283.499 70.6267 283.552 71.16 283.552 71.8C283.552 72.4133 283.499 72.9467 283.392 73.4C283.499 73.8267 283.552 74.36 283.552 75C283.552 75.6133 283.499 76.1467 283.392 76.6C283.499 77.0267 283.552 77.56 283.552 78.2C283.552 78.8133 283.499 79.3467 283.392 79.8C283.499 80.2267 283.552 80.76 283.552 81.4C283.552 82.0133 283.499 82.5467 283.392 83H280.192C280.086 82.5467 280.032 82.0133 280.032 81.4C280.032 80.76 280.086 80.2267 280.192 79.8H278.992C278.886 79.3467 278.832 78.8133 278.832 78.2C278.832 77.56 278.886 77.0267 278.992 76.6H280.192C280.086 76.1467 280.032 75.6133 280.032 75C280.032 74.36 280.086 73.8267 280.192 73.4C280.086 72.9467 280.032 72.4133 280.032 71.8C280.032 71.16 280.086 70.6267 280.192 70.2C280.086 69.7467 280.032 69.2133 280.032 68.6C280.032 67.96 280.086 67.4267 280.192 67H283.392C283.499 67.4267 283.552 67.96 283.552 68.6C283.552 69.2133 283.499 69.7467 283.392 70.2ZM299.408 70.2C299.514 70.6267 299.568 71.16 299.568 71.8C299.568 72.4133 299.514 72.9467 299.408 73.4H296.208C296.101 72.9467 296.048 72.4133 296.048 71.8C296.048 71.16 296.101 70.6267 296.208 70.2H293.408C293.514 70.6267 293.568 71.16 293.568 71.8C293.568 72.4133 293.514 72.9467 293.408 73.4H292.208C292.314 73.8267 292.368 74.36 292.368 75C292.368 75.6133 292.314 76.1467 292.208 76.6C292.314 77.0267 292.368 77.56 292.368 78.2C292.368 78.8133 292.314 79.3467 292.208 79.8H294.608C294.714 80.2267 294.768 80.76 294.768 81.4C294.768 82.0133 294.714 82.5467 294.608 83H286.608C286.501 82.5467 286.448 82.0133 286.448 81.4C286.448 80.76 286.501 80.2267 286.608 79.8H289.008C288.901 79.3467 288.848 78.8133 288.848 78.2C288.848 77.56 288.901 77.0267 289.008 76.6C288.901 76.1467 288.848 75.6133 288.848 75C288.848 74.36 288.901 73.8267 289.008 73.4C288.901 72.9467 288.848 72.4133 288.848 71.8C288.848 71.16 288.901 70.6267 289.008 70.2H286.608C286.501 69.7467 286.448 69.2133 286.448 68.6C286.448 67.96 286.501 67.4267 286.608 67H290.608C290.714 67.4267 290.768 67.96 290.768 68.6C290.768 69.2133 290.714 69.7467 290.608 70.2H292.208C292.101 69.7467 292.048 69.2133 292.048 68.6C292.048 67.96 292.101 67.4267 292.208 67H298.208C298.314 67.4267 298.368 67.96 298.368 68.6C298.368 69.2133 298.314 69.7467 298.208 70.2H299.408ZM315.423 70.2C315.53 70.6267 315.583 71.16 315.583 71.8C315.583 72.4133 315.53 72.9467 315.423 73.4H312.223C312.117 72.9467 312.063 72.4133 312.063 71.8C312.063 71.16 312.117 70.6267 312.223 70.2H309.423C309.53 70.6267 309.583 71.16 309.583 71.8C309.583 72.4133 309.53 72.9467 309.423 73.4H308.223C308.33 73.8267 308.383 74.36 308.383 75C308.383 75.6133 308.33 76.1467 308.223 76.6C308.33 77.0267 308.383 77.56 308.383 78.2C308.383 78.8133 308.33 79.3467 308.223 79.8H310.623C310.73 80.2267 310.783 80.76 310.783 81.4C310.783 82.0133 310.73 82.5467 310.623 83H302.623C302.517 82.5467 302.463 82.0133 302.463 81.4C302.463 80.76 302.517 80.2267 302.623 79.8H305.023C304.917 79.3467 304.863 78.8133 304.863 78.2C304.863 77.56 304.917 77.0267 305.023 76.6C304.917 76.1467 304.863 75.6133 304.863 75C304.863 74.36 304.917 73.8267 305.023 73.4C304.917 72.9467 304.863 72.4133 304.863 71.8C304.863 71.16 304.917 70.6267 305.023 70.2H302.623C302.517 69.7467 302.463 69.2133 302.463 68.6C302.463 67.96 302.517 67.4267 302.623 67H306.623C306.73 67.4267 306.783 67.96 306.783 68.6C306.783 69.2133 306.73 69.7467 306.623 70.2H308.223C308.117 69.7467 308.063 69.2133 308.063 68.6C308.063 67.96 308.117 67.4267 308.223 67H314.223C314.33 67.4267 314.383 67.96 314.383 68.6C314.383 69.2133 314.33 69.7467 314.223 70.2H315.423ZM331.599 71.8C331.599 72.4133 331.546 72.9467 331.439 73.4C331.546 73.8267 331.599 74.36 331.599 75C331.599 75.6133 331.546 76.1467 331.439 76.6H323.039C323.146 77.0267 323.199 77.56 323.199 78.2C323.199 78.8133 323.146 79.3467 323.039 79.8H329.839C329.946 80.2267 329.999 80.76 329.999 81.4C329.999 82.0133 329.946 82.5467 329.839 83H321.839C321.732 82.5467 321.679 82.0133 321.679 81.4C321.679 80.76 321.732 80.2267 321.839 79.8H319.839C319.732 79.3467 319.679 78.8133 319.679 78.2C319.679 77.56 319.732 77.0267 319.839 76.6H318.639C318.532 76.1467 318.479 75.6133 318.479 75C318.479 74.36 318.532 73.8267 318.639 73.4H319.839C319.732 72.9467 319.679 72.4133 319.679 71.8C319.679 71.16 319.732 70.6267 319.839 70.2H321.839C321.732 69.7467 321.679 69.2133 321.679 68.6C321.679 67.96 321.732 67.4267 321.839 67H329.839C329.946 67.4267 329.999 67.96 329.999 68.6C329.999 69.2133 329.946 69.7467 329.839 70.2H331.439C331.546 70.6267 331.599 71.16 331.599 71.8ZM328.239 73.4C328.132 72.9467 328.079 72.4133 328.079 71.8C328.079 71.16 328.132 70.6267 328.239 70.2H323.039C323.146 70.6267 323.199 71.16 323.199 71.8C323.199 72.4133 323.146 72.9467 323.039 73.4H328.239ZM337.615 68.6C337.615 69.2133 337.561 69.7467 337.455 70.2H339.055C339.161 70.6267 339.215 71.16 339.215 71.8C339.215 72.4133 339.161 72.9467 339.055 73.4H337.855C337.961 73.8267 338.015 74.36 338.015 75C338.015 75.6133 337.961 76.1467 337.855 76.6C337.961 77.0267 338.015 77.56 338.015 78.2C338.015 78.8133 337.961 79.3467 337.855 79.8C337.961 80.2267 338.015 80.76 338.015 81.4C338.015 82.0133 337.961 82.5467 337.855 83H334.655C334.548 82.5467 334.495 82.0133 334.495 81.4C334.495 80.76 334.548 80.2267 334.655 79.8C334.548 79.3467 334.495 78.8133 334.495 78.2C334.495 77.56 334.548 77.0267 334.655 76.6C334.548 76.1467 334.495 75.6133 334.495 75C334.495 74.36 334.548 73.8267 334.655 73.4C334.548 72.9467 334.495 72.4133 334.495 71.8C334.495 71.16 334.548 70.6267 334.655 70.2C334.548 69.7467 334.495 69.2133 334.495 68.6C334.495 67.96 334.548 67.4267 334.655 67H337.455C337.561 67.4267 337.615 67.96 337.615 68.6ZM347.455 73.4C347.561 73.8267 347.615 74.36 347.615 75C347.615 75.6133 347.561 76.1467 347.455 76.6C347.561 77.0267 347.615 77.56 347.615 78.2C347.615 78.8133 347.561 79.3467 347.455 79.8C347.561 80.2267 347.615 80.76 347.615 81.4C347.615 82.0133 347.561 82.5467 347.455 83H344.255C344.148 82.5467 344.095 82.0133 344.095 81.4C344.095 80.76 344.148 80.2267 344.255 79.8C344.148 79.3467 344.095 78.8133 344.095 78.2C344.095 77.56 344.148 77.0267 344.255 76.6C344.148 76.1467 344.095 75.6133 344.095 75C344.095 74.36 344.148 73.8267 344.255 73.4C344.148 72.9467 344.095 72.4133 344.095 71.8C344.095 71.16 344.148 70.6267 344.255 70.2H339.055C338.948 69.7467 338.895 69.2133 338.895 68.6C338.895 67.96 338.948 67.4267 339.055 67H345.455C345.561 67.4267 345.615 67.96 345.615 68.6C345.615 69.2133 345.561 69.7467 345.455 70.2H347.455C347.561 70.6267 347.615 71.16 347.615 71.8C347.615 72.4133 347.561 72.9467 347.455 73.4ZM363.47 76.6C363.577 77.0267 363.63 77.56 363.63 78.2C363.63 78.8133 363.577 79.3467 363.47 79.8H361.87C361.977 80.2267 362.03 80.76 362.03 81.4C362.03 82.0133 361.977 82.5467 361.87 83H353.87C353.764 82.5467 353.71 82.0133 353.71 81.4C353.71 80.76 353.764 80.2267 353.87 79.8H352.27C352.164 79.3467 352.11 78.8133 352.11 78.2C352.11 77.56 352.164 77.0267 352.27 76.6H350.67C350.564 76.1467 350.51 75.6133 350.51 75C350.51 74.36 350.564 73.8267 350.67 73.4H352.27C352.164 72.9467 352.11 72.4133 352.11 71.8C352.11 71.16 352.164 70.6267 352.27 70.2H353.87C353.764 69.7467 353.71 69.2133 353.71 68.6C353.71 67.96 353.764 67.4267 353.87 67H361.87C361.977 67.4267 362.03 67.96 362.03 68.6C362.03 69.2133 361.977 69.7467 361.87 70.2H363.47C363.577 70.6267 363.63 71.16 363.63 71.8C363.63 72.4133 363.577 72.9467 363.47 73.4H360.27C360.164 72.9467 360.11 72.4133 360.11 71.8C360.11 71.16 360.164 70.6267 360.27 70.2H355.47C355.577 70.6267 355.63 71.16 355.63 71.8C355.63 72.4133 355.577 72.9467 355.47 73.4H353.87C353.977 73.8267 354.03 74.36 354.03 75C354.03 75.6133 353.977 76.1467 353.87 76.6H355.47C355.577 77.0267 355.63 77.56 355.63 78.2C355.63 78.8133 355.577 79.3467 355.47 79.8H360.27C360.164 79.3467 360.11 78.8133 360.11 78.2C360.11 77.56 360.164 77.0267 360.27 76.6H363.47ZM379.646 68.6C379.646 69.2133 379.593 69.7467 379.486 70.2H378.286C378.393 70.6267 378.446 71.16 378.446 71.8C378.446 72.4133 378.393 72.9467 378.286 73.4H377.086C377.193 73.8267 377.246 74.36 377.246 75C377.246 75.6133 377.193 76.1467 377.086 76.6H376.286C376.393 77.0267 376.446 77.56 376.446 78.2C376.446 78.8133 376.393 79.3467 376.286 79.8H375.086C375.193 80.2267 375.246 80.76 375.246 81.4C375.246 82.0133 375.193 82.5467 375.086 83H374.286C374.393 83.4267 374.446 83.96 374.446 84.6C374.446 85.2133 374.393 85.7467 374.286 86.2H372.686C372.793 86.6267 372.846 87.16 372.846 87.8C372.846 88.4133 372.793 88.9467 372.686 89.4H367.886C367.779 88.9467 367.726 88.4133 367.726 87.8C367.726 87.16 367.779 86.6267 367.886 86.2H371.086C370.979 85.7467 370.926 85.2133 370.926 84.6C370.926 83.96 370.979 83.4267 371.086 83C370.979 82.5467 370.926 82.0133 370.926 81.4C370.926 80.76 370.979 80.2267 371.086 79.8H369.486C369.379 79.3467 369.326 78.8133 369.326 78.2C369.326 77.56 369.379 77.0267 369.486 76.6H368.686C368.579 76.1467 368.526 75.6133 368.526 75C368.526 74.36 368.579 73.8267 368.686 73.4H367.486C367.379 72.9467 367.326 72.4133 367.326 71.8C367.326 71.16 367.379 70.6267 367.486 70.2H366.286C366.179 69.7467 366.126 69.2133 366.126 68.6C366.126 67.96 366.179 67.4267 366.286 67H369.486C369.593 67.4267 369.646 67.96 369.646 68.6C369.646 69.2133 369.593 69.7467 369.486 70.2H370.686C370.793 70.6267 370.846 71.16 370.846 71.8C370.846 72.4133 370.793 72.9467 370.686 73.4H371.886C371.993 73.8267 372.046 74.36 372.046 75C372.046 75.6133 371.993 76.1467 371.886 76.6C371.993 77.0267 372.046 77.56 372.046 78.2C372.046 78.8133 371.993 79.3467 371.886 79.8H373.086C372.979 79.3467 372.926 78.8133 372.926 78.2C372.926 77.56 372.979 77.0267 373.086 76.6H373.886C373.779 76.1467 373.726 75.6133 373.726 75C373.726 74.36 373.779 73.8267 373.886 73.4H375.086C374.979 72.9467 374.926 72.4133 374.926 71.8C374.926 71.16 374.979 70.6267 375.086 70.2H376.286C376.179 69.7467 376.126 69.2133 376.126 68.6C376.126 67.96 376.179 67.4267 376.286 67H379.486C379.593 67.4267 379.646 67.96 379.646 68.6ZM394.862 65.4C394.862 66.0133 394.808 66.5467 394.702 67C394.808 67.4267 394.862 67.96 394.862 68.6C394.862 69.2133 394.808 69.7467 394.702 70.2H392.702C392.808 70.6267 392.862 71.16 392.862 71.8C392.862 72.4133 392.808 72.9467 392.702 73.4H390.702C390.808 73.8267 390.862 74.36 390.862 75C390.862 75.6133 390.808 76.1467 390.702 76.6H387.502C387.395 76.1467 387.342 75.6133 387.342 75C387.342 74.36 387.395 73.8267 387.502 73.4H389.502C389.395 72.9467 389.342 72.4133 389.342 71.8C389.342 71.16 389.395 70.6267 389.502 70.2H391.502C391.395 69.7467 391.342 69.2133 391.342 68.6C391.342 67.96 391.395 67.4267 391.502 67C391.395 66.5467 391.342 66.0133 391.342 65.4C391.342 64.76 391.395 64.2267 391.502 63.8H385.902C386.008 64.2267 386.062 64.76 386.062 65.4C386.062 66.0133 386.008 66.5467 385.902 67H382.702C382.595 66.5467 382.542 66.0133 382.542 65.4C382.542 64.76 382.595 64.2267 382.702 63.8H385.102C384.995 63.3467 384.942 62.8133 384.942 62.2C384.942 61.56 384.995 61.0267 385.102 60.6H393.102C393.208 61.0267 393.262 61.56 393.262 62.2C393.262 62.8133 393.208 63.3467 393.102 63.8H394.702C394.808 64.2267 394.862 64.76 394.862 65.4ZM390.702 79.8C390.808 80.2267 390.862 80.76 390.862 81.4C390.862 82.0133 390.808 82.5467 390.702 83H387.502C387.395 82.5467 387.342 82.0133 387.342 81.4C387.342 80.76 387.395 80.2267 387.502 79.8H390.702Z" fill="black"/>
</svg>
