<svg width="487" height="101" viewBox="0 0 487 101" fill="none" xmlns="http://www.w3.org/2000/svg">
<rect x="3" y="90" width="13.4279" height="7.46495" fill="white" stroke="black" stroke-width="6"/>
<path d="M69.4154 24.2C69.5088 24.5733 69.5554 25.04 69.5554 25.6C69.5554 26.1367 69.5088 26.6033 69.4154 27C69.5088 27.3733 69.5554 27.84 69.5554 28.4C69.5554 28.9367 69.5088 29.4033 69.4154 29.8C69.5088 30.1733 69.5554 30.64 69.5554 31.2C69.5554 31.7367 69.5088 32.2033 69.4154 32.6H68.3654C68.4588 32.9733 68.5054 33.44 68.5054 34C68.5054 34.5367 68.4588 35.0033 68.3654 35.4C68.4588 35.7733 68.5054 36.24 68.5054 36.8C68.5054 37.3367 68.4588 37.8033 68.3654 38.2H67.6654C67.7588 38.5733 67.8054 39.04 67.8054 39.6C67.8054 40.1367 67.7588 40.6033 67.6654 41H65.5654C65.4721 40.6033 65.4254 40.1367 65.4254 39.6C65.4254 39.04 65.4721 38.5733 65.5654 38.2H64.8654C64.7721 37.8033 64.7254 37.3367 64.7254 36.8C64.7254 36.24 64.7721 35.7733 64.8654 35.4H62.7654C62.8588 35.7733 62.9054 36.24 62.9054 36.8C62.9054 37.3367 62.8588 37.8033 62.7654 38.2H62.0654C62.1588 38.5733 62.2054 39.04 62.2054 39.6C62.2054 40.1367 62.1588 40.6033 62.0654 41H59.9654C59.8721 40.6033 59.8254 40.1367 59.8254 39.6C59.8254 39.04 59.8721 38.5733 59.9654 38.2H59.2654C59.1721 37.8033 59.1254 37.3367 59.1254 36.8C59.1254 36.24 59.1721 35.7733 59.2654 35.4C59.1721 35.0033 59.1254 34.5367 59.1254 34C59.1254 33.44 59.1721 32.9733 59.2654 32.6H58.2154C58.1221 32.2033 58.0754 31.7367 58.0754 31.2C58.0754 30.64 58.1221 30.1733 58.2154 29.8C58.1221 29.4033 58.0754 28.9367 58.0754 28.4C58.0754 27.84 58.1221 27.3733 58.2154 27C58.1221 26.6033 58.0754 26.1367 58.0754 25.6C58.0754 25.04 58.1221 24.5733 58.2154 24.2C58.1221 23.8033 58.0754 23.3367 58.0754 22.8C58.0754 22.24 58.1221 21.7733 58.2154 21.4H61.0154C61.1088 21.7733 61.1554 22.24 61.1554 22.8C61.1554 23.3367 61.1088 23.8033 61.0154 24.2C61.1088 24.5733 61.1554 25.04 61.1554 25.6C61.1554 26.1367 61.1088 26.6033 61.0154 27C61.1088 27.3733 61.1554 27.84 61.1554 28.4C61.1554 28.9367 61.1088 29.4033 61.0154 29.8C61.1088 30.1733 61.1554 30.64 61.1554 31.2C61.1554 31.7367 61.1088 32.2033 61.0154 32.6C61.1088 32.9733 61.1554 33.44 61.1554 34C61.1554 34.5367 61.1088 35.0033 61.0154 35.4H62.0654C61.9721 35.0033 61.9254 34.5367 61.9254 34C61.9254 33.44 61.9721 32.9733 62.0654 32.6H62.7654C62.6721 32.2033 62.6254 31.7367 62.6254 31.2C62.6254 30.64 62.6721 30.1733 62.7654 29.8C62.6721 29.4033 62.6254 28.9367 62.6254 28.4C62.6254 27.84 62.6721 27.3733 62.7654 27C62.6721 26.6033 62.6254 26.1367 62.6254 25.6C62.6254 25.04 62.6721 24.5733 62.7654 24.2C62.6721 23.8033 62.6254 23.3367 62.6254 22.8C62.6254 22.24 62.6721 21.7733 62.7654 21.4H64.8654C64.9588 21.7733 65.0054 22.24 65.0054 22.8C65.0054 23.3367 64.9588 23.8033 64.8654 24.2C64.9588 24.5733 65.0054 25.04 65.0054 25.6C65.0054 26.1367 64.9588 26.6033 64.8654 27C64.9588 27.3733 65.0054 27.84 65.0054 28.4C65.0054 28.9367 64.9588 29.4033 64.8654 29.8C64.9588 30.1733 65.0054 30.64 65.0054 31.2C65.0054 31.7367 64.9588 32.2033 64.8654 32.6H65.5654C65.6588 32.9733 65.7054 33.44 65.7054 34C65.7054 34.5367 65.6588 35.0033 65.5654 35.4H66.6154C66.5221 35.0033 66.4754 34.5367 66.4754 34C66.4754 33.44 66.5221 32.9733 66.6154 32.6C66.5221 32.2033 66.4754 31.7367 66.4754 31.2C66.4754 30.64 66.5221 30.1733 66.6154 29.8C66.5221 29.4033 66.4754 28.9367 66.4754 28.4C66.4754 27.84 66.5221 27.3733 66.6154 27C66.5221 26.6033 66.4754 26.1367 66.4754 25.6C66.4754 25.04 66.5221 24.5733 66.6154 24.2C66.5221 23.8033 66.4754 23.3367 66.4754 22.8C66.4754 22.24 66.5221 21.7733 66.6154 21.4H69.4154C69.5088 21.7733 69.5554 22.24 69.5554 22.8C69.5554 23.3367 69.5088 23.8033 69.4154 24.2ZM75.1691 28.4C75.1691 28.9367 75.1224 29.4033 75.0291 29.8H76.0791C76.1724 30.1733 76.2191 30.64 76.2191 31.2C76.2191 31.7367 76.1724 32.2033 76.0791 32.6H75.0291C75.1224 32.9733 75.1691 33.44 75.1691 34C75.1691 34.5367 75.1224 35.0033 75.0291 35.4C75.1224 35.7733 75.1691 36.24 75.1691 36.8C75.1691 37.3367 75.1224 37.8033 75.0291 38.2C75.1224 38.5733 75.1691 39.04 75.1691 39.6C75.1691 40.1367 75.1224 40.6033 75.0291 41H72.2291C72.1358 40.6033 72.0891 40.1367 72.0891 39.6C72.0891 39.04 72.1358 38.5733 72.2291 38.2C72.1358 37.8033 72.0891 37.3367 72.0891 36.8C72.0891 36.24 72.1358 35.7733 72.2291 35.4C72.1358 35.0033 72.0891 34.5367 72.0891 34C72.0891 33.44 72.1358 32.9733 72.2291 32.6C72.1358 32.2033 72.0891 31.7367 72.0891 31.2C72.0891 30.64 72.1358 30.1733 72.2291 29.8C72.1358 29.4033 72.0891 28.9367 72.0891 28.4C72.0891 27.84 72.1358 27.3733 72.2291 27C72.1358 26.6033 72.0891 26.1367 72.0891 25.6C72.0891 25.04 72.1358 24.5733 72.2291 24.2C72.1358 23.8033 72.0891 23.3367 72.0891 22.8C72.0891 22.24 72.1358 21.7733 72.2291 21.4H75.0291C75.1224 21.7733 75.1691 22.24 75.1691 22.8C75.1691 23.3367 75.1224 23.8033 75.0291 24.2C75.1224 24.5733 75.1691 25.04 75.1691 25.6C75.1691 26.1367 75.1224 26.6033 75.0291 27C75.1224 27.3733 75.1691 27.84 75.1691 28.4ZM83.4291 32.6C83.5224 32.9733 83.5691 33.44 83.5691 34C83.5691 34.5367 83.5224 35.0033 83.4291 35.4C83.5224 35.7733 83.5691 36.24 83.5691 36.8C83.5691 37.3367 83.5224 37.8033 83.4291 38.2C83.5224 38.5733 83.5691 39.04 83.5691 39.6C83.5691 40.1367 83.5224 40.6033 83.4291 41H80.6291C80.5358 40.6033 80.4891 40.1367 80.4891 39.6C80.4891 39.04 80.5358 38.5733 80.6291 38.2C80.5358 37.8033 80.4891 37.3367 80.4891 36.8C80.4891 36.24 80.5358 35.7733 80.6291 35.4C80.5358 35.0033 80.4891 34.5367 80.4891 34C80.4891 33.44 80.5358 32.9733 80.6291 32.6C80.5358 32.2033 80.4891 31.7367 80.4891 31.2C80.4891 30.64 80.5358 30.1733 80.6291 29.8H76.0791C75.9858 29.4033 75.9391 28.9367 75.9391 28.4C75.9391 27.84 75.9858 27.3733 76.0791 27H81.6791C81.7724 27.3733 81.8191 27.84 81.8191 28.4C81.8191 28.9367 81.7724 29.4033 81.6791 29.8H83.4291C83.5224 30.1733 83.5691 30.64 83.5691 31.2C83.5691 31.7367 83.5224 32.2033 83.4291 32.6ZM97.4428 38.2C97.5361 38.5733 97.5828 39.04 97.5828 39.6C97.5828 40.1367 97.5361 40.6033 97.4428 41H94.6428C94.5494 40.6033 94.5028 40.1367 94.5028 39.6C94.5028 39.04 94.5494 38.5733 94.6428 38.2H93.2428C93.1494 37.8033 93.1028 37.3367 93.1028 36.8C93.1028 36.24 93.1494 35.7733 93.2428 35.4H89.0428C89.1361 35.7733 89.1828 36.24 89.1828 36.8C89.1828 37.3367 89.1361 37.8033 89.0428 38.2H93.2428C93.3361 38.5733 93.3828 39.04 93.3828 39.6C93.3828 40.1367 93.3361 40.6033 93.2428 41H87.6428C87.5494 40.6033 87.5028 40.1367 87.5028 39.6C87.5028 39.04 87.5494 38.5733 87.6428 38.2H86.2428C86.1494 37.8033 86.1028 37.3367 86.1028 36.8C86.1028 36.24 86.1494 35.7733 86.2428 35.4H87.6428C87.5494 35.0033 87.5028 34.5367 87.5028 34C87.5028 33.44 87.5494 32.9733 87.6428 32.6H93.2428C93.1494 32.2033 93.1028 31.7367 93.1028 31.2C93.1028 30.64 93.1494 30.1733 93.2428 29.8H88.3428C88.2494 29.4033 88.2028 28.9367 88.2028 28.4C88.2028 27.84 88.2494 27.3733 88.3428 27H94.6428C94.7361 27.3733 94.7828 27.84 94.7828 28.4C94.7828 28.9367 94.7361 29.4033 94.6428 29.8H96.0428C96.1361 30.1733 96.1828 30.64 96.1828 31.2C96.1828 31.7367 96.1361 32.2033 96.0428 32.6C96.1361 32.9733 96.1828 33.44 96.1828 34C96.1828 34.5367 96.1361 35.0033 96.0428 35.4C96.1361 35.7733 96.1828 36.24 96.1828 36.8C96.1828 37.3367 96.1361 37.8033 96.0428 38.2H97.4428ZM110.056 38.2C110.15 38.5733 110.196 39.04 110.196 39.6C110.196 40.1367 110.15 40.6033 110.056 41H104.456C104.363 40.6033 104.316 40.1367 104.316 39.6C104.316 39.04 104.363 38.5733 104.456 38.2H103.056C102.963 37.8033 102.916 37.3367 102.916 36.8C102.916 36.24 102.963 35.7733 103.056 35.4C102.963 35.0033 102.916 34.5367 102.916 34C102.916 33.44 102.963 32.9733 103.056 32.6C102.963 32.2033 102.916 31.7367 102.916 31.2C102.916 30.64 102.963 30.1733 103.056 29.8H100.256C100.163 29.4033 100.116 28.9367 100.116 28.4C100.116 27.84 100.163 27.3733 100.256 27H103.056C102.963 26.6033 102.916 26.1367 102.916 25.6C102.916 25.04 102.963 24.5733 103.056 24.2C102.963 23.8033 102.916 23.3367 102.916 22.8C102.916 22.24 102.963 21.7733 103.056 21.4H105.856C105.95 21.7733 105.996 22.24 105.996 22.8C105.996 23.3367 105.95 23.8033 105.856 24.2C105.95 24.5733 105.996 25.04 105.996 25.6C105.996 26.1367 105.95 26.6033 105.856 27H110.056C110.15 27.3733 110.196 27.84 110.196 28.4C110.196 28.9367 110.15 29.4033 110.056 29.8H105.856C105.95 30.1733 105.996 30.64 105.996 31.2C105.996 31.7367 105.95 32.2033 105.856 32.6C105.95 32.9733 105.996 33.44 105.996 34C105.996 34.5367 105.95 35.0033 105.856 35.4C105.95 35.7733 105.996 36.24 105.996 36.8C105.996 37.3367 105.95 37.8033 105.856 38.2H110.056ZM132.484 24.2C132.39 23.8033 132.344 23.3367 132.344 22.8C132.344 22.24 132.39 21.7733 132.484 21.4H135.284C135.377 21.7733 135.424 22.24 135.424 22.8C135.424 23.3367 135.377 23.8033 135.284 24.2H132.484ZM138.084 38.2C138.177 38.5733 138.224 39.04 138.224 39.6C138.224 40.1367 138.177 40.6033 138.084 41H129.684C129.59 40.6033 129.544 40.1367 129.544 39.6C129.544 39.04 129.59 38.5733 129.684 38.2H132.484C132.39 37.8033 132.344 37.3367 132.344 36.8C132.344 36.24 132.39 35.7733 132.484 35.4C132.39 35.0033 132.344 34.5367 132.344 34C132.344 33.44 132.39 32.9733 132.484 32.6C132.39 32.2033 132.344 31.7367 132.344 31.2C132.344 30.64 132.39 30.1733 132.484 29.8H130.384C130.29 29.4033 130.244 28.9367 130.244 28.4C130.244 27.84 130.29 27.3733 130.384 27H135.284C135.377 27.3733 135.424 27.84 135.424 28.4C135.424 28.9367 135.377 29.4033 135.284 29.8C135.377 30.1733 135.424 30.64 135.424 31.2C135.424 31.7367 135.377 32.2033 135.284 32.6C135.377 32.9733 135.424 33.44 135.424 34C135.424 34.5367 135.377 35.0033 135.284 35.4C135.377 35.7733 135.424 36.24 135.424 36.8C135.424 37.3367 135.377 37.8033 135.284 38.2H138.084ZM152.937 36.8C152.937 37.3367 152.891 37.8033 152.797 38.2H151.397C151.491 38.5733 151.537 39.04 151.537 39.6C151.537 40.1367 151.491 40.6033 151.397 41H143.697C143.604 40.6033 143.557 40.1367 143.557 39.6C143.557 39.04 143.604 38.5733 143.697 38.2H149.997C149.904 37.8033 149.857 37.3367 149.857 36.8C149.857 36.24 149.904 35.7733 149.997 35.4H144.397C144.304 35.0033 144.257 34.5367 144.257 34C144.257 33.44 144.304 32.9733 144.397 32.6H142.997C142.904 32.2033 142.857 31.7367 142.857 31.2C142.857 30.64 142.904 30.1733 142.997 29.8H144.397C144.304 29.4033 144.257 28.9367 144.257 28.4C144.257 27.84 144.304 27.3733 144.397 27H152.097C152.191 27.3733 152.237 27.84 152.237 28.4C152.237 28.9367 152.191 29.4033 152.097 29.8H145.797C145.891 30.1733 145.937 30.64 145.937 31.2C145.937 31.7367 145.891 32.2033 145.797 32.6H151.397C151.491 32.9733 151.537 33.44 151.537 34C151.537 34.5367 151.491 35.0033 151.397 35.4H152.797C152.891 35.7733 152.937 36.24 152.937 36.8ZM180.125 38.2C180.218 38.5733 180.265 39.04 180.265 39.6C180.265 40.1367 180.218 40.6033 180.125 41H174.525C174.431 40.6033 174.385 40.1367 174.385 39.6C174.385 39.04 174.431 38.5733 174.525 38.2H173.125C173.031 37.8033 172.985 37.3367 172.985 36.8C172.985 36.24 173.031 35.7733 173.125 35.4C173.031 35.0033 172.985 34.5367 172.985 34C172.985 33.44 173.031 32.9733 173.125 32.6C173.031 32.2033 172.985 31.7367 172.985 31.2C172.985 30.64 173.031 30.1733 173.125 29.8H170.325C170.231 29.4033 170.185 28.9367 170.185 28.4C170.185 27.84 170.231 27.3733 170.325 27H173.125C173.031 26.6033 172.985 26.1367 172.985 25.6C172.985 25.04 173.031 24.5733 173.125 24.2C173.031 23.8033 172.985 23.3367 172.985 22.8C172.985 22.24 173.031 21.7733 173.125 21.4H175.925C176.018 21.7733 176.065 22.24 176.065 22.8C176.065 23.3367 176.018 23.8033 175.925 24.2C176.018 24.5733 176.065 25.04 176.065 25.6C176.065 26.1367 176.018 26.6033 175.925 27H180.125C180.218 27.3733 180.265 27.84 180.265 28.4C180.265 28.9367 180.218 29.4033 180.125 29.8H175.925C176.018 30.1733 176.065 30.64 176.065 31.2C176.065 31.7367 176.018 32.2033 175.925 32.6C176.018 32.9733 176.065 33.44 176.065 34C176.065 34.5367 176.018 35.0033 175.925 35.4C176.018 35.7733 176.065 36.24 176.065 36.8C176.065 37.3367 176.018 37.8033 175.925 38.2H180.125ZM187.278 28.4C187.278 28.9367 187.232 29.4033 187.138 29.8H188.188C188.282 30.1733 188.328 30.64 188.328 31.2C188.328 31.7367 188.282 32.2033 188.188 32.6H187.138C187.232 32.9733 187.278 33.44 187.278 34C187.278 34.5367 187.232 35.0033 187.138 35.4C187.232 35.7733 187.278 36.24 187.278 36.8C187.278 37.3367 187.232 37.8033 187.138 38.2C187.232 38.5733 187.278 39.04 187.278 39.6C187.278 40.1367 187.232 40.6033 187.138 41H184.338C184.245 40.6033 184.198 40.1367 184.198 39.6C184.198 39.04 184.245 38.5733 184.338 38.2C184.245 37.8033 184.198 37.3367 184.198 36.8C184.198 36.24 184.245 35.7733 184.338 35.4C184.245 35.0033 184.198 34.5367 184.198 34C184.198 33.44 184.245 32.9733 184.338 32.6C184.245 32.2033 184.198 31.7367 184.198 31.2C184.198 30.64 184.245 30.1733 184.338 29.8C184.245 29.4033 184.198 28.9367 184.198 28.4C184.198 27.84 184.245 27.3733 184.338 27C184.245 26.6033 184.198 26.1367 184.198 25.6C184.198 25.04 184.245 24.5733 184.338 24.2C184.245 23.8033 184.198 23.3367 184.198 22.8C184.198 22.24 184.245 21.7733 184.338 21.4H187.138C187.232 21.7733 187.278 22.24 187.278 22.8C187.278 23.3367 187.232 23.8033 187.138 24.2C187.232 24.5733 187.278 25.04 187.278 25.6C187.278 26.1367 187.232 26.6033 187.138 27C187.232 27.3733 187.278 27.84 187.278 28.4ZM195.538 32.6C195.632 32.9733 195.678 33.44 195.678 34C195.678 34.5367 195.632 35.0033 195.538 35.4C195.632 35.7733 195.678 36.24 195.678 36.8C195.678 37.3367 195.632 37.8033 195.538 38.2C195.632 38.5733 195.678 39.04 195.678 39.6C195.678 40.1367 195.632 40.6033 195.538 41H192.738C192.645 40.6033 192.598 40.1367 192.598 39.6C192.598 39.04 192.645 38.5733 192.738 38.2C192.645 37.8033 192.598 37.3367 192.598 36.8C192.598 36.24 192.645 35.7733 192.738 35.4C192.645 35.0033 192.598 34.5367 192.598 34C192.598 33.44 192.645 32.9733 192.738 32.6C192.645 32.2033 192.598 31.7367 192.598 31.2C192.598 30.64 192.645 30.1733 192.738 29.8H188.188C188.095 29.4033 188.048 28.9367 188.048 28.4C188.048 27.84 188.095 27.3733 188.188 27H193.788C193.882 27.3733 193.928 27.84 193.928 28.4C193.928 28.9367 193.882 29.4033 193.788 29.8H195.538C195.632 30.1733 195.678 30.64 195.678 31.2C195.678 31.7367 195.632 32.2033 195.538 32.6ZM209.692 31.2C209.692 31.7367 209.645 32.2033 209.552 32.6C209.645 32.9733 209.692 33.44 209.692 34C209.692 34.5367 209.645 35.0033 209.552 35.4H202.202C202.295 35.7733 202.342 36.24 202.342 36.8C202.342 37.3367 202.295 37.8033 202.202 38.2H208.152C208.245 38.5733 208.292 39.04 208.292 39.6C208.292 40.1367 208.245 40.6033 208.152 41H201.152C201.059 40.6033 201.012 40.1367 201.012 39.6C201.012 39.04 201.059 38.5733 201.152 38.2H199.402C199.309 37.8033 199.262 37.3367 199.262 36.8C199.262 36.24 199.309 35.7733 199.402 35.4H198.352C198.259 35.0033 198.212 34.5367 198.212 34C198.212 33.44 198.259 32.9733 198.352 32.6H199.402C199.309 32.2033 199.262 31.7367 199.262 31.2C199.262 30.64 199.309 30.1733 199.402 29.8H201.152C201.059 29.4033 201.012 28.9367 201.012 28.4C201.012 27.84 201.059 27.3733 201.152 27H208.152C208.245 27.3733 208.292 27.84 208.292 28.4C208.292 28.9367 208.245 29.4033 208.152 29.8H209.552C209.645 30.1733 209.692 30.64 209.692 31.2ZM206.752 32.6C206.659 32.2033 206.612 31.7367 206.612 31.2C206.612 30.64 206.659 30.1733 206.752 29.8H202.202C202.295 30.1733 202.342 30.64 202.342 31.2C202.342 31.7367 202.295 32.2033 202.202 32.6H206.752ZM237.579 29.8C237.673 30.1733 237.719 30.64 237.719 31.2C237.719 31.7367 237.673 32.2033 237.579 32.6H234.779C234.686 32.2033 234.639 31.7367 234.639 31.2C234.639 30.64 234.686 30.1733 234.779 29.8H232.329C232.423 30.1733 232.469 30.64 232.469 31.2C232.469 31.7367 232.423 32.2033 232.329 32.6H231.279C231.373 32.9733 231.419 33.44 231.419 34C231.419 34.5367 231.373 35.0033 231.279 35.4C231.373 35.7733 231.419 36.24 231.419 36.8C231.419 37.3367 231.373 37.8033 231.279 38.2H233.379C233.473 38.5733 233.519 39.04 233.519 39.6C233.519 40.1367 233.473 40.6033 233.379 41H226.379C226.286 40.6033 226.239 40.1367 226.239 39.6C226.239 39.04 226.286 38.5733 226.379 38.2H228.479C228.386 37.8033 228.339 37.3367 228.339 36.8C228.339 36.24 228.386 35.7733 228.479 35.4C228.386 35.0033 228.339 34.5367 228.339 34C228.339 33.44 228.386 32.9733 228.479 32.6C228.386 32.2033 228.339 31.7367 228.339 31.2C228.339 30.64 228.386 30.1733 228.479 29.8H226.379C226.286 29.4033 226.239 28.9367 226.239 28.4C226.239 27.84 226.286 27.3733 226.379 27H229.879C229.973 27.3733 230.019 27.84 230.019 28.4C230.019 28.9367 229.973 29.4033 229.879 29.8H231.279C231.186 29.4033 231.139 28.9367 231.139 28.4C231.139 27.84 231.186 27.3733 231.279 27H236.529C236.623 27.3733 236.669 27.84 236.669 28.4C236.669 28.9367 236.623 29.4033 236.529 29.8H237.579ZM244.593 24.2C244.5 23.8033 244.453 23.3367 244.453 22.8C244.453 22.24 244.5 21.7733 244.593 21.4H247.393C247.486 21.7733 247.533 22.24 247.533 22.8C247.533 23.3367 247.486 23.8033 247.393 24.2H244.593ZM250.193 38.2C250.286 38.5733 250.333 39.04 250.333 39.6C250.333 40.1367 250.286 40.6033 250.193 41H241.793C241.7 40.6033 241.653 40.1367 241.653 39.6C241.653 39.04 241.7 38.5733 241.793 38.2H244.593C244.5 37.8033 244.453 37.3367 244.453 36.8C244.453 36.24 244.5 35.7733 244.593 35.4C244.5 35.0033 244.453 34.5367 244.453 34C244.453 33.44 244.5 32.9733 244.593 32.6C244.5 32.2033 244.453 31.7367 244.453 31.2C244.453 30.64 244.5 30.1733 244.593 29.8H242.493C242.4 29.4033 242.353 28.9367 242.353 28.4C242.353 27.84 242.4 27.3733 242.493 27H247.393C247.486 27.3733 247.533 27.84 247.533 28.4C247.533 28.9367 247.486 29.4033 247.393 29.8C247.486 30.1733 247.533 30.64 247.533 31.2C247.533 31.7367 247.486 32.2033 247.393 32.6C247.486 32.9733 247.533 33.44 247.533 34C247.533 34.5367 247.486 35.0033 247.393 35.4C247.486 35.7733 247.533 36.24 247.533 36.8C247.533 37.3367 247.486 37.8033 247.393 38.2H250.193ZM265.047 36.8C265.047 37.3367 265 37.8033 264.907 38.2H263.507C263.6 38.5733 263.647 39.04 263.647 39.6C263.647 40.1367 263.6 40.6033 263.507 41H255.807C255.714 40.6033 255.667 40.1367 255.667 39.6C255.667 39.04 255.714 38.5733 255.807 38.2H262.107C262.014 37.8033 261.967 37.3367 261.967 36.8C261.967 36.24 262.014 35.7733 262.107 35.4H256.507C256.414 35.0033 256.367 34.5367 256.367 34C256.367 33.44 256.414 32.9733 256.507 32.6H255.107C255.014 32.2033 254.967 31.7367 254.967 31.2C254.967 30.64 255.014 30.1733 255.107 29.8H256.507C256.414 29.4033 256.367 28.9367 256.367 28.4C256.367 27.84 256.414 27.3733 256.507 27H264.207C264.3 27.3733 264.347 27.84 264.347 28.4C264.347 28.9367 264.3 29.4033 264.207 29.8H257.907C258 30.1733 258.047 30.64 258.047 31.2C258.047 31.7367 258 32.2033 257.907 32.6H263.507C263.6 32.9733 263.647 33.44 263.647 34C263.647 34.5367 263.6 35.0033 263.507 35.4H264.907C265 35.7733 265.047 36.24 265.047 36.8ZM279.621 38.2C279.714 38.5733 279.761 39.04 279.761 39.6C279.761 40.1367 279.714 40.6033 279.621 41H274.721C274.627 40.6033 274.581 40.1367 274.581 39.6C274.581 39.04 274.627 38.5733 274.721 38.2H273.321C273.227 37.8033 273.181 37.3367 273.181 36.8C273.181 36.24 273.227 35.7733 273.321 35.4H271.221C271.314 35.7733 271.361 36.24 271.361 36.8C271.361 37.3367 271.314 37.8033 271.221 38.2C271.314 38.5733 271.361 39.04 271.361 39.6C271.361 40.1367 271.314 40.6033 271.221 41H268.421C268.327 40.6033 268.281 40.1367 268.281 39.6C268.281 39.04 268.327 38.5733 268.421 38.2C268.327 37.8033 268.281 37.3367 268.281 36.8C268.281 36.24 268.327 35.7733 268.421 35.4C268.327 35.0033 268.281 34.5367 268.281 34C268.281 33.44 268.327 32.9733 268.421 32.6C268.327 32.2033 268.281 31.7367 268.281 31.2C268.281 30.64 268.327 30.1733 268.421 29.8C268.327 29.4033 268.281 28.9367 268.281 28.4C268.281 27.84 268.327 27.3733 268.421 27C268.327 26.6033 268.281 26.1367 268.281 25.6C268.281 25.04 268.327 24.5733 268.421 24.2C268.327 23.8033 268.281 23.3367 268.281 22.8C268.281 22.24 268.327 21.7733 268.421 21.4H271.221C271.314 21.7733 271.361 22.24 271.361 22.8C271.361 23.3367 271.314 23.8033 271.221 24.2C271.314 24.5733 271.361 25.04 271.361 25.6C271.361 26.1367 271.314 26.6033 271.221 27C271.314 27.3733 271.361 27.84 271.361 28.4C271.361 28.9367 271.314 29.4033 271.221 29.8C271.314 30.1733 271.361 30.64 271.361 31.2C271.361 31.7367 271.314 32.2033 271.221 32.6H273.321C273.227 32.2033 273.181 31.7367 273.181 31.2C273.181 30.64 273.227 30.1733 273.321 29.8H274.721C274.627 29.4033 274.581 28.9367 274.581 28.4C274.581 27.84 274.627 27.3733 274.721 27H278.921C279.014 27.3733 279.061 27.84 279.061 28.4C279.061 28.9367 279.014 29.4033 278.921 29.8H276.121C276.214 30.1733 276.261 30.64 276.261 31.2C276.261 31.7367 276.214 32.2033 276.121 32.6H274.721C274.814 32.9733 274.861 33.44 274.861 34C274.861 34.5367 274.814 35.0033 274.721 35.4H276.121C276.214 35.7733 276.261 36.24 276.261 36.8C276.261 37.3367 276.214 37.8033 276.121 38.2H279.621ZM307.648 38.2C307.741 38.5733 307.788 39.04 307.788 39.6C307.788 40.1367 307.741 40.6033 307.648 41H304.848C304.755 40.6033 304.708 40.1367 304.708 39.6C304.708 39.04 304.755 38.5733 304.848 38.2H303.448C303.355 37.8033 303.308 37.3367 303.308 36.8C303.308 36.24 303.355 35.7733 303.448 35.4H299.248C299.341 35.7733 299.388 36.24 299.388 36.8C299.388 37.3367 299.341 37.8033 299.248 38.2H303.448C303.541 38.5733 303.588 39.04 303.588 39.6C303.588 40.1367 303.541 40.6033 303.448 41H297.848C297.755 40.6033 297.708 40.1367 297.708 39.6C297.708 39.04 297.755 38.5733 297.848 38.2H296.448C296.355 37.8033 296.308 37.3367 296.308 36.8C296.308 36.24 296.355 35.7733 296.448 35.4H297.848C297.755 35.0033 297.708 34.5367 297.708 34C297.708 33.44 297.755 32.9733 297.848 32.6H303.448C303.355 32.2033 303.308 31.7367 303.308 31.2C303.308 30.64 303.355 30.1733 303.448 29.8H298.548C298.455 29.4033 298.408 28.9367 298.408 28.4C298.408 27.84 298.455 27.3733 298.548 27H304.848C304.941 27.3733 304.988 27.84 304.988 28.4C304.988 28.9367 304.941 29.4033 304.848 29.8H306.248C306.341 30.1733 306.388 30.64 306.388 31.2C306.388 31.7367 306.341 32.2033 306.248 32.6C306.341 32.9733 306.388 33.44 306.388 34C306.388 34.5367 306.341 35.0033 306.248 35.4C306.341 35.7733 306.388 36.24 306.388 36.8C306.388 37.3367 306.341 37.8033 306.248 38.2H307.648ZM321.102 36.8C321.102 37.3367 321.055 37.8033 320.962 38.2H319.562C319.655 38.5733 319.702 39.04 319.702 39.6C319.702 40.1367 319.655 40.6033 319.562 41H311.862C311.768 40.6033 311.722 40.1367 311.722 39.6C311.722 39.04 311.768 38.5733 311.862 38.2H318.162C318.068 37.8033 318.022 37.3367 318.022 36.8C318.022 36.24 318.068 35.7733 318.162 35.4H312.562C312.468 35.0033 312.422 34.5367 312.422 34C312.422 33.44 312.468 32.9733 312.562 32.6H311.162C311.068 32.2033 311.022 31.7367 311.022 31.2C311.022 30.64 311.068 30.1733 311.162 29.8H312.562C312.468 29.4033 312.422 28.9367 312.422 28.4C312.422 27.84 312.468 27.3733 312.562 27H320.262C320.355 27.3733 320.402 27.84 320.402 28.4C320.402 28.9367 320.355 29.4033 320.262 29.8H313.962C314.055 30.1733 314.102 30.64 314.102 31.2C314.102 31.7367 314.055 32.2033 313.962 32.6H319.562C319.655 32.9733 319.702 33.44 319.702 34C319.702 34.5367 319.655 35.0033 319.562 35.4H320.962C321.055 35.7733 321.102 36.24 321.102 36.8ZM335.115 36.8C335.115 37.3367 335.069 37.8033 334.975 38.2H333.575C333.669 38.5733 333.715 39.04 333.715 39.6C333.715 40.1367 333.669 40.6033 333.575 41H325.875C325.782 40.6033 325.735 40.1367 325.735 39.6C325.735 39.04 325.782 38.5733 325.875 38.2H332.175C332.082 37.8033 332.035 37.3367 332.035 36.8C332.035 36.24 332.082 35.7733 332.175 35.4H326.575C326.482 35.0033 326.435 34.5367 326.435 34C326.435 33.44 326.482 32.9733 326.575 32.6H325.175C325.082 32.2033 325.035 31.7367 325.035 31.2C325.035 30.64 325.082 30.1733 325.175 29.8H326.575C326.482 29.4033 326.435 28.9367 326.435 28.4C326.435 27.84 326.482 27.3733 326.575 27H334.275C334.369 27.3733 334.415 27.84 334.415 28.4C334.415 28.9367 334.369 29.4033 334.275 29.8H327.975C328.069 30.1733 328.115 30.64 328.115 31.2C328.115 31.7367 328.069 32.2033 327.975 32.6H333.575C333.669 32.9733 333.715 33.44 333.715 34C333.715 34.5367 333.669 35.0033 333.575 35.4H334.975C335.069 35.7733 335.115 36.24 335.115 36.8ZM349.829 34C349.829 34.5367 349.782 35.0033 349.689 35.4H348.639C348.732 35.7733 348.779 36.24 348.779 36.8C348.779 37.3367 348.732 37.8033 348.639 38.2H346.889C346.982 38.5733 347.029 39.04 347.029 39.6C347.029 40.1367 346.982 40.6033 346.889 41H341.289C341.196 40.6033 341.149 40.1367 341.149 39.6C341.149 39.04 341.196 38.5733 341.289 38.2H339.539C339.446 37.8033 339.399 37.3367 339.399 36.8C339.399 36.24 339.446 35.7733 339.539 35.4H338.489C338.396 35.0033 338.349 34.5367 338.349 34C338.349 33.44 338.396 32.9733 338.489 32.6H339.539C339.446 32.2033 339.399 31.7367 339.399 31.2C339.399 30.64 339.446 30.1733 339.539 29.8H341.289C341.196 29.4033 341.149 28.9367 341.149 28.4C341.149 27.84 341.196 27.3733 341.289 27H346.889C346.982 27.3733 347.029 27.84 347.029 28.4C347.029 28.9367 346.982 29.4033 346.889 29.8H348.639C348.732 30.1733 348.779 30.64 348.779 31.2C348.779 31.7367 348.732 32.2033 348.639 32.6H349.689C349.782 32.9733 349.829 33.44 349.829 34ZM346.889 35.4C346.796 35.0033 346.749 34.5367 346.749 34C346.749 33.44 346.796 32.9733 346.889 32.6H345.839C345.746 32.2033 345.699 31.7367 345.699 31.2C345.699 30.64 345.746 30.1733 345.839 29.8H342.339C342.432 30.1733 342.479 30.64 342.479 31.2C342.479 31.7367 342.432 32.2033 342.339 32.6H341.289C341.382 32.9733 341.429 33.44 341.429 34C341.429 34.5367 341.382 35.0033 341.289 35.4H342.339C342.432 35.7733 342.479 36.24 342.479 36.8C342.479 37.3367 342.432 37.8033 342.339 38.2H345.839C345.746 37.8033 345.699 37.3367 345.699 36.8C345.699 36.24 345.746 35.7733 345.839 35.4H346.889ZM363.703 35.4C363.796 35.7733 363.843 36.24 363.843 36.8C363.843 37.3367 363.796 37.8033 363.703 38.2H362.303C362.396 38.5733 362.443 39.04 362.443 39.6C362.443 40.1367 362.396 40.6033 362.303 41H355.303C355.209 40.6033 355.163 40.1367 355.163 39.6C355.163 39.04 355.209 38.5733 355.303 38.2H353.903C353.809 37.8033 353.763 37.3367 353.763 36.8C353.763 36.24 353.809 35.7733 353.903 35.4H352.503C352.409 35.0033 352.363 34.5367 352.363 34C352.363 33.44 352.409 32.9733 352.503 32.6H353.903C353.809 32.2033 353.763 31.7367 353.763 31.2C353.763 30.64 353.809 30.1733 353.903 29.8H355.303C355.209 29.4033 355.163 28.9367 355.163 28.4C355.163 27.84 355.209 27.3733 355.303 27H362.303C362.396 27.3733 362.443 27.84 362.443 28.4C362.443 28.9367 362.396 29.4033 362.303 29.8H363.703C363.796 30.1733 363.843 30.64 363.843 31.2C363.843 31.7367 363.796 32.2033 363.703 32.6H360.903C360.809 32.2033 360.763 31.7367 360.763 31.2C360.763 30.64 360.809 30.1733 360.903 29.8H356.703C356.796 30.1733 356.843 30.64 356.843 31.2C356.843 31.7367 356.796 32.2033 356.703 32.6H355.303C355.396 32.9733 355.443 33.44 355.443 34C355.443 34.5367 355.396 35.0033 355.303 35.4H356.703C356.796 35.7733 356.843 36.24 356.843 36.8C356.843 37.3367 356.796 37.8033 356.703 38.2H360.903C360.809 37.8033 360.763 37.3367 360.763 36.8C360.763 36.24 360.809 35.7733 360.903 35.4H363.703ZM370.716 24.2C370.623 23.8033 370.576 23.3367 370.576 22.8C370.576 22.24 370.623 21.7733 370.716 21.4H373.516C373.61 21.7733 373.656 22.24 373.656 22.8C373.656 23.3367 373.61 23.8033 373.516 24.2H370.716ZM376.316 38.2C376.41 38.5733 376.456 39.04 376.456 39.6C376.456 40.1367 376.41 40.6033 376.316 41H367.916C367.823 40.6033 367.776 40.1367 367.776 39.6C367.776 39.04 367.823 38.5733 367.916 38.2H370.716C370.623 37.8033 370.576 37.3367 370.576 36.8C370.576 36.24 370.623 35.7733 370.716 35.4C370.623 35.0033 370.576 34.5367 370.576 34C370.576 33.44 370.623 32.9733 370.716 32.6C370.623 32.2033 370.576 31.7367 370.576 31.2C370.576 30.64 370.623 30.1733 370.716 29.8H368.616C368.523 29.4033 368.476 28.9367 368.476 28.4C368.476 27.84 368.523 27.3733 368.616 27H373.516C373.61 27.3733 373.656 27.84 373.656 28.4C373.656 28.9367 373.61 29.4033 373.516 29.8C373.61 30.1733 373.656 30.64 373.656 31.2C373.656 31.7367 373.61 32.2033 373.516 32.6C373.61 32.9733 373.656 33.44 373.656 34C373.656 34.5367 373.61 35.0033 373.516 35.4C373.61 35.7733 373.656 36.24 373.656 36.8C373.656 37.3367 373.61 37.8033 373.516 38.2H376.316ZM391.73 38.2C391.823 38.5733 391.87 39.04 391.87 39.6C391.87 40.1367 391.823 40.6033 391.73 41H388.93C388.837 40.6033 388.79 40.1367 388.79 39.6C388.79 39.04 388.837 38.5733 388.93 38.2H387.53C387.437 37.8033 387.39 37.3367 387.39 36.8C387.39 36.24 387.437 35.7733 387.53 35.4H383.33C383.423 35.7733 383.47 36.24 383.47 36.8C383.47 37.3367 383.423 37.8033 383.33 38.2H387.53C387.623 38.5733 387.67 39.04 387.67 39.6C387.67 40.1367 387.623 40.6033 387.53 41H381.93C381.837 40.6033 381.79 40.1367 381.79 39.6C381.79 39.04 381.837 38.5733 381.93 38.2H380.53C380.437 37.8033 380.39 37.3367 380.39 36.8C380.39 36.24 380.437 35.7733 380.53 35.4H381.93C381.837 35.0033 381.79 34.5367 381.79 34C381.79 33.44 381.837 32.9733 381.93 32.6H387.53C387.437 32.2033 387.39 31.7367 387.39 31.2C387.39 30.64 387.437 30.1733 387.53 29.8H382.63C382.537 29.4033 382.49 28.9367 382.49 28.4C382.49 27.84 382.537 27.3733 382.63 27H388.93C389.023 27.3733 389.07 27.84 389.07 28.4C389.07 28.9367 389.023 29.4033 388.93 29.8H390.33C390.423 30.1733 390.47 30.64 390.47 31.2C390.47 31.7367 390.423 32.2033 390.33 32.6C390.423 32.9733 390.47 33.44 390.47 34C390.47 34.5367 390.423 35.0033 390.33 35.4C390.423 35.7733 390.47 36.24 390.47 36.8C390.47 37.3367 390.423 37.8033 390.33 38.2H391.73ZM404.344 38.2C404.437 38.5733 404.484 39.04 404.484 39.6C404.484 40.1367 404.437 40.6033 404.344 41H398.744C398.65 40.6033 398.604 40.1367 398.604 39.6C398.604 39.04 398.65 38.5733 398.744 38.2H397.344C397.25 37.8033 397.204 37.3367 397.204 36.8C397.204 36.24 397.25 35.7733 397.344 35.4C397.25 35.0033 397.204 34.5367 397.204 34C397.204 33.44 397.25 32.9733 397.344 32.6C397.25 32.2033 397.204 31.7367 397.204 31.2C397.204 30.64 397.25 30.1733 397.344 29.8H394.544C394.45 29.4033 394.404 28.9367 394.404 28.4C394.404 27.84 394.45 27.3733 394.544 27H397.344C397.25 26.6033 397.204 26.1367 397.204 25.6C397.204 25.04 397.25 24.5733 397.344 24.2C397.25 23.8033 397.204 23.3367 397.204 22.8C397.204 22.24 397.25 21.7733 397.344 21.4H400.144C400.237 21.7733 400.284 22.24 400.284 22.8C400.284 23.3367 400.237 23.8033 400.144 24.2C400.237 24.5733 400.284 25.04 400.284 25.6C400.284 26.1367 400.237 26.6033 400.144 27H404.344C404.437 27.3733 404.484 27.84 404.484 28.4C404.484 28.9367 404.437 29.4033 404.344 29.8H400.144C400.237 30.1733 400.284 30.64 400.284 31.2C400.284 31.7367 400.237 32.2033 400.144 32.6C400.237 32.9733 400.284 33.44 400.284 34C400.284 34.5367 400.237 35.0033 400.144 35.4C400.237 35.7733 400.284 36.24 400.284 36.8C400.284 37.3367 400.237 37.8033 400.144 38.2H404.344ZM419.897 31.2C419.897 31.7367 419.851 32.2033 419.757 32.6C419.851 32.9733 419.897 33.44 419.897 34C419.897 34.5367 419.851 35.0033 419.757 35.4H412.407C412.501 35.7733 412.547 36.24 412.547 36.8C412.547 37.3367 412.501 37.8033 412.407 38.2H418.357C418.451 38.5733 418.497 39.04 418.497 39.6C418.497 40.1367 418.451 40.6033 418.357 41H411.357C411.264 40.6033 411.217 40.1367 411.217 39.6C411.217 39.04 411.264 38.5733 411.357 38.2H409.607C409.514 37.8033 409.467 37.3367 409.467 36.8C409.467 36.24 409.514 35.7733 409.607 35.4H408.557C408.464 35.0033 408.417 34.5367 408.417 34C408.417 33.44 408.464 32.9733 408.557 32.6H409.607C409.514 32.2033 409.467 31.7367 409.467 31.2C409.467 30.64 409.514 30.1733 409.607 29.8H411.357C411.264 29.4033 411.217 28.9367 411.217 28.4C411.217 27.84 411.264 27.3733 411.357 27H418.357C418.451 27.3733 418.497 27.84 418.497 28.4C418.497 28.9367 418.451 29.4033 418.357 29.8H419.757C419.851 30.1733 419.897 30.64 419.897 31.2ZM416.957 32.6C416.864 32.2033 416.817 31.7367 416.817 31.2C416.817 30.64 416.864 30.1733 416.957 29.8H412.407C412.501 30.1733 412.547 30.64 412.547 31.2C412.547 31.7367 412.501 32.2033 412.407 32.6H416.957ZM433.771 24.2C433.864 24.5733 433.911 25.04 433.911 25.6C433.911 26.1367 433.864 26.6033 433.771 27C433.864 27.3733 433.911 27.84 433.911 28.4C433.911 28.9367 433.864 29.4033 433.771 29.8C433.864 30.1733 433.911 30.64 433.911 31.2C433.911 31.7367 433.864 32.2033 433.771 32.6C433.864 32.9733 433.911 33.44 433.911 34C433.911 34.5367 433.864 35.0033 433.771 35.4C433.864 35.7733 433.911 36.24 433.911 36.8C433.911 37.3367 433.864 37.8033 433.771 38.2C433.864 38.5733 433.911 39.04 433.911 39.6C433.911 40.1367 433.864 40.6033 433.771 41H430.971C430.878 40.6033 430.831 40.1367 430.831 39.6C430.831 39.04 430.878 38.5733 430.971 38.2H429.921C429.828 37.8033 429.781 37.3367 429.781 36.8C429.781 36.24 429.828 35.7733 429.921 35.4H430.971C430.878 35.0033 430.831 34.5367 430.831 34C430.831 33.44 430.878 32.9733 430.971 32.6H429.921C429.828 32.2033 429.781 31.7367 429.781 31.2C429.781 30.64 429.828 30.1733 429.921 29.8H430.971C430.878 29.4033 430.831 28.9367 430.831 28.4C430.831 27.84 430.878 27.3733 430.971 27C430.878 26.6033 430.831 26.1367 430.831 25.6C430.831 25.04 430.878 24.5733 430.971 24.2C430.878 23.8033 430.831 23.3367 430.831 22.8C430.831 22.24 430.878 21.7733 430.971 21.4H433.771C433.864 21.7733 433.911 22.24 433.911 22.8C433.911 23.3367 433.864 23.8033 433.771 24.2ZM429.361 28.4C429.361 28.9367 429.314 29.4033 429.221 29.8H425.721C425.814 30.1733 425.861 30.64 425.861 31.2C425.861 31.7367 425.814 32.2033 425.721 32.6H424.671C424.764 32.9733 424.811 33.44 424.811 34C424.811 34.5367 424.764 35.0033 424.671 35.4H425.721C425.814 35.7733 425.861 36.24 425.861 36.8C425.861 37.3367 425.814 37.8033 425.721 38.2H429.221C429.314 38.5733 429.361 39.04 429.361 39.6C429.361 40.1367 429.314 40.6033 429.221 41H425.371C425.278 40.6033 425.231 40.1367 425.231 39.6C425.231 39.04 425.278 38.5733 425.371 38.2H423.621C423.528 37.8033 423.481 37.3367 423.481 36.8C423.481 36.24 423.528 35.7733 423.621 35.4H422.571C422.478 35.0033 422.431 34.5367 422.431 34C422.431 33.44 422.478 32.9733 422.571 32.6H423.621C423.528 32.2033 423.481 31.7367 423.481 31.2C423.481 30.64 423.528 30.1733 423.621 29.8H425.371C425.278 29.4033 425.231 28.9367 425.231 28.4C425.231 27.84 425.278 27.3733 425.371 27H429.221C429.314 27.3733 429.361 27.84 429.361 28.4ZM118.603 63.4C118.603 63.9367 118.557 64.4033 118.463 64.8C118.557 65.1733 118.603 65.64 118.603 66.2C118.603 66.7367 118.557 67.2033 118.463 67.6H117.413C117.507 67.9733 117.553 68.44 117.553 69C117.553 69.5367 117.507 70.0033 117.413 70.4C117.507 70.7733 117.553 71.24 117.553 71.8C117.553 72.3367 117.507 72.8033 117.413 73.2H116.713C116.807 73.5733 116.853 74.04 116.853 74.6C116.853 75.1367 116.807 75.6033 116.713 76H114.613C114.52 75.6033 114.473 75.1367 114.473 74.6C114.473 74.04 114.52 73.5733 114.613 73.2H113.913C113.82 72.8033 113.773 72.3367 113.773 71.8C113.773 71.24 113.82 70.7733 113.913 70.4H111.813C111.907 70.7733 111.953 71.24 111.953 71.8C111.953 72.3367 111.907 72.8033 111.813 73.2H111.113C111.207 73.5733 111.253 74.04 111.253 74.6C111.253 75.1367 111.207 75.6033 111.113 76H109.013C108.92 75.6033 108.873 75.1367 108.873 74.6C108.873 74.04 108.92 73.5733 109.013 73.2H108.313C108.22 72.8033 108.173 72.3367 108.173 71.8C108.173 71.24 108.22 70.7733 108.313 70.4C108.22 70.0033 108.173 69.5367 108.173 69C108.173 68.44 108.22 67.9733 108.313 67.6H107.263C107.17 67.2033 107.123 66.7367 107.123 66.2C107.123 65.64 107.17 65.1733 107.263 64.8C107.17 64.4033 107.123 63.9367 107.123 63.4C107.123 62.84 107.17 62.3733 107.263 62H110.063C110.157 62.3733 110.203 62.84 110.203 63.4C110.203 63.9367 110.157 64.4033 110.063 64.8C110.157 65.1733 110.203 65.64 110.203 66.2C110.203 66.7367 110.157 67.2033 110.063 67.6C110.157 67.9733 110.203 68.44 110.203 69C110.203 69.5367 110.157 70.0033 110.063 70.4H111.113C111.02 70.0033 110.973 69.5367 110.973 69C110.973 68.44 111.02 67.9733 111.113 67.6H111.813C111.72 67.2033 111.673 66.7367 111.673 66.2C111.673 65.64 111.72 65.1733 111.813 64.8C111.72 64.4033 111.673 63.9367 111.673 63.4C111.673 62.84 111.72 62.3733 111.813 62H113.913C114.007 62.3733 114.053 62.84 114.053 63.4C114.053 63.9367 114.007 64.4033 113.913 64.8C114.007 65.1733 114.053 65.64 114.053 66.2C114.053 66.7367 114.007 67.2033 113.913 67.6H114.613C114.707 67.9733 114.753 68.44 114.753 69C114.753 69.5367 114.707 70.0033 114.613 70.4H115.663C115.57 70.0033 115.523 69.5367 115.523 69C115.523 68.44 115.57 67.9733 115.663 67.6C115.57 67.2033 115.523 66.7367 115.523 66.2C115.523 65.64 115.57 65.1733 115.663 64.8C115.57 64.4033 115.523 63.9367 115.523 63.4C115.523 62.84 115.57 62.3733 115.663 62H118.463C118.557 62.3733 118.603 62.84 118.603 63.4ZM125.477 59.2C125.384 58.8033 125.337 58.3367 125.337 57.8C125.337 57.24 125.384 56.7733 125.477 56.4H128.277C128.37 56.7733 128.417 57.24 128.417 57.8C128.417 58.3367 128.37 58.8033 128.277 59.2H125.477ZM131.077 73.2C131.17 73.5733 131.217 74.04 131.217 74.6C131.217 75.1367 131.17 75.6033 131.077 76H122.677C122.584 75.6033 122.537 75.1367 122.537 74.6C122.537 74.04 122.584 73.5733 122.677 73.2H125.477C125.384 72.8033 125.337 72.3367 125.337 71.8C125.337 71.24 125.384 70.7733 125.477 70.4C125.384 70.0033 125.337 69.5367 125.337 69C125.337 68.44 125.384 67.9733 125.477 67.6C125.384 67.2033 125.337 66.7367 125.337 66.2C125.337 65.64 125.384 65.1733 125.477 64.8H123.377C123.284 64.4033 123.237 63.9367 123.237 63.4C123.237 62.84 123.284 62.3733 123.377 62H128.277C128.37 62.3733 128.417 62.84 128.417 63.4C128.417 63.9367 128.37 64.4033 128.277 64.8C128.37 65.1733 128.417 65.64 128.417 66.2C128.417 66.7367 128.37 67.2033 128.277 67.6C128.37 67.9733 128.417 68.44 128.417 69C128.417 69.5367 128.37 70.0033 128.277 70.4C128.37 70.7733 128.417 71.24 128.417 71.8C128.417 72.3367 128.37 72.8033 128.277 73.2H131.077ZM145.091 73.2C145.184 73.5733 145.231 74.04 145.231 74.6C145.231 75.1367 145.184 75.6033 145.091 76H139.491C139.397 75.6033 139.351 75.1367 139.351 74.6C139.351 74.04 139.397 73.5733 139.491 73.2H138.091C137.997 72.8033 137.951 72.3367 137.951 71.8C137.951 71.24 137.997 70.7733 138.091 70.4C137.997 70.0033 137.951 69.5367 137.951 69C137.951 68.44 137.997 67.9733 138.091 67.6C137.997 67.2033 137.951 66.7367 137.951 66.2C137.951 65.64 137.997 65.1733 138.091 64.8H135.291C135.197 64.4033 135.151 63.9367 135.151 63.4C135.151 62.84 135.197 62.3733 135.291 62H138.091C137.997 61.6033 137.951 61.1367 137.951 60.6C137.951 60.04 137.997 59.5733 138.091 59.2C137.997 58.8033 137.951 58.3367 137.951 57.8C137.951 57.24 137.997 56.7733 138.091 56.4H140.891C140.984 56.7733 141.031 57.24 141.031 57.8C141.031 58.3367 140.984 58.8033 140.891 59.2C140.984 59.5733 141.031 60.04 141.031 60.6C141.031 61.1367 140.984 61.6033 140.891 62H145.091C145.184 62.3733 145.231 62.84 145.231 63.4C145.231 63.9367 145.184 64.4033 145.091 64.8H140.891C140.984 65.1733 141.031 65.64 141.031 66.2C141.031 66.7367 140.984 67.2033 140.891 67.6C140.984 67.9733 141.031 68.44 141.031 69C141.031 69.5367 140.984 70.0033 140.891 70.4C140.984 70.7733 141.031 71.24 141.031 71.8C141.031 72.3367 140.984 72.8033 140.891 73.2H145.091ZM152.244 63.4C152.244 63.9367 152.198 64.4033 152.104 64.8H153.154C153.248 65.1733 153.294 65.64 153.294 66.2C153.294 66.7367 153.248 67.2033 153.154 67.6H152.104C152.198 67.9733 152.244 68.44 152.244 69C152.244 69.5367 152.198 70.0033 152.104 70.4C152.198 70.7733 152.244 71.24 152.244 71.8C152.244 72.3367 152.198 72.8033 152.104 73.2C152.198 73.5733 152.244 74.04 152.244 74.6C152.244 75.1367 152.198 75.6033 152.104 76H149.304C149.211 75.6033 149.164 75.1367 149.164 74.6C149.164 74.04 149.211 73.5733 149.304 73.2C149.211 72.8033 149.164 72.3367 149.164 71.8C149.164 71.24 149.211 70.7733 149.304 70.4C149.211 70.0033 149.164 69.5367 149.164 69C149.164 68.44 149.211 67.9733 149.304 67.6C149.211 67.2033 149.164 66.7367 149.164 66.2C149.164 65.64 149.211 65.1733 149.304 64.8C149.211 64.4033 149.164 63.9367 149.164 63.4C149.164 62.84 149.211 62.3733 149.304 62C149.211 61.6033 149.164 61.1367 149.164 60.6C149.164 60.04 149.211 59.5733 149.304 59.2C149.211 58.8033 149.164 58.3367 149.164 57.8C149.164 57.24 149.211 56.7733 149.304 56.4H152.104C152.198 56.7733 152.244 57.24 152.244 57.8C152.244 58.3367 152.198 58.8033 152.104 59.2C152.198 59.5733 152.244 60.04 152.244 60.6C152.244 61.1367 152.198 61.6033 152.104 62C152.198 62.3733 152.244 62.84 152.244 63.4ZM160.504 67.6C160.598 67.9733 160.644 68.44 160.644 69C160.644 69.5367 160.598 70.0033 160.504 70.4C160.598 70.7733 160.644 71.24 160.644 71.8C160.644 72.3367 160.598 72.8033 160.504 73.2C160.598 73.5733 160.644 74.04 160.644 74.6C160.644 75.1367 160.598 75.6033 160.504 76H157.704C157.611 75.6033 157.564 75.1367 157.564 74.6C157.564 74.04 157.611 73.5733 157.704 73.2C157.611 72.8033 157.564 72.3367 157.564 71.8C157.564 71.24 157.611 70.7733 157.704 70.4C157.611 70.0033 157.564 69.5367 157.564 69C157.564 68.44 157.611 67.9733 157.704 67.6C157.611 67.2033 157.564 66.7367 157.564 66.2C157.564 65.64 157.611 65.1733 157.704 64.8H153.154C153.061 64.4033 153.014 63.9367 153.014 63.4C153.014 62.84 153.061 62.3733 153.154 62H158.754C158.848 62.3733 158.894 62.84 158.894 63.4C158.894 63.9367 158.848 64.4033 158.754 64.8H160.504C160.598 65.1733 160.644 65.64 160.644 66.2C160.644 66.7367 160.598 67.2033 160.504 67.6ZM188.532 70.4C188.625 70.7733 188.672 71.24 188.672 71.8C188.672 72.3367 188.625 72.8033 188.532 73.2H187.132C187.225 73.5733 187.272 74.04 187.272 74.6C187.272 75.1367 187.225 75.6033 187.132 76H180.132C180.038 75.6033 179.992 75.1367 179.992 74.6C179.992 74.04 180.038 73.5733 180.132 73.2H178.732C178.638 72.8033 178.592 72.3367 178.592 71.8C178.592 71.24 178.638 70.7733 178.732 70.4H177.332C177.238 70.0033 177.192 69.5367 177.192 69C177.192 68.44 177.238 67.9733 177.332 67.6H178.732C178.638 67.2033 178.592 66.7367 178.592 66.2C178.592 65.64 178.638 65.1733 178.732 64.8H180.132C180.038 64.4033 179.992 63.9367 179.992 63.4C179.992 62.84 180.038 62.3733 180.132 62H187.132C187.225 62.3733 187.272 62.84 187.272 63.4C187.272 63.9367 187.225 64.4033 187.132 64.8H188.532C188.625 65.1733 188.672 65.64 188.672 66.2C188.672 66.7367 188.625 67.2033 188.532 67.6H185.732C185.638 67.2033 185.592 66.7367 185.592 66.2C185.592 65.64 185.638 65.1733 185.732 64.8H181.532C181.625 65.1733 181.672 65.64 181.672 66.2C181.672 66.7367 181.625 67.2033 181.532 67.6H180.132C180.225 67.9733 180.272 68.44 180.272 69C180.272 69.5367 180.225 70.0033 180.132 70.4H181.532C181.625 70.7733 181.672 71.24 181.672 71.8C181.672 72.3367 181.625 72.8033 181.532 73.2H185.732C185.638 72.8033 185.592 72.3367 185.592 71.8C185.592 71.24 185.638 70.7733 185.732 70.4H188.532ZM202.545 64.8C202.639 65.1733 202.685 65.64 202.685 66.2C202.685 66.7367 202.639 67.2033 202.545 67.6H199.745C199.652 67.2033 199.605 66.7367 199.605 66.2C199.605 65.64 199.652 65.1733 199.745 64.8H197.295C197.389 65.1733 197.435 65.64 197.435 66.2C197.435 66.7367 197.389 67.2033 197.295 67.6H196.245C196.339 67.9733 196.385 68.44 196.385 69C196.385 69.5367 196.339 70.0033 196.245 70.4C196.339 70.7733 196.385 71.24 196.385 71.8C196.385 72.3367 196.339 72.8033 196.245 73.2H198.345C198.439 73.5733 198.485 74.04 198.485 74.6C198.485 75.1367 198.439 75.6033 198.345 76H191.345C191.252 75.6033 191.205 75.1367 191.205 74.6C191.205 74.04 191.252 73.5733 191.345 73.2H193.445C193.352 72.8033 193.305 72.3367 193.305 71.8C193.305 71.24 193.352 70.7733 193.445 70.4C193.352 70.0033 193.305 69.5367 193.305 69C193.305 68.44 193.352 67.9733 193.445 67.6C193.352 67.2033 193.305 66.7367 193.305 66.2C193.305 65.64 193.352 65.1733 193.445 64.8H191.345C191.252 64.4033 191.205 63.9367 191.205 63.4C191.205 62.84 191.252 62.3733 191.345 62H194.845C194.939 62.3733 194.985 62.84 194.985 63.4C194.985 63.9367 194.939 64.4033 194.845 64.8H196.245C196.152 64.4033 196.105 63.9367 196.105 63.4C196.105 62.84 196.152 62.3733 196.245 62H201.495C201.589 62.3733 201.635 62.84 201.635 63.4C201.635 63.9367 201.589 64.4033 201.495 64.8H202.545ZM216.699 63.4C216.699 63.9367 216.652 64.4033 216.559 64.8H215.509C215.602 65.1733 215.649 65.64 215.649 66.2C215.649 66.7367 215.602 67.2033 215.509 67.6H214.459C214.552 67.9733 214.599 68.44 214.599 69C214.599 69.5367 214.552 70.0033 214.459 70.4H213.759C213.852 70.7733 213.899 71.24 213.899 71.8C213.899 72.3367 213.852 72.8033 213.759 73.2H212.709C212.802 73.5733 212.849 74.04 212.849 74.6C212.849 75.1367 212.802 75.6033 212.709 76H212.009C212.102 76.3733 212.149 76.84 212.149 77.4C212.149 77.9367 212.102 78.4033 212.009 78.8H210.609C210.702 79.1733 210.749 79.64 210.749 80.2C210.749 80.7367 210.702 81.2033 210.609 81.6H206.409C206.316 81.2033 206.269 80.7367 206.269 80.2C206.269 79.64 206.316 79.1733 206.409 78.8H209.209C209.116 78.4033 209.069 77.9367 209.069 77.4C209.069 76.84 209.116 76.3733 209.209 76C209.116 75.6033 209.069 75.1367 209.069 74.6C209.069 74.04 209.116 73.5733 209.209 73.2H207.809C207.716 72.8033 207.669 72.3367 207.669 71.8C207.669 71.24 207.716 70.7733 207.809 70.4H207.109C207.016 70.0033 206.969 69.5367 206.969 69C206.969 68.44 207.016 67.9733 207.109 67.6H206.059C205.966 67.2033 205.919 66.7367 205.919 66.2C205.919 65.64 205.966 65.1733 206.059 64.8H205.009C204.916 64.4033 204.869 63.9367 204.869 63.4C204.869 62.84 204.916 62.3733 205.009 62H207.809C207.902 62.3733 207.949 62.84 207.949 63.4C207.949 63.9367 207.902 64.4033 207.809 64.8H208.859C208.952 65.1733 208.999 65.64 208.999 66.2C208.999 66.7367 208.952 67.2033 208.859 67.6H209.909C210.002 67.9733 210.049 68.44 210.049 69C210.049 69.5367 210.002 70.0033 209.909 70.4C210.002 70.7733 210.049 71.24 210.049 71.8C210.049 72.3367 210.002 72.8033 209.909 73.2H210.959C210.866 72.8033 210.819 72.3367 210.819 71.8C210.819 71.24 210.866 70.7733 210.959 70.4H211.659C211.566 70.0033 211.519 69.5367 211.519 69C211.519 68.44 211.566 67.9733 211.659 67.6H212.709C212.616 67.2033 212.569 66.7367 212.569 66.2C212.569 65.64 212.616 65.1733 212.709 64.8H213.759C213.666 64.4033 213.619 63.9367 213.619 63.4C213.619 62.84 213.666 62.3733 213.759 62H216.559C216.652 62.3733 216.699 62.84 216.699 63.4ZM230.713 69C230.713 69.5367 230.666 70.0033 230.573 70.4H229.173C229.266 70.7733 229.313 71.24 229.313 71.8C229.313 72.3367 229.266 72.8033 229.173 73.2H227.773C227.866 73.5733 227.913 74.04 227.913 74.6C227.913 75.1367 227.866 75.6033 227.773 76H222.173C222.266 76.3733 222.313 76.84 222.313 77.4C222.313 77.9367 222.266 78.4033 222.173 78.8C222.266 79.1733 222.313 79.64 222.313 80.2C222.313 80.7367 222.266 81.2033 222.173 81.6H219.373C219.279 81.2033 219.233 80.7367 219.233 80.2C219.233 79.64 219.279 79.1733 219.373 78.8C219.279 78.4033 219.233 77.9367 219.233 77.4C219.233 76.84 219.279 76.3733 219.373 76C219.279 75.6033 219.233 75.1367 219.233 74.6C219.233 74.04 219.279 73.5733 219.373 73.2C219.279 72.8033 219.233 72.3367 219.233 71.8C219.233 71.24 219.279 70.7733 219.373 70.4C219.279 70.0033 219.233 69.5367 219.233 69C219.233 68.44 219.279 67.9733 219.373 67.6C219.279 67.2033 219.233 66.7367 219.233 66.2C219.233 65.64 219.279 65.1733 219.373 64.8C219.279 64.4033 219.233 63.9367 219.233 63.4C219.233 62.84 219.279 62.3733 219.373 62H222.173C222.266 62.3733 222.313 62.84 222.313 63.4C222.313 63.9367 222.266 64.4033 222.173 64.8H223.573C223.666 65.1733 223.713 65.64 223.713 66.2C223.713 66.7367 223.666 67.2033 223.573 67.6H222.173C222.266 67.9733 222.313 68.44 222.313 69C222.313 69.5367 222.266 70.0033 222.173 70.4C222.266 70.7733 222.313 71.24 222.313 71.8C222.313 72.3367 222.266 72.8033 222.173 73.2H226.373C226.279 72.8033 226.233 72.3367 226.233 71.8C226.233 71.24 226.279 70.7733 226.373 70.4H227.773C227.679 70.0033 227.633 69.5367 227.633 69C227.633 68.44 227.679 67.9733 227.773 67.6H226.373C226.279 67.2033 226.233 66.7367 226.233 66.2C226.233 65.64 226.279 65.1733 226.373 64.8H223.573C223.479 64.4033 223.433 63.9367 223.433 63.4C223.433 62.84 223.479 62.3733 223.573 62H227.773C227.866 62.3733 227.913 62.84 227.913 63.4C227.913 63.9367 227.866 64.4033 227.773 64.8H229.173C229.266 65.1733 229.313 65.64 229.313 66.2C229.313 66.7367 229.266 67.2033 229.173 67.6H230.573C230.666 67.9733 230.713 68.44 230.713 69ZM243.186 73.2C243.28 73.5733 243.326 74.04 243.326 74.6C243.326 75.1367 243.28 75.6033 243.186 76H237.586C237.493 75.6033 237.446 75.1367 237.446 74.6C237.446 74.04 237.493 73.5733 237.586 73.2H236.186C236.093 72.8033 236.046 72.3367 236.046 71.8C236.046 71.24 236.093 70.7733 236.186 70.4C236.093 70.0033 236.046 69.5367 236.046 69C236.046 68.44 236.093 67.9733 236.186 67.6C236.093 67.2033 236.046 66.7367 236.046 66.2C236.046 65.64 236.093 65.1733 236.186 64.8H233.386C233.293 64.4033 233.246 63.9367 233.246 63.4C233.246 62.84 233.293 62.3733 233.386 62H236.186C236.093 61.6033 236.046 61.1367 236.046 60.6C236.046 60.04 236.093 59.5733 236.186 59.2C236.093 58.8033 236.046 58.3367 236.046 57.8C236.046 57.24 236.093 56.7733 236.186 56.4H238.986C239.08 56.7733 239.126 57.24 239.126 57.8C239.126 58.3367 239.08 58.8033 238.986 59.2C239.08 59.5733 239.126 60.04 239.126 60.6C239.126 61.1367 239.08 61.6033 238.986 62H243.186C243.28 62.3733 243.326 62.84 243.326 63.4C243.326 63.9367 243.28 64.4033 243.186 64.8H238.986C239.08 65.1733 239.126 65.64 239.126 66.2C239.126 66.7367 239.08 67.2033 238.986 67.6C239.08 67.9733 239.126 68.44 239.126 69C239.126 69.5367 239.08 70.0033 238.986 70.4C239.08 70.7733 239.126 71.24 239.126 71.8C239.126 72.3367 239.08 72.8033 238.986 73.2H243.186ZM258.74 69C258.74 69.5367 258.693 70.0033 258.6 70.4H257.55C257.643 70.7733 257.69 71.24 257.69 71.8C257.69 72.3367 257.643 72.8033 257.55 73.2H255.8C255.893 73.5733 255.94 74.04 255.94 74.6C255.94 75.1367 255.893 75.6033 255.8 76H250.2C250.107 75.6033 250.06 75.1367 250.06 74.6C250.06 74.04 250.107 73.5733 250.2 73.2H248.45C248.357 72.8033 248.31 72.3367 248.31 71.8C248.31 71.24 248.357 70.7733 248.45 70.4H247.4C247.307 70.0033 247.26 69.5367 247.26 69C247.26 68.44 247.307 67.9733 247.4 67.6H248.45C248.357 67.2033 248.31 66.7367 248.31 66.2C248.31 65.64 248.357 65.1733 248.45 64.8H250.2C250.107 64.4033 250.06 63.9367 250.06 63.4C250.06 62.84 250.107 62.3733 250.2 62H255.8C255.893 62.3733 255.94 62.84 255.94 63.4C255.94 63.9367 255.893 64.4033 255.8 64.8H257.55C257.643 65.1733 257.69 65.64 257.69 66.2C257.69 66.7367 257.643 67.2033 257.55 67.6H258.6C258.693 67.9733 258.74 68.44 258.74 69ZM255.8 70.4C255.707 70.0033 255.66 69.5367 255.66 69C255.66 68.44 255.707 67.9733 255.8 67.6H254.75C254.657 67.2033 254.61 66.7367 254.61 66.2C254.61 65.64 254.657 65.1733 254.75 64.8H251.25C251.343 65.1733 251.39 65.64 251.39 66.2C251.39 66.7367 251.343 67.2033 251.25 67.6H250.2C250.293 67.9733 250.34 68.44 250.34 69C250.34 69.5367 250.293 70.0033 250.2 70.4H251.25C251.343 70.7733 251.39 71.24 251.39 71.8C251.39 72.3367 251.343 72.8033 251.25 73.2H254.75C254.657 72.8033 254.61 72.3367 254.61 71.8C254.61 71.24 254.657 70.7733 254.75 70.4H255.8ZM272.614 70.4C272.707 70.7733 272.754 71.24 272.754 71.8C272.754 72.3367 272.707 72.8033 272.614 73.2H271.214C271.307 73.5733 271.354 74.04 271.354 74.6C271.354 75.1367 271.307 75.6033 271.214 76H264.214C264.12 75.6033 264.074 75.1367 264.074 74.6C264.074 74.04 264.12 73.5733 264.214 73.2H262.814C262.72 72.8033 262.674 72.3367 262.674 71.8C262.674 71.24 262.72 70.7733 262.814 70.4H261.414C261.32 70.0033 261.274 69.5367 261.274 69C261.274 68.44 261.32 67.9733 261.414 67.6H262.814C262.72 67.2033 262.674 66.7367 262.674 66.2C262.674 65.64 262.72 65.1733 262.814 64.8H264.214C264.12 64.4033 264.074 63.9367 264.074 63.4C264.074 62.84 264.12 62.3733 264.214 62H271.214C271.307 62.3733 271.354 62.84 271.354 63.4C271.354 63.9367 271.307 64.4033 271.214 64.8H272.614C272.707 65.1733 272.754 65.64 272.754 66.2C272.754 66.7367 272.707 67.2033 272.614 67.6H269.814C269.72 67.2033 269.674 66.7367 269.674 66.2C269.674 65.64 269.72 65.1733 269.814 64.8H265.614C265.707 65.1733 265.754 65.64 265.754 66.2C265.754 66.7367 265.707 67.2033 265.614 67.6H264.214C264.307 67.9733 264.354 68.44 264.354 69C264.354 69.5367 264.307 70.0033 264.214 70.4H265.614C265.707 70.7733 265.754 71.24 265.754 71.8C265.754 72.3367 265.707 72.8033 265.614 73.2H269.814C269.72 72.8033 269.674 72.3367 269.674 71.8C269.674 71.24 269.72 70.7733 269.814 70.4H272.614ZM279.417 71.8C279.417 72.3367 279.371 72.8033 279.277 73.2H282.777C282.871 73.5733 282.917 74.04 282.917 74.6C282.917 75.1367 282.871 75.6033 282.777 76H277.177C277.084 75.6033 277.037 75.1367 277.037 74.6C277.037 74.04 277.084 73.5733 277.177 73.2H275.427C275.334 72.8033 275.287 72.3367 275.287 71.8C275.287 71.24 275.334 70.7733 275.427 70.4C275.334 70.0033 275.287 69.5367 275.287 69C275.287 68.44 275.334 67.9733 275.427 67.6C275.334 67.2033 275.287 66.7367 275.287 66.2C275.287 65.64 275.334 65.1733 275.427 64.8C275.334 64.4033 275.287 63.9367 275.287 63.4C275.287 62.84 275.334 62.3733 275.427 62H278.227C278.321 62.3733 278.367 62.84 278.367 63.4C278.367 63.9367 278.321 64.4033 278.227 64.8C278.321 65.1733 278.367 65.64 278.367 66.2C278.367 66.7367 278.321 67.2033 278.227 67.6C278.321 67.9733 278.367 68.44 278.367 69C278.367 69.5367 278.321 70.0033 278.227 70.4H279.277C279.371 70.7733 279.417 71.24 279.417 71.8ZM286.627 64.8C286.721 65.1733 286.767 65.64 286.767 66.2C286.767 66.7367 286.721 67.2033 286.627 67.6C286.721 67.9733 286.767 68.44 286.767 69C286.767 69.5367 286.721 70.0033 286.627 70.4C286.721 70.7733 286.767 71.24 286.767 71.8C286.767 72.3367 286.721 72.8033 286.627 73.2C286.721 73.5733 286.767 74.04 286.767 74.6C286.767 75.1367 286.721 75.6033 286.627 76H283.827C283.734 75.6033 283.687 75.1367 283.687 74.6C283.687 74.04 283.734 73.5733 283.827 73.2H282.777C282.684 72.8033 282.637 72.3367 282.637 71.8C282.637 71.24 282.684 70.7733 282.777 70.4H283.827C283.734 70.0033 283.687 69.5367 283.687 69C283.687 68.44 283.734 67.9733 283.827 67.6C283.734 67.2033 283.687 66.7367 283.687 66.2C283.687 65.64 283.734 65.1733 283.827 64.8C283.734 64.4033 283.687 63.9367 283.687 63.4C283.687 62.84 283.734 62.3733 283.827 62H286.627C286.721 62.3733 286.767 62.84 286.767 63.4C286.767 63.9367 286.721 64.4033 286.627 64.8ZM300.641 64.8C300.734 65.1733 300.781 65.64 300.781 66.2C300.781 66.7367 300.734 67.2033 300.641 67.6H297.841C297.748 67.2033 297.701 66.7367 297.701 66.2C297.701 65.64 297.748 65.1733 297.841 64.8H295.391C295.484 65.1733 295.531 65.64 295.531 66.2C295.531 66.7367 295.484 67.2033 295.391 67.6H294.341C294.434 67.9733 294.481 68.44 294.481 69C294.481 69.5367 294.434 70.0033 294.341 70.4C294.434 70.7733 294.481 71.24 294.481 71.8C294.481 72.3367 294.434 72.8033 294.341 73.2H296.441C296.534 73.5733 296.581 74.04 296.581 74.6C296.581 75.1367 296.534 75.6033 296.441 76H289.441C289.348 75.6033 289.301 75.1367 289.301 74.6C289.301 74.04 289.348 73.5733 289.441 73.2H291.541C291.448 72.8033 291.401 72.3367 291.401 71.8C291.401 71.24 291.448 70.7733 291.541 70.4C291.448 70.0033 291.401 69.5367 291.401 69C291.401 68.44 291.448 67.9733 291.541 67.6C291.448 67.2033 291.401 66.7367 291.401 66.2C291.401 65.64 291.448 65.1733 291.541 64.8H289.441C289.348 64.4033 289.301 63.9367 289.301 63.4C289.301 62.84 289.348 62.3733 289.441 62H292.941C293.034 62.3733 293.081 62.84 293.081 63.4C293.081 63.9367 293.034 64.4033 292.941 64.8H294.341C294.248 64.4033 294.201 63.9367 294.201 63.4C294.201 62.84 294.248 62.3733 294.341 62H299.591C299.684 62.3733 299.731 62.84 299.731 63.4C299.731 63.9367 299.684 64.4033 299.591 64.8H300.641ZM314.655 64.8C314.748 65.1733 314.795 65.64 314.795 66.2C314.795 66.7367 314.748 67.2033 314.655 67.6H311.855C311.761 67.2033 311.715 66.7367 311.715 66.2C311.715 65.64 311.761 65.1733 311.855 64.8H309.405C309.498 65.1733 309.545 65.64 309.545 66.2C309.545 66.7367 309.498 67.2033 309.405 67.6H308.355C308.448 67.9733 308.495 68.44 308.495 69C308.495 69.5367 308.448 70.0033 308.355 70.4C308.448 70.7733 308.495 71.24 308.495 71.8C308.495 72.3367 308.448 72.8033 308.355 73.2H310.455C310.548 73.5733 310.595 74.04 310.595 74.6C310.595 75.1367 310.548 75.6033 310.455 76H303.455C303.361 75.6033 303.315 75.1367 303.315 74.6C303.315 74.04 303.361 73.5733 303.455 73.2H305.555C305.461 72.8033 305.415 72.3367 305.415 71.8C305.415 71.24 305.461 70.7733 305.555 70.4C305.461 70.0033 305.415 69.5367 305.415 69C305.415 68.44 305.461 67.9733 305.555 67.6C305.461 67.2033 305.415 66.7367 305.415 66.2C305.415 65.64 305.461 65.1733 305.555 64.8H303.455C303.361 64.4033 303.315 63.9367 303.315 63.4C303.315 62.84 303.361 62.3733 303.455 62H306.955C307.048 62.3733 307.095 62.84 307.095 63.4C307.095 63.9367 307.048 64.4033 306.955 64.8H308.355C308.261 64.4033 308.215 63.9367 308.215 63.4C308.215 62.84 308.261 62.3733 308.355 62H313.605C313.698 62.3733 313.745 62.84 313.745 63.4C313.745 63.9367 313.698 64.4033 313.605 64.8H314.655ZM328.808 66.2C328.808 66.7367 328.762 67.2033 328.668 67.6C328.762 67.9733 328.808 68.44 328.808 69C328.808 69.5367 328.762 70.0033 328.668 70.4H321.318C321.412 70.7733 321.458 71.24 321.458 71.8C321.458 72.3367 321.412 72.8033 321.318 73.2H327.268C327.362 73.5733 327.408 74.04 327.408 74.6C327.408 75.1367 327.362 75.6033 327.268 76H320.268C320.175 75.6033 320.128 75.1367 320.128 74.6C320.128 74.04 320.175 73.5733 320.268 73.2H318.518C318.425 72.8033 318.378 72.3367 318.378 71.8C318.378 71.24 318.425 70.7733 318.518 70.4H317.468C317.375 70.0033 317.328 69.5367 317.328 69C317.328 68.44 317.375 67.9733 317.468 67.6H318.518C318.425 67.2033 318.378 66.7367 318.378 66.2C318.378 65.64 318.425 65.1733 318.518 64.8H320.268C320.175 64.4033 320.128 63.9367 320.128 63.4C320.128 62.84 320.175 62.3733 320.268 62H327.268C327.362 62.3733 327.408 62.84 327.408 63.4C327.408 63.9367 327.362 64.4033 327.268 64.8H328.668C328.762 65.1733 328.808 65.64 328.808 66.2ZM325.868 67.6C325.775 67.2033 325.728 66.7367 325.728 66.2C325.728 65.64 325.775 65.1733 325.868 64.8H321.318C321.412 65.1733 321.458 65.64 321.458 66.2C321.458 66.7367 321.412 67.2033 321.318 67.6H325.868ZM334.072 63.4C334.072 63.9367 334.025 64.4033 333.932 64.8H335.332C335.425 65.1733 335.472 65.64 335.472 66.2C335.472 66.7367 335.425 67.2033 335.332 67.6H334.282C334.375 67.9733 334.422 68.44 334.422 69C334.422 69.5367 334.375 70.0033 334.282 70.4C334.375 70.7733 334.422 71.24 334.422 71.8C334.422 72.3367 334.375 72.8033 334.282 73.2C334.375 73.5733 334.422 74.04 334.422 74.6C334.422 75.1367 334.375 75.6033 334.282 76H331.482C331.389 75.6033 331.342 75.1367 331.342 74.6C331.342 74.04 331.389 73.5733 331.482 73.2C331.389 72.8033 331.342 72.3367 331.342 71.8C331.342 71.24 331.389 70.7733 331.482 70.4C331.389 70.0033 331.342 69.5367 331.342 69C331.342 68.44 331.389 67.9733 331.482 67.6C331.389 67.2033 331.342 66.7367 331.342 66.2C331.342 65.64 331.389 65.1733 331.482 64.8C331.389 64.4033 331.342 63.9367 331.342 63.4C331.342 62.84 331.389 62.3733 331.482 62H333.932C334.025 62.3733 334.072 62.84 334.072 63.4ZM342.682 67.6C342.775 67.9733 342.822 68.44 342.822 69C342.822 69.5367 342.775 70.0033 342.682 70.4C342.775 70.7733 342.822 71.24 342.822 71.8C342.822 72.3367 342.775 72.8033 342.682 73.2C342.775 73.5733 342.822 74.04 342.822 74.6C342.822 75.1367 342.775 75.6033 342.682 76H339.882C339.789 75.6033 339.742 75.1367 339.742 74.6C339.742 74.04 339.789 73.5733 339.882 73.2C339.789 72.8033 339.742 72.3367 339.742 71.8C339.742 71.24 339.789 70.7733 339.882 70.4C339.789 70.0033 339.742 69.5367 339.742 69C339.742 68.44 339.789 67.9733 339.882 67.6C339.789 67.2033 339.742 66.7367 339.742 66.2C339.742 65.64 339.789 65.1733 339.882 64.8H335.332C335.239 64.4033 335.192 63.9367 335.192 63.4C335.192 62.84 335.239 62.3733 335.332 62H340.932C341.025 62.3733 341.072 62.84 341.072 63.4C341.072 63.9367 341.025 64.4033 340.932 64.8H342.682C342.775 65.1733 342.822 65.64 342.822 66.2C342.822 66.7367 342.775 67.2033 342.682 67.6ZM356.696 70.4C356.789 70.7733 356.836 71.24 356.836 71.8C356.836 72.3367 356.789 72.8033 356.696 73.2H355.296C355.389 73.5733 355.436 74.04 355.436 74.6C355.436 75.1367 355.389 75.6033 355.296 76H348.296C348.202 75.6033 348.156 75.1367 348.156 74.6C348.156 74.04 348.202 73.5733 348.296 73.2H346.896C346.802 72.8033 346.756 72.3367 346.756 71.8C346.756 71.24 346.802 70.7733 346.896 70.4H345.496C345.402 70.0033 345.356 69.5367 345.356 69C345.356 68.44 345.402 67.9733 345.496 67.6H346.896C346.802 67.2033 346.756 66.7367 346.756 66.2C346.756 65.64 346.802 65.1733 346.896 64.8H348.296C348.202 64.4033 348.156 63.9367 348.156 63.4C348.156 62.84 348.202 62.3733 348.296 62H355.296C355.389 62.3733 355.436 62.84 355.436 63.4C355.436 63.9367 355.389 64.4033 355.296 64.8H356.696C356.789 65.1733 356.836 65.64 356.836 66.2C356.836 66.7367 356.789 67.2033 356.696 67.6H353.896C353.802 67.2033 353.756 66.7367 353.756 66.2C353.756 65.64 353.802 65.1733 353.896 64.8H349.696C349.789 65.1733 349.836 65.64 349.836 66.2C349.836 66.7367 349.789 67.2033 349.696 67.6H348.296C348.389 67.9733 348.436 68.44 348.436 69C348.436 69.5367 348.389 70.0033 348.296 70.4H349.696C349.789 70.7733 349.836 71.24 349.836 71.8C349.836 72.3367 349.789 72.8033 349.696 73.2H353.896C353.802 72.8033 353.756 72.3367 353.756 71.8C353.756 71.24 353.802 70.7733 353.896 70.4H356.696ZM370.849 63.4C370.849 63.9367 370.803 64.4033 370.709 64.8H369.659C369.753 65.1733 369.799 65.64 369.799 66.2C369.799 66.7367 369.753 67.2033 369.659 67.6H368.609C368.703 67.9733 368.749 68.44 368.749 69C368.749 69.5367 368.703 70.0033 368.609 70.4H367.909C368.003 70.7733 368.049 71.24 368.049 71.8C368.049 72.3367 368.003 72.8033 367.909 73.2H366.859C366.953 73.5733 366.999 74.04 366.999 74.6C366.999 75.1367 366.953 75.6033 366.859 76H366.159C366.253 76.3733 366.299 76.84 366.299 77.4C366.299 77.9367 366.253 78.4033 366.159 78.8H364.759C364.853 79.1733 364.899 79.64 364.899 80.2C364.899 80.7367 364.853 81.2033 364.759 81.6H360.559C360.466 81.2033 360.419 80.7367 360.419 80.2C360.419 79.64 360.466 79.1733 360.559 78.8H363.359C363.266 78.4033 363.219 77.9367 363.219 77.4C363.219 76.84 363.266 76.3733 363.359 76C363.266 75.6033 363.219 75.1367 363.219 74.6C363.219 74.04 363.266 73.5733 363.359 73.2H361.959C361.866 72.8033 361.819 72.3367 361.819 71.8C361.819 71.24 361.866 70.7733 361.959 70.4H361.259C361.166 70.0033 361.119 69.5367 361.119 69C361.119 68.44 361.166 67.9733 361.259 67.6H360.209C360.116 67.2033 360.069 66.7367 360.069 66.2C360.069 65.64 360.116 65.1733 360.209 64.8H359.159C359.066 64.4033 359.019 63.9367 359.019 63.4C359.019 62.84 359.066 62.3733 359.159 62H361.959C362.053 62.3733 362.099 62.84 362.099 63.4C362.099 63.9367 362.053 64.4033 361.959 64.8H363.009C363.103 65.1733 363.149 65.64 363.149 66.2C363.149 66.7367 363.103 67.2033 363.009 67.6H364.059C364.153 67.9733 364.199 68.44 364.199 69C364.199 69.5367 364.153 70.0033 364.059 70.4C364.153 70.7733 364.199 71.24 364.199 71.8C364.199 72.3367 364.153 72.8033 364.059 73.2H365.109C365.016 72.8033 364.969 72.3367 364.969 71.8C364.969 71.24 365.016 70.7733 365.109 70.4H365.809C365.716 70.0033 365.669 69.5367 365.669 69C365.669 68.44 365.716 67.9733 365.809 67.6H366.859C366.766 67.2033 366.719 66.7367 366.719 66.2C366.719 65.64 366.766 65.1733 366.859 64.8H367.909C367.816 64.4033 367.769 63.9367 367.769 63.4C367.769 62.84 367.816 62.3733 367.909 62H370.709C370.803 62.3733 370.849 62.84 370.849 63.4ZM384.163 60.6C384.163 61.1367 384.116 61.6033 384.023 62C384.116 62.3733 384.163 62.84 384.163 63.4C384.163 63.9367 384.116 64.4033 384.023 64.8H382.273C382.366 65.1733 382.413 65.64 382.413 66.2C382.413 66.7367 382.366 67.2033 382.273 67.6H380.523C380.616 67.9733 380.663 68.44 380.663 69C380.663 69.5367 380.616 70.0033 380.523 70.4H377.723C377.63 70.0033 377.583 69.5367 377.583 69C377.583 68.44 377.63 67.9733 377.723 67.6H379.473C379.38 67.2033 379.333 66.7367 379.333 66.2C379.333 65.64 379.38 65.1733 379.473 64.8H381.223C381.13 64.4033 381.083 63.9367 381.083 63.4C381.083 62.84 381.13 62.3733 381.223 62C381.13 61.6033 381.083 61.1367 381.083 60.6C381.083 60.04 381.13 59.5733 381.223 59.2H376.323C376.416 59.5733 376.463 60.04 376.463 60.6C376.463 61.1367 376.416 61.6033 376.323 62H373.523C373.43 61.6033 373.383 61.1367 373.383 60.6C373.383 60.04 373.43 59.5733 373.523 59.2H375.623C375.53 58.8033 375.483 58.3367 375.483 57.8C375.483 57.24 375.53 56.7733 375.623 56.4H382.623C382.716 56.7733 382.763 57.24 382.763 57.8C382.763 58.3367 382.716 58.8033 382.623 59.2H384.023C384.116 59.5733 384.163 60.04 384.163 60.6ZM380.523 73.2C380.616 73.5733 380.663 74.04 380.663 74.6C380.663 75.1367 380.616 75.6033 380.523 76H377.723C377.63 75.6033 377.583 75.1367 377.583 74.6C377.583 74.04 377.63 73.5733 377.723 73.2H380.523Z" fill="black"/>
<line x1="58.865" y1="4" x2="423.886" y2="4" stroke="black" stroke-width="8"/>
<line x1="56.7895" y1="94.5736" x2="421.81" y2="94.5736" stroke="black" stroke-width="8"/>
<line x1="423.839" y1="9.51688" x2="453.628" y2="9.51688" stroke="black" stroke-width="10"/>
<line x1="30.1917" y1="12.8349" x2="59.9813" y2="12.8349" stroke="black" stroke-width="10"/>
<line x1="27" y1="86.9376" x2="56.7895" y2="86.9376" stroke="black" stroke-width="10"/>
<line x1="421.711" y1="85.8316" x2="451.501" y2="85.8316" stroke="black" stroke-width="10"/>
<line x1="451.501" y1="16.047" x2="481.29" y2="16.047" stroke="black" stroke-width="8"/>
<line x1="448.309" y1="75.7715" x2="478.098" y2="75.7715" stroke="black" stroke-width="8"/>
<line x1="482.61" y1="72.0411" x2="482.61" y2="20.0469" stroke="black" stroke-width="8"/>
<line x1="26.1917" y1="83.0896" x2="26.1917" y2="16.729" stroke="black" stroke-width="8"/>
</svg>
