<svg width="484" height="100" viewBox="0 0 484 100" fill="none" xmlns="http://www.w3.org/2000/svg">
<line x1="55.865" y1="4" x2="420.886" y2="4" stroke="black" stroke-width="8"/>
<rect x="3" y="89" width="13.4279" height="7.46495" fill="white" stroke="black" stroke-width="6"/>
<path d="M66.4154 24.2C66.5088 24.5733 66.5554 25.04 66.5554 25.6C66.5554 26.1367 66.5088 26.6033 66.4154 27C66.5088 27.3733 66.5554 27.84 66.5554 28.4C66.5554 28.9367 66.5088 29.4033 66.4154 29.8C66.5088 30.1733 66.5554 30.64 66.5554 31.2C66.5554 31.7367 66.5088 32.2033 66.4154 32.6H65.3654C65.4588 32.9733 65.5054 33.44 65.5054 34C65.5054 34.5367 65.4588 35.0033 65.3654 35.4C65.4588 35.7733 65.5054 36.24 65.5054 36.8C65.5054 37.3367 65.4588 37.8033 65.3654 38.2H64.6654C64.7588 38.5733 64.8054 39.04 64.8054 39.6C64.8054 40.1367 64.7588 40.6033 64.6654 41H62.5654C62.4721 40.6033 62.4254 40.1367 62.4254 39.6C62.4254 39.04 62.4721 38.5733 62.5654 38.2H61.8654C61.7721 37.8033 61.7254 37.3367 61.7254 36.8C61.7254 36.24 61.7721 35.7733 61.8654 35.4H59.7654C59.8588 35.7733 59.9054 36.24 59.9054 36.8C59.9054 37.3367 59.8588 37.8033 59.7654 38.2H59.0654C59.1588 38.5733 59.2054 39.04 59.2054 39.6C59.2054 40.1367 59.1588 40.6033 59.0654 41H56.9654C56.8721 40.6033 56.8254 40.1367 56.8254 39.6C56.8254 39.04 56.8721 38.5733 56.9654 38.2H56.2654C56.1721 37.8033 56.1254 37.3367 56.1254 36.8C56.1254 36.24 56.1721 35.7733 56.2654 35.4C56.1721 35.0033 56.1254 34.5367 56.1254 34C56.1254 33.44 56.1721 32.9733 56.2654 32.6H55.2154C55.1221 32.2033 55.0754 31.7367 55.0754 31.2C55.0754 30.64 55.1221 30.1733 55.2154 29.8C55.1221 29.4033 55.0754 28.9367 55.0754 28.4C55.0754 27.84 55.1221 27.3733 55.2154 27C55.1221 26.6033 55.0754 26.1367 55.0754 25.6C55.0754 25.04 55.1221 24.5733 55.2154 24.2C55.1221 23.8033 55.0754 23.3367 55.0754 22.8C55.0754 22.24 55.1221 21.7733 55.2154 21.4H58.0154C58.1088 21.7733 58.1554 22.24 58.1554 22.8C58.1554 23.3367 58.1088 23.8033 58.0154 24.2C58.1088 24.5733 58.1554 25.04 58.1554 25.6C58.1554 26.1367 58.1088 26.6033 58.0154 27C58.1088 27.3733 58.1554 27.84 58.1554 28.4C58.1554 28.9367 58.1088 29.4033 58.0154 29.8C58.1088 30.1733 58.1554 30.64 58.1554 31.2C58.1554 31.7367 58.1088 32.2033 58.0154 32.6C58.1088 32.9733 58.1554 33.44 58.1554 34C58.1554 34.5367 58.1088 35.0033 58.0154 35.4H59.0654C58.9721 35.0033 58.9254 34.5367 58.9254 34C58.9254 33.44 58.9721 32.9733 59.0654 32.6H59.7654C59.6721 32.2033 59.6254 31.7367 59.6254 31.2C59.6254 30.64 59.6721 30.1733 59.7654 29.8C59.6721 29.4033 59.6254 28.9367 59.6254 28.4C59.6254 27.84 59.6721 27.3733 59.7654 27C59.6721 26.6033 59.6254 26.1367 59.6254 25.6C59.6254 25.04 59.6721 24.5733 59.7654 24.2C59.6721 23.8033 59.6254 23.3367 59.6254 22.8C59.6254 22.24 59.6721 21.7733 59.7654 21.4H61.8654C61.9588 21.7733 62.0054 22.24 62.0054 22.8C62.0054 23.3367 61.9588 23.8033 61.8654 24.2C61.9588 24.5733 62.0054 25.04 62.0054 25.6C62.0054 26.1367 61.9588 26.6033 61.8654 27C61.9588 27.3733 62.0054 27.84 62.0054 28.4C62.0054 28.9367 61.9588 29.4033 61.8654 29.8C61.9588 30.1733 62.0054 30.64 62.0054 31.2C62.0054 31.7367 61.9588 32.2033 61.8654 32.6H62.5654C62.6588 32.9733 62.7054 33.44 62.7054 34C62.7054 34.5367 62.6588 35.0033 62.5654 35.4H63.6154C63.5221 35.0033 63.4754 34.5367 63.4754 34C63.4754 33.44 63.5221 32.9733 63.6154 32.6C63.5221 32.2033 63.4754 31.7367 63.4754 31.2C63.4754 30.64 63.5221 30.1733 63.6154 29.8C63.5221 29.4033 63.4754 28.9367 63.4754 28.4C63.4754 27.84 63.5221 27.3733 63.6154 27C63.5221 26.6033 63.4754 26.1367 63.4754 25.6C63.4754 25.04 63.5221 24.5733 63.6154 24.2C63.5221 23.8033 63.4754 23.3367 63.4754 22.8C63.4754 22.24 63.5221 21.7733 63.6154 21.4H66.4154C66.5088 21.7733 66.5554 22.24 66.5554 22.8C66.5554 23.3367 66.5088 23.8033 66.4154 24.2ZM72.1691 28.4C72.1691 28.9367 72.1224 29.4033 72.0291 29.8H73.0791C73.1724 30.1733 73.2191 30.64 73.2191 31.2C73.2191 31.7367 73.1724 32.2033 73.0791 32.6H72.0291C72.1224 32.9733 72.1691 33.44 72.1691 34C72.1691 34.5367 72.1224 35.0033 72.0291 35.4C72.1224 35.7733 72.1691 36.24 72.1691 36.8C72.1691 37.3367 72.1224 37.8033 72.0291 38.2C72.1224 38.5733 72.1691 39.04 72.1691 39.6C72.1691 40.1367 72.1224 40.6033 72.0291 41H69.2291C69.1358 40.6033 69.0891 40.1367 69.0891 39.6C69.0891 39.04 69.1358 38.5733 69.2291 38.2C69.1358 37.8033 69.0891 37.3367 69.0891 36.8C69.0891 36.24 69.1358 35.7733 69.2291 35.4C69.1358 35.0033 69.0891 34.5367 69.0891 34C69.0891 33.44 69.1358 32.9733 69.2291 32.6C69.1358 32.2033 69.0891 31.7367 69.0891 31.2C69.0891 30.64 69.1358 30.1733 69.2291 29.8C69.1358 29.4033 69.0891 28.9367 69.0891 28.4C69.0891 27.84 69.1358 27.3733 69.2291 27C69.1358 26.6033 69.0891 26.1367 69.0891 25.6C69.0891 25.04 69.1358 24.5733 69.2291 24.2C69.1358 23.8033 69.0891 23.3367 69.0891 22.8C69.0891 22.24 69.1358 21.7733 69.2291 21.4H72.0291C72.1224 21.7733 72.1691 22.24 72.1691 22.8C72.1691 23.3367 72.1224 23.8033 72.0291 24.2C72.1224 24.5733 72.1691 25.04 72.1691 25.6C72.1691 26.1367 72.1224 26.6033 72.0291 27C72.1224 27.3733 72.1691 27.84 72.1691 28.4ZM80.4291 32.6C80.5224 32.9733 80.5691 33.44 80.5691 34C80.5691 34.5367 80.5224 35.0033 80.4291 35.4C80.5224 35.7733 80.5691 36.24 80.5691 36.8C80.5691 37.3367 80.5224 37.8033 80.4291 38.2C80.5224 38.5733 80.5691 39.04 80.5691 39.6C80.5691 40.1367 80.5224 40.6033 80.4291 41H77.6291C77.5358 40.6033 77.4891 40.1367 77.4891 39.6C77.4891 39.04 77.5358 38.5733 77.6291 38.2C77.5358 37.8033 77.4891 37.3367 77.4891 36.8C77.4891 36.24 77.5358 35.7733 77.6291 35.4C77.5358 35.0033 77.4891 34.5367 77.4891 34C77.4891 33.44 77.5358 32.9733 77.6291 32.6C77.5358 32.2033 77.4891 31.7367 77.4891 31.2C77.4891 30.64 77.5358 30.1733 77.6291 29.8H73.0791C72.9858 29.4033 72.9391 28.9367 72.9391 28.4C72.9391 27.84 72.9858 27.3733 73.0791 27H78.6791C78.7724 27.3733 78.8191 27.84 78.8191 28.4C78.8191 28.9367 78.7724 29.4033 78.6791 29.8H80.4291C80.5224 30.1733 80.5691 30.64 80.5691 31.2C80.5691 31.7367 80.5224 32.2033 80.4291 32.6ZM94.4428 38.2C94.5361 38.5733 94.5828 39.04 94.5828 39.6C94.5828 40.1367 94.5361 40.6033 94.4428 41H91.6428C91.5494 40.6033 91.5028 40.1367 91.5028 39.6C91.5028 39.04 91.5494 38.5733 91.6428 38.2H90.2428C90.1494 37.8033 90.1028 37.3367 90.1028 36.8C90.1028 36.24 90.1494 35.7733 90.2428 35.4H86.0428C86.1361 35.7733 86.1828 36.24 86.1828 36.8C86.1828 37.3367 86.1361 37.8033 86.0428 38.2H90.2428C90.3361 38.5733 90.3828 39.04 90.3828 39.6C90.3828 40.1367 90.3361 40.6033 90.2428 41H84.6428C84.5494 40.6033 84.5028 40.1367 84.5028 39.6C84.5028 39.04 84.5494 38.5733 84.6428 38.2H83.2428C83.1494 37.8033 83.1028 37.3367 83.1028 36.8C83.1028 36.24 83.1494 35.7733 83.2428 35.4H84.6428C84.5494 35.0033 84.5028 34.5367 84.5028 34C84.5028 33.44 84.5494 32.9733 84.6428 32.6H90.2428C90.1494 32.2033 90.1028 31.7367 90.1028 31.2C90.1028 30.64 90.1494 30.1733 90.2428 29.8H85.3428C85.2494 29.4033 85.2028 28.9367 85.2028 28.4C85.2028 27.84 85.2494 27.3733 85.3428 27H91.6428C91.7361 27.3733 91.7828 27.84 91.7828 28.4C91.7828 28.9367 91.7361 29.4033 91.6428 29.8H93.0428C93.1361 30.1733 93.1828 30.64 93.1828 31.2C93.1828 31.7367 93.1361 32.2033 93.0428 32.6C93.1361 32.9733 93.1828 33.44 93.1828 34C93.1828 34.5367 93.1361 35.0033 93.0428 35.4C93.1361 35.7733 93.1828 36.24 93.1828 36.8C93.1828 37.3367 93.1361 37.8033 93.0428 38.2H94.4428ZM107.056 38.2C107.15 38.5733 107.196 39.04 107.196 39.6C107.196 40.1367 107.15 40.6033 107.056 41H101.456C101.363 40.6033 101.316 40.1367 101.316 39.6C101.316 39.04 101.363 38.5733 101.456 38.2H100.056C99.9631 37.8033 99.9164 37.3367 99.9164 36.8C99.9164 36.24 99.9631 35.7733 100.056 35.4C99.9631 35.0033 99.9164 34.5367 99.9164 34C99.9164 33.44 99.9631 32.9733 100.056 32.6C99.9631 32.2033 99.9164 31.7367 99.9164 31.2C99.9164 30.64 99.9631 30.1733 100.056 29.8H97.2564C97.1631 29.4033 97.1164 28.9367 97.1164 28.4C97.1164 27.84 97.1631 27.3733 97.2564 27H100.056C99.9631 26.6033 99.9164 26.1367 99.9164 25.6C99.9164 25.04 99.9631 24.5733 100.056 24.2C99.9631 23.8033 99.9164 23.3367 99.9164 22.8C99.9164 22.24 99.9631 21.7733 100.056 21.4H102.856C102.95 21.7733 102.996 22.24 102.996 22.8C102.996 23.3367 102.95 23.8033 102.856 24.2C102.95 24.5733 102.996 25.04 102.996 25.6C102.996 26.1367 102.95 26.6033 102.856 27H107.056C107.15 27.3733 107.196 27.84 107.196 28.4C107.196 28.9367 107.15 29.4033 107.056 29.8H102.856C102.95 30.1733 102.996 30.64 102.996 31.2C102.996 31.7367 102.95 32.2033 102.856 32.6C102.95 32.9733 102.996 33.44 102.996 34C102.996 34.5367 102.95 35.0033 102.856 35.4C102.95 35.7733 102.996 36.24 102.996 36.8C102.996 37.3367 102.95 37.8033 102.856 38.2H107.056ZM129.484 24.2C129.39 23.8033 129.344 23.3367 129.344 22.8C129.344 22.24 129.39 21.7733 129.484 21.4H132.284C132.377 21.7733 132.424 22.24 132.424 22.8C132.424 23.3367 132.377 23.8033 132.284 24.2H129.484ZM135.084 38.2C135.177 38.5733 135.224 39.04 135.224 39.6C135.224 40.1367 135.177 40.6033 135.084 41H126.684C126.59 40.6033 126.544 40.1367 126.544 39.6C126.544 39.04 126.59 38.5733 126.684 38.2H129.484C129.39 37.8033 129.344 37.3367 129.344 36.8C129.344 36.24 129.39 35.7733 129.484 35.4C129.39 35.0033 129.344 34.5367 129.344 34C129.344 33.44 129.39 32.9733 129.484 32.6C129.39 32.2033 129.344 31.7367 129.344 31.2C129.344 30.64 129.39 30.1733 129.484 29.8H127.384C127.29 29.4033 127.244 28.9367 127.244 28.4C127.244 27.84 127.29 27.3733 127.384 27H132.284C132.377 27.3733 132.424 27.84 132.424 28.4C132.424 28.9367 132.377 29.4033 132.284 29.8C132.377 30.1733 132.424 30.64 132.424 31.2C132.424 31.7367 132.377 32.2033 132.284 32.6C132.377 32.9733 132.424 33.44 132.424 34C132.424 34.5367 132.377 35.0033 132.284 35.4C132.377 35.7733 132.424 36.24 132.424 36.8C132.424 37.3367 132.377 37.8033 132.284 38.2H135.084ZM149.937 36.8C149.937 37.3367 149.891 37.8033 149.797 38.2H148.397C148.491 38.5733 148.537 39.04 148.537 39.6C148.537 40.1367 148.491 40.6033 148.397 41H140.697C140.604 40.6033 140.557 40.1367 140.557 39.6C140.557 39.04 140.604 38.5733 140.697 38.2H146.997C146.904 37.8033 146.857 37.3367 146.857 36.8C146.857 36.24 146.904 35.7733 146.997 35.4H141.397C141.304 35.0033 141.257 34.5367 141.257 34C141.257 33.44 141.304 32.9733 141.397 32.6H139.997C139.904 32.2033 139.857 31.7367 139.857 31.2C139.857 30.64 139.904 30.1733 139.997 29.8H141.397C141.304 29.4033 141.257 28.9367 141.257 28.4C141.257 27.84 141.304 27.3733 141.397 27H149.097C149.191 27.3733 149.237 27.84 149.237 28.4C149.237 28.9367 149.191 29.4033 149.097 29.8H142.797C142.891 30.1733 142.937 30.64 142.937 31.2C142.937 31.7367 142.891 32.2033 142.797 32.6H148.397C148.491 32.9733 148.537 33.44 148.537 34C148.537 34.5367 148.491 35.0033 148.397 35.4H149.797C149.891 35.7733 149.937 36.24 149.937 36.8ZM177.125 38.2C177.218 38.5733 177.265 39.04 177.265 39.6C177.265 40.1367 177.218 40.6033 177.125 41H171.525C171.431 40.6033 171.385 40.1367 171.385 39.6C171.385 39.04 171.431 38.5733 171.525 38.2H170.125C170.031 37.8033 169.985 37.3367 169.985 36.8C169.985 36.24 170.031 35.7733 170.125 35.4C170.031 35.0033 169.985 34.5367 169.985 34C169.985 33.44 170.031 32.9733 170.125 32.6C170.031 32.2033 169.985 31.7367 169.985 31.2C169.985 30.64 170.031 30.1733 170.125 29.8H167.325C167.231 29.4033 167.185 28.9367 167.185 28.4C167.185 27.84 167.231 27.3733 167.325 27H170.125C170.031 26.6033 169.985 26.1367 169.985 25.6C169.985 25.04 170.031 24.5733 170.125 24.2C170.031 23.8033 169.985 23.3367 169.985 22.8C169.985 22.24 170.031 21.7733 170.125 21.4H172.925C173.018 21.7733 173.065 22.24 173.065 22.8C173.065 23.3367 173.018 23.8033 172.925 24.2C173.018 24.5733 173.065 25.04 173.065 25.6C173.065 26.1367 173.018 26.6033 172.925 27H177.125C177.218 27.3733 177.265 27.84 177.265 28.4C177.265 28.9367 177.218 29.4033 177.125 29.8H172.925C173.018 30.1733 173.065 30.64 173.065 31.2C173.065 31.7367 173.018 32.2033 172.925 32.6C173.018 32.9733 173.065 33.44 173.065 34C173.065 34.5367 173.018 35.0033 172.925 35.4C173.018 35.7733 173.065 36.24 173.065 36.8C173.065 37.3367 173.018 37.8033 172.925 38.2H177.125ZM184.278 28.4C184.278 28.9367 184.232 29.4033 184.138 29.8H185.188C185.282 30.1733 185.328 30.64 185.328 31.2C185.328 31.7367 185.282 32.2033 185.188 32.6H184.138C184.232 32.9733 184.278 33.44 184.278 34C184.278 34.5367 184.232 35.0033 184.138 35.4C184.232 35.7733 184.278 36.24 184.278 36.8C184.278 37.3367 184.232 37.8033 184.138 38.2C184.232 38.5733 184.278 39.04 184.278 39.6C184.278 40.1367 184.232 40.6033 184.138 41H181.338C181.245 40.6033 181.198 40.1367 181.198 39.6C181.198 39.04 181.245 38.5733 181.338 38.2C181.245 37.8033 181.198 37.3367 181.198 36.8C181.198 36.24 181.245 35.7733 181.338 35.4C181.245 35.0033 181.198 34.5367 181.198 34C181.198 33.44 181.245 32.9733 181.338 32.6C181.245 32.2033 181.198 31.7367 181.198 31.2C181.198 30.64 181.245 30.1733 181.338 29.8C181.245 29.4033 181.198 28.9367 181.198 28.4C181.198 27.84 181.245 27.3733 181.338 27C181.245 26.6033 181.198 26.1367 181.198 25.6C181.198 25.04 181.245 24.5733 181.338 24.2C181.245 23.8033 181.198 23.3367 181.198 22.8C181.198 22.24 181.245 21.7733 181.338 21.4H184.138C184.232 21.7733 184.278 22.24 184.278 22.8C184.278 23.3367 184.232 23.8033 184.138 24.2C184.232 24.5733 184.278 25.04 184.278 25.6C184.278 26.1367 184.232 26.6033 184.138 27C184.232 27.3733 184.278 27.84 184.278 28.4ZM192.538 32.6C192.632 32.9733 192.678 33.44 192.678 34C192.678 34.5367 192.632 35.0033 192.538 35.4C192.632 35.7733 192.678 36.24 192.678 36.8C192.678 37.3367 192.632 37.8033 192.538 38.2C192.632 38.5733 192.678 39.04 192.678 39.6C192.678 40.1367 192.632 40.6033 192.538 41H189.738C189.645 40.6033 189.598 40.1367 189.598 39.6C189.598 39.04 189.645 38.5733 189.738 38.2C189.645 37.8033 189.598 37.3367 189.598 36.8C189.598 36.24 189.645 35.7733 189.738 35.4C189.645 35.0033 189.598 34.5367 189.598 34C189.598 33.44 189.645 32.9733 189.738 32.6C189.645 32.2033 189.598 31.7367 189.598 31.2C189.598 30.64 189.645 30.1733 189.738 29.8H185.188C185.095 29.4033 185.048 28.9367 185.048 28.4C185.048 27.84 185.095 27.3733 185.188 27H190.788C190.882 27.3733 190.928 27.84 190.928 28.4C190.928 28.9367 190.882 29.4033 190.788 29.8H192.538C192.632 30.1733 192.678 30.64 192.678 31.2C192.678 31.7367 192.632 32.2033 192.538 32.6ZM206.692 31.2C206.692 31.7367 206.645 32.2033 206.552 32.6C206.645 32.9733 206.692 33.44 206.692 34C206.692 34.5367 206.645 35.0033 206.552 35.4H199.202C199.295 35.7733 199.342 36.24 199.342 36.8C199.342 37.3367 199.295 37.8033 199.202 38.2H205.152C205.245 38.5733 205.292 39.04 205.292 39.6C205.292 40.1367 205.245 40.6033 205.152 41H198.152C198.059 40.6033 198.012 40.1367 198.012 39.6C198.012 39.04 198.059 38.5733 198.152 38.2H196.402C196.309 37.8033 196.262 37.3367 196.262 36.8C196.262 36.24 196.309 35.7733 196.402 35.4H195.352C195.259 35.0033 195.212 34.5367 195.212 34C195.212 33.44 195.259 32.9733 195.352 32.6H196.402C196.309 32.2033 196.262 31.7367 196.262 31.2C196.262 30.64 196.309 30.1733 196.402 29.8H198.152C198.059 29.4033 198.012 28.9367 198.012 28.4C198.012 27.84 198.059 27.3733 198.152 27H205.152C205.245 27.3733 205.292 27.84 205.292 28.4C205.292 28.9367 205.245 29.4033 205.152 29.8H206.552C206.645 30.1733 206.692 30.64 206.692 31.2ZM203.752 32.6C203.659 32.2033 203.612 31.7367 203.612 31.2C203.612 30.64 203.659 30.1733 203.752 29.8H199.202C199.295 30.1733 199.342 30.64 199.342 31.2C199.342 31.7367 199.295 32.2033 199.202 32.6H203.752ZM234.579 29.8C234.673 30.1733 234.719 30.64 234.719 31.2C234.719 31.7367 234.673 32.2033 234.579 32.6H231.779C231.686 32.2033 231.639 31.7367 231.639 31.2C231.639 30.64 231.686 30.1733 231.779 29.8H229.329C229.423 30.1733 229.469 30.64 229.469 31.2C229.469 31.7367 229.423 32.2033 229.329 32.6H228.279C228.373 32.9733 228.419 33.44 228.419 34C228.419 34.5367 228.373 35.0033 228.279 35.4C228.373 35.7733 228.419 36.24 228.419 36.8C228.419 37.3367 228.373 37.8033 228.279 38.2H230.379C230.473 38.5733 230.519 39.04 230.519 39.6C230.519 40.1367 230.473 40.6033 230.379 41H223.379C223.286 40.6033 223.239 40.1367 223.239 39.6C223.239 39.04 223.286 38.5733 223.379 38.2H225.479C225.386 37.8033 225.339 37.3367 225.339 36.8C225.339 36.24 225.386 35.7733 225.479 35.4C225.386 35.0033 225.339 34.5367 225.339 34C225.339 33.44 225.386 32.9733 225.479 32.6C225.386 32.2033 225.339 31.7367 225.339 31.2C225.339 30.64 225.386 30.1733 225.479 29.8H223.379C223.286 29.4033 223.239 28.9367 223.239 28.4C223.239 27.84 223.286 27.3733 223.379 27H226.879C226.973 27.3733 227.019 27.84 227.019 28.4C227.019 28.9367 226.973 29.4033 226.879 29.8H228.279C228.186 29.4033 228.139 28.9367 228.139 28.4C228.139 27.84 228.186 27.3733 228.279 27H233.529C233.623 27.3733 233.669 27.84 233.669 28.4C233.669 28.9367 233.623 29.4033 233.529 29.8H234.579ZM241.593 24.2C241.5 23.8033 241.453 23.3367 241.453 22.8C241.453 22.24 241.5 21.7733 241.593 21.4H244.393C244.486 21.7733 244.533 22.24 244.533 22.8C244.533 23.3367 244.486 23.8033 244.393 24.2H241.593ZM247.193 38.2C247.286 38.5733 247.333 39.04 247.333 39.6C247.333 40.1367 247.286 40.6033 247.193 41H238.793C238.7 40.6033 238.653 40.1367 238.653 39.6C238.653 39.04 238.7 38.5733 238.793 38.2H241.593C241.5 37.8033 241.453 37.3367 241.453 36.8C241.453 36.24 241.5 35.7733 241.593 35.4C241.5 35.0033 241.453 34.5367 241.453 34C241.453 33.44 241.5 32.9733 241.593 32.6C241.5 32.2033 241.453 31.7367 241.453 31.2C241.453 30.64 241.5 30.1733 241.593 29.8H239.493C239.4 29.4033 239.353 28.9367 239.353 28.4C239.353 27.84 239.4 27.3733 239.493 27H244.393C244.486 27.3733 244.533 27.84 244.533 28.4C244.533 28.9367 244.486 29.4033 244.393 29.8C244.486 30.1733 244.533 30.64 244.533 31.2C244.533 31.7367 244.486 32.2033 244.393 32.6C244.486 32.9733 244.533 33.44 244.533 34C244.533 34.5367 244.486 35.0033 244.393 35.4C244.486 35.7733 244.533 36.24 244.533 36.8C244.533 37.3367 244.486 37.8033 244.393 38.2H247.193ZM262.047 36.8C262.047 37.3367 262 37.8033 261.907 38.2H260.507C260.6 38.5733 260.647 39.04 260.647 39.6C260.647 40.1367 260.6 40.6033 260.507 41H252.807C252.714 40.6033 252.667 40.1367 252.667 39.6C252.667 39.04 252.714 38.5733 252.807 38.2H259.107C259.014 37.8033 258.967 37.3367 258.967 36.8C258.967 36.24 259.014 35.7733 259.107 35.4H253.507C253.414 35.0033 253.367 34.5367 253.367 34C253.367 33.44 253.414 32.9733 253.507 32.6H252.107C252.014 32.2033 251.967 31.7367 251.967 31.2C251.967 30.64 252.014 30.1733 252.107 29.8H253.507C253.414 29.4033 253.367 28.9367 253.367 28.4C253.367 27.84 253.414 27.3733 253.507 27H261.207C261.3 27.3733 261.347 27.84 261.347 28.4C261.347 28.9367 261.3 29.4033 261.207 29.8H254.907C255 30.1733 255.047 30.64 255.047 31.2C255.047 31.7367 255 32.2033 254.907 32.6H260.507C260.6 32.9733 260.647 33.44 260.647 34C260.647 34.5367 260.6 35.0033 260.507 35.4H261.907C262 35.7733 262.047 36.24 262.047 36.8ZM276.621 38.2C276.714 38.5733 276.761 39.04 276.761 39.6C276.761 40.1367 276.714 40.6033 276.621 41H271.721C271.627 40.6033 271.581 40.1367 271.581 39.6C271.581 39.04 271.627 38.5733 271.721 38.2H270.321C270.227 37.8033 270.181 37.3367 270.181 36.8C270.181 36.24 270.227 35.7733 270.321 35.4H268.221C268.314 35.7733 268.361 36.24 268.361 36.8C268.361 37.3367 268.314 37.8033 268.221 38.2C268.314 38.5733 268.361 39.04 268.361 39.6C268.361 40.1367 268.314 40.6033 268.221 41H265.421C265.327 40.6033 265.281 40.1367 265.281 39.6C265.281 39.04 265.327 38.5733 265.421 38.2C265.327 37.8033 265.281 37.3367 265.281 36.8C265.281 36.24 265.327 35.7733 265.421 35.4C265.327 35.0033 265.281 34.5367 265.281 34C265.281 33.44 265.327 32.9733 265.421 32.6C265.327 32.2033 265.281 31.7367 265.281 31.2C265.281 30.64 265.327 30.1733 265.421 29.8C265.327 29.4033 265.281 28.9367 265.281 28.4C265.281 27.84 265.327 27.3733 265.421 27C265.327 26.6033 265.281 26.1367 265.281 25.6C265.281 25.04 265.327 24.5733 265.421 24.2C265.327 23.8033 265.281 23.3367 265.281 22.8C265.281 22.24 265.327 21.7733 265.421 21.4H268.221C268.314 21.7733 268.361 22.24 268.361 22.8C268.361 23.3367 268.314 23.8033 268.221 24.2C268.314 24.5733 268.361 25.04 268.361 25.6C268.361 26.1367 268.314 26.6033 268.221 27C268.314 27.3733 268.361 27.84 268.361 28.4C268.361 28.9367 268.314 29.4033 268.221 29.8C268.314 30.1733 268.361 30.64 268.361 31.2C268.361 31.7367 268.314 32.2033 268.221 32.6H270.321C270.227 32.2033 270.181 31.7367 270.181 31.2C270.181 30.64 270.227 30.1733 270.321 29.8H271.721C271.627 29.4033 271.581 28.9367 271.581 28.4C271.581 27.84 271.627 27.3733 271.721 27H275.921C276.014 27.3733 276.061 27.84 276.061 28.4C276.061 28.9367 276.014 29.4033 275.921 29.8H273.121C273.214 30.1733 273.261 30.64 273.261 31.2C273.261 31.7367 273.214 32.2033 273.121 32.6H271.721C271.814 32.9733 271.861 33.44 271.861 34C271.861 34.5367 271.814 35.0033 271.721 35.4H273.121C273.214 35.7733 273.261 36.24 273.261 36.8C273.261 37.3367 273.214 37.8033 273.121 38.2H276.621ZM304.648 38.2C304.741 38.5733 304.788 39.04 304.788 39.6C304.788 40.1367 304.741 40.6033 304.648 41H301.848C301.755 40.6033 301.708 40.1367 301.708 39.6C301.708 39.04 301.755 38.5733 301.848 38.2H300.448C300.355 37.8033 300.308 37.3367 300.308 36.8C300.308 36.24 300.355 35.7733 300.448 35.4H296.248C296.341 35.7733 296.388 36.24 296.388 36.8C296.388 37.3367 296.341 37.8033 296.248 38.2H300.448C300.541 38.5733 300.588 39.04 300.588 39.6C300.588 40.1367 300.541 40.6033 300.448 41H294.848C294.755 40.6033 294.708 40.1367 294.708 39.6C294.708 39.04 294.755 38.5733 294.848 38.2H293.448C293.355 37.8033 293.308 37.3367 293.308 36.8C293.308 36.24 293.355 35.7733 293.448 35.4H294.848C294.755 35.0033 294.708 34.5367 294.708 34C294.708 33.44 294.755 32.9733 294.848 32.6H300.448C300.355 32.2033 300.308 31.7367 300.308 31.2C300.308 30.64 300.355 30.1733 300.448 29.8H295.548C295.455 29.4033 295.408 28.9367 295.408 28.4C295.408 27.84 295.455 27.3733 295.548 27H301.848C301.941 27.3733 301.988 27.84 301.988 28.4C301.988 28.9367 301.941 29.4033 301.848 29.8H303.248C303.341 30.1733 303.388 30.64 303.388 31.2C303.388 31.7367 303.341 32.2033 303.248 32.6C303.341 32.9733 303.388 33.44 303.388 34C303.388 34.5367 303.341 35.0033 303.248 35.4C303.341 35.7733 303.388 36.24 303.388 36.8C303.388 37.3367 303.341 37.8033 303.248 38.2H304.648ZM318.102 36.8C318.102 37.3367 318.055 37.8033 317.962 38.2H316.562C316.655 38.5733 316.702 39.04 316.702 39.6C316.702 40.1367 316.655 40.6033 316.562 41H308.862C308.768 40.6033 308.722 40.1367 308.722 39.6C308.722 39.04 308.768 38.5733 308.862 38.2H315.162C315.068 37.8033 315.022 37.3367 315.022 36.8C315.022 36.24 315.068 35.7733 315.162 35.4H309.562C309.468 35.0033 309.422 34.5367 309.422 34C309.422 33.44 309.468 32.9733 309.562 32.6H308.162C308.068 32.2033 308.022 31.7367 308.022 31.2C308.022 30.64 308.068 30.1733 308.162 29.8H309.562C309.468 29.4033 309.422 28.9367 309.422 28.4C309.422 27.84 309.468 27.3733 309.562 27H317.262C317.355 27.3733 317.402 27.84 317.402 28.4C317.402 28.9367 317.355 29.4033 317.262 29.8H310.962C311.055 30.1733 311.102 30.64 311.102 31.2C311.102 31.7367 311.055 32.2033 310.962 32.6H316.562C316.655 32.9733 316.702 33.44 316.702 34C316.702 34.5367 316.655 35.0033 316.562 35.4H317.962C318.055 35.7733 318.102 36.24 318.102 36.8ZM332.115 36.8C332.115 37.3367 332.069 37.8033 331.975 38.2H330.575C330.669 38.5733 330.715 39.04 330.715 39.6C330.715 40.1367 330.669 40.6033 330.575 41H322.875C322.782 40.6033 322.735 40.1367 322.735 39.6C322.735 39.04 322.782 38.5733 322.875 38.2H329.175C329.082 37.8033 329.035 37.3367 329.035 36.8C329.035 36.24 329.082 35.7733 329.175 35.4H323.575C323.482 35.0033 323.435 34.5367 323.435 34C323.435 33.44 323.482 32.9733 323.575 32.6H322.175C322.082 32.2033 322.035 31.7367 322.035 31.2C322.035 30.64 322.082 30.1733 322.175 29.8H323.575C323.482 29.4033 323.435 28.9367 323.435 28.4C323.435 27.84 323.482 27.3733 323.575 27H331.275C331.369 27.3733 331.415 27.84 331.415 28.4C331.415 28.9367 331.369 29.4033 331.275 29.8H324.975C325.069 30.1733 325.115 30.64 325.115 31.2C325.115 31.7367 325.069 32.2033 324.975 32.6H330.575C330.669 32.9733 330.715 33.44 330.715 34C330.715 34.5367 330.669 35.0033 330.575 35.4H331.975C332.069 35.7733 332.115 36.24 332.115 36.8ZM346.829 34C346.829 34.5367 346.782 35.0033 346.689 35.4H345.639C345.732 35.7733 345.779 36.24 345.779 36.8C345.779 37.3367 345.732 37.8033 345.639 38.2H343.889C343.982 38.5733 344.029 39.04 344.029 39.6C344.029 40.1367 343.982 40.6033 343.889 41H338.289C338.196 40.6033 338.149 40.1367 338.149 39.6C338.149 39.04 338.196 38.5733 338.289 38.2H336.539C336.446 37.8033 336.399 37.3367 336.399 36.8C336.399 36.24 336.446 35.7733 336.539 35.4H335.489C335.396 35.0033 335.349 34.5367 335.349 34C335.349 33.44 335.396 32.9733 335.489 32.6H336.539C336.446 32.2033 336.399 31.7367 336.399 31.2C336.399 30.64 336.446 30.1733 336.539 29.8H338.289C338.196 29.4033 338.149 28.9367 338.149 28.4C338.149 27.84 338.196 27.3733 338.289 27H343.889C343.982 27.3733 344.029 27.84 344.029 28.4C344.029 28.9367 343.982 29.4033 343.889 29.8H345.639C345.732 30.1733 345.779 30.64 345.779 31.2C345.779 31.7367 345.732 32.2033 345.639 32.6H346.689C346.782 32.9733 346.829 33.44 346.829 34ZM343.889 35.4C343.796 35.0033 343.749 34.5367 343.749 34C343.749 33.44 343.796 32.9733 343.889 32.6H342.839C342.746 32.2033 342.699 31.7367 342.699 31.2C342.699 30.64 342.746 30.1733 342.839 29.8H339.339C339.432 30.1733 339.479 30.64 339.479 31.2C339.479 31.7367 339.432 32.2033 339.339 32.6H338.289C338.382 32.9733 338.429 33.44 338.429 34C338.429 34.5367 338.382 35.0033 338.289 35.4H339.339C339.432 35.7733 339.479 36.24 339.479 36.8C339.479 37.3367 339.432 37.8033 339.339 38.2H342.839C342.746 37.8033 342.699 37.3367 342.699 36.8C342.699 36.24 342.746 35.7733 342.839 35.4H343.889ZM360.703 35.4C360.796 35.7733 360.843 36.24 360.843 36.8C360.843 37.3367 360.796 37.8033 360.703 38.2H359.303C359.396 38.5733 359.443 39.04 359.443 39.6C359.443 40.1367 359.396 40.6033 359.303 41H352.303C352.209 40.6033 352.163 40.1367 352.163 39.6C352.163 39.04 352.209 38.5733 352.303 38.2H350.903C350.809 37.8033 350.763 37.3367 350.763 36.8C350.763 36.24 350.809 35.7733 350.903 35.4H349.503C349.409 35.0033 349.363 34.5367 349.363 34C349.363 33.44 349.409 32.9733 349.503 32.6H350.903C350.809 32.2033 350.763 31.7367 350.763 31.2C350.763 30.64 350.809 30.1733 350.903 29.8H352.303C352.209 29.4033 352.163 28.9367 352.163 28.4C352.163 27.84 352.209 27.3733 352.303 27H359.303C359.396 27.3733 359.443 27.84 359.443 28.4C359.443 28.9367 359.396 29.4033 359.303 29.8H360.703C360.796 30.1733 360.843 30.64 360.843 31.2C360.843 31.7367 360.796 32.2033 360.703 32.6H357.903C357.809 32.2033 357.763 31.7367 357.763 31.2C357.763 30.64 357.809 30.1733 357.903 29.8H353.703C353.796 30.1733 353.843 30.64 353.843 31.2C353.843 31.7367 353.796 32.2033 353.703 32.6H352.303C352.396 32.9733 352.443 33.44 352.443 34C352.443 34.5367 352.396 35.0033 352.303 35.4H353.703C353.796 35.7733 353.843 36.24 353.843 36.8C353.843 37.3367 353.796 37.8033 353.703 38.2H357.903C357.809 37.8033 357.763 37.3367 357.763 36.8C357.763 36.24 357.809 35.7733 357.903 35.4H360.703ZM367.716 24.2C367.623 23.8033 367.576 23.3367 367.576 22.8C367.576 22.24 367.623 21.7733 367.716 21.4H370.516C370.61 21.7733 370.656 22.24 370.656 22.8C370.656 23.3367 370.61 23.8033 370.516 24.2H367.716ZM373.316 38.2C373.41 38.5733 373.456 39.04 373.456 39.6C373.456 40.1367 373.41 40.6033 373.316 41H364.916C364.823 40.6033 364.776 40.1367 364.776 39.6C364.776 39.04 364.823 38.5733 364.916 38.2H367.716C367.623 37.8033 367.576 37.3367 367.576 36.8C367.576 36.24 367.623 35.7733 367.716 35.4C367.623 35.0033 367.576 34.5367 367.576 34C367.576 33.44 367.623 32.9733 367.716 32.6C367.623 32.2033 367.576 31.7367 367.576 31.2C367.576 30.64 367.623 30.1733 367.716 29.8H365.616C365.523 29.4033 365.476 28.9367 365.476 28.4C365.476 27.84 365.523 27.3733 365.616 27H370.516C370.61 27.3733 370.656 27.84 370.656 28.4C370.656 28.9367 370.61 29.4033 370.516 29.8C370.61 30.1733 370.656 30.64 370.656 31.2C370.656 31.7367 370.61 32.2033 370.516 32.6C370.61 32.9733 370.656 33.44 370.656 34C370.656 34.5367 370.61 35.0033 370.516 35.4C370.61 35.7733 370.656 36.24 370.656 36.8C370.656 37.3367 370.61 37.8033 370.516 38.2H373.316ZM388.73 38.2C388.823 38.5733 388.87 39.04 388.87 39.6C388.87 40.1367 388.823 40.6033 388.73 41H385.93C385.837 40.6033 385.79 40.1367 385.79 39.6C385.79 39.04 385.837 38.5733 385.93 38.2H384.53C384.437 37.8033 384.39 37.3367 384.39 36.8C384.39 36.24 384.437 35.7733 384.53 35.4H380.33C380.423 35.7733 380.47 36.24 380.47 36.8C380.47 37.3367 380.423 37.8033 380.33 38.2H384.53C384.623 38.5733 384.67 39.04 384.67 39.6C384.67 40.1367 384.623 40.6033 384.53 41H378.93C378.837 40.6033 378.79 40.1367 378.79 39.6C378.79 39.04 378.837 38.5733 378.93 38.2H377.53C377.437 37.8033 377.39 37.3367 377.39 36.8C377.39 36.24 377.437 35.7733 377.53 35.4H378.93C378.837 35.0033 378.79 34.5367 378.79 34C378.79 33.44 378.837 32.9733 378.93 32.6H384.53C384.437 32.2033 384.39 31.7367 384.39 31.2C384.39 30.64 384.437 30.1733 384.53 29.8H379.63C379.537 29.4033 379.49 28.9367 379.49 28.4C379.49 27.84 379.537 27.3733 379.63 27H385.93C386.023 27.3733 386.07 27.84 386.07 28.4C386.07 28.9367 386.023 29.4033 385.93 29.8H387.33C387.423 30.1733 387.47 30.64 387.47 31.2C387.47 31.7367 387.423 32.2033 387.33 32.6C387.423 32.9733 387.47 33.44 387.47 34C387.47 34.5367 387.423 35.0033 387.33 35.4C387.423 35.7733 387.47 36.24 387.47 36.8C387.47 37.3367 387.423 37.8033 387.33 38.2H388.73ZM401.344 38.2C401.437 38.5733 401.484 39.04 401.484 39.6C401.484 40.1367 401.437 40.6033 401.344 41H395.744C395.65 40.6033 395.604 40.1367 395.604 39.6C395.604 39.04 395.65 38.5733 395.744 38.2H394.344C394.25 37.8033 394.204 37.3367 394.204 36.8C394.204 36.24 394.25 35.7733 394.344 35.4C394.25 35.0033 394.204 34.5367 394.204 34C394.204 33.44 394.25 32.9733 394.344 32.6C394.25 32.2033 394.204 31.7367 394.204 31.2C394.204 30.64 394.25 30.1733 394.344 29.8H391.544C391.45 29.4033 391.404 28.9367 391.404 28.4C391.404 27.84 391.45 27.3733 391.544 27H394.344C394.25 26.6033 394.204 26.1367 394.204 25.6C394.204 25.04 394.25 24.5733 394.344 24.2C394.25 23.8033 394.204 23.3367 394.204 22.8C394.204 22.24 394.25 21.7733 394.344 21.4H397.144C397.237 21.7733 397.284 22.24 397.284 22.8C397.284 23.3367 397.237 23.8033 397.144 24.2C397.237 24.5733 397.284 25.04 397.284 25.6C397.284 26.1367 397.237 26.6033 397.144 27H401.344C401.437 27.3733 401.484 27.84 401.484 28.4C401.484 28.9367 401.437 29.4033 401.344 29.8H397.144C397.237 30.1733 397.284 30.64 397.284 31.2C397.284 31.7367 397.237 32.2033 397.144 32.6C397.237 32.9733 397.284 33.44 397.284 34C397.284 34.5367 397.237 35.0033 397.144 35.4C397.237 35.7733 397.284 36.24 397.284 36.8C397.284 37.3367 397.237 37.8033 397.144 38.2H401.344ZM416.897 31.2C416.897 31.7367 416.851 32.2033 416.757 32.6C416.851 32.9733 416.897 33.44 416.897 34C416.897 34.5367 416.851 35.0033 416.757 35.4H409.407C409.501 35.7733 409.547 36.24 409.547 36.8C409.547 37.3367 409.501 37.8033 409.407 38.2H415.357C415.451 38.5733 415.497 39.04 415.497 39.6C415.497 40.1367 415.451 40.6033 415.357 41H408.357C408.264 40.6033 408.217 40.1367 408.217 39.6C408.217 39.04 408.264 38.5733 408.357 38.2H406.607C406.514 37.8033 406.467 37.3367 406.467 36.8C406.467 36.24 406.514 35.7733 406.607 35.4H405.557C405.464 35.0033 405.417 34.5367 405.417 34C405.417 33.44 405.464 32.9733 405.557 32.6H406.607C406.514 32.2033 406.467 31.7367 406.467 31.2C406.467 30.64 406.514 30.1733 406.607 29.8H408.357C408.264 29.4033 408.217 28.9367 408.217 28.4C408.217 27.84 408.264 27.3733 408.357 27H415.357C415.451 27.3733 415.497 27.84 415.497 28.4C415.497 28.9367 415.451 29.4033 415.357 29.8H416.757C416.851 30.1733 416.897 30.64 416.897 31.2ZM413.957 32.6C413.864 32.2033 413.817 31.7367 413.817 31.2C413.817 30.64 413.864 30.1733 413.957 29.8H409.407C409.501 30.1733 409.547 30.64 409.547 31.2C409.547 31.7367 409.501 32.2033 409.407 32.6H413.957ZM430.771 24.2C430.864 24.5733 430.911 25.04 430.911 25.6C430.911 26.1367 430.864 26.6033 430.771 27C430.864 27.3733 430.911 27.84 430.911 28.4C430.911 28.9367 430.864 29.4033 430.771 29.8C430.864 30.1733 430.911 30.64 430.911 31.2C430.911 31.7367 430.864 32.2033 430.771 32.6C430.864 32.9733 430.911 33.44 430.911 34C430.911 34.5367 430.864 35.0033 430.771 35.4C430.864 35.7733 430.911 36.24 430.911 36.8C430.911 37.3367 430.864 37.8033 430.771 38.2C430.864 38.5733 430.911 39.04 430.911 39.6C430.911 40.1367 430.864 40.6033 430.771 41H427.971C427.878 40.6033 427.831 40.1367 427.831 39.6C427.831 39.04 427.878 38.5733 427.971 38.2H426.921C426.828 37.8033 426.781 37.3367 426.781 36.8C426.781 36.24 426.828 35.7733 426.921 35.4H427.971C427.878 35.0033 427.831 34.5367 427.831 34C427.831 33.44 427.878 32.9733 427.971 32.6H426.921C426.828 32.2033 426.781 31.7367 426.781 31.2C426.781 30.64 426.828 30.1733 426.921 29.8H427.971C427.878 29.4033 427.831 28.9367 427.831 28.4C427.831 27.84 427.878 27.3733 427.971 27C427.878 26.6033 427.831 26.1367 427.831 25.6C427.831 25.04 427.878 24.5733 427.971 24.2C427.878 23.8033 427.831 23.3367 427.831 22.8C427.831 22.24 427.878 21.7733 427.971 21.4H430.771C430.864 21.7733 430.911 22.24 430.911 22.8C430.911 23.3367 430.864 23.8033 430.771 24.2ZM426.361 28.4C426.361 28.9367 426.314 29.4033 426.221 29.8H422.721C422.814 30.1733 422.861 30.64 422.861 31.2C422.861 31.7367 422.814 32.2033 422.721 32.6H421.671C421.764 32.9733 421.811 33.44 421.811 34C421.811 34.5367 421.764 35.0033 421.671 35.4H422.721C422.814 35.7733 422.861 36.24 422.861 36.8C422.861 37.3367 422.814 37.8033 422.721 38.2H426.221C426.314 38.5733 426.361 39.04 426.361 39.6C426.361 40.1367 426.314 40.6033 426.221 41H422.371C422.278 40.6033 422.231 40.1367 422.231 39.6C422.231 39.04 422.278 38.5733 422.371 38.2H420.621C420.528 37.8033 420.481 37.3367 420.481 36.8C420.481 36.24 420.528 35.7733 420.621 35.4H419.571C419.478 35.0033 419.431 34.5367 419.431 34C419.431 33.44 419.478 32.9733 419.571 32.6H420.621C420.528 32.2033 420.481 31.7367 420.481 31.2C420.481 30.64 420.528 30.1733 420.621 29.8H422.371C422.278 29.4033 422.231 28.9367 422.231 28.4C422.231 27.84 422.278 27.3733 422.371 27H426.221C426.314 27.3733 426.361 27.84 426.361 28.4ZM115.603 63.4C115.603 63.9367 115.557 64.4033 115.463 64.8C115.557 65.1733 115.603 65.64 115.603 66.2C115.603 66.7367 115.557 67.2033 115.463 67.6H114.413C114.507 67.9733 114.553 68.44 114.553 69C114.553 69.5367 114.507 70.0033 114.413 70.4C114.507 70.7733 114.553 71.24 114.553 71.8C114.553 72.3367 114.507 72.8033 114.413 73.2H113.713C113.807 73.5733 113.853 74.04 113.853 74.6C113.853 75.1367 113.807 75.6033 113.713 76H111.613C111.52 75.6033 111.473 75.1367 111.473 74.6C111.473 74.04 111.52 73.5733 111.613 73.2H110.913C110.82 72.8033 110.773 72.3367 110.773 71.8C110.773 71.24 110.82 70.7733 110.913 70.4H108.813C108.907 70.7733 108.953 71.24 108.953 71.8C108.953 72.3367 108.907 72.8033 108.813 73.2H108.113C108.207 73.5733 108.253 74.04 108.253 74.6C108.253 75.1367 108.207 75.6033 108.113 76H106.013C105.92 75.6033 105.873 75.1367 105.873 74.6C105.873 74.04 105.92 73.5733 106.013 73.2H105.313C105.22 72.8033 105.173 72.3367 105.173 71.8C105.173 71.24 105.22 70.7733 105.313 70.4C105.22 70.0033 105.173 69.5367 105.173 69C105.173 68.44 105.22 67.9733 105.313 67.6H104.263C104.17 67.2033 104.123 66.7367 104.123 66.2C104.123 65.64 104.17 65.1733 104.263 64.8C104.17 64.4033 104.123 63.9367 104.123 63.4C104.123 62.84 104.17 62.3733 104.263 62H107.063C107.157 62.3733 107.203 62.84 107.203 63.4C107.203 63.9367 107.157 64.4033 107.063 64.8C107.157 65.1733 107.203 65.64 107.203 66.2C107.203 66.7367 107.157 67.2033 107.063 67.6C107.157 67.9733 107.203 68.44 107.203 69C107.203 69.5367 107.157 70.0033 107.063 70.4H108.113C108.02 70.0033 107.973 69.5367 107.973 69C107.973 68.44 108.02 67.9733 108.113 67.6H108.813C108.72 67.2033 108.673 66.7367 108.673 66.2C108.673 65.64 108.72 65.1733 108.813 64.8C108.72 64.4033 108.673 63.9367 108.673 63.4C108.673 62.84 108.72 62.3733 108.813 62H110.913C111.007 62.3733 111.053 62.84 111.053 63.4C111.053 63.9367 111.007 64.4033 110.913 64.8C111.007 65.1733 111.053 65.64 111.053 66.2C111.053 66.7367 111.007 67.2033 110.913 67.6H111.613C111.707 67.9733 111.753 68.44 111.753 69C111.753 69.5367 111.707 70.0033 111.613 70.4H112.663C112.57 70.0033 112.523 69.5367 112.523 69C112.523 68.44 112.57 67.9733 112.663 67.6C112.57 67.2033 112.523 66.7367 112.523 66.2C112.523 65.64 112.57 65.1733 112.663 64.8C112.57 64.4033 112.523 63.9367 112.523 63.4C112.523 62.84 112.57 62.3733 112.663 62H115.463C115.557 62.3733 115.603 62.84 115.603 63.4ZM122.477 59.2C122.384 58.8033 122.337 58.3367 122.337 57.8C122.337 57.24 122.384 56.7733 122.477 56.4H125.277C125.37 56.7733 125.417 57.24 125.417 57.8C125.417 58.3367 125.37 58.8033 125.277 59.2H122.477ZM128.077 73.2C128.17 73.5733 128.217 74.04 128.217 74.6C128.217 75.1367 128.17 75.6033 128.077 76H119.677C119.584 75.6033 119.537 75.1367 119.537 74.6C119.537 74.04 119.584 73.5733 119.677 73.2H122.477C122.384 72.8033 122.337 72.3367 122.337 71.8C122.337 71.24 122.384 70.7733 122.477 70.4C122.384 70.0033 122.337 69.5367 122.337 69C122.337 68.44 122.384 67.9733 122.477 67.6C122.384 67.2033 122.337 66.7367 122.337 66.2C122.337 65.64 122.384 65.1733 122.477 64.8H120.377C120.284 64.4033 120.237 63.9367 120.237 63.4C120.237 62.84 120.284 62.3733 120.377 62H125.277C125.37 62.3733 125.417 62.84 125.417 63.4C125.417 63.9367 125.37 64.4033 125.277 64.8C125.37 65.1733 125.417 65.64 125.417 66.2C125.417 66.7367 125.37 67.2033 125.277 67.6C125.37 67.9733 125.417 68.44 125.417 69C125.417 69.5367 125.37 70.0033 125.277 70.4C125.37 70.7733 125.417 71.24 125.417 71.8C125.417 72.3367 125.37 72.8033 125.277 73.2H128.077ZM142.091 73.2C142.184 73.5733 142.231 74.04 142.231 74.6C142.231 75.1367 142.184 75.6033 142.091 76H136.491C136.397 75.6033 136.351 75.1367 136.351 74.6C136.351 74.04 136.397 73.5733 136.491 73.2H135.091C134.997 72.8033 134.951 72.3367 134.951 71.8C134.951 71.24 134.997 70.7733 135.091 70.4C134.997 70.0033 134.951 69.5367 134.951 69C134.951 68.44 134.997 67.9733 135.091 67.6C134.997 67.2033 134.951 66.7367 134.951 66.2C134.951 65.64 134.997 65.1733 135.091 64.8H132.291C132.197 64.4033 132.151 63.9367 132.151 63.4C132.151 62.84 132.197 62.3733 132.291 62H135.091C134.997 61.6033 134.951 61.1367 134.951 60.6C134.951 60.04 134.997 59.5733 135.091 59.2C134.997 58.8033 134.951 58.3367 134.951 57.8C134.951 57.24 134.997 56.7733 135.091 56.4H137.891C137.984 56.7733 138.031 57.24 138.031 57.8C138.031 58.3367 137.984 58.8033 137.891 59.2C137.984 59.5733 138.031 60.04 138.031 60.6C138.031 61.1367 137.984 61.6033 137.891 62H142.091C142.184 62.3733 142.231 62.84 142.231 63.4C142.231 63.9367 142.184 64.4033 142.091 64.8H137.891C137.984 65.1733 138.031 65.64 138.031 66.2C138.031 66.7367 137.984 67.2033 137.891 67.6C137.984 67.9733 138.031 68.44 138.031 69C138.031 69.5367 137.984 70.0033 137.891 70.4C137.984 70.7733 138.031 71.24 138.031 71.8C138.031 72.3367 137.984 72.8033 137.891 73.2H142.091ZM149.244 63.4C149.244 63.9367 149.198 64.4033 149.104 64.8H150.154C150.248 65.1733 150.294 65.64 150.294 66.2C150.294 66.7367 150.248 67.2033 150.154 67.6H149.104C149.198 67.9733 149.244 68.44 149.244 69C149.244 69.5367 149.198 70.0033 149.104 70.4C149.198 70.7733 149.244 71.24 149.244 71.8C149.244 72.3367 149.198 72.8033 149.104 73.2C149.198 73.5733 149.244 74.04 149.244 74.6C149.244 75.1367 149.198 75.6033 149.104 76H146.304C146.211 75.6033 146.164 75.1367 146.164 74.6C146.164 74.04 146.211 73.5733 146.304 73.2C146.211 72.8033 146.164 72.3367 146.164 71.8C146.164 71.24 146.211 70.7733 146.304 70.4C146.211 70.0033 146.164 69.5367 146.164 69C146.164 68.44 146.211 67.9733 146.304 67.6C146.211 67.2033 146.164 66.7367 146.164 66.2C146.164 65.64 146.211 65.1733 146.304 64.8C146.211 64.4033 146.164 63.9367 146.164 63.4C146.164 62.84 146.211 62.3733 146.304 62C146.211 61.6033 146.164 61.1367 146.164 60.6C146.164 60.04 146.211 59.5733 146.304 59.2C146.211 58.8033 146.164 58.3367 146.164 57.8C146.164 57.24 146.211 56.7733 146.304 56.4H149.104C149.198 56.7733 149.244 57.24 149.244 57.8C149.244 58.3367 149.198 58.8033 149.104 59.2C149.198 59.5733 149.244 60.04 149.244 60.6C149.244 61.1367 149.198 61.6033 149.104 62C149.198 62.3733 149.244 62.84 149.244 63.4ZM157.504 67.6C157.598 67.9733 157.644 68.44 157.644 69C157.644 69.5367 157.598 70.0033 157.504 70.4C157.598 70.7733 157.644 71.24 157.644 71.8C157.644 72.3367 157.598 72.8033 157.504 73.2C157.598 73.5733 157.644 74.04 157.644 74.6C157.644 75.1367 157.598 75.6033 157.504 76H154.704C154.611 75.6033 154.564 75.1367 154.564 74.6C154.564 74.04 154.611 73.5733 154.704 73.2C154.611 72.8033 154.564 72.3367 154.564 71.8C154.564 71.24 154.611 70.7733 154.704 70.4C154.611 70.0033 154.564 69.5367 154.564 69C154.564 68.44 154.611 67.9733 154.704 67.6C154.611 67.2033 154.564 66.7367 154.564 66.2C154.564 65.64 154.611 65.1733 154.704 64.8H150.154C150.061 64.4033 150.014 63.9367 150.014 63.4C150.014 62.84 150.061 62.3733 150.154 62H155.754C155.848 62.3733 155.894 62.84 155.894 63.4C155.894 63.9367 155.848 64.4033 155.754 64.8H157.504C157.598 65.1733 157.644 65.64 157.644 66.2C157.644 66.7367 157.598 67.2033 157.504 67.6ZM185.532 70.4C185.625 70.7733 185.672 71.24 185.672 71.8C185.672 72.3367 185.625 72.8033 185.532 73.2H184.132C184.225 73.5733 184.272 74.04 184.272 74.6C184.272 75.1367 184.225 75.6033 184.132 76H177.132C177.038 75.6033 176.992 75.1367 176.992 74.6C176.992 74.04 177.038 73.5733 177.132 73.2H175.732C175.638 72.8033 175.592 72.3367 175.592 71.8C175.592 71.24 175.638 70.7733 175.732 70.4H174.332C174.238 70.0033 174.192 69.5367 174.192 69C174.192 68.44 174.238 67.9733 174.332 67.6H175.732C175.638 67.2033 175.592 66.7367 175.592 66.2C175.592 65.64 175.638 65.1733 175.732 64.8H177.132C177.038 64.4033 176.992 63.9367 176.992 63.4C176.992 62.84 177.038 62.3733 177.132 62H184.132C184.225 62.3733 184.272 62.84 184.272 63.4C184.272 63.9367 184.225 64.4033 184.132 64.8H185.532C185.625 65.1733 185.672 65.64 185.672 66.2C185.672 66.7367 185.625 67.2033 185.532 67.6H182.732C182.638 67.2033 182.592 66.7367 182.592 66.2C182.592 65.64 182.638 65.1733 182.732 64.8H178.532C178.625 65.1733 178.672 65.64 178.672 66.2C178.672 66.7367 178.625 67.2033 178.532 67.6H177.132C177.225 67.9733 177.272 68.44 177.272 69C177.272 69.5367 177.225 70.0033 177.132 70.4H178.532C178.625 70.7733 178.672 71.24 178.672 71.8C178.672 72.3367 178.625 72.8033 178.532 73.2H182.732C182.638 72.8033 182.592 72.3367 182.592 71.8C182.592 71.24 182.638 70.7733 182.732 70.4H185.532ZM199.545 64.8C199.639 65.1733 199.685 65.64 199.685 66.2C199.685 66.7367 199.639 67.2033 199.545 67.6H196.745C196.652 67.2033 196.605 66.7367 196.605 66.2C196.605 65.64 196.652 65.1733 196.745 64.8H194.295C194.389 65.1733 194.435 65.64 194.435 66.2C194.435 66.7367 194.389 67.2033 194.295 67.6H193.245C193.339 67.9733 193.385 68.44 193.385 69C193.385 69.5367 193.339 70.0033 193.245 70.4C193.339 70.7733 193.385 71.24 193.385 71.8C193.385 72.3367 193.339 72.8033 193.245 73.2H195.345C195.439 73.5733 195.485 74.04 195.485 74.6C195.485 75.1367 195.439 75.6033 195.345 76H188.345C188.252 75.6033 188.205 75.1367 188.205 74.6C188.205 74.04 188.252 73.5733 188.345 73.2H190.445C190.352 72.8033 190.305 72.3367 190.305 71.8C190.305 71.24 190.352 70.7733 190.445 70.4C190.352 70.0033 190.305 69.5367 190.305 69C190.305 68.44 190.352 67.9733 190.445 67.6C190.352 67.2033 190.305 66.7367 190.305 66.2C190.305 65.64 190.352 65.1733 190.445 64.8H188.345C188.252 64.4033 188.205 63.9367 188.205 63.4C188.205 62.84 188.252 62.3733 188.345 62H191.845C191.939 62.3733 191.985 62.84 191.985 63.4C191.985 63.9367 191.939 64.4033 191.845 64.8H193.245C193.152 64.4033 193.105 63.9367 193.105 63.4C193.105 62.84 193.152 62.3733 193.245 62H198.495C198.589 62.3733 198.635 62.84 198.635 63.4C198.635 63.9367 198.589 64.4033 198.495 64.8H199.545ZM213.699 63.4C213.699 63.9367 213.652 64.4033 213.559 64.8H212.509C212.602 65.1733 212.649 65.64 212.649 66.2C212.649 66.7367 212.602 67.2033 212.509 67.6H211.459C211.552 67.9733 211.599 68.44 211.599 69C211.599 69.5367 211.552 70.0033 211.459 70.4H210.759C210.852 70.7733 210.899 71.24 210.899 71.8C210.899 72.3367 210.852 72.8033 210.759 73.2H209.709C209.802 73.5733 209.849 74.04 209.849 74.6C209.849 75.1367 209.802 75.6033 209.709 76H209.009C209.102 76.3733 209.149 76.84 209.149 77.4C209.149 77.9367 209.102 78.4033 209.009 78.8H207.609C207.702 79.1733 207.749 79.64 207.749 80.2C207.749 80.7367 207.702 81.2033 207.609 81.6H203.409C203.316 81.2033 203.269 80.7367 203.269 80.2C203.269 79.64 203.316 79.1733 203.409 78.8H206.209C206.116 78.4033 206.069 77.9367 206.069 77.4C206.069 76.84 206.116 76.3733 206.209 76C206.116 75.6033 206.069 75.1367 206.069 74.6C206.069 74.04 206.116 73.5733 206.209 73.2H204.809C204.716 72.8033 204.669 72.3367 204.669 71.8C204.669 71.24 204.716 70.7733 204.809 70.4H204.109C204.016 70.0033 203.969 69.5367 203.969 69C203.969 68.44 204.016 67.9733 204.109 67.6H203.059C202.966 67.2033 202.919 66.7367 202.919 66.2C202.919 65.64 202.966 65.1733 203.059 64.8H202.009C201.916 64.4033 201.869 63.9367 201.869 63.4C201.869 62.84 201.916 62.3733 202.009 62H204.809C204.902 62.3733 204.949 62.84 204.949 63.4C204.949 63.9367 204.902 64.4033 204.809 64.8H205.859C205.952 65.1733 205.999 65.64 205.999 66.2C205.999 66.7367 205.952 67.2033 205.859 67.6H206.909C207.002 67.9733 207.049 68.44 207.049 69C207.049 69.5367 207.002 70.0033 206.909 70.4C207.002 70.7733 207.049 71.24 207.049 71.8C207.049 72.3367 207.002 72.8033 206.909 73.2H207.959C207.866 72.8033 207.819 72.3367 207.819 71.8C207.819 71.24 207.866 70.7733 207.959 70.4H208.659C208.566 70.0033 208.519 69.5367 208.519 69C208.519 68.44 208.566 67.9733 208.659 67.6H209.709C209.616 67.2033 209.569 66.7367 209.569 66.2C209.569 65.64 209.616 65.1733 209.709 64.8H210.759C210.666 64.4033 210.619 63.9367 210.619 63.4C210.619 62.84 210.666 62.3733 210.759 62H213.559C213.652 62.3733 213.699 62.84 213.699 63.4ZM227.713 69C227.713 69.5367 227.666 70.0033 227.573 70.4H226.173C226.266 70.7733 226.313 71.24 226.313 71.8C226.313 72.3367 226.266 72.8033 226.173 73.2H224.773C224.866 73.5733 224.913 74.04 224.913 74.6C224.913 75.1367 224.866 75.6033 224.773 76H219.173C219.266 76.3733 219.313 76.84 219.313 77.4C219.313 77.9367 219.266 78.4033 219.173 78.8C219.266 79.1733 219.313 79.64 219.313 80.2C219.313 80.7367 219.266 81.2033 219.173 81.6H216.373C216.279 81.2033 216.233 80.7367 216.233 80.2C216.233 79.64 216.279 79.1733 216.373 78.8C216.279 78.4033 216.233 77.9367 216.233 77.4C216.233 76.84 216.279 76.3733 216.373 76C216.279 75.6033 216.233 75.1367 216.233 74.6C216.233 74.04 216.279 73.5733 216.373 73.2C216.279 72.8033 216.233 72.3367 216.233 71.8C216.233 71.24 216.279 70.7733 216.373 70.4C216.279 70.0033 216.233 69.5367 216.233 69C216.233 68.44 216.279 67.9733 216.373 67.6C216.279 67.2033 216.233 66.7367 216.233 66.2C216.233 65.64 216.279 65.1733 216.373 64.8C216.279 64.4033 216.233 63.9367 216.233 63.4C216.233 62.84 216.279 62.3733 216.373 62H219.173C219.266 62.3733 219.313 62.84 219.313 63.4C219.313 63.9367 219.266 64.4033 219.173 64.8H220.573C220.666 65.1733 220.713 65.64 220.713 66.2C220.713 66.7367 220.666 67.2033 220.573 67.6H219.173C219.266 67.9733 219.313 68.44 219.313 69C219.313 69.5367 219.266 70.0033 219.173 70.4C219.266 70.7733 219.313 71.24 219.313 71.8C219.313 72.3367 219.266 72.8033 219.173 73.2H223.373C223.279 72.8033 223.233 72.3367 223.233 71.8C223.233 71.24 223.279 70.7733 223.373 70.4H224.773C224.679 70.0033 224.633 69.5367 224.633 69C224.633 68.44 224.679 67.9733 224.773 67.6H223.373C223.279 67.2033 223.233 66.7367 223.233 66.2C223.233 65.64 223.279 65.1733 223.373 64.8H220.573C220.479 64.4033 220.433 63.9367 220.433 63.4C220.433 62.84 220.479 62.3733 220.573 62H224.773C224.866 62.3733 224.913 62.84 224.913 63.4C224.913 63.9367 224.866 64.4033 224.773 64.8H226.173C226.266 65.1733 226.313 65.64 226.313 66.2C226.313 66.7367 226.266 67.2033 226.173 67.6H227.573C227.666 67.9733 227.713 68.44 227.713 69ZM240.186 73.2C240.28 73.5733 240.326 74.04 240.326 74.6C240.326 75.1367 240.28 75.6033 240.186 76H234.586C234.493 75.6033 234.446 75.1367 234.446 74.6C234.446 74.04 234.493 73.5733 234.586 73.2H233.186C233.093 72.8033 233.046 72.3367 233.046 71.8C233.046 71.24 233.093 70.7733 233.186 70.4C233.093 70.0033 233.046 69.5367 233.046 69C233.046 68.44 233.093 67.9733 233.186 67.6C233.093 67.2033 233.046 66.7367 233.046 66.2C233.046 65.64 233.093 65.1733 233.186 64.8H230.386C230.293 64.4033 230.246 63.9367 230.246 63.4C230.246 62.84 230.293 62.3733 230.386 62H233.186C233.093 61.6033 233.046 61.1367 233.046 60.6C233.046 60.04 233.093 59.5733 233.186 59.2C233.093 58.8033 233.046 58.3367 233.046 57.8C233.046 57.24 233.093 56.7733 233.186 56.4H235.986C236.08 56.7733 236.126 57.24 236.126 57.8C236.126 58.3367 236.08 58.8033 235.986 59.2C236.08 59.5733 236.126 60.04 236.126 60.6C236.126 61.1367 236.08 61.6033 235.986 62H240.186C240.28 62.3733 240.326 62.84 240.326 63.4C240.326 63.9367 240.28 64.4033 240.186 64.8H235.986C236.08 65.1733 236.126 65.64 236.126 66.2C236.126 66.7367 236.08 67.2033 235.986 67.6C236.08 67.9733 236.126 68.44 236.126 69C236.126 69.5367 236.08 70.0033 235.986 70.4C236.08 70.7733 236.126 71.24 236.126 71.8C236.126 72.3367 236.08 72.8033 235.986 73.2H240.186ZM255.74 69C255.74 69.5367 255.693 70.0033 255.6 70.4H254.55C254.643 70.7733 254.69 71.24 254.69 71.8C254.69 72.3367 254.643 72.8033 254.55 73.2H252.8C252.893 73.5733 252.94 74.04 252.94 74.6C252.94 75.1367 252.893 75.6033 252.8 76H247.2C247.107 75.6033 247.06 75.1367 247.06 74.6C247.06 74.04 247.107 73.5733 247.2 73.2H245.45C245.357 72.8033 245.31 72.3367 245.31 71.8C245.31 71.24 245.357 70.7733 245.45 70.4H244.4C244.307 70.0033 244.26 69.5367 244.26 69C244.26 68.44 244.307 67.9733 244.4 67.6H245.45C245.357 67.2033 245.31 66.7367 245.31 66.2C245.31 65.64 245.357 65.1733 245.45 64.8H247.2C247.107 64.4033 247.06 63.9367 247.06 63.4C247.06 62.84 247.107 62.3733 247.2 62H252.8C252.893 62.3733 252.94 62.84 252.94 63.4C252.94 63.9367 252.893 64.4033 252.8 64.8H254.55C254.643 65.1733 254.69 65.64 254.69 66.2C254.69 66.7367 254.643 67.2033 254.55 67.6H255.6C255.693 67.9733 255.74 68.44 255.74 69ZM252.8 70.4C252.707 70.0033 252.66 69.5367 252.66 69C252.66 68.44 252.707 67.9733 252.8 67.6H251.75C251.657 67.2033 251.61 66.7367 251.61 66.2C251.61 65.64 251.657 65.1733 251.75 64.8H248.25C248.343 65.1733 248.39 65.64 248.39 66.2C248.39 66.7367 248.343 67.2033 248.25 67.6H247.2C247.293 67.9733 247.34 68.44 247.34 69C247.34 69.5367 247.293 70.0033 247.2 70.4H248.25C248.343 70.7733 248.39 71.24 248.39 71.8C248.39 72.3367 248.343 72.8033 248.25 73.2H251.75C251.657 72.8033 251.61 72.3367 251.61 71.8C251.61 71.24 251.657 70.7733 251.75 70.4H252.8ZM269.614 70.4C269.707 70.7733 269.754 71.24 269.754 71.8C269.754 72.3367 269.707 72.8033 269.614 73.2H268.214C268.307 73.5733 268.354 74.04 268.354 74.6C268.354 75.1367 268.307 75.6033 268.214 76H261.214C261.12 75.6033 261.074 75.1367 261.074 74.6C261.074 74.04 261.12 73.5733 261.214 73.2H259.814C259.72 72.8033 259.674 72.3367 259.674 71.8C259.674 71.24 259.72 70.7733 259.814 70.4H258.414C258.32 70.0033 258.274 69.5367 258.274 69C258.274 68.44 258.32 67.9733 258.414 67.6H259.814C259.72 67.2033 259.674 66.7367 259.674 66.2C259.674 65.64 259.72 65.1733 259.814 64.8H261.214C261.12 64.4033 261.074 63.9367 261.074 63.4C261.074 62.84 261.12 62.3733 261.214 62H268.214C268.307 62.3733 268.354 62.84 268.354 63.4C268.354 63.9367 268.307 64.4033 268.214 64.8H269.614C269.707 65.1733 269.754 65.64 269.754 66.2C269.754 66.7367 269.707 67.2033 269.614 67.6H266.814C266.72 67.2033 266.674 66.7367 266.674 66.2C266.674 65.64 266.72 65.1733 266.814 64.8H262.614C262.707 65.1733 262.754 65.64 262.754 66.2C262.754 66.7367 262.707 67.2033 262.614 67.6H261.214C261.307 67.9733 261.354 68.44 261.354 69C261.354 69.5367 261.307 70.0033 261.214 70.4H262.614C262.707 70.7733 262.754 71.24 262.754 71.8C262.754 72.3367 262.707 72.8033 262.614 73.2H266.814C266.72 72.8033 266.674 72.3367 266.674 71.8C266.674 71.24 266.72 70.7733 266.814 70.4H269.614ZM276.417 71.8C276.417 72.3367 276.371 72.8033 276.277 73.2H279.777C279.871 73.5733 279.917 74.04 279.917 74.6C279.917 75.1367 279.871 75.6033 279.777 76H274.177C274.084 75.6033 274.037 75.1367 274.037 74.6C274.037 74.04 274.084 73.5733 274.177 73.2H272.427C272.334 72.8033 272.287 72.3367 272.287 71.8C272.287 71.24 272.334 70.7733 272.427 70.4C272.334 70.0033 272.287 69.5367 272.287 69C272.287 68.44 272.334 67.9733 272.427 67.6C272.334 67.2033 272.287 66.7367 272.287 66.2C272.287 65.64 272.334 65.1733 272.427 64.8C272.334 64.4033 272.287 63.9367 272.287 63.4C272.287 62.84 272.334 62.3733 272.427 62H275.227C275.321 62.3733 275.367 62.84 275.367 63.4C275.367 63.9367 275.321 64.4033 275.227 64.8C275.321 65.1733 275.367 65.64 275.367 66.2C275.367 66.7367 275.321 67.2033 275.227 67.6C275.321 67.9733 275.367 68.44 275.367 69C275.367 69.5367 275.321 70.0033 275.227 70.4H276.277C276.371 70.7733 276.417 71.24 276.417 71.8ZM283.627 64.8C283.721 65.1733 283.767 65.64 283.767 66.2C283.767 66.7367 283.721 67.2033 283.627 67.6C283.721 67.9733 283.767 68.44 283.767 69C283.767 69.5367 283.721 70.0033 283.627 70.4C283.721 70.7733 283.767 71.24 283.767 71.8C283.767 72.3367 283.721 72.8033 283.627 73.2C283.721 73.5733 283.767 74.04 283.767 74.6C283.767 75.1367 283.721 75.6033 283.627 76H280.827C280.734 75.6033 280.687 75.1367 280.687 74.6C280.687 74.04 280.734 73.5733 280.827 73.2H279.777C279.684 72.8033 279.637 72.3367 279.637 71.8C279.637 71.24 279.684 70.7733 279.777 70.4H280.827C280.734 70.0033 280.687 69.5367 280.687 69C280.687 68.44 280.734 67.9733 280.827 67.6C280.734 67.2033 280.687 66.7367 280.687 66.2C280.687 65.64 280.734 65.1733 280.827 64.8C280.734 64.4033 280.687 63.9367 280.687 63.4C280.687 62.84 280.734 62.3733 280.827 62H283.627C283.721 62.3733 283.767 62.84 283.767 63.4C283.767 63.9367 283.721 64.4033 283.627 64.8ZM297.641 64.8C297.734 65.1733 297.781 65.64 297.781 66.2C297.781 66.7367 297.734 67.2033 297.641 67.6H294.841C294.748 67.2033 294.701 66.7367 294.701 66.2C294.701 65.64 294.748 65.1733 294.841 64.8H292.391C292.484 65.1733 292.531 65.64 292.531 66.2C292.531 66.7367 292.484 67.2033 292.391 67.6H291.341C291.434 67.9733 291.481 68.44 291.481 69C291.481 69.5367 291.434 70.0033 291.341 70.4C291.434 70.7733 291.481 71.24 291.481 71.8C291.481 72.3367 291.434 72.8033 291.341 73.2H293.441C293.534 73.5733 293.581 74.04 293.581 74.6C293.581 75.1367 293.534 75.6033 293.441 76H286.441C286.348 75.6033 286.301 75.1367 286.301 74.6C286.301 74.04 286.348 73.5733 286.441 73.2H288.541C288.448 72.8033 288.401 72.3367 288.401 71.8C288.401 71.24 288.448 70.7733 288.541 70.4C288.448 70.0033 288.401 69.5367 288.401 69C288.401 68.44 288.448 67.9733 288.541 67.6C288.448 67.2033 288.401 66.7367 288.401 66.2C288.401 65.64 288.448 65.1733 288.541 64.8H286.441C286.348 64.4033 286.301 63.9367 286.301 63.4C286.301 62.84 286.348 62.3733 286.441 62H289.941C290.034 62.3733 290.081 62.84 290.081 63.4C290.081 63.9367 290.034 64.4033 289.941 64.8H291.341C291.248 64.4033 291.201 63.9367 291.201 63.4C291.201 62.84 291.248 62.3733 291.341 62H296.591C296.684 62.3733 296.731 62.84 296.731 63.4C296.731 63.9367 296.684 64.4033 296.591 64.8H297.641ZM311.655 64.8C311.748 65.1733 311.795 65.64 311.795 66.2C311.795 66.7367 311.748 67.2033 311.655 67.6H308.855C308.761 67.2033 308.715 66.7367 308.715 66.2C308.715 65.64 308.761 65.1733 308.855 64.8H306.405C306.498 65.1733 306.545 65.64 306.545 66.2C306.545 66.7367 306.498 67.2033 306.405 67.6H305.355C305.448 67.9733 305.495 68.44 305.495 69C305.495 69.5367 305.448 70.0033 305.355 70.4C305.448 70.7733 305.495 71.24 305.495 71.8C305.495 72.3367 305.448 72.8033 305.355 73.2H307.455C307.548 73.5733 307.595 74.04 307.595 74.6C307.595 75.1367 307.548 75.6033 307.455 76H300.455C300.361 75.6033 300.315 75.1367 300.315 74.6C300.315 74.04 300.361 73.5733 300.455 73.2H302.555C302.461 72.8033 302.415 72.3367 302.415 71.8C302.415 71.24 302.461 70.7733 302.555 70.4C302.461 70.0033 302.415 69.5367 302.415 69C302.415 68.44 302.461 67.9733 302.555 67.6C302.461 67.2033 302.415 66.7367 302.415 66.2C302.415 65.64 302.461 65.1733 302.555 64.8H300.455C300.361 64.4033 300.315 63.9367 300.315 63.4C300.315 62.84 300.361 62.3733 300.455 62H303.955C304.048 62.3733 304.095 62.84 304.095 63.4C304.095 63.9367 304.048 64.4033 303.955 64.8H305.355C305.261 64.4033 305.215 63.9367 305.215 63.4C305.215 62.84 305.261 62.3733 305.355 62H310.605C310.698 62.3733 310.745 62.84 310.745 63.4C310.745 63.9367 310.698 64.4033 310.605 64.8H311.655ZM325.808 66.2C325.808 66.7367 325.762 67.2033 325.668 67.6C325.762 67.9733 325.808 68.44 325.808 69C325.808 69.5367 325.762 70.0033 325.668 70.4H318.318C318.412 70.7733 318.458 71.24 318.458 71.8C318.458 72.3367 318.412 72.8033 318.318 73.2H324.268C324.362 73.5733 324.408 74.04 324.408 74.6C324.408 75.1367 324.362 75.6033 324.268 76H317.268C317.175 75.6033 317.128 75.1367 317.128 74.6C317.128 74.04 317.175 73.5733 317.268 73.2H315.518C315.425 72.8033 315.378 72.3367 315.378 71.8C315.378 71.24 315.425 70.7733 315.518 70.4H314.468C314.375 70.0033 314.328 69.5367 314.328 69C314.328 68.44 314.375 67.9733 314.468 67.6H315.518C315.425 67.2033 315.378 66.7367 315.378 66.2C315.378 65.64 315.425 65.1733 315.518 64.8H317.268C317.175 64.4033 317.128 63.9367 317.128 63.4C317.128 62.84 317.175 62.3733 317.268 62H324.268C324.362 62.3733 324.408 62.84 324.408 63.4C324.408 63.9367 324.362 64.4033 324.268 64.8H325.668C325.762 65.1733 325.808 65.64 325.808 66.2ZM322.868 67.6C322.775 67.2033 322.728 66.7367 322.728 66.2C322.728 65.64 322.775 65.1733 322.868 64.8H318.318C318.412 65.1733 318.458 65.64 318.458 66.2C318.458 66.7367 318.412 67.2033 318.318 67.6H322.868ZM331.072 63.4C331.072 63.9367 331.025 64.4033 330.932 64.8H332.332C332.425 65.1733 332.472 65.64 332.472 66.2C332.472 66.7367 332.425 67.2033 332.332 67.6H331.282C331.375 67.9733 331.422 68.44 331.422 69C331.422 69.5367 331.375 70.0033 331.282 70.4C331.375 70.7733 331.422 71.24 331.422 71.8C331.422 72.3367 331.375 72.8033 331.282 73.2C331.375 73.5733 331.422 74.04 331.422 74.6C331.422 75.1367 331.375 75.6033 331.282 76H328.482C328.389 75.6033 328.342 75.1367 328.342 74.6C328.342 74.04 328.389 73.5733 328.482 73.2C328.389 72.8033 328.342 72.3367 328.342 71.8C328.342 71.24 328.389 70.7733 328.482 70.4C328.389 70.0033 328.342 69.5367 328.342 69C328.342 68.44 328.389 67.9733 328.482 67.6C328.389 67.2033 328.342 66.7367 328.342 66.2C328.342 65.64 328.389 65.1733 328.482 64.8C328.389 64.4033 328.342 63.9367 328.342 63.4C328.342 62.84 328.389 62.3733 328.482 62H330.932C331.025 62.3733 331.072 62.84 331.072 63.4ZM339.682 67.6C339.775 67.9733 339.822 68.44 339.822 69C339.822 69.5367 339.775 70.0033 339.682 70.4C339.775 70.7733 339.822 71.24 339.822 71.8C339.822 72.3367 339.775 72.8033 339.682 73.2C339.775 73.5733 339.822 74.04 339.822 74.6C339.822 75.1367 339.775 75.6033 339.682 76H336.882C336.789 75.6033 336.742 75.1367 336.742 74.6C336.742 74.04 336.789 73.5733 336.882 73.2C336.789 72.8033 336.742 72.3367 336.742 71.8C336.742 71.24 336.789 70.7733 336.882 70.4C336.789 70.0033 336.742 69.5367 336.742 69C336.742 68.44 336.789 67.9733 336.882 67.6C336.789 67.2033 336.742 66.7367 336.742 66.2C336.742 65.64 336.789 65.1733 336.882 64.8H332.332C332.239 64.4033 332.192 63.9367 332.192 63.4C332.192 62.84 332.239 62.3733 332.332 62H337.932C338.025 62.3733 338.072 62.84 338.072 63.4C338.072 63.9367 338.025 64.4033 337.932 64.8H339.682C339.775 65.1733 339.822 65.64 339.822 66.2C339.822 66.7367 339.775 67.2033 339.682 67.6ZM353.696 70.4C353.789 70.7733 353.836 71.24 353.836 71.8C353.836 72.3367 353.789 72.8033 353.696 73.2H352.296C352.389 73.5733 352.436 74.04 352.436 74.6C352.436 75.1367 352.389 75.6033 352.296 76H345.296C345.202 75.6033 345.156 75.1367 345.156 74.6C345.156 74.04 345.202 73.5733 345.296 73.2H343.896C343.802 72.8033 343.756 72.3367 343.756 71.8C343.756 71.24 343.802 70.7733 343.896 70.4H342.496C342.402 70.0033 342.356 69.5367 342.356 69C342.356 68.44 342.402 67.9733 342.496 67.6H343.896C343.802 67.2033 343.756 66.7367 343.756 66.2C343.756 65.64 343.802 65.1733 343.896 64.8H345.296C345.202 64.4033 345.156 63.9367 345.156 63.4C345.156 62.84 345.202 62.3733 345.296 62H352.296C352.389 62.3733 352.436 62.84 352.436 63.4C352.436 63.9367 352.389 64.4033 352.296 64.8H353.696C353.789 65.1733 353.836 65.64 353.836 66.2C353.836 66.7367 353.789 67.2033 353.696 67.6H350.896C350.802 67.2033 350.756 66.7367 350.756 66.2C350.756 65.64 350.802 65.1733 350.896 64.8H346.696C346.789 65.1733 346.836 65.64 346.836 66.2C346.836 66.7367 346.789 67.2033 346.696 67.6H345.296C345.389 67.9733 345.436 68.44 345.436 69C345.436 69.5367 345.389 70.0033 345.296 70.4H346.696C346.789 70.7733 346.836 71.24 346.836 71.8C346.836 72.3367 346.789 72.8033 346.696 73.2H350.896C350.802 72.8033 350.756 72.3367 350.756 71.8C350.756 71.24 350.802 70.7733 350.896 70.4H353.696ZM367.849 63.4C367.849 63.9367 367.803 64.4033 367.709 64.8H366.659C366.753 65.1733 366.799 65.64 366.799 66.2C366.799 66.7367 366.753 67.2033 366.659 67.6H365.609C365.703 67.9733 365.749 68.44 365.749 69C365.749 69.5367 365.703 70.0033 365.609 70.4H364.909C365.003 70.7733 365.049 71.24 365.049 71.8C365.049 72.3367 365.003 72.8033 364.909 73.2H363.859C363.953 73.5733 363.999 74.04 363.999 74.6C363.999 75.1367 363.953 75.6033 363.859 76H363.159C363.253 76.3733 363.299 76.84 363.299 77.4C363.299 77.9367 363.253 78.4033 363.159 78.8H361.759C361.853 79.1733 361.899 79.64 361.899 80.2C361.899 80.7367 361.853 81.2033 361.759 81.6H357.559C357.466 81.2033 357.419 80.7367 357.419 80.2C357.419 79.64 357.466 79.1733 357.559 78.8H360.359C360.266 78.4033 360.219 77.9367 360.219 77.4C360.219 76.84 360.266 76.3733 360.359 76C360.266 75.6033 360.219 75.1367 360.219 74.6C360.219 74.04 360.266 73.5733 360.359 73.2H358.959C358.866 72.8033 358.819 72.3367 358.819 71.8C358.819 71.24 358.866 70.7733 358.959 70.4H358.259C358.166 70.0033 358.119 69.5367 358.119 69C358.119 68.44 358.166 67.9733 358.259 67.6H357.209C357.116 67.2033 357.069 66.7367 357.069 66.2C357.069 65.64 357.116 65.1733 357.209 64.8H356.159C356.066 64.4033 356.019 63.9367 356.019 63.4C356.019 62.84 356.066 62.3733 356.159 62H358.959C359.053 62.3733 359.099 62.84 359.099 63.4C359.099 63.9367 359.053 64.4033 358.959 64.8H360.009C360.103 65.1733 360.149 65.64 360.149 66.2C360.149 66.7367 360.103 67.2033 360.009 67.6H361.059C361.153 67.9733 361.199 68.44 361.199 69C361.199 69.5367 361.153 70.0033 361.059 70.4C361.153 70.7733 361.199 71.24 361.199 71.8C361.199 72.3367 361.153 72.8033 361.059 73.2H362.109C362.016 72.8033 361.969 72.3367 361.969 71.8C361.969 71.24 362.016 70.7733 362.109 70.4H362.809C362.716 70.0033 362.669 69.5367 362.669 69C362.669 68.44 362.716 67.9733 362.809 67.6H363.859C363.766 67.2033 363.719 66.7367 363.719 66.2C363.719 65.64 363.766 65.1733 363.859 64.8H364.909C364.816 64.4033 364.769 63.9367 364.769 63.4C364.769 62.84 364.816 62.3733 364.909 62H367.709C367.803 62.3733 367.849 62.84 367.849 63.4ZM381.163 60.6C381.163 61.1367 381.116 61.6033 381.023 62C381.116 62.3733 381.163 62.84 381.163 63.4C381.163 63.9367 381.116 64.4033 381.023 64.8H379.273C379.366 65.1733 379.413 65.64 379.413 66.2C379.413 66.7367 379.366 67.2033 379.273 67.6H377.523C377.616 67.9733 377.663 68.44 377.663 69C377.663 69.5367 377.616 70.0033 377.523 70.4H374.723C374.63 70.0033 374.583 69.5367 374.583 69C374.583 68.44 374.63 67.9733 374.723 67.6H376.473C376.38 67.2033 376.333 66.7367 376.333 66.2C376.333 65.64 376.38 65.1733 376.473 64.8H378.223C378.13 64.4033 378.083 63.9367 378.083 63.4C378.083 62.84 378.13 62.3733 378.223 62C378.13 61.6033 378.083 61.1367 378.083 60.6C378.083 60.04 378.13 59.5733 378.223 59.2H373.323C373.416 59.5733 373.463 60.04 373.463 60.6C373.463 61.1367 373.416 61.6033 373.323 62H370.523C370.43 61.6033 370.383 61.1367 370.383 60.6C370.383 60.04 370.43 59.5733 370.523 59.2H372.623C372.53 58.8033 372.483 58.3367 372.483 57.8C372.483 57.24 372.53 56.7733 372.623 56.4H379.623C379.716 56.7733 379.763 57.24 379.763 57.8C379.763 58.3367 379.716 58.8033 379.623 59.2H381.023C381.116 59.5733 381.163 60.04 381.163 60.6ZM377.523 73.2C377.616 73.5733 377.663 74.04 377.663 74.6C377.663 75.1367 377.616 75.6033 377.523 76H374.723C374.63 75.6033 374.583 75.1367 374.583 74.6C374.583 74.04 374.63 73.5733 374.723 73.2H377.523Z" fill="black"/>
<line x1="53.7895" y1="94.5736" x2="418.81" y2="94.5736" stroke="black" stroke-width="8"/>
<line x1="420.839" y1="9.51688" x2="450.628" y2="9.51688" stroke="black" stroke-width="10"/>
<line x1="27.1917" y1="12.8349" x2="56.9813" y2="12.8349" stroke="black" stroke-width="10"/>
<line x1="24" y1="86.9376" x2="53.7895" y2="86.9376" stroke="black" stroke-width="10"/>
<line x1="418.711" y1="85.8316" x2="448.501" y2="85.8316" stroke="black" stroke-width="10"/>
<line x1="448.501" y1="16.047" x2="478.29" y2="16.047" stroke="black" stroke-width="8"/>
<line x1="445.309" y1="75.7715" x2="475.098" y2="75.7715" stroke="black" stroke-width="8"/>
<line x1="479.61" y1="72.0411" x2="479.61" y2="20.0469" stroke="black" stroke-width="8"/>
<line x1="23.1917" y1="83.0896" x2="23.1917" y2="16.729" stroke="black" stroke-width="8"/>
</svg>
