<svg width="435" height="82" viewBox="0 0 435 82" fill="none" xmlns="http://www.w3.org/2000/svg">
<line y1="-4" x2="323.455" y2="-4" transform="matrix(-1 0 0 1 385.036 8)" stroke="black" stroke-width="8"/>
<line y1="-4" x2="323.455" y2="-4" transform="matrix(-1 0 0 1 386.875 81.6338)" stroke="black" stroke-width="8"/>
<line y1="-5" x2="26.3973" y2="-5" transform="matrix(-1 0 0 1 61.6229 13.2981)" stroke="black" stroke-width="10"/>
<line y1="-5" x2="26.3973" y2="-5" transform="matrix(-1 0 0 1 410.444 15.9955)" stroke="black" stroke-width="10"/>
<line y1="-5" x2="26.3973" y2="-5" transform="matrix(-1 0 0 1 413.272 76.2389)" stroke="black" stroke-width="10"/>
<line y1="-5" x2="26.3973" y2="-5" transform="matrix(-1 0 0 1 63.5085 75.3397)" stroke="black" stroke-width="10"/>
<line y1="-4" x2="26.3973" y2="-4" transform="matrix(-1 0 0 1 37.1112 17.7939)" stroke="black" stroke-width="8"/>
<line y1="-4" x2="26.3973" y2="-4" transform="matrix(-1 0 0 1 39.9393 66.3482)" stroke="black" stroke-width="8"/>
<line y1="-4" x2="42.2698" y2="-4" transform="matrix(0 -1 -1 0 6 60.0636)" stroke="black" stroke-width="8"/>
<line y1="-4" x2="53.9493" y2="-4" transform="matrix(0 -1 -1 0 410.444 69.0457)" stroke="black" stroke-width="8"/>
<path d="M75.9496 17.2C76.0429 17.5733 76.0896 18.04 76.0896 18.6C76.0896 19.1367 76.0429 19.6033 75.9496 20C76.0429 20.3733 76.0896 20.84 76.0896 21.4C76.0896 21.9367 76.0429 22.4033 75.9496 22.8C76.0429 23.1733 76.0896 23.64 76.0896 24.2C76.0896 24.7367 76.0429 25.2033 75.9496 25.6H74.8996C74.9929 25.9733 75.0396 26.44 75.0396 27C75.0396 27.5367 74.9929 28.0033 74.8996 28.4C74.9929 28.7733 75.0396 29.24 75.0396 29.8C75.0396 30.3367 74.9929 30.8033 74.8996 31.2H74.1996C74.2929 31.5733 74.3396 32.04 74.3396 32.6C74.3396 33.1367 74.2929 33.6033 74.1996 34H72.0996C72.0063 33.6033 71.9596 33.1367 71.9596 32.6C71.9596 32.04 72.0063 31.5733 72.0996 31.2H71.3996C71.3063 30.8033 71.2596 30.3367 71.2596 29.8C71.2596 29.24 71.3063 28.7733 71.3996 28.4H69.2996C69.3929 28.7733 69.4396 29.24 69.4396 29.8C69.4396 30.3367 69.3929 30.8033 69.2996 31.2H68.5996C68.6929 31.5733 68.7396 32.04 68.7396 32.6C68.7396 33.1367 68.6929 33.6033 68.5996 34H66.4996C66.4063 33.6033 66.3596 33.1367 66.3596 32.6C66.3596 32.04 66.4063 31.5733 66.4996 31.2H65.7996C65.7063 30.8033 65.6596 30.3367 65.6596 29.8C65.6596 29.24 65.7063 28.7733 65.7996 28.4C65.7063 28.0033 65.6596 27.5367 65.6596 27C65.6596 26.44 65.7063 25.9733 65.7996 25.6H64.7496C64.6563 25.2033 64.6096 24.7367 64.6096 24.2C64.6096 23.64 64.6563 23.1733 64.7496 22.8C64.6563 22.4033 64.6096 21.9367 64.6096 21.4C64.6096 20.84 64.6563 20.3733 64.7496 20C64.6563 19.6033 64.6096 19.1367 64.6096 18.6C64.6096 18.04 64.6563 17.5733 64.7496 17.2C64.6563 16.8033 64.6096 16.3367 64.6096 15.8C64.6096 15.24 64.6563 14.7733 64.7496 14.4H67.5496C67.6429 14.7733 67.6896 15.24 67.6896 15.8C67.6896 16.3367 67.6429 16.8033 67.5496 17.2C67.6429 17.5733 67.6896 18.04 67.6896 18.6C67.6896 19.1367 67.6429 19.6033 67.5496 20C67.6429 20.3733 67.6896 20.84 67.6896 21.4C67.6896 21.9367 67.6429 22.4033 67.5496 22.8C67.6429 23.1733 67.6896 23.64 67.6896 24.2C67.6896 24.7367 67.6429 25.2033 67.5496 25.6C67.6429 25.9733 67.6896 26.44 67.6896 27C67.6896 27.5367 67.6429 28.0033 67.5496 28.4H68.5996C68.5063 28.0033 68.4596 27.5367 68.4596 27C68.4596 26.44 68.5063 25.9733 68.5996 25.6H69.2996C69.2063 25.2033 69.1596 24.7367 69.1596 24.2C69.1596 23.64 69.2063 23.1733 69.2996 22.8C69.2063 22.4033 69.1596 21.9367 69.1596 21.4C69.1596 20.84 69.2063 20.3733 69.2996 20C69.2063 19.6033 69.1596 19.1367 69.1596 18.6C69.1596 18.04 69.2063 17.5733 69.2996 17.2C69.2063 16.8033 69.1596 16.3367 69.1596 15.8C69.1596 15.24 69.2063 14.7733 69.2996 14.4H71.3996C71.4929 14.7733 71.5396 15.24 71.5396 15.8C71.5396 16.3367 71.4929 16.8033 71.3996 17.2C71.4929 17.5733 71.5396 18.04 71.5396 18.6C71.5396 19.1367 71.4929 19.6033 71.3996 20C71.4929 20.3733 71.5396 20.84 71.5396 21.4C71.5396 21.9367 71.4929 22.4033 71.3996 22.8C71.4929 23.1733 71.5396 23.64 71.5396 24.2C71.5396 24.7367 71.4929 25.2033 71.3996 25.6H72.0996C72.1929 25.9733 72.2396 26.44 72.2396 27C72.2396 27.5367 72.1929 28.0033 72.0996 28.4H73.1496C73.0563 28.0033 73.0096 27.5367 73.0096 27C73.0096 26.44 73.0563 25.9733 73.1496 25.6C73.0563 25.2033 73.0096 24.7367 73.0096 24.2C73.0096 23.64 73.0563 23.1733 73.1496 22.8C73.0563 22.4033 73.0096 21.9367 73.0096 21.4C73.0096 20.84 73.0563 20.3733 73.1496 20C73.0563 19.6033 73.0096 19.1367 73.0096 18.6C73.0096 18.04 73.0563 17.5733 73.1496 17.2C73.0563 16.8033 73.0096 16.3367 73.0096 15.8C73.0096 15.24 73.0563 14.7733 73.1496 14.4H75.9496C76.0429 14.7733 76.0896 15.24 76.0896 15.8C76.0896 16.3367 76.0429 16.8033 75.9496 17.2ZM81.7033 21.4C81.7033 21.9367 81.6566 22.4033 81.5633 22.8H82.6133C82.7066 23.1733 82.7533 23.64 82.7533 24.2C82.7533 24.7367 82.7066 25.2033 82.6133 25.6H81.5633C81.6566 25.9733 81.7033 26.44 81.7033 27C81.7033 27.5367 81.6566 28.0033 81.5633 28.4C81.6566 28.7733 81.7033 29.24 81.7033 29.8C81.7033 30.3367 81.6566 30.8033 81.5633 31.2C81.6566 31.5733 81.7033 32.04 81.7033 32.6C81.7033 33.1367 81.6566 33.6033 81.5633 34H78.7633C78.6699 33.6033 78.6233 33.1367 78.6233 32.6C78.6233 32.04 78.6699 31.5733 78.7633 31.2C78.6699 30.8033 78.6233 30.3367 78.6233 29.8C78.6233 29.24 78.6699 28.7733 78.7633 28.4C78.6699 28.0033 78.6233 27.5367 78.6233 27C78.6233 26.44 78.6699 25.9733 78.7633 25.6C78.6699 25.2033 78.6233 24.7367 78.6233 24.2C78.6233 23.64 78.6699 23.1733 78.7633 22.8C78.6699 22.4033 78.6233 21.9367 78.6233 21.4C78.6233 20.84 78.6699 20.3733 78.7633 20C78.6699 19.6033 78.6233 19.1367 78.6233 18.6C78.6233 18.04 78.6699 17.5733 78.7633 17.2C78.6699 16.8033 78.6233 16.3367 78.6233 15.8C78.6233 15.24 78.6699 14.7733 78.7633 14.4H81.5633C81.6566 14.7733 81.7033 15.24 81.7033 15.8C81.7033 16.3367 81.6566 16.8033 81.5633 17.2C81.6566 17.5733 81.7033 18.04 81.7033 18.6C81.7033 19.1367 81.6566 19.6033 81.5633 20C81.6566 20.3733 81.7033 20.84 81.7033 21.4ZM89.9633 25.6C90.0566 25.9733 90.1033 26.44 90.1033 27C90.1033 27.5367 90.0566 28.0033 89.9633 28.4C90.0566 28.7733 90.1033 29.24 90.1033 29.8C90.1033 30.3367 90.0566 30.8033 89.9633 31.2C90.0566 31.5733 90.1033 32.04 90.1033 32.6C90.1033 33.1367 90.0566 33.6033 89.9633 34H87.1633C87.0699 33.6033 87.0233 33.1367 87.0233 32.6C87.0233 32.04 87.0699 31.5733 87.1633 31.2C87.0699 30.8033 87.0233 30.3367 87.0233 29.8C87.0233 29.24 87.0699 28.7733 87.1633 28.4C87.0699 28.0033 87.0233 27.5367 87.0233 27C87.0233 26.44 87.0699 25.9733 87.1633 25.6C87.0699 25.2033 87.0233 24.7367 87.0233 24.2C87.0233 23.64 87.0699 23.1733 87.1633 22.8H82.6133C82.5199 22.4033 82.4733 21.9367 82.4733 21.4C82.4733 20.84 82.5199 20.3733 82.6133 20H88.2133C88.3066 20.3733 88.3533 20.84 88.3533 21.4C88.3533 21.9367 88.3066 22.4033 88.2133 22.8H89.9633C90.0566 23.1733 90.1033 23.64 90.1033 24.2C90.1033 24.7367 90.0566 25.2033 89.9633 25.6ZM103.977 31.2C104.07 31.5733 104.117 32.04 104.117 32.6C104.117 33.1367 104.07 33.6033 103.977 34H101.177C101.084 33.6033 101.037 33.1367 101.037 32.6C101.037 32.04 101.084 31.5733 101.177 31.2H99.777C99.6836 30.8033 99.637 30.3367 99.637 29.8C99.637 29.24 99.6836 28.7733 99.777 28.4H95.577C95.6703 28.7733 95.717 29.24 95.717 29.8C95.717 30.3367 95.6703 30.8033 95.577 31.2H99.777C99.8703 31.5733 99.917 32.04 99.917 32.6C99.917 33.1367 99.8703 33.6033 99.777 34H94.177C94.0836 33.6033 94.037 33.1367 94.037 32.6C94.037 32.04 94.0836 31.5733 94.177 31.2H92.777C92.6836 30.8033 92.637 30.3367 92.637 29.8C92.637 29.24 92.6836 28.7733 92.777 28.4H94.177C94.0836 28.0033 94.037 27.5367 94.037 27C94.037 26.44 94.0836 25.9733 94.177 25.6H99.777C99.6836 25.2033 99.637 24.7367 99.637 24.2C99.637 23.64 99.6836 23.1733 99.777 22.8H94.877C94.7836 22.4033 94.737 21.9367 94.737 21.4C94.737 20.84 94.7836 20.3733 94.877 20H101.177C101.27 20.3733 101.317 20.84 101.317 21.4C101.317 21.9367 101.27 22.4033 101.177 22.8H102.577C102.67 23.1733 102.717 23.64 102.717 24.2C102.717 24.7367 102.67 25.2033 102.577 25.6C102.67 25.9733 102.717 26.44 102.717 27C102.717 27.5367 102.67 28.0033 102.577 28.4C102.67 28.7733 102.717 29.24 102.717 29.8C102.717 30.3367 102.67 30.8033 102.577 31.2H103.977ZM116.591 31.2C116.684 31.5733 116.731 32.04 116.731 32.6C116.731 33.1367 116.684 33.6033 116.591 34H110.991C110.897 33.6033 110.851 33.1367 110.851 32.6C110.851 32.04 110.897 31.5733 110.991 31.2H109.591C109.497 30.8033 109.451 30.3367 109.451 29.8C109.451 29.24 109.497 28.7733 109.591 28.4C109.497 28.0033 109.451 27.5367 109.451 27C109.451 26.44 109.497 25.9733 109.591 25.6C109.497 25.2033 109.451 24.7367 109.451 24.2C109.451 23.64 109.497 23.1733 109.591 22.8H106.791C106.697 22.4033 106.651 21.9367 106.651 21.4C106.651 20.84 106.697 20.3733 106.791 20H109.591C109.497 19.6033 109.451 19.1367 109.451 18.6C109.451 18.04 109.497 17.5733 109.591 17.2C109.497 16.8033 109.451 16.3367 109.451 15.8C109.451 15.24 109.497 14.7733 109.591 14.4H112.391C112.484 14.7733 112.531 15.24 112.531 15.8C112.531 16.3367 112.484 16.8033 112.391 17.2C112.484 17.5733 112.531 18.04 112.531 18.6C112.531 19.1367 112.484 19.6033 112.391 20H116.591C116.684 20.3733 116.731 20.84 116.731 21.4C116.731 21.9367 116.684 22.4033 116.591 22.8H112.391C112.484 23.1733 112.531 23.64 112.531 24.2C112.531 24.7367 112.484 25.2033 112.391 25.6C112.484 25.9733 112.531 26.44 112.531 27C112.531 27.5367 112.484 28.0033 112.391 28.4C112.484 28.7733 112.531 29.24 112.531 29.8C112.531 30.3367 112.484 30.8033 112.391 31.2H116.591ZM146.018 31.2C146.111 31.5733 146.158 32.04 146.158 32.6C146.158 33.1367 146.111 33.6033 146.018 34H143.218C143.125 33.6033 143.078 33.1367 143.078 32.6C143.078 32.04 143.125 31.5733 143.218 31.2H141.818C141.725 30.8033 141.678 30.3367 141.678 29.8C141.678 29.24 141.725 28.7733 141.818 28.4H137.618C137.711 28.7733 137.758 29.24 137.758 29.8C137.758 30.3367 137.711 30.8033 137.618 31.2H141.818C141.911 31.5733 141.958 32.04 141.958 32.6C141.958 33.1367 141.911 33.6033 141.818 34H136.218C136.125 33.6033 136.078 33.1367 136.078 32.6C136.078 32.04 136.125 31.5733 136.218 31.2H134.818C134.725 30.8033 134.678 30.3367 134.678 29.8C134.678 29.24 134.725 28.7733 134.818 28.4H136.218C136.125 28.0033 136.078 27.5367 136.078 27C136.078 26.44 136.125 25.9733 136.218 25.6H141.818C141.725 25.2033 141.678 24.7367 141.678 24.2C141.678 23.64 141.725 23.1733 141.818 22.8H136.918C136.825 22.4033 136.778 21.9367 136.778 21.4C136.778 20.84 136.825 20.3733 136.918 20H143.218C143.311 20.3733 143.358 20.84 143.358 21.4C143.358 21.9367 143.311 22.4033 143.218 22.8H144.618C144.711 23.1733 144.758 23.64 144.758 24.2C144.758 24.7367 144.711 25.2033 144.618 25.6C144.711 25.9733 144.758 26.44 144.758 27C144.758 27.5367 144.711 28.0033 144.618 28.4C144.711 28.7733 144.758 29.24 144.758 29.8C144.758 30.3367 144.711 30.8033 144.618 31.2H146.018ZM160.032 22.8C160.125 23.1733 160.172 23.64 160.172 24.2C160.172 24.7367 160.125 25.2033 160.032 25.6H157.232C157.138 25.2033 157.092 24.7367 157.092 24.2C157.092 23.64 157.138 23.1733 157.232 22.8H154.782C154.875 23.1733 154.922 23.64 154.922 24.2C154.922 24.7367 154.875 25.2033 154.782 25.6H153.732C153.825 25.9733 153.872 26.44 153.872 27C153.872 27.5367 153.825 28.0033 153.732 28.4C153.825 28.7733 153.872 29.24 153.872 29.8C153.872 30.3367 153.825 30.8033 153.732 31.2H155.832C155.925 31.5733 155.972 32.04 155.972 32.6C155.972 33.1367 155.925 33.6033 155.832 34H148.832C148.738 33.6033 148.692 33.1367 148.692 32.6C148.692 32.04 148.738 31.5733 148.832 31.2H150.932C150.838 30.8033 150.792 30.3367 150.792 29.8C150.792 29.24 150.838 28.7733 150.932 28.4C150.838 28.0033 150.792 27.5367 150.792 27C150.792 26.44 150.838 25.9733 150.932 25.6C150.838 25.2033 150.792 24.7367 150.792 24.2C150.792 23.64 150.838 23.1733 150.932 22.8H148.832C148.738 22.4033 148.692 21.9367 148.692 21.4C148.692 20.84 148.738 20.3733 148.832 20H152.332C152.425 20.3733 152.472 20.84 152.472 21.4C152.472 21.9367 152.425 22.4033 152.332 22.8H153.732C153.638 22.4033 153.592 21.9367 153.592 21.4C153.592 20.84 153.638 20.3733 153.732 20H158.982C159.075 20.3733 159.122 20.84 159.122 21.4C159.122 21.9367 159.075 22.4033 158.982 22.8H160.032ZM174.185 24.2C174.185 24.7367 174.139 25.2033 174.045 25.6C174.139 25.9733 174.185 26.44 174.185 27C174.185 27.5367 174.139 28.0033 174.045 28.4H166.695C166.789 28.7733 166.835 29.24 166.835 29.8C166.835 30.3367 166.789 30.8033 166.695 31.2H172.645C172.739 31.5733 172.785 32.04 172.785 32.6C172.785 33.1367 172.739 33.6033 172.645 34H165.645C165.552 33.6033 165.505 33.1367 165.505 32.6C165.505 32.04 165.552 31.5733 165.645 31.2H163.895C163.802 30.8033 163.755 30.3367 163.755 29.8C163.755 29.24 163.802 28.7733 163.895 28.4H162.845C162.752 28.0033 162.705 27.5367 162.705 27C162.705 26.44 162.752 25.9733 162.845 25.6H163.895C163.802 25.2033 163.755 24.7367 163.755 24.2C163.755 23.64 163.802 23.1733 163.895 22.8H165.645C165.552 22.4033 165.505 21.9367 165.505 21.4C165.505 20.84 165.552 20.3733 165.645 20H172.645C172.739 20.3733 172.785 20.84 172.785 21.4C172.785 21.9367 172.739 22.4033 172.645 22.8H174.045C174.139 23.1733 174.185 23.64 174.185 24.2ZM171.245 25.6C171.152 25.2033 171.105 24.7367 171.105 24.2C171.105 23.64 171.152 23.1733 171.245 22.8H166.695C166.789 23.1733 166.835 23.64 166.835 24.2C166.835 24.7367 166.789 25.2033 166.695 25.6H171.245ZM201.513 29.8C201.513 30.3367 201.466 30.8033 201.373 31.2H199.973C200.066 31.5733 200.113 32.04 200.113 32.6C200.113 33.1367 200.066 33.6033 199.973 34H192.273C192.179 33.6033 192.133 33.1367 192.133 32.6C192.133 32.04 192.179 31.5733 192.273 31.2H198.573C198.479 30.8033 198.433 30.3367 198.433 29.8C198.433 29.24 198.479 28.7733 198.573 28.4H192.973C192.879 28.0033 192.833 27.5367 192.833 27C192.833 26.44 192.879 25.9733 192.973 25.6H191.573C191.479 25.2033 191.433 24.7367 191.433 24.2C191.433 23.64 191.479 23.1733 191.573 22.8H192.973C192.879 22.4033 192.833 21.9367 192.833 21.4C192.833 20.84 192.879 20.3733 192.973 20H200.673C200.766 20.3733 200.813 20.84 200.813 21.4C200.813 21.9367 200.766 22.4033 200.673 22.8H194.373C194.466 23.1733 194.513 23.64 194.513 24.2C194.513 24.7367 194.466 25.2033 194.373 25.6H199.973C200.066 25.9733 200.113 26.44 200.113 27C200.113 27.5367 200.066 28.0033 199.973 28.4H201.373C201.466 28.7733 201.513 29.24 201.513 29.8ZM216.226 27C216.226 27.5367 216.18 28.0033 216.086 28.4H215.036C215.13 28.7733 215.176 29.24 215.176 29.8C215.176 30.3367 215.13 30.8033 215.036 31.2H213.286C213.38 31.5733 213.426 32.04 213.426 32.6C213.426 33.1367 213.38 33.6033 213.286 34H207.686C207.593 33.6033 207.546 33.1367 207.546 32.6C207.546 32.04 207.593 31.5733 207.686 31.2H205.936C205.843 30.8033 205.796 30.3367 205.796 29.8C205.796 29.24 205.843 28.7733 205.936 28.4H204.886C204.793 28.0033 204.746 27.5367 204.746 27C204.746 26.44 204.793 25.9733 204.886 25.6H205.936C205.843 25.2033 205.796 24.7367 205.796 24.2C205.796 23.64 205.843 23.1733 205.936 22.8H207.686C207.593 22.4033 207.546 21.9367 207.546 21.4C207.546 20.84 207.593 20.3733 207.686 20H213.286C213.38 20.3733 213.426 20.84 213.426 21.4C213.426 21.9367 213.38 22.4033 213.286 22.8H215.036C215.13 23.1733 215.176 23.64 215.176 24.2C215.176 24.7367 215.13 25.2033 215.036 25.6H216.086C216.18 25.9733 216.226 26.44 216.226 27ZM213.286 28.4C213.193 28.0033 213.146 27.5367 213.146 27C213.146 26.44 213.193 25.9733 213.286 25.6H212.236C212.143 25.2033 212.096 24.7367 212.096 24.2C212.096 23.64 212.143 23.1733 212.236 22.8H208.736C208.83 23.1733 208.876 23.64 208.876 24.2C208.876 24.7367 208.83 25.2033 208.736 25.6H207.686C207.78 25.9733 207.826 26.44 207.826 27C207.826 27.5367 207.78 28.0033 207.686 28.4H208.736C208.83 28.7733 208.876 29.24 208.876 29.8C208.876 30.3367 208.83 30.8033 208.736 31.2H212.236C212.143 30.8033 212.096 30.3367 212.096 29.8C212.096 29.24 212.143 28.7733 212.236 28.4H213.286ZM220.79 21.4C220.79 21.9367 220.743 22.4033 220.65 22.8H221.7C221.793 23.1733 221.84 23.64 221.84 24.2C221.84 24.7367 221.793 25.2033 221.7 25.6C221.793 25.9733 221.84 26.44 221.84 27C221.84 27.5367 221.793 28.0033 221.7 28.4C221.793 28.7733 221.84 29.24 221.84 29.8C221.84 30.3367 221.793 30.8033 221.7 31.2C221.793 31.5733 221.84 32.04 221.84 32.6C221.84 33.1367 221.793 33.6033 221.7 34H218.9C218.807 33.6033 218.76 33.1367 218.76 32.6C218.76 32.04 218.807 31.5733 218.9 31.2C218.807 30.8033 218.76 30.3367 218.76 29.8C218.76 29.24 218.807 28.7733 218.9 28.4C218.807 28.0033 218.76 27.5367 218.76 27C218.76 26.44 218.807 25.9733 218.9 25.6C218.807 25.2033 218.76 24.7367 218.76 24.2C218.76 23.64 218.807 23.1733 218.9 22.8C218.807 22.4033 218.76 21.9367 218.76 21.4C218.76 20.84 218.807 20.3733 218.9 20H220.65C220.743 20.3733 220.79 20.84 220.79 21.4ZM224.64 21.4C224.64 21.9367 224.593 22.4033 224.5 22.8H225.55C225.643 23.1733 225.69 23.64 225.69 24.2C225.69 24.7367 225.643 25.2033 225.55 25.6C225.643 25.9733 225.69 26.44 225.69 27C225.69 27.5367 225.643 28.0033 225.55 28.4C225.643 28.7733 225.69 29.24 225.69 29.8C225.69 30.3367 225.643 30.8033 225.55 31.2C225.643 31.5733 225.69 32.04 225.69 32.6C225.69 33.1367 225.643 33.6033 225.55 34H223.45C223.357 33.6033 223.31 33.1367 223.31 32.6C223.31 32.04 223.357 31.5733 223.45 31.2C223.357 30.8033 223.31 30.3367 223.31 29.8C223.31 29.24 223.357 28.7733 223.45 28.4C223.357 28.0033 223.31 27.5367 223.31 27C223.31 26.44 223.357 25.9733 223.45 25.6C223.357 25.2033 223.31 24.7367 223.31 24.2C223.31 23.64 223.357 23.1733 223.45 22.8H221.7C221.607 22.4033 221.56 21.9367 221.56 21.4C221.56 20.84 221.607 20.3733 221.7 20H224.5C224.593 20.3733 224.64 20.84 224.64 21.4ZM230.1 25.6C230.193 25.9733 230.24 26.44 230.24 27C230.24 27.5367 230.193 28.0033 230.1 28.4C230.193 28.7733 230.24 29.24 230.24 29.8C230.24 30.3367 230.193 30.8033 230.1 31.2C230.193 31.5733 230.24 32.04 230.24 32.6C230.24 33.1367 230.193 33.6033 230.1 34H227.3C227.207 33.6033 227.16 33.1367 227.16 32.6C227.16 32.04 227.207 31.5733 227.3 31.2C227.207 30.8033 227.16 30.3367 227.16 29.8C227.16 29.24 227.207 28.7733 227.3 28.4C227.207 28.0033 227.16 27.5367 227.16 27C227.16 26.44 227.207 25.9733 227.3 25.6C227.207 25.2033 227.16 24.7367 227.16 24.2C227.16 23.64 227.207 23.1733 227.3 22.8H225.55C225.457 22.4033 225.41 21.9367 225.41 21.4C225.41 20.84 225.457 20.3733 225.55 20H228.7C228.793 20.3733 228.84 20.84 228.84 21.4C228.84 21.9367 228.793 22.4033 228.7 22.8H230.1C230.193 23.1733 230.24 23.64 230.24 24.2C230.24 24.7367 230.193 25.2033 230.1 25.6ZM244.254 24.2C244.254 24.7367 244.207 25.2033 244.114 25.6C244.207 25.9733 244.254 26.44 244.254 27C244.254 27.5367 244.207 28.0033 244.114 28.4H236.764C236.857 28.7733 236.904 29.24 236.904 29.8C236.904 30.3367 236.857 30.8033 236.764 31.2H242.714C242.807 31.5733 242.854 32.04 242.854 32.6C242.854 33.1367 242.807 33.6033 242.714 34H235.714C235.62 33.6033 235.574 33.1367 235.574 32.6C235.574 32.04 235.62 31.5733 235.714 31.2H233.964C233.87 30.8033 233.824 30.3367 233.824 29.8C233.824 29.24 233.87 28.7733 233.964 28.4H232.914C232.82 28.0033 232.774 27.5367 232.774 27C232.774 26.44 232.82 25.9733 232.914 25.6H233.964C233.87 25.2033 233.824 24.7367 233.824 24.2C233.824 23.64 233.87 23.1733 233.964 22.8H235.714C235.62 22.4033 235.574 21.9367 235.574 21.4C235.574 20.84 235.62 20.3733 235.714 20H242.714C242.807 20.3733 242.854 20.84 242.854 21.4C242.854 21.9367 242.807 22.4033 242.714 22.8H244.114C244.207 23.1733 244.254 23.64 244.254 24.2ZM241.314 25.6C241.22 25.2033 241.174 24.7367 241.174 24.2C241.174 23.64 241.22 23.1733 241.314 22.8H236.764C236.857 23.1733 236.904 23.64 236.904 24.2C236.904 24.7367 236.857 25.2033 236.764 25.6H241.314ZM272.141 17.2C272.234 17.5733 272.281 18.04 272.281 18.6C272.281 19.1367 272.234 19.6033 272.141 20C272.234 20.3733 272.281 20.84 272.281 21.4C272.281 21.9367 272.234 22.4033 272.141 22.8C272.234 23.1733 272.281 23.64 272.281 24.2C272.281 24.7367 272.234 25.2033 272.141 25.6C272.234 25.9733 272.281 26.44 272.281 27C272.281 27.5367 272.234 28.0033 272.141 28.4C272.234 28.7733 272.281 29.24 272.281 29.8C272.281 30.3367 272.234 30.8033 272.141 31.2C272.234 31.5733 272.281 32.04 272.281 32.6C272.281 33.1367 272.234 33.6033 272.141 34H269.341C269.248 33.6033 269.201 33.1367 269.201 32.6C269.201 32.04 269.248 31.5733 269.341 31.2H268.291C268.198 30.8033 268.151 30.3367 268.151 29.8C268.151 29.24 268.198 28.7733 268.291 28.4H269.341C269.248 28.0033 269.201 27.5367 269.201 27C269.201 26.44 269.248 25.9733 269.341 25.6H268.291C268.198 25.2033 268.151 24.7367 268.151 24.2C268.151 23.64 268.198 23.1733 268.291 22.8H269.341C269.248 22.4033 269.201 21.9367 269.201 21.4C269.201 20.84 269.248 20.3733 269.341 20C269.248 19.6033 269.201 19.1367 269.201 18.6C269.201 18.04 269.248 17.5733 269.341 17.2C269.248 16.8033 269.201 16.3367 269.201 15.8C269.201 15.24 269.248 14.7733 269.341 14.4H272.141C272.234 14.7733 272.281 15.24 272.281 15.8C272.281 16.3367 272.234 16.8033 272.141 17.2ZM267.731 21.4C267.731 21.9367 267.684 22.4033 267.591 22.8H264.091C264.184 23.1733 264.231 23.64 264.231 24.2C264.231 24.7367 264.184 25.2033 264.091 25.6H263.041C263.134 25.9733 263.181 26.44 263.181 27C263.181 27.5367 263.134 28.0033 263.041 28.4H264.091C264.184 28.7733 264.231 29.24 264.231 29.8C264.231 30.3367 264.184 30.8033 264.091 31.2H267.591C267.684 31.5733 267.731 32.04 267.731 32.6C267.731 33.1367 267.684 33.6033 267.591 34H263.741C263.648 33.6033 263.601 33.1367 263.601 32.6C263.601 32.04 263.648 31.5733 263.741 31.2H261.991C261.898 30.8033 261.851 30.3367 261.851 29.8C261.851 29.24 261.898 28.7733 261.991 28.4H260.941C260.848 28.0033 260.801 27.5367 260.801 27C260.801 26.44 260.848 25.9733 260.941 25.6H261.991C261.898 25.2033 261.851 24.7367 261.851 24.2C261.851 23.64 261.898 23.1733 261.991 22.8H263.741C263.648 22.4033 263.601 21.9367 263.601 21.4C263.601 20.84 263.648 20.3733 263.741 20H267.591C267.684 20.3733 267.731 20.84 267.731 21.4ZM279.155 17.2C279.061 16.8033 279.015 16.3367 279.015 15.8C279.015 15.24 279.061 14.7733 279.155 14.4H281.955C282.048 14.7733 282.095 15.24 282.095 15.8C282.095 16.3367 282.048 16.8033 281.955 17.2H279.155ZM284.755 31.2C284.848 31.5733 284.895 32.04 284.895 32.6C284.895 33.1367 284.848 33.6033 284.755 34H276.355C276.261 33.6033 276.215 33.1367 276.215 32.6C276.215 32.04 276.261 31.5733 276.355 31.2H279.155C279.061 30.8033 279.015 30.3367 279.015 29.8C279.015 29.24 279.061 28.7733 279.155 28.4C279.061 28.0033 279.015 27.5367 279.015 27C279.015 26.44 279.061 25.9733 279.155 25.6C279.061 25.2033 279.015 24.7367 279.015 24.2C279.015 23.64 279.061 23.1733 279.155 22.8H277.055C276.961 22.4033 276.915 21.9367 276.915 21.4C276.915 20.84 276.961 20.3733 277.055 20H281.955C282.048 20.3733 282.095 20.84 282.095 21.4C282.095 21.9367 282.048 22.4033 281.955 22.8C282.048 23.1733 282.095 23.64 282.095 24.2C282.095 24.7367 282.048 25.2033 281.955 25.6C282.048 25.9733 282.095 26.44 282.095 27C282.095 27.5367 282.048 28.0033 281.955 28.4C282.048 28.7733 282.095 29.24 282.095 29.8C282.095 30.3367 282.048 30.8033 281.955 31.2H284.755ZM300.308 21.4C300.308 21.9367 300.262 22.4033 300.168 22.8H298.418C298.512 23.1733 298.558 23.64 298.558 24.2C298.558 24.7367 298.512 25.2033 298.418 25.6C298.512 25.9733 298.558 26.44 298.558 27C298.558 27.5367 298.512 28.0033 298.418 28.4C298.512 28.7733 298.558 29.24 298.558 29.8C298.558 30.3367 298.512 30.8033 298.418 31.2C298.512 31.5733 298.558 32.04 298.558 32.6C298.558 33.1367 298.512 33.6033 298.418 34H295.618C295.525 33.6033 295.478 33.1367 295.478 32.6C295.478 32.04 295.525 31.5733 295.618 31.2C295.525 30.8033 295.478 30.3367 295.478 29.8C295.478 29.24 295.525 28.7733 295.618 28.4C295.525 28.0033 295.478 27.5367 295.478 27C295.478 26.44 295.525 25.9733 295.618 25.6C295.525 25.2033 295.478 24.7367 295.478 24.2C295.478 23.64 295.525 23.1733 295.618 22.8H293.168C293.262 23.1733 293.308 23.64 293.308 24.2C293.308 24.7367 293.262 25.2033 293.168 25.6C293.262 25.9733 293.308 26.44 293.308 27C293.308 27.5367 293.262 28.0033 293.168 28.4C293.262 28.7733 293.308 29.24 293.308 29.8C293.308 30.3367 293.262 30.8033 293.168 31.2C293.262 31.5733 293.308 32.04 293.308 32.6C293.308 33.1367 293.262 33.6033 293.168 34H290.368C290.275 33.6033 290.228 33.1367 290.228 32.6C290.228 32.04 290.275 31.5733 290.368 31.2C290.275 30.8033 290.228 30.3367 290.228 29.8C290.228 29.24 290.275 28.7733 290.368 28.4C290.275 28.0033 290.228 27.5367 290.228 27C290.228 26.44 290.275 25.9733 290.368 25.6C290.275 25.2033 290.228 24.7367 290.228 24.2C290.228 23.64 290.275 23.1733 290.368 22.8H288.968C288.875 22.4033 288.828 21.9367 288.828 21.4C288.828 20.84 288.875 20.3733 288.968 20H290.368C290.275 19.6033 290.228 19.1367 290.228 18.6C290.228 18.04 290.275 17.5733 290.368 17.2H291.768C291.675 16.8033 291.628 16.3367 291.628 15.8C291.628 15.24 291.675 14.7733 291.768 14.4H294.568C294.662 14.7733 294.708 15.24 294.708 15.8C294.708 16.3367 294.662 16.8033 294.568 17.2H293.168C293.262 17.5733 293.308 18.04 293.308 18.6C293.308 19.1367 293.262 19.6033 293.168 20H295.618C295.525 19.6033 295.478 19.1367 295.478 18.6C295.478 18.04 295.525 17.5733 295.618 17.2H297.018C296.925 16.8033 296.878 16.3367 296.878 15.8C296.878 15.24 296.925 14.7733 297.018 14.4H299.818C299.912 14.7733 299.958 15.24 299.958 15.8C299.958 16.3367 299.912 16.8033 299.818 17.2H298.418C298.512 17.5733 298.558 18.04 298.558 18.6C298.558 19.1367 298.512 19.6033 298.418 20H300.168C300.262 20.3733 300.308 20.84 300.308 21.4ZM314.322 24.2C314.322 24.7367 314.275 25.2033 314.182 25.6C314.275 25.9733 314.322 26.44 314.322 27C314.322 27.5367 314.275 28.0033 314.182 28.4H306.832C306.925 28.7733 306.972 29.24 306.972 29.8C306.972 30.3367 306.925 30.8033 306.832 31.2H312.782C312.875 31.5733 312.922 32.04 312.922 32.6C312.922 33.1367 312.875 33.6033 312.782 34H305.782C305.689 33.6033 305.642 33.1367 305.642 32.6C305.642 32.04 305.689 31.5733 305.782 31.2H304.032C303.939 30.8033 303.892 30.3367 303.892 29.8C303.892 29.24 303.939 28.7733 304.032 28.4H302.982C302.889 28.0033 302.842 27.5367 302.842 27C302.842 26.44 302.889 25.9733 302.982 25.6H304.032C303.939 25.2033 303.892 24.7367 303.892 24.2C303.892 23.64 303.939 23.1733 304.032 22.8H305.782C305.689 22.4033 305.642 21.9367 305.642 21.4C305.642 20.84 305.689 20.3733 305.782 20H312.782C312.875 20.3733 312.922 20.84 312.922 21.4C312.922 21.9367 312.875 22.4033 312.782 22.8H314.182C314.275 23.1733 314.322 23.64 314.322 24.2ZM311.382 25.6C311.289 25.2033 311.242 24.7367 311.242 24.2C311.242 23.64 311.289 23.1733 311.382 22.8H306.832C306.925 23.1733 306.972 23.64 306.972 24.2C306.972 24.7367 306.925 25.2033 306.832 25.6H311.382ZM328.196 22.8C328.289 23.1733 328.336 23.64 328.336 24.2C328.336 24.7367 328.289 25.2033 328.196 25.6H325.396C325.302 25.2033 325.256 24.7367 325.256 24.2C325.256 23.64 325.302 23.1733 325.396 22.8H322.946C323.039 23.1733 323.086 23.64 323.086 24.2C323.086 24.7367 323.039 25.2033 322.946 25.6H321.896C321.989 25.9733 322.036 26.44 322.036 27C322.036 27.5367 321.989 28.0033 321.896 28.4C321.989 28.7733 322.036 29.24 322.036 29.8C322.036 30.3367 321.989 30.8033 321.896 31.2H323.996C324.089 31.5733 324.136 32.04 324.136 32.6C324.136 33.1367 324.089 33.6033 323.996 34H316.996C316.902 33.6033 316.856 33.1367 316.856 32.6C316.856 32.04 316.902 31.5733 316.996 31.2H319.096C319.002 30.8033 318.956 30.3367 318.956 29.8C318.956 29.24 319.002 28.7733 319.096 28.4C319.002 28.0033 318.956 27.5367 318.956 27C318.956 26.44 319.002 25.9733 319.096 25.6C319.002 25.2033 318.956 24.7367 318.956 24.2C318.956 23.64 319.002 23.1733 319.096 22.8H316.996C316.902 22.4033 316.856 21.9367 316.856 21.4C316.856 20.84 316.902 20.3733 316.996 20H320.496C320.589 20.3733 320.636 20.84 320.636 21.4C320.636 21.9367 320.589 22.4033 320.496 22.8H321.896C321.802 22.4033 321.756 21.9367 321.756 21.4C321.756 20.84 321.802 20.3733 321.896 20H327.146C327.239 20.3733 327.286 20.84 327.286 21.4C327.286 21.9367 327.239 22.4033 327.146 22.8H328.196ZM342.349 24.2C342.349 24.7367 342.303 25.2033 342.209 25.6C342.303 25.9733 342.349 26.44 342.349 27C342.349 27.5367 342.303 28.0033 342.209 28.4H334.859C334.953 28.7733 334.999 29.24 334.999 29.8C334.999 30.3367 334.953 30.8033 334.859 31.2H340.809C340.903 31.5733 340.949 32.04 340.949 32.6C340.949 33.1367 340.903 33.6033 340.809 34H333.809C333.716 33.6033 333.669 33.1367 333.669 32.6C333.669 32.04 333.716 31.5733 333.809 31.2H332.059C331.966 30.8033 331.919 30.3367 331.919 29.8C331.919 29.24 331.966 28.7733 332.059 28.4H331.009C330.916 28.0033 330.869 27.5367 330.869 27C330.869 26.44 330.916 25.9733 331.009 25.6H332.059C331.966 25.2033 331.919 24.7367 331.919 24.2C331.919 23.64 331.966 23.1733 332.059 22.8H333.809C333.716 22.4033 333.669 21.9367 333.669 21.4C333.669 20.84 333.716 20.3733 333.809 20H340.809C340.903 20.3733 340.949 20.84 340.949 21.4C340.949 21.9367 340.903 22.4033 340.809 22.8H342.209C342.303 23.1733 342.349 23.64 342.349 24.2ZM339.409 25.6C339.316 25.2033 339.269 24.7367 339.269 24.2C339.269 23.64 339.316 23.1733 339.409 22.8H334.859C334.953 23.1733 334.999 23.64 334.999 24.2C334.999 24.7367 334.953 25.2033 334.859 25.6H339.409ZM347.613 21.4C347.613 21.9367 347.566 22.4033 347.473 22.8H348.873C348.966 23.1733 349.013 23.64 349.013 24.2C349.013 24.7367 348.966 25.2033 348.873 25.6H347.823C347.916 25.9733 347.963 26.44 347.963 27C347.963 27.5367 347.916 28.0033 347.823 28.4C347.916 28.7733 347.963 29.24 347.963 29.8C347.963 30.3367 347.916 30.8033 347.823 31.2C347.916 31.5733 347.963 32.04 347.963 32.6C347.963 33.1367 347.916 33.6033 347.823 34H345.023C344.93 33.6033 344.883 33.1367 344.883 32.6C344.883 32.04 344.93 31.5733 345.023 31.2C344.93 30.8033 344.883 30.3367 344.883 29.8C344.883 29.24 344.93 28.7733 345.023 28.4C344.93 28.0033 344.883 27.5367 344.883 27C344.883 26.44 344.93 25.9733 345.023 25.6C344.93 25.2033 344.883 24.7367 344.883 24.2C344.883 23.64 344.93 23.1733 345.023 22.8C344.93 22.4033 344.883 21.9367 344.883 21.4C344.883 20.84 344.93 20.3733 345.023 20H347.473C347.566 20.3733 347.613 20.84 347.613 21.4ZM356.223 25.6C356.316 25.9733 356.363 26.44 356.363 27C356.363 27.5367 356.316 28.0033 356.223 28.4C356.316 28.7733 356.363 29.24 356.363 29.8C356.363 30.3367 356.316 30.8033 356.223 31.2C356.316 31.5733 356.363 32.04 356.363 32.6C356.363 33.1367 356.316 33.6033 356.223 34H353.423C353.33 33.6033 353.283 33.1367 353.283 32.6C353.283 32.04 353.33 31.5733 353.423 31.2C353.33 30.8033 353.283 30.3367 353.283 29.8C353.283 29.24 353.33 28.7733 353.423 28.4C353.33 28.0033 353.283 27.5367 353.283 27C353.283 26.44 353.33 25.9733 353.423 25.6C353.33 25.2033 353.283 24.7367 353.283 24.2C353.283 23.64 353.33 23.1733 353.423 22.8H348.873C348.78 22.4033 348.733 21.9367 348.733 21.4C348.733 20.84 348.78 20.3733 348.873 20H354.473C354.566 20.3733 354.613 20.84 354.613 21.4C354.613 21.9367 354.566 22.4033 354.473 22.8H356.223C356.316 23.1733 356.363 23.64 356.363 24.2C356.363 24.7367 356.316 25.2033 356.223 25.6ZM368.837 31.2C368.93 31.5733 368.977 32.04 368.977 32.6C368.977 33.1367 368.93 33.6033 368.837 34H363.237C363.143 33.6033 363.097 33.1367 363.097 32.6C363.097 32.04 363.143 31.5733 363.237 31.2H361.837C361.743 30.8033 361.697 30.3367 361.697 29.8C361.697 29.24 361.743 28.7733 361.837 28.4C361.743 28.0033 361.697 27.5367 361.697 27C361.697 26.44 361.743 25.9733 361.837 25.6C361.743 25.2033 361.697 24.7367 361.697 24.2C361.697 23.64 361.743 23.1733 361.837 22.8H359.037C358.943 22.4033 358.897 21.9367 358.897 21.4C358.897 20.84 358.943 20.3733 359.037 20H361.837C361.743 19.6033 361.697 19.1367 361.697 18.6C361.697 18.04 361.743 17.5733 361.837 17.2C361.743 16.8033 361.697 16.3367 361.697 15.8C361.697 15.24 361.743 14.7733 361.837 14.4H364.637C364.73 14.7733 364.777 15.24 364.777 15.8C364.777 16.3367 364.73 16.8033 364.637 17.2C364.73 17.5733 364.777 18.04 364.777 18.6C364.777 19.1367 364.73 19.6033 364.637 20H368.837C368.93 20.3733 368.977 20.84 368.977 21.4C368.977 21.9367 368.93 22.4033 368.837 22.8H364.637C364.73 23.1733 364.777 23.64 364.777 24.2C364.777 24.7367 364.73 25.2033 364.637 25.6C364.73 25.9733 364.777 26.44 364.777 27C364.777 27.5367 364.73 28.0033 364.637 28.4C364.73 28.7733 364.777 29.24 364.777 29.8C364.777 30.3367 364.73 30.8033 364.637 31.2H368.837ZM110.984 63.4C111.077 63.7733 111.124 64.24 111.124 64.8C111.124 65.3367 111.077 65.8033 110.984 66.2H109.584C109.677 66.5733 109.724 67.04 109.724 67.6C109.724 68.1367 109.677 68.6033 109.584 69H102.584C102.49 68.6033 102.444 68.1367 102.444 67.6C102.444 67.04 102.49 66.5733 102.584 66.2H101.184C101.09 65.8033 101.044 65.3367 101.044 64.8C101.044 64.24 101.09 63.7733 101.184 63.4H99.7838C99.6905 63.0033 99.6438 62.5367 99.6438 62C99.6438 61.44 99.6905 60.9733 99.7838 60.6H101.184C101.09 60.2033 101.044 59.7367 101.044 59.2C101.044 58.64 101.09 58.1733 101.184 57.8H102.584C102.49 57.4033 102.444 56.9367 102.444 56.4C102.444 55.84 102.49 55.3733 102.584 55H109.584C109.677 55.3733 109.724 55.84 109.724 56.4C109.724 56.9367 109.677 57.4033 109.584 57.8H110.984C111.077 58.1733 111.124 58.64 111.124 59.2C111.124 59.7367 111.077 60.2033 110.984 60.6H108.184C108.09 60.2033 108.044 59.7367 108.044 59.2C108.044 58.64 108.09 58.1733 108.184 57.8H103.984C104.077 58.1733 104.124 58.64 104.124 59.2C104.124 59.7367 104.077 60.2033 103.984 60.6H102.584C102.677 60.9733 102.724 61.44 102.724 62C102.724 62.5367 102.677 63.0033 102.584 63.4H103.984C104.077 63.7733 104.124 64.24 104.124 64.8C104.124 65.3367 104.077 65.8033 103.984 66.2H108.184C108.09 65.8033 108.044 65.3367 108.044 64.8C108.044 64.24 108.09 63.7733 108.184 63.4H110.984ZM124.997 57.8C125.091 58.1733 125.137 58.64 125.137 59.2C125.137 59.7367 125.091 60.2033 124.997 60.6H122.197C122.104 60.2033 122.057 59.7367 122.057 59.2C122.057 58.64 122.104 58.1733 122.197 57.8H119.747C119.841 58.1733 119.887 58.64 119.887 59.2C119.887 59.7367 119.841 60.2033 119.747 60.6H118.697C118.791 60.9733 118.837 61.44 118.837 62C118.837 62.5367 118.791 63.0033 118.697 63.4C118.791 63.7733 118.837 64.24 118.837 64.8C118.837 65.3367 118.791 65.8033 118.697 66.2H120.797C120.891 66.5733 120.937 67.04 120.937 67.6C120.937 68.1367 120.891 68.6033 120.797 69H113.797C113.704 68.6033 113.657 68.1367 113.657 67.6C113.657 67.04 113.704 66.5733 113.797 66.2H115.897C115.804 65.8033 115.757 65.3367 115.757 64.8C115.757 64.24 115.804 63.7733 115.897 63.4C115.804 63.0033 115.757 62.5367 115.757 62C115.757 61.44 115.804 60.9733 115.897 60.6C115.804 60.2033 115.757 59.7367 115.757 59.2C115.757 58.64 115.804 58.1733 115.897 57.8H113.797C113.704 57.4033 113.657 56.9367 113.657 56.4C113.657 55.84 113.704 55.3733 113.797 55H117.297C117.391 55.3733 117.437 55.84 117.437 56.4C117.437 56.9367 117.391 57.4033 117.297 57.8H118.697C118.604 57.4033 118.557 56.9367 118.557 56.4C118.557 55.84 118.604 55.3733 118.697 55H123.947C124.041 55.3733 124.087 55.84 124.087 56.4C124.087 56.9367 124.041 57.4033 123.947 57.8H124.997ZM139.151 56.4C139.151 56.9367 139.104 57.4033 139.011 57.8H137.961C138.054 58.1733 138.101 58.64 138.101 59.2C138.101 59.7367 138.054 60.2033 137.961 60.6H136.911C137.004 60.9733 137.051 61.44 137.051 62C137.051 62.5367 137.004 63.0033 136.911 63.4H136.211C136.304 63.7733 136.351 64.24 136.351 64.8C136.351 65.3367 136.304 65.8033 136.211 66.2H135.161C135.254 66.5733 135.301 67.04 135.301 67.6C135.301 68.1367 135.254 68.6033 135.161 69H134.461C134.554 69.3733 134.601 69.84 134.601 70.4C134.601 70.9367 134.554 71.4033 134.461 71.8H133.061C133.154 72.1733 133.201 72.64 133.201 73.2C133.201 73.7367 133.154 74.2033 133.061 74.6H128.861C128.768 74.2033 128.721 73.7367 128.721 73.2C128.721 72.64 128.768 72.1733 128.861 71.8H131.661C131.568 71.4033 131.521 70.9367 131.521 70.4C131.521 69.84 131.568 69.3733 131.661 69C131.568 68.6033 131.521 68.1367 131.521 67.6C131.521 67.04 131.568 66.5733 131.661 66.2H130.261C130.168 65.8033 130.121 65.3367 130.121 64.8C130.121 64.24 130.168 63.7733 130.261 63.4H129.561C129.468 63.0033 129.421 62.5367 129.421 62C129.421 61.44 129.468 60.9733 129.561 60.6H128.511C128.418 60.2033 128.371 59.7367 128.371 59.2C128.371 58.64 128.418 58.1733 128.511 57.8H127.461C127.368 57.4033 127.321 56.9367 127.321 56.4C127.321 55.84 127.368 55.3733 127.461 55H130.261C130.354 55.3733 130.401 55.84 130.401 56.4C130.401 56.9367 130.354 57.4033 130.261 57.8H131.311C131.404 58.1733 131.451 58.64 131.451 59.2C131.451 59.7367 131.404 60.2033 131.311 60.6H132.361C132.454 60.9733 132.501 61.44 132.501 62C132.501 62.5367 132.454 63.0033 132.361 63.4C132.454 63.7733 132.501 64.24 132.501 64.8C132.501 65.3367 132.454 65.8033 132.361 66.2H133.411C133.318 65.8033 133.271 65.3367 133.271 64.8C133.271 64.24 133.318 63.7733 133.411 63.4H134.111C134.018 63.0033 133.971 62.5367 133.971 62C133.971 61.44 134.018 60.9733 134.111 60.6H135.161C135.068 60.2033 135.021 59.7367 135.021 59.2C135.021 58.64 135.068 58.1733 135.161 57.8H136.211C136.118 57.4033 136.071 56.9367 136.071 56.4C136.071 55.84 136.118 55.3733 136.211 55H139.011C139.104 55.3733 139.151 55.84 139.151 56.4ZM153.165 62C153.165 62.5367 153.118 63.0033 153.025 63.4H151.625C151.718 63.7733 151.765 64.24 151.765 64.8C151.765 65.3367 151.718 65.8033 151.625 66.2H150.225C150.318 66.5733 150.365 67.04 150.365 67.6C150.365 68.1367 150.318 68.6033 150.225 69H144.625C144.718 69.3733 144.765 69.84 144.765 70.4C144.765 70.9367 144.718 71.4033 144.625 71.8C144.718 72.1733 144.765 72.64 144.765 73.2C144.765 73.7367 144.718 74.2033 144.625 74.6H141.825C141.731 74.2033 141.685 73.7367 141.685 73.2C141.685 72.64 141.731 72.1733 141.825 71.8C141.731 71.4033 141.685 70.9367 141.685 70.4C141.685 69.84 141.731 69.3733 141.825 69C141.731 68.6033 141.685 68.1367 141.685 67.6C141.685 67.04 141.731 66.5733 141.825 66.2C141.731 65.8033 141.685 65.3367 141.685 64.8C141.685 64.24 141.731 63.7733 141.825 63.4C141.731 63.0033 141.685 62.5367 141.685 62C141.685 61.44 141.731 60.9733 141.825 60.6C141.731 60.2033 141.685 59.7367 141.685 59.2C141.685 58.64 141.731 58.1733 141.825 57.8C141.731 57.4033 141.685 56.9367 141.685 56.4C141.685 55.84 141.731 55.3733 141.825 55H144.625C144.718 55.3733 144.765 55.84 144.765 56.4C144.765 56.9367 144.718 57.4033 144.625 57.8H146.025C146.118 58.1733 146.165 58.64 146.165 59.2C146.165 59.7367 146.118 60.2033 146.025 60.6H144.625C144.718 60.9733 144.765 61.44 144.765 62C144.765 62.5367 144.718 63.0033 144.625 63.4C144.718 63.7733 144.765 64.24 144.765 64.8C144.765 65.3367 144.718 65.8033 144.625 66.2H148.825C148.731 65.8033 148.685 65.3367 148.685 64.8C148.685 64.24 148.731 63.7733 148.825 63.4H150.225C150.131 63.0033 150.085 62.5367 150.085 62C150.085 61.44 150.131 60.9733 150.225 60.6H148.825C148.731 60.2033 148.685 59.7367 148.685 59.2C148.685 58.64 148.731 58.1733 148.825 57.8H146.025C145.931 57.4033 145.885 56.9367 145.885 56.4C145.885 55.84 145.931 55.3733 146.025 55H150.225C150.318 55.3733 150.365 55.84 150.365 56.4C150.365 56.9367 150.318 57.4033 150.225 57.8H151.625C151.718 58.1733 151.765 58.64 151.765 59.2C151.765 59.7367 151.718 60.2033 151.625 60.6H153.025C153.118 60.9733 153.165 61.44 153.165 62ZM165.638 66.2C165.732 66.5733 165.778 67.04 165.778 67.6C165.778 68.1367 165.732 68.6033 165.638 69H160.038C159.945 68.6033 159.898 68.1367 159.898 67.6C159.898 67.04 159.945 66.5733 160.038 66.2H158.638C158.545 65.8033 158.498 65.3367 158.498 64.8C158.498 64.24 158.545 63.7733 158.638 63.4C158.545 63.0033 158.498 62.5367 158.498 62C158.498 61.44 158.545 60.9733 158.638 60.6C158.545 60.2033 158.498 59.7367 158.498 59.2C158.498 58.64 158.545 58.1733 158.638 57.8H155.838C155.745 57.4033 155.698 56.9367 155.698 56.4C155.698 55.84 155.745 55.3733 155.838 55H158.638C158.545 54.6033 158.498 54.1367 158.498 53.6C158.498 53.04 158.545 52.5733 158.638 52.2C158.545 51.8033 158.498 51.3367 158.498 50.8C158.498 50.24 158.545 49.7733 158.638 49.4H161.438C161.532 49.7733 161.578 50.24 161.578 50.8C161.578 51.3367 161.532 51.8033 161.438 52.2C161.532 52.5733 161.578 53.04 161.578 53.6C161.578 54.1367 161.532 54.6033 161.438 55H165.638C165.732 55.3733 165.778 55.84 165.778 56.4C165.778 56.9367 165.732 57.4033 165.638 57.8H161.438C161.532 58.1733 161.578 58.64 161.578 59.2C161.578 59.7367 161.532 60.2033 161.438 60.6C161.532 60.9733 161.578 61.44 161.578 62C161.578 62.5367 161.532 63.0033 161.438 63.4C161.532 63.7733 161.578 64.24 161.578 64.8C161.578 65.3367 161.532 65.8033 161.438 66.2H165.638ZM181.192 62C181.192 62.5367 181.145 63.0033 181.052 63.4H180.002C180.095 63.7733 180.142 64.24 180.142 64.8C180.142 65.3367 180.095 65.8033 180.002 66.2H178.252C178.345 66.5733 178.392 67.04 178.392 67.6C178.392 68.1367 178.345 68.6033 178.252 69H172.652C172.559 68.6033 172.512 68.1367 172.512 67.6C172.512 67.04 172.559 66.5733 172.652 66.2H170.902C170.809 65.8033 170.762 65.3367 170.762 64.8C170.762 64.24 170.809 63.7733 170.902 63.4H169.852C169.759 63.0033 169.712 62.5367 169.712 62C169.712 61.44 169.759 60.9733 169.852 60.6H170.902C170.809 60.2033 170.762 59.7367 170.762 59.2C170.762 58.64 170.809 58.1733 170.902 57.8H172.652C172.559 57.4033 172.512 56.9367 172.512 56.4C172.512 55.84 172.559 55.3733 172.652 55H178.252C178.345 55.3733 178.392 55.84 178.392 56.4C178.392 56.9367 178.345 57.4033 178.252 57.8H180.002C180.095 58.1733 180.142 58.64 180.142 59.2C180.142 59.7367 180.095 60.2033 180.002 60.6H181.052C181.145 60.9733 181.192 61.44 181.192 62ZM178.252 63.4C178.159 63.0033 178.112 62.5367 178.112 62C178.112 61.44 178.159 60.9733 178.252 60.6H177.202C177.109 60.2033 177.062 59.7367 177.062 59.2C177.062 58.64 177.109 58.1733 177.202 57.8H173.702C173.795 58.1733 173.842 58.64 173.842 59.2C173.842 59.7367 173.795 60.2033 173.702 60.6H172.652C172.745 60.9733 172.792 61.44 172.792 62C172.792 62.5367 172.745 63.0033 172.652 63.4H173.702C173.795 63.7733 173.842 64.24 173.842 64.8C173.842 65.3367 173.795 65.8033 173.702 66.2H177.202C177.109 65.8033 177.062 65.3367 177.062 64.8C177.062 64.24 177.109 63.7733 177.202 63.4H178.252ZM195.066 63.4C195.159 63.7733 195.206 64.24 195.206 64.8C195.206 65.3367 195.159 65.8033 195.066 66.2H193.666C193.759 66.5733 193.806 67.04 193.806 67.6C193.806 68.1367 193.759 68.6033 193.666 69H186.666C186.572 68.6033 186.526 68.1367 186.526 67.6C186.526 67.04 186.572 66.5733 186.666 66.2H185.266C185.172 65.8033 185.126 65.3367 185.126 64.8C185.126 64.24 185.172 63.7733 185.266 63.4H183.866C183.772 63.0033 183.726 62.5367 183.726 62C183.726 61.44 183.772 60.9733 183.866 60.6H185.266C185.172 60.2033 185.126 59.7367 185.126 59.2C185.126 58.64 185.172 58.1733 185.266 57.8H186.666C186.572 57.4033 186.526 56.9367 186.526 56.4C186.526 55.84 186.572 55.3733 186.666 55H193.666C193.759 55.3733 193.806 55.84 193.806 56.4C193.806 56.9367 193.759 57.4033 193.666 57.8H195.066C195.159 58.1733 195.206 58.64 195.206 59.2C195.206 59.7367 195.159 60.2033 195.066 60.6H192.266C192.172 60.2033 192.126 59.7367 192.126 59.2C192.126 58.64 192.172 58.1733 192.266 57.8H188.066C188.159 58.1733 188.206 58.64 188.206 59.2C188.206 59.7367 188.159 60.2033 188.066 60.6H186.666C186.759 60.9733 186.806 61.44 186.806 62C186.806 62.5367 186.759 63.0033 186.666 63.4H188.066C188.159 63.7733 188.206 64.24 188.206 64.8C188.206 65.3367 188.159 65.8033 188.066 66.2H192.266C192.172 65.8033 192.126 65.3367 192.126 64.8C192.126 64.24 192.172 63.7733 192.266 63.4H195.066ZM201.869 64.8C201.869 65.3367 201.823 65.8033 201.729 66.2H205.229C205.323 66.5733 205.369 67.04 205.369 67.6C205.369 68.1367 205.323 68.6033 205.229 69H199.629C199.536 68.6033 199.489 68.1367 199.489 67.6C199.489 67.04 199.536 66.5733 199.629 66.2H197.879C197.786 65.8033 197.739 65.3367 197.739 64.8C197.739 64.24 197.786 63.7733 197.879 63.4C197.786 63.0033 197.739 62.5367 197.739 62C197.739 61.44 197.786 60.9733 197.879 60.6C197.786 60.2033 197.739 59.7367 197.739 59.2C197.739 58.64 197.786 58.1733 197.879 57.8C197.786 57.4033 197.739 56.9367 197.739 56.4C197.739 55.84 197.786 55.3733 197.879 55H200.679C200.773 55.3733 200.819 55.84 200.819 56.4C200.819 56.9367 200.773 57.4033 200.679 57.8C200.773 58.1733 200.819 58.64 200.819 59.2C200.819 59.7367 200.773 60.2033 200.679 60.6C200.773 60.9733 200.819 61.44 200.819 62C200.819 62.5367 200.773 63.0033 200.679 63.4H201.729C201.823 63.7733 201.869 64.24 201.869 64.8ZM209.079 57.8C209.173 58.1733 209.219 58.64 209.219 59.2C209.219 59.7367 209.173 60.2033 209.079 60.6C209.173 60.9733 209.219 61.44 209.219 62C209.219 62.5367 209.173 63.0033 209.079 63.4C209.173 63.7733 209.219 64.24 209.219 64.8C209.219 65.3367 209.173 65.8033 209.079 66.2C209.173 66.5733 209.219 67.04 209.219 67.6C209.219 68.1367 209.173 68.6033 209.079 69H206.279C206.186 68.6033 206.139 68.1367 206.139 67.6C206.139 67.04 206.186 66.5733 206.279 66.2H205.229C205.136 65.8033 205.089 65.3367 205.089 64.8C205.089 64.24 205.136 63.7733 205.229 63.4H206.279C206.186 63.0033 206.139 62.5367 206.139 62C206.139 61.44 206.186 60.9733 206.279 60.6C206.186 60.2033 206.139 59.7367 206.139 59.2C206.139 58.64 206.186 58.1733 206.279 57.8C206.186 57.4033 206.139 56.9367 206.139 56.4C206.139 55.84 206.186 55.3733 206.279 55H209.079C209.173 55.3733 209.219 55.84 209.219 56.4C209.219 56.9367 209.173 57.4033 209.079 57.8ZM223.093 57.8C223.186 58.1733 223.233 58.64 223.233 59.2C223.233 59.7367 223.186 60.2033 223.093 60.6H220.293C220.2 60.2033 220.153 59.7367 220.153 59.2C220.153 58.64 220.2 58.1733 220.293 57.8H217.843C217.936 58.1733 217.983 58.64 217.983 59.2C217.983 59.7367 217.936 60.2033 217.843 60.6H216.793C216.886 60.9733 216.933 61.44 216.933 62C216.933 62.5367 216.886 63.0033 216.793 63.4C216.886 63.7733 216.933 64.24 216.933 64.8C216.933 65.3367 216.886 65.8033 216.793 66.2H218.893C218.986 66.5733 219.033 67.04 219.033 67.6C219.033 68.1367 218.986 68.6033 218.893 69H211.893C211.8 68.6033 211.753 68.1367 211.753 67.6C211.753 67.04 211.8 66.5733 211.893 66.2H213.993C213.9 65.8033 213.853 65.3367 213.853 64.8C213.853 64.24 213.9 63.7733 213.993 63.4C213.9 63.0033 213.853 62.5367 213.853 62C213.853 61.44 213.9 60.9733 213.993 60.6C213.9 60.2033 213.853 59.7367 213.853 59.2C213.853 58.64 213.9 58.1733 213.993 57.8H211.893C211.8 57.4033 211.753 56.9367 211.753 56.4C211.753 55.84 211.8 55.3733 211.893 55H215.393C215.486 55.3733 215.533 55.84 215.533 56.4C215.533 56.9367 215.486 57.4033 215.393 57.8H216.793C216.7 57.4033 216.653 56.9367 216.653 56.4C216.653 55.84 216.7 55.3733 216.793 55H222.043C222.136 55.3733 222.183 55.84 222.183 56.4C222.183 56.9367 222.136 57.4033 222.043 57.8H223.093ZM237.107 57.8C237.2 58.1733 237.247 58.64 237.247 59.2C237.247 59.7367 237.2 60.2033 237.107 60.6H234.307C234.214 60.2033 234.167 59.7367 234.167 59.2C234.167 58.64 234.214 58.1733 234.307 57.8H231.857C231.95 58.1733 231.997 58.64 231.997 59.2C231.997 59.7367 231.95 60.2033 231.857 60.6H230.807C230.9 60.9733 230.947 61.44 230.947 62C230.947 62.5367 230.9 63.0033 230.807 63.4C230.9 63.7733 230.947 64.24 230.947 64.8C230.947 65.3367 230.9 65.8033 230.807 66.2H232.907C233 66.5733 233.047 67.04 233.047 67.6C233.047 68.1367 233 68.6033 232.907 69H225.907C225.814 68.6033 225.767 68.1367 225.767 67.6C225.767 67.04 225.814 66.5733 225.907 66.2H228.007C227.914 65.8033 227.867 65.3367 227.867 64.8C227.867 64.24 227.914 63.7733 228.007 63.4C227.914 63.0033 227.867 62.5367 227.867 62C227.867 61.44 227.914 60.9733 228.007 60.6C227.914 60.2033 227.867 59.7367 227.867 59.2C227.867 58.64 227.914 58.1733 228.007 57.8H225.907C225.814 57.4033 225.767 56.9367 225.767 56.4C225.767 55.84 225.814 55.3733 225.907 55H229.407C229.5 55.3733 229.547 55.84 229.547 56.4C229.547 56.9367 229.5 57.4033 229.407 57.8H230.807C230.714 57.4033 230.667 56.9367 230.667 56.4C230.667 55.84 230.714 55.3733 230.807 55H236.057C236.15 55.3733 236.197 55.84 236.197 56.4C236.197 56.9367 236.15 57.4033 236.057 57.8H237.107ZM251.261 59.2C251.261 59.7367 251.214 60.2033 251.121 60.6C251.214 60.9733 251.261 61.44 251.261 62C251.261 62.5367 251.214 63.0033 251.121 63.4H243.771C243.864 63.7733 243.911 64.24 243.911 64.8C243.911 65.3367 243.864 65.8033 243.771 66.2H249.721C249.814 66.5733 249.861 67.04 249.861 67.6C249.861 68.1367 249.814 68.6033 249.721 69H242.721C242.627 68.6033 242.581 68.1367 242.581 67.6C242.581 67.04 242.627 66.5733 242.721 66.2H240.971C240.877 65.8033 240.831 65.3367 240.831 64.8C240.831 64.24 240.877 63.7733 240.971 63.4H239.921C239.827 63.0033 239.781 62.5367 239.781 62C239.781 61.44 239.827 60.9733 239.921 60.6H240.971C240.877 60.2033 240.831 59.7367 240.831 59.2C240.831 58.64 240.877 58.1733 240.971 57.8H242.721C242.627 57.4033 242.581 56.9367 242.581 56.4C242.581 55.84 242.627 55.3733 242.721 55H249.721C249.814 55.3733 249.861 55.84 249.861 56.4C249.861 56.9367 249.814 57.4033 249.721 57.8H251.121C251.214 58.1733 251.261 58.64 251.261 59.2ZM248.321 60.6C248.227 60.2033 248.181 59.7367 248.181 59.2C248.181 58.64 248.227 58.1733 248.321 57.8H243.771C243.864 58.1733 243.911 58.64 243.911 59.2C243.911 59.7367 243.864 60.2033 243.771 60.6H248.321ZM256.524 56.4C256.524 56.9367 256.478 57.4033 256.384 57.8H257.784C257.878 58.1733 257.924 58.64 257.924 59.2C257.924 59.7367 257.878 60.2033 257.784 60.6H256.734C256.828 60.9733 256.874 61.44 256.874 62C256.874 62.5367 256.828 63.0033 256.734 63.4C256.828 63.7733 256.874 64.24 256.874 64.8C256.874 65.3367 256.828 65.8033 256.734 66.2C256.828 66.5733 256.874 67.04 256.874 67.6C256.874 68.1367 256.828 68.6033 256.734 69H253.934C253.841 68.6033 253.794 68.1367 253.794 67.6C253.794 67.04 253.841 66.5733 253.934 66.2C253.841 65.8033 253.794 65.3367 253.794 64.8C253.794 64.24 253.841 63.7733 253.934 63.4C253.841 63.0033 253.794 62.5367 253.794 62C253.794 61.44 253.841 60.9733 253.934 60.6C253.841 60.2033 253.794 59.7367 253.794 59.2C253.794 58.64 253.841 58.1733 253.934 57.8C253.841 57.4033 253.794 56.9367 253.794 56.4C253.794 55.84 253.841 55.3733 253.934 55H256.384C256.478 55.3733 256.524 55.84 256.524 56.4ZM265.134 60.6C265.228 60.9733 265.274 61.44 265.274 62C265.274 62.5367 265.228 63.0033 265.134 63.4C265.228 63.7733 265.274 64.24 265.274 64.8C265.274 65.3367 265.228 65.8033 265.134 66.2C265.228 66.5733 265.274 67.04 265.274 67.6C265.274 68.1367 265.228 68.6033 265.134 69H262.334C262.241 68.6033 262.194 68.1367 262.194 67.6C262.194 67.04 262.241 66.5733 262.334 66.2C262.241 65.8033 262.194 65.3367 262.194 64.8C262.194 64.24 262.241 63.7733 262.334 63.4C262.241 63.0033 262.194 62.5367 262.194 62C262.194 61.44 262.241 60.9733 262.334 60.6C262.241 60.2033 262.194 59.7367 262.194 59.2C262.194 58.64 262.241 58.1733 262.334 57.8H257.784C257.691 57.4033 257.644 56.9367 257.644 56.4C257.644 55.84 257.691 55.3733 257.784 55H263.384C263.478 55.3733 263.524 55.84 263.524 56.4C263.524 56.9367 263.478 57.4033 263.384 57.8H265.134C265.228 58.1733 265.274 58.64 265.274 59.2C265.274 59.7367 265.228 60.2033 265.134 60.6ZM279.148 63.4C279.241 63.7733 279.288 64.24 279.288 64.8C279.288 65.3367 279.241 65.8033 279.148 66.2H277.748C277.841 66.5733 277.888 67.04 277.888 67.6C277.888 68.1367 277.841 68.6033 277.748 69H270.748C270.655 68.6033 270.608 68.1367 270.608 67.6C270.608 67.04 270.655 66.5733 270.748 66.2H269.348C269.255 65.8033 269.208 65.3367 269.208 64.8C269.208 64.24 269.255 63.7733 269.348 63.4H267.948C267.855 63.0033 267.808 62.5367 267.808 62C267.808 61.44 267.855 60.9733 267.948 60.6H269.348C269.255 60.2033 269.208 59.7367 269.208 59.2C269.208 58.64 269.255 58.1733 269.348 57.8H270.748C270.655 57.4033 270.608 56.9367 270.608 56.4C270.608 55.84 270.655 55.3733 270.748 55H277.748C277.841 55.3733 277.888 55.84 277.888 56.4C277.888 56.9367 277.841 57.4033 277.748 57.8H279.148C279.241 58.1733 279.288 58.64 279.288 59.2C279.288 59.7367 279.241 60.2033 279.148 60.6H276.348C276.255 60.2033 276.208 59.7367 276.208 59.2C276.208 58.64 276.255 58.1733 276.348 57.8H272.148C272.241 58.1733 272.288 58.64 272.288 59.2C272.288 59.7367 272.241 60.2033 272.148 60.6H270.748C270.841 60.9733 270.888 61.44 270.888 62C270.888 62.5367 270.841 63.0033 270.748 63.4H272.148C272.241 63.7733 272.288 64.24 272.288 64.8C272.288 65.3367 272.241 65.8033 272.148 66.2H276.348C276.255 65.8033 276.208 65.3367 276.208 64.8C276.208 64.24 276.255 63.7733 276.348 63.4H279.148ZM286.162 52.2C286.068 51.8033 286.022 51.3367 286.022 50.8C286.022 50.24 286.068 49.7733 286.162 49.4H288.962C289.055 49.7733 289.102 50.24 289.102 50.8C289.102 51.3367 289.055 51.8033 288.962 52.2H286.162ZM291.762 66.2C291.855 66.5733 291.902 67.04 291.902 67.6C291.902 68.1367 291.855 68.6033 291.762 69H283.362C283.268 68.6033 283.222 68.1367 283.222 67.6C283.222 67.04 283.268 66.5733 283.362 66.2H286.162C286.068 65.8033 286.022 65.3367 286.022 64.8C286.022 64.24 286.068 63.7733 286.162 63.4C286.068 63.0033 286.022 62.5367 286.022 62C286.022 61.44 286.068 60.9733 286.162 60.6C286.068 60.2033 286.022 59.7367 286.022 59.2C286.022 58.64 286.068 58.1733 286.162 57.8H284.062C283.968 57.4033 283.922 56.9367 283.922 56.4C283.922 55.84 283.968 55.3733 284.062 55H288.962C289.055 55.3733 289.102 55.84 289.102 56.4C289.102 56.9367 289.055 57.4033 288.962 57.8C289.055 58.1733 289.102 58.64 289.102 59.2C289.102 59.7367 289.055 60.2033 288.962 60.6C289.055 60.9733 289.102 61.44 289.102 62C289.102 62.5367 289.055 63.0033 288.962 63.4C289.055 63.7733 289.102 64.24 289.102 64.8C289.102 65.3367 289.055 65.8033 288.962 66.2H291.762ZM307.315 59.2C307.315 59.7367 307.269 60.2033 307.175 60.6C307.269 60.9733 307.315 61.44 307.315 62C307.315 62.5367 307.269 63.0033 307.175 63.4H299.825C299.919 63.7733 299.965 64.24 299.965 64.8C299.965 65.3367 299.919 65.8033 299.825 66.2H305.775C305.869 66.5733 305.915 67.04 305.915 67.6C305.915 68.1367 305.869 68.6033 305.775 69H298.775C298.682 68.6033 298.635 68.1367 298.635 67.6C298.635 67.04 298.682 66.5733 298.775 66.2H297.025C296.932 65.8033 296.885 65.3367 296.885 64.8C296.885 64.24 296.932 63.7733 297.025 63.4H295.975C295.882 63.0033 295.835 62.5367 295.835 62C295.835 61.44 295.882 60.9733 295.975 60.6H297.025C296.932 60.2033 296.885 59.7367 296.885 59.2C296.885 58.64 296.932 58.1733 297.025 57.8H298.775C298.682 57.4033 298.635 56.9367 298.635 56.4C298.635 55.84 298.682 55.3733 298.775 55H305.775C305.869 55.3733 305.915 55.84 305.915 56.4C305.915 56.9367 305.869 57.4033 305.775 57.8H307.175C307.269 58.1733 307.315 58.64 307.315 59.2ZM304.375 60.6C304.282 60.2033 304.235 59.7367 304.235 59.2C304.235 58.64 304.282 58.1733 304.375 57.8H299.825C299.919 58.1733 299.965 58.64 299.965 59.2C299.965 59.7367 299.919 60.2033 299.825 60.6H304.375ZM320.629 64.8C320.629 65.3367 320.582 65.8033 320.489 66.2H319.089C319.182 66.5733 319.229 67.04 319.229 67.6C319.229 68.1367 319.182 68.6033 319.089 69H311.389C311.296 68.6033 311.249 68.1367 311.249 67.6C311.249 67.04 311.296 66.5733 311.389 66.2H317.689C317.596 65.8033 317.549 65.3367 317.549 64.8C317.549 64.24 317.596 63.7733 317.689 63.4H312.089C311.996 63.0033 311.949 62.5367 311.949 62C311.949 61.44 311.996 60.9733 312.089 60.6H310.689C310.596 60.2033 310.549 59.7367 310.549 59.2C310.549 58.64 310.596 58.1733 310.689 57.8H312.089C311.996 57.4033 311.949 56.9367 311.949 56.4C311.949 55.84 311.996 55.3733 312.089 55H319.789C319.882 55.3733 319.929 55.84 319.929 56.4C319.929 56.9367 319.882 57.4033 319.789 57.8H313.489C313.582 58.1733 313.629 58.64 313.629 59.2C313.629 59.7367 313.582 60.2033 313.489 60.6H319.089C319.182 60.9733 319.229 61.44 319.229 62C319.229 62.5367 319.182 63.0033 319.089 63.4H320.489C320.582 63.7733 320.629 64.24 320.629 64.8ZM334.643 53.6C334.643 54.1367 334.596 54.6033 334.503 55C334.596 55.3733 334.643 55.84 334.643 56.4C334.643 56.9367 334.596 57.4033 334.503 57.8H332.753C332.846 58.1733 332.893 58.64 332.893 59.2C332.893 59.7367 332.846 60.2033 332.753 60.6H331.003C331.096 60.9733 331.143 61.44 331.143 62C331.143 62.5367 331.096 63.0033 331.003 63.4H328.203C328.109 63.0033 328.063 62.5367 328.063 62C328.063 61.44 328.109 60.9733 328.203 60.6H329.953C329.859 60.2033 329.813 59.7367 329.813 59.2C329.813 58.64 329.859 58.1733 329.953 57.8H331.703C331.609 57.4033 331.563 56.9367 331.563 56.4C331.563 55.84 331.609 55.3733 331.703 55C331.609 54.6033 331.563 54.1367 331.563 53.6C331.563 53.04 331.609 52.5733 331.703 52.2H326.803C326.896 52.5733 326.943 53.04 326.943 53.6C326.943 54.1367 326.896 54.6033 326.803 55H324.003C323.909 54.6033 323.863 54.1367 323.863 53.6C323.863 53.04 323.909 52.5733 324.003 52.2H326.103C326.009 51.8033 325.963 51.3367 325.963 50.8C325.963 50.24 326.009 49.7733 326.103 49.4H333.103C333.196 49.7733 333.243 50.24 333.243 50.8C333.243 51.3367 333.196 51.8033 333.103 52.2H334.503C334.596 52.5733 334.643 53.04 334.643 53.6ZM331.003 66.2C331.096 66.5733 331.143 67.04 331.143 67.6C331.143 68.1367 331.096 68.6033 331.003 69H328.203C328.109 68.6033 328.063 68.1367 328.063 67.6C328.063 67.04 328.109 66.5733 328.203 66.2H331.003Z" fill="black"/>
</svg>
