<svg width="260" height="79" viewBox="0 0 260 79" fill="none" xmlns="http://www.w3.org/2000/svg">
<rect width="260" height="79" rx="10" fill="#038C4C"/>
<path d="M115.2 35C115.2 35.7667 115.133 36.4333 115 37H113C113.133 37.5333 113.2 38.2 113.2 39C113.2 39.7667 113.133 40.4333 113 41H115C115.133 41.5333 115.2 42.2 115.2 43C115.2 43.7667 115.133 44.4333 115 45C115.133 45.5333 115.2 46.2 115.2 47C115.2 47.7667 115.133 48.4333 115 49H113C113.133 49.5333 113.2 50.2 113.2 51C113.2 51.7667 113.133 52.4333 113 53H99C98.8667 52.4333 98.8 51.7667 98.8 51C98.8 50.2 98.8667 49.5333 99 49C98.8667 48.4333 98.8 47.7667 98.8 47C98.8 46.2 98.8667 45.5333 99 45C98.8667 44.4333 98.8 43.7667 98.8 43C98.8 42.2 98.8667 41.5333 99 41C98.8667 40.4333 98.8 39.7667 98.8 39C98.8 38.2 98.8667 37.5333 99 37C98.8667 36.4333 98.8 35.7667 98.8 35C98.8 34.2 98.8667 33.5333 99 33C98.8667 32.4333 98.8 31.7667 98.8 31C98.8 30.2 98.8667 29.5333 99 29C98.8667 28.4333 98.8 27.7667 98.8 27C98.8 26.2 98.8667 25.5333 99 25H113C113.133 25.5333 113.2 26.2 113.2 27C113.2 27.7667 113.133 28.4333 113 29H115C115.133 29.5333 115.2 30.2 115.2 31C115.2 31.7667 115.133 32.4333 115 33C115.133 33.5333 115.2 34.2 115.2 35ZM111 37C110.867 36.4333 110.8 35.7667 110.8 35C110.8 34.2 110.867 33.5333 111 33C110.867 32.4333 110.8 31.7667 110.8 31C110.8 30.2 110.867 29.5333 111 29H103C103.133 29.5333 103.2 30.2 103.2 31C103.2 31.7667 103.133 32.4333 103 33C103.133 33.5333 103.2 34.2 103.2 35C103.2 35.7667 103.133 36.4333 103 37H111ZM111 45C110.867 44.4333 110.8 43.7667 110.8 43C110.8 42.2 110.867 41.5333 111 41H103C103.133 41.5333 103.2 42.2 103.2 43C103.2 43.7667 103.133 44.4333 103 45C103.133 45.5333 103.2 46.2 103.2 47C103.2 47.7667 103.133 48.4333 103 49H111C110.867 48.4333 110.8 47.7667 110.8 47C110.8 46.2 110.867 45.5333 111 45ZM124.72 47C124.72 47.7667 124.653 48.4333 124.52 49H129.52C129.653 49.5333 129.72 50.2 129.72 51C129.72 51.7667 129.653 52.4333 129.52 53H121.52C121.386 52.4333 121.32 51.7667 121.32 51C121.32 50.2 121.386 49.5333 121.52 49H119.02C118.886 48.4333 118.82 47.7667 118.82 47C118.82 46.2 118.886 45.5333 119.02 45C118.886 44.4333 118.82 43.7667 118.82 43C118.82 42.2 118.886 41.5333 119.02 41C118.886 40.4333 118.82 39.7667 118.82 39C118.82 38.2 118.886 37.5333 119.02 37C118.886 36.4333 118.82 35.7667 118.82 35C118.82 34.2 118.886 33.5333 119.02 33H123.02C123.153 33.5333 123.22 34.2 123.22 35C123.22 35.7667 123.153 36.4333 123.02 37C123.153 37.5333 123.22 38.2 123.22 39C123.22 39.7667 123.153 40.4333 123.02 41C123.153 41.5333 123.22 42.2 123.22 43C123.22 43.7667 123.153 44.4333 123.02 45H124.52C124.653 45.5333 124.72 46.2 124.72 47ZM135.02 37C135.153 37.5333 135.22 38.2 135.22 39C135.22 39.7667 135.153 40.4333 135.02 41C135.153 41.5333 135.22 42.2 135.22 43C135.22 43.7667 135.153 44.4333 135.02 45C135.153 45.5333 135.22 46.2 135.22 47C135.22 47.7667 135.153 48.4333 135.02 49C135.153 49.5333 135.22 50.2 135.22 51C135.22 51.7667 135.153 52.4333 135.02 53H131.02C130.886 52.4333 130.82 51.7667 130.82 51C130.82 50.2 130.886 49.5333 131.02 49H129.52C129.386 48.4333 129.32 47.7667 129.32 47C129.32 46.2 129.386 45.5333 129.52 45H131.02C130.886 44.4333 130.82 43.7667 130.82 43C130.82 42.2 130.886 41.5333 131.02 41C130.886 40.4333 130.82 39.7667 130.82 39C130.82 38.2 130.886 37.5333 131.02 37C130.886 36.4333 130.82 35.7667 130.82 35C130.82 34.2 130.886 33.5333 131.02 33H135.02C135.153 33.5333 135.22 34.2 135.22 35C135.22 35.7667 135.153 36.4333 135.02 37ZM155.239 35C155.239 35.7667 155.172 36.4333 155.039 37H153.539C153.672 37.5333 153.739 38.2 153.739 39C153.739 39.7667 153.672 40.4333 153.539 41H152.039C152.172 41.5333 152.239 42.2 152.239 43C152.239 43.7667 152.172 44.4333 152.039 45H151.039C151.172 45.5333 151.239 46.2 151.239 47C151.239 47.7667 151.172 48.4333 151.039 49H149.539C149.672 49.5333 149.739 50.2 149.739 51C149.739 51.7667 149.672 52.4333 149.539 53H148.539C148.672 53.5333 148.739 54.2 148.739 55C148.739 55.7667 148.672 56.4333 148.539 57H146.539C146.672 57.5333 146.739 58.2 146.739 59C146.739 59.7667 146.672 60.4333 146.539 61H140.539C140.406 60.4333 140.339 59.7667 140.339 59C140.339 58.2 140.406 57.5333 140.539 57H144.539C144.406 56.4333 144.339 55.7667 144.339 55C144.339 54.2 144.406 53.5333 144.539 53C144.406 52.4333 144.339 51.7667 144.339 51C144.339 50.2 144.406 49.5333 144.539 49H142.539C142.406 48.4333 142.339 47.7667 142.339 47C142.339 46.2 142.406 45.5333 142.539 45H141.539C141.406 44.4333 141.339 43.7667 141.339 43C141.339 42.2 141.406 41.5333 141.539 41H140.039C139.906 40.4333 139.839 39.7667 139.839 39C139.839 38.2 139.906 37.5333 140.039 37H138.539C138.406 36.4333 138.339 35.7667 138.339 35C138.339 34.2 138.406 33.5333 138.539 33H142.539C142.672 33.5333 142.739 34.2 142.739 35C142.739 35.7667 142.672 36.4333 142.539 37H144.039C144.172 37.5333 144.239 38.2 144.239 39C144.239 39.7667 144.172 40.4333 144.039 41H145.539C145.672 41.5333 145.739 42.2 145.739 43C145.739 43.7667 145.672 44.4333 145.539 45C145.672 45.5333 145.739 46.2 145.739 47C145.739 47.7667 145.672 48.4333 145.539 49H147.039C146.906 48.4333 146.839 47.7667 146.839 47C146.839 46.2 146.906 45.5333 147.039 45H148.039C147.906 44.4333 147.839 43.7667 147.839 43C147.839 42.2 147.906 41.5333 148.039 41H149.539C149.406 40.4333 149.339 39.7667 149.339 39C149.339 38.2 149.406 37.5333 149.539 37H151.039C150.906 36.4333 150.839 35.7667 150.839 35C150.839 34.2 150.906 33.5333 151.039 33H155.039C155.172 33.5333 155.239 34.2 155.239 35Z" fill="black"/>
</svg>
