<svg width="609" height="150" viewBox="0 0 609 150" fill="none" xmlns="http://www.w3.org/2000/svg">
<path d="M182 96C182.4 97.6 182.6 99.6 182.6 102C182.6 104.3 182.4 106.3 182 108H176C176.4 109.6 176.6 111.6 176.6 114C176.6 116.3 176.4 118.3 176 120H146C145.6 118.3 145.4 116.3 145.4 114C145.4 111.6 145.6 109.6 146 108H140C139.6 106.3 139.4 104.3 139.4 102C139.4 99.6 139.6 97.6 140 96H134C133.6 94.3 133.4 92.3 133.4 90C133.4 87.6 133.6 85.6 134 84H140C139.6 82.3 139.4 80.3 139.4 78C139.4 75.6 139.6 73.6 140 72H146C145.6 70.3 145.4 68.3 145.4 66C145.4 63.6 145.6 61.6 146 60H176C176.4 61.6 176.6 63.6 176.6 66C176.6 68.3 176.4 70.3 176 72H182C182.4 73.6 182.6 75.6 182.6 78C182.6 80.3 182.4 82.3 182 84H170C169.6 82.3 169.4 80.3 169.4 78C169.4 75.6 169.6 73.6 170 72H152C152.4 73.6 152.6 75.6 152.6 78C152.6 80.3 152.4 82.3 152 84H146C146.4 85.6 146.6 87.6 146.6 90C146.6 92.3 146.4 94.3 146 96H152C152.4 97.6 152.6 99.6 152.6 102C152.6 104.3 152.4 106.3 152 108H170C169.6 106.3 169.4 104.3 169.4 102C169.4 99.6 169.6 97.6 170 96H182ZM242.659 90C242.659 92.3 242.459 94.3 242.059 96H237.559C237.959 97.6 238.159 99.6 238.159 102C238.159 104.3 237.959 106.3 237.559 108H230.059C230.459 109.6 230.659 111.6 230.659 114C230.659 116.3 230.459 118.3 230.059 120H206.059C205.659 118.3 205.459 116.3 205.459 114C205.459 111.6 205.659 109.6 206.059 108H198.559C198.159 106.3 197.959 104.3 197.959 102C197.959 99.6 198.159 97.6 198.559 96H194.059C193.659 94.3 193.459 92.3 193.459 90C193.459 87.6 193.659 85.6 194.059 84H198.559C198.159 82.3 197.959 80.3 197.959 78C197.959 75.6 198.159 73.6 198.559 72H206.059C205.659 70.3 205.459 68.3 205.459 66C205.459 63.6 205.659 61.6 206.059 60H230.059C230.459 61.6 230.659 63.6 230.659 66C230.659 68.3 230.459 70.3 230.059 72H237.559C237.959 73.6 238.159 75.6 238.159 78C238.159 80.3 237.959 82.3 237.559 84H242.059C242.459 85.6 242.659 87.6 242.659 90ZM230.059 96C229.659 94.3 229.459 92.3 229.459 90C229.459 87.6 229.659 85.6 230.059 84H225.559C225.159 82.3 224.959 80.3 224.959 78C224.959 75.6 225.159 73.6 225.559 72H210.559C210.959 73.6 211.159 75.6 211.159 78C211.159 80.3 210.959 82.3 210.559 84H206.059C206.459 85.6 206.659 87.6 206.659 90C206.659 92.3 206.459 94.3 206.059 96H210.559C210.959 97.6 211.159 99.6 211.159 102C211.159 104.3 210.959 106.3 210.559 108H225.559C225.159 106.3 224.959 104.3 224.959 102C224.959 99.6 225.159 97.6 225.559 96H230.059ZM302.117 96C302.517 97.6 302.717 99.6 302.717 102C302.717 104.3 302.517 106.3 302.117 108H296.117C296.517 109.6 296.717 111.6 296.717 114C296.717 116.3 296.517 118.3 296.117 120H266.117C265.717 118.3 265.517 116.3 265.517 114C265.517 111.6 265.717 109.6 266.117 108H260.117C259.717 106.3 259.517 104.3 259.517 102C259.517 99.6 259.717 97.6 260.117 96H254.117C253.717 94.3 253.517 92.3 253.517 90C253.517 87.6 253.717 85.6 254.117 84H260.117C259.717 82.3 259.517 80.3 259.517 78C259.517 75.6 259.717 73.6 260.117 72H266.117C265.717 70.3 265.517 68.3 265.517 66C265.517 63.6 265.717 61.6 266.117 60H296.117C296.517 61.6 296.717 63.6 296.717 66C296.717 68.3 296.517 70.3 296.117 72H302.117C302.517 73.6 302.717 75.6 302.717 78C302.717 80.3 302.517 82.3 302.117 84H290.117C289.717 82.3 289.517 80.3 289.517 78C289.517 75.6 289.717 73.6 290.117 72H272.117C272.517 73.6 272.717 75.6 272.717 78C272.717 80.3 272.517 82.3 272.117 84H266.117C266.517 85.6 266.717 87.6 266.717 90C266.717 92.3 266.517 94.3 266.117 96H272.117C272.517 97.6 272.717 99.6 272.717 102C272.717 104.3 272.517 106.3 272.117 108H290.117C289.717 106.3 289.517 104.3 289.517 102C289.517 99.6 289.717 97.6 290.117 96H302.117ZM362.176 72C362.576 73.6 362.776 75.6 362.776 78C362.776 80.3 362.576 82.3 362.176 84H350.176C349.776 82.3 349.576 80.3 349.576 78C349.576 75.6 349.776 73.6 350.176 72H339.676C340.076 73.6 340.276 75.6 340.276 78C340.276 80.3 340.076 82.3 339.676 84H335.176C335.576 85.6 335.776 87.6 335.776 90C335.776 92.3 335.576 94.3 335.176 96C335.576 97.6 335.776 99.6 335.776 102C335.776 104.3 335.576 106.3 335.176 108H344.176C344.576 109.6 344.776 111.6 344.776 114C344.776 116.3 344.576 118.3 344.176 120H314.176C313.776 118.3 313.576 116.3 313.576 114C313.576 111.6 313.776 109.6 314.176 108H323.176C322.776 106.3 322.576 104.3 322.576 102C322.576 99.6 322.776 97.6 323.176 96C322.776 94.3 322.576 92.3 322.576 90C322.576 87.6 322.776 85.6 323.176 84C322.776 82.3 322.576 80.3 322.576 78C322.576 75.6 322.776 73.6 323.176 72H314.176C313.776 70.3 313.576 68.3 313.576 66C313.576 63.6 313.776 61.6 314.176 60H329.176C329.576 61.6 329.776 63.6 329.776 66C329.776 68.3 329.576 70.3 329.176 72H335.176C334.776 70.3 334.576 68.3 334.576 66C334.576 63.6 334.776 61.6 335.176 60H357.676C358.076 61.6 358.276 63.6 358.276 66C358.276 68.3 358.076 70.3 357.676 72H362.176ZM422.834 66C422.834 68.3 422.634 70.3 422.234 72H417.734C418.134 73.6 418.334 75.6 418.334 78C418.334 80.3 418.134 82.3 417.734 84H413.234C413.634 85.6 413.834 87.6 413.834 90C413.834 92.3 413.634 94.3 413.234 96H410.234C410.634 97.6 410.834 99.6 410.834 102C410.834 104.3 410.634 106.3 410.234 108H405.734C406.134 109.6 406.334 111.6 406.334 114C406.334 116.3 406.134 118.3 405.734 120H402.734C403.134 121.6 403.334 123.6 403.334 126C403.334 128.3 403.134 130.3 402.734 132H396.734C397.134 133.6 397.334 135.6 397.334 138C397.334 140.3 397.134 142.3 396.734 144H378.734C378.334 142.3 378.134 140.3 378.134 138C378.134 135.6 378.334 133.6 378.734 132H390.734C390.334 130.3 390.134 128.3 390.134 126C390.134 123.6 390.334 121.6 390.734 120C390.334 118.3 390.134 116.3 390.134 114C390.134 111.6 390.334 109.6 390.734 108H384.734C384.334 106.3 384.134 104.3 384.134 102C384.134 99.6 384.334 97.6 384.734 96H381.734C381.334 94.3 381.134 92.3 381.134 90C381.134 87.6 381.334 85.6 381.734 84H377.234C376.834 82.3 376.634 80.3 376.634 78C376.634 75.6 376.834 73.6 377.234 72H372.734C372.334 70.3 372.134 68.3 372.134 66C372.134 63.6 372.334 61.6 372.734 60H384.734C385.134 61.6 385.334 63.6 385.334 66C385.334 68.3 385.134 70.3 384.734 72H389.234C389.634 73.6 389.834 75.6 389.834 78C389.834 80.3 389.634 82.3 389.234 84H393.734C394.134 85.6 394.334 87.6 394.334 90C394.334 92.3 394.134 94.3 393.734 96C394.134 97.6 394.334 99.6 394.334 102C394.334 104.3 394.134 106.3 393.734 108H398.234C397.834 106.3 397.634 104.3 397.634 102C397.634 99.6 397.834 97.6 398.234 96H401.234C400.834 94.3 400.634 92.3 400.634 90C400.634 87.6 400.834 85.6 401.234 84H405.734C405.334 82.3 405.134 80.3 405.134 78C405.134 75.6 405.334 73.6 405.734 72H410.234C409.834 70.3 409.634 68.3 409.634 66C409.634 63.6 409.834 61.6 410.234 60H422.234C422.634 61.6 422.834 63.6 422.834 66ZM482.893 90C482.893 92.3 482.693 94.3 482.293 96H476.293C476.693 97.6 476.893 99.6 476.893 102C476.893 104.3 476.693 106.3 476.293 108H470.293C470.693 109.6 470.893 111.6 470.893 114C470.893 116.3 470.693 118.3 470.293 120H446.293C446.693 121.6 446.893 123.6 446.893 126C446.893 128.3 446.693 130.3 446.293 132C446.693 133.6 446.893 135.6 446.893 138C446.893 140.3 446.693 142.3 446.293 144H434.293C433.893 142.3 433.693 140.3 433.693 138C433.693 135.6 433.893 133.6 434.293 132C433.893 130.3 433.693 128.3 433.693 126C433.693 123.6 433.893 121.6 434.293 120C433.893 118.3 433.693 116.3 433.693 114C433.693 111.6 433.893 109.6 434.293 108C433.893 106.3 433.693 104.3 433.693 102C433.693 99.6 433.893 97.6 434.293 96C433.893 94.3 433.693 92.3 433.693 90C433.693 87.6 433.893 85.6 434.293 84C433.893 82.3 433.693 80.3 433.693 78C433.693 75.6 433.893 73.6 434.293 72C433.893 70.3 433.693 68.3 433.693 66C433.693 63.6 433.893 61.6 434.293 60H446.293C446.693 61.6 446.893 63.6 446.893 66C446.893 68.3 446.693 70.3 446.293 72H452.293C452.693 73.6 452.893 75.6 452.893 78C452.893 80.3 452.693 82.3 452.293 84H446.293C446.693 85.6 446.893 87.6 446.893 90C446.893 92.3 446.693 94.3 446.293 96C446.693 97.6 446.893 99.6 446.893 102C446.893 104.3 446.693 106.3 446.293 108H464.293C463.893 106.3 463.693 104.3 463.693 102C463.693 99.6 463.893 97.6 464.293 96H470.293C469.893 94.3 469.693 92.3 469.693 90C469.693 87.6 469.893 85.6 470.293 84H464.293C463.893 82.3 463.693 80.3 463.693 78C463.693 75.6 463.893 73.6 464.293 72H452.293C451.893 70.3 451.693 68.3 451.693 66C451.693 63.6 451.893 61.6 452.293 60H470.293C470.693 61.6 470.893 63.6 470.893 66C470.893 68.3 470.693 70.3 470.293 72H476.293C476.693 73.6 476.893 75.6 476.893 78C476.893 80.3 476.693 82.3 476.293 84H482.293C482.693 85.6 482.893 87.6 482.893 90ZM536.352 108C536.752 109.6 536.952 111.6 536.952 114C536.952 116.3 536.752 118.3 536.352 120H512.352C511.952 118.3 511.752 116.3 511.752 114C511.752 111.6 511.952 109.6 512.352 108H506.352C505.952 106.3 505.752 104.3 505.752 102C505.752 99.6 505.952 97.6 506.352 96C505.952 94.3 505.752 92.3 505.752 90C505.752 87.6 505.952 85.6 506.352 84C505.952 82.3 505.752 80.3 505.752 78C505.752 75.6 505.952 73.6 506.352 72H494.352C493.952 70.3 493.752 68.3 493.752 66C493.752 63.6 493.952 61.6 494.352 60H506.352C505.952 58.3 505.752 56.3 505.752 54C505.752 51.6 505.952 49.6 506.352 48C505.952 46.3 505.752 44.3 505.752 42C505.752 39.6 505.952 37.6 506.352 36H518.352C518.752 37.6 518.952 39.6 518.952 42C518.952 44.3 518.752 46.3 518.352 48C518.752 49.6 518.952 51.6 518.952 54C518.952 56.3 518.752 58.3 518.352 60H536.352C536.752 61.6 536.952 63.6 536.952 66C536.952 68.3 536.752 70.3 536.352 72H518.352C518.752 73.6 518.952 75.6 518.952 78C518.952 80.3 518.752 82.3 518.352 84C518.752 85.6 518.952 87.6 518.952 90C518.952 92.3 518.752 94.3 518.352 96C518.752 97.6 518.952 99.6 518.952 102C518.952 104.3 518.752 106.3 518.352 108H536.352ZM603.01 90C603.01 92.3 602.81 94.3 602.41 96H597.91C598.31 97.6 598.51 99.6 598.51 102C598.51 104.3 598.31 106.3 597.91 108H590.41C590.81 109.6 591.01 111.6 591.01 114C591.01 116.3 590.81 118.3 590.41 120H566.41C566.01 118.3 565.81 116.3 565.81 114C565.81 111.6 566.01 109.6 566.41 108H558.91C558.51 106.3 558.31 104.3 558.31 102C558.31 99.6 558.51 97.6 558.91 96H554.41C554.01 94.3 553.81 92.3 553.81 90C553.81 87.6 554.01 85.6 554.41 84H558.91C558.51 82.3 558.31 80.3 558.31 78C558.31 75.6 558.51 73.6 558.91 72H566.41C566.01 70.3 565.81 68.3 565.81 66C565.81 63.6 566.01 61.6 566.41 60H590.41C590.81 61.6 591.01 63.6 591.01 66C591.01 68.3 590.81 70.3 590.41 72H597.91C598.31 73.6 598.51 75.6 598.51 78C598.51 80.3 598.31 82.3 597.91 84H602.41C602.81 85.6 603.01 87.6 603.01 90ZM590.41 96C590.01 94.3 589.81 92.3 589.81 90C589.81 87.6 590.01 85.6 590.41 84H585.91C585.51 82.3 585.31 80.3 585.31 78C585.31 75.6 585.51 73.6 585.91 72H570.91C571.31 73.6 571.51 75.6 571.51 78C571.51 80.3 571.31 82.3 570.91 84H566.41C566.81 85.6 567.01 87.6 567.01 90C567.01 92.3 566.81 94.3 566.41 96H570.91C571.31 97.6 571.51 99.6 571.51 102C571.51 104.3 571.31 106.3 570.91 108H585.91C585.51 106.3 585.31 104.3 585.31 102C585.31 99.6 585.51 97.6 585.91 96H590.41Z" fill="black"/>
<rect x="54.8571" y="23" width="9.14285" height="8" fill="#FFE3B1"/>
<rect x="54.8571" y="15" width="9.14285" height="8" fill="#FFEBC8" fill-opacity="0.75"/>
<rect x="9.14291" y="46.9999" width="9.14285" height="8" fill="#FFEBC8" fill-opacity="0.75"/>
<rect x="9.14291" y="55" width="9.14285" height="8" fill="#FFEBC8" fill-opacity="0.75"/>
<rect y="63" width="9.14285" height="8" fill="#FFEBC8" fill-opacity="0.75"/>
<rect x="9.14291" y="95" width="9.14285" height="8" fill="#FFEBC8" fill-opacity="0.75"/>
<rect x="18.2857" y="103" width="9.14285" height="8" fill="#FFEBC8" fill-opacity="0.75"/>
<rect x="45.7143" y="119" width="9.14285" height="8" fill="#FFE3B1" fill-opacity="0.75"/>
<rect x="36.5714" y="119" width="9.14285" height="8" fill="#FFEBC8" fill-opacity="0.75"/>
<rect x="27.4286" y="111" width="9.14285" height="8" fill="#FFEBC8" fill-opacity="0.75"/>
<rect x="9.14291" y="87" width="9.14285" height="8" fill="#FFEBC8" fill-opacity="0.75"/>
<rect y="71" width="9.14285" height="8" fill="#FFEBC8" fill-opacity="0.75"/>
<rect y="79" width="9.14285" height="8" fill="#FFEBC8" fill-opacity="0.75"/>
<rect x="18.2857" y="39" width="9.14285" height="8" fill="#FFEBC8" fill-opacity="0.75"/>
<rect x="27.4286" y="31" width="9.14285" height="8" fill="#FFEBC8" fill-opacity="0.75"/>
<rect x="36.5714" y="23" width="9.14285" height="8" fill="#FFEBC8" fill-opacity="0.75"/>
<rect x="45.7143" y="23" width="9.14285" height="8" fill="#FFEBC8" fill-opacity="0.75"/>
<rect x="64" y="15" width="9.14285" height="8" fill="#FFEBC8" fill-opacity="0.75"/>
<rect x="36.5714" y="63" width="9.14285" height="8" fill="#FFE3B1"/>
<rect x="36.5714" y="71" width="9.14285" height="8" fill="#FFEBC8"/>
<rect x="45.7143" y="103" width="9.14285" height="8" fill="#FFE3B1"/>
<rect x="36.5714" y="111" width="9.14285" height="8" fill="#FFE3B1"/>
<rect x="45.7143" y="111" width="9.14285" height="8" fill="#FFE3B1"/>
<rect x="54.8571" y="111" width="9.14285" height="8" fill="#FFE3B1"/>
<rect x="73.1429" y="103" width="9.14285" height="8" fill="#FFE3B1"/>
<rect x="82.2857" y="103" width="9.14285" height="8" fill="#FFE3B1"/>
<rect x="82.2857" y="95" width="9.14285" height="8" fill="#FFE3B1"/>
<rect x="64" y="111" width="9.14285" height="8" fill="#FFE3B1"/>
<rect x="73.1429" y="111" width="9.14285" height="8" fill="#FFE3B1"/>
<rect x="82.2857" y="111" width="9.14285" height="8" fill="#FFE3B1"/>
<rect x="64" y="95" width="9.14285" height="8" fill="#FFE3B1"/>
<rect x="27.4286" y="103" width="9.14285" height="8" fill="#FFE3B1"/>
<rect x="36.5714" y="103" width="9.14285" height="8" fill="#FFE3B1"/>
<rect x="54.8571" y="71" width="9.14285" height="8" fill="#038C4C"/>
<rect x="64" y="71" width="9.14285" height="8" fill="#038C4C"/>
<rect x="54.8571" y="79" width="9.14285" height="8" fill="#038C4C"/>
<rect x="64" y="79" width="9.14285" height="8" fill="#FFE3B1"/>
<rect x="73.1429" y="79" width="9.14285" height="8" fill="#FFE3B1"/>
<rect x="54.8571" y="87" width="9.14285" height="8" fill="#038C4C"/>
<rect x="64" y="87" width="9.14285" height="8" fill="#038C4C"/>
<rect x="73.1429" y="87" width="9.14285" height="8" fill="#FFE3B1"/>
<rect x="54.8571" y="95" width="9.14285" height="8" fill="#FFE3B1"/>
<rect x="73.1429" y="71" width="9.14285" height="8" fill="#FFE3B1"/>
<rect x="82.2857" y="63" width="9.14285" height="8" fill="#FFE3B1"/>
<rect x="91.4286" y="87" width="9.14285" height="8" fill="#FFE3B1"/>
<rect x="91.4286" y="95" width="9.14285" height="8" fill="#FFE3B1"/>
<rect x="91.4286" y="103" width="9.14285" height="8" fill="#FFE3B1"/>
<rect x="64" y="119" width="9.14285" height="8" fill="#FFE3B1"/>
<rect x="54.8571" y="39" width="9.14285" height="8" fill="#FFEBC8" fill-opacity="0.5"/>
<rect x="27.4286" y="71" width="9.14285" height="8" fill="#FFEBC8" fill-opacity="0.5"/>
<rect x="27.4286" y="79" width="9.14285" height="8" fill="#FFEBC8" fill-opacity="0.5"/>
<rect x="45.7143" y="95" width="9.14285" height="8" fill="#FFEBC8" fill-opacity="0.5"/>
<rect x="36.5714" y="87" width="9.14285" height="8" fill="#FFEBC8" fill-opacity="0.5"/>
<rect x="27.4286" y="63" width="9.14285" height="8" fill="#FFEBC8" fill-opacity="0.5"/>
<rect x="36.5714" y="55" width="9.14285" height="8" fill="#FFEBC8" fill-opacity="0.5"/>
<rect x="45.7143" y="46.9999" width="9.14285" height="8" fill="#FFEBC8" fill-opacity="0.5"/>
<rect x="64" y="39" width="9.14285" height="8" fill="#FFEBC8" fill-opacity="0.5"/>
<rect x="54.8571" y="119" width="9.14285" height="8" fill="#FFE3B1"/>
<rect x="54.8571" y="127" width="9.14285" height="8" fill="#FFD790"/>
<rect x="73.1429" y="95" width="9.14285" height="8" fill="#FFD790"/>
<rect x="82.2857" y="87" width="9.14285" height="8" fill="#FFD790"/>
<rect x="82.2857" y="79" width="9.14285" height="8" fill="#FFD790"/>
<rect x="91.4286" y="79" width="9.14285" height="8" fill="#FFD790"/>
<rect x="91.4286" y="71" width="9.14285" height="8" fill="#FFD790"/>
<rect x="91.4286" y="63" width="9.14285" height="8" fill="#FFD790"/>
<rect x="73.1429" y="46.9999" width="9.14285" height="8" fill="#FFD790"/>
<rect x="82.2857" y="55" width="9.14285" height="8" fill="#FFD790"/>
<rect x="64" y="103" width="9.14285" height="8" fill="#FFD790"/>
<rect x="64" y="127" width="9.14285" height="8" fill="#FFD790"/>
<rect x="73.1429" y="119" width="9.14285" height="8" fill="#FFD790"/>
<rect x="82.2857" y="119" width="9.14285" height="8" fill="#FFD790"/>
<rect x="91.4286" y="111" width="9.14285" height="8" fill="#FFD790"/>
<rect x="100.571" y="103" width="9.14285" height="8" fill="#FFD790"/>
<rect x="100.571" y="95" width="9.14285" height="8" fill="#FFD790"/>
<rect x="109.714" y="95" width="9.14285" height="8" fill="#FFD790"/>
<rect x="109.714" y="87" width="9.14285" height="8" fill="#FFD790"/>
<rect x="100.571" y="39" width="9.14285" height="8" fill="#FFD790"/>
<rect x="91.4286" y="31" width="9.14285" height="8" fill="#FFD790"/>
<rect x="82.2857" y="23" width="9.14285" height="8" fill="#FFD790"/>
<rect x="73.1429" y="23" width="9.14285" height="8" fill="#FFD790"/>
<rect x="118.857" y="63" width="9.14285" height="8" fill="#FFD790"/>
<rect x="118.857" y="71" width="9.14285" height="8" fill="#FFD790"/>
<rect x="118.857" y="79" width="9.14285" height="8" fill="#FFD790"/>
<rect x="109.714" y="55" width="9.14285" height="8" fill="#FFD790"/>
<rect x="109.714" y="46.9999" width="9.14285" height="8" fill="#FFD790"/>
<rect x="54.8571" y="103" width="9.14285" height="8" fill="#FFD790"/>
<rect x="100.571" y="87" width="9.14285" height="8" fill="#FFE3B1"/>
<rect x="100.571" y="63" width="9.14285" height="8" fill="#FFE3B1"/>
<rect x="100.571" y="71" width="9.14285" height="8" fill="#FFE3B1"/>
<rect x="100.571" y="79" width="9.14285" height="8" fill="#FFE3B1"/>
<rect x="109.714" y="79" width="9.14285" height="8" fill="#FFE3B1"/>
<rect x="109.714" y="71" width="9.14285" height="8" fill="#FFE3B1"/>
<rect x="109.714" y="63" width="9.14285" height="8" fill="#FFE3B1"/>
<rect x="82.2857" y="71" width="9.14285" height="8" fill="#FFE3B1"/>
<rect x="45.7143" y="71" width="9.14285" height="8" fill="#FFE3B1"/>
<rect x="54.8571" y="63" width="9.14285" height="8" fill="#038C4C"/>
<rect x="64" y="63" width="9.14285" height="8" fill="#FFE3B1"/>
<rect x="73.1429" y="63" width="9.14285" height="8" fill="#FFE3B1"/>
<rect x="45.7143" y="87" width="9.14285" height="8" fill="#FFE3B1"/>
<rect x="45.7143" y="79" width="9.14285" height="8" fill="#FFE3B1"/>
<rect x="18.2857" y="95" width="9.14285" height="8" fill="#FFE3B1"/>
<rect x="27.4286" y="87" width="9.14285" height="8" fill="#FFE3B1"/>
<rect x="27.4286" y="95" width="9.14285" height="8" fill="#FFE3B1"/>
<rect x="36.5714" y="95" width="9.14285" height="8" fill="#FFE3B1"/>
<rect x="36.5714" y="71" width="9.14285" height="8" fill="#FFEBC8"/>
<rect x="36.5714" y="71" width="9.14285" height="8" fill="#FFE3B1"/>
<rect x="18.2857" y="87" width="9.14285" height="8" fill="#FFE3B1"/>
<rect x="9.14291" y="71" width="9.14285" height="8" fill="#FFE3B1"/>
<rect x="9.14291" y="79" width="9.14285" height="8" fill="#FFE3B1"/>
<rect x="9.14291" y="63" width="9.14285" height="8" fill="#FFE3B1"/>
<rect x="18.2857" y="79" width="9.14285" height="8" fill="#FFE3B1"/>
<rect x="18.2857" y="71" width="9.14285" height="8" fill="#FFE3B1"/>
<rect x="18.2857" y="55" width="9.14285" height="8" fill="#FFE3B1"/>
<rect x="18.2857" y="63" width="9.14285" height="8" fill="#FFE3B1"/>
<rect x="18.2857" y="46.9999" width="9.14285" height="8" fill="#FFE3B1"/>
<rect x="45.7143" y="63" width="9.14285" height="8" fill="#FFE3B1"/>
<rect x="36.5714" y="79" width="9.14285" height="8" fill="#FFE3B1"/>
<rect x="100.571" y="55" width="9.14285" height="8" fill="#FFE3B1"/>
<rect x="27.4286" y="55" width="9.14285" height="8" fill="#FFE3B1"/>
<rect x="100.571" y="46.9999" width="9.14285" height="8" fill="#FFE3B1"/>
<rect x="91.4286" y="55" width="9.14285" height="8" fill="#FFE3B1"/>
<rect x="91.4286" y="46.9999" width="9.14285" height="8" fill="#FFE3B1"/>
<rect x="91.4286" y="39" width="9.14285" height="8" fill="#FFE3B1"/>
<rect x="73.1429" y="55" width="9.14285" height="8" fill="#FFE3B1"/>
<rect x="64" y="55" width="9.14285" height="8" fill="#038C4C"/>
<rect x="54.8571" y="55" width="9.14285" height="8" fill="#038C4C"/>
<rect x="45.7143" y="55" width="9.14285" height="8" fill="#FFE3B1"/>
<rect x="82.2857" y="46.9999" width="9.14285" height="8" fill="#FFE3B1"/>
<rect x="64" y="46.9999" width="9.14285" height="8" fill="#FFEBC8"/>
<rect x="54.8571" y="46.9999" width="9.14285" height="8" fill="#FFEBC8"/>
<rect x="82.2857" y="39" width="9.14285" height="8" fill="#FFE3B1"/>
<rect x="73.1429" y="39" width="9.14285" height="8" fill="#FFE3B1"/>
<rect x="27.4286" y="46.9999" width="9.14285" height="8" fill="#FFE3B1"/>
<rect x="36.5714" y="46.9999" width="9.14285" height="8" fill="#FFE3B1"/>
<rect x="27.4286" y="39" width="9.14285" height="8" fill="#FFE3B1"/>
<rect x="36.5714" y="39" width="9.14285" height="8" fill="#FFE3B1"/>
<rect x="45.7143" y="39" width="9.14285" height="8" fill="#FFE3B1"/>
<rect x="36.5714" y="31" width="9.14285" height="8" fill="#FFE3B1"/>
<rect x="45.7143" y="31" width="9.14285" height="8" fill="#FFE3B1"/>
<rect x="82.2857" y="31" width="9.14285" height="8" fill="#FFE3B1"/>
<rect x="73.1429" y="31" width="9.14285" height="8" fill="#FFE3B1"/>
<rect x="64" y="31" width="9.14285" height="8" fill="#FFE3B1"/>
<rect x="54.8571" y="31" width="9.14285" height="8" fill="#FFE3B1"/>
<rect x="64" y="23" width="9.14285" height="8" fill="#FFE3B1"/>
</svg>
