<svg width="260" height="79" viewBox="0 0 260 79" fill="none" xmlns="http://www.w3.org/2000/svg">
<rect width="260" height="79" rx="10" fill="#F05050"/>
<path d="M104 41C104.133 41.5333 104.2 42.2 104.2 43C104.2 43.7667 104.133 44.4333 104 45C104.133 45.5333 104.2 46.2 104.2 47C104.2 47.7667 104.133 48.4333 104 49H102C102.133 49.5333 102.2 50.2 102.2 51C102.2 51.7667 102.133 52.4333 102 53H90C89.8667 52.4333 89.8 51.7667 89.8 51C89.8 50.2 89.8667 49.5333 90 49H88C87.8667 48.4333 87.8 47.7667 87.8 47C87.8 46.2 87.8667 45.5333 88 45H92C92.1333 45.5333 92.2 46.2 92.2 47C92.2 47.7667 92.1333 48.4333 92 49H100C99.8667 48.4333 99.8 47.7667 99.8 47C99.8 46.2 99.8667 45.5333 100 45C99.8667 44.4333 99.8 43.7667 99.8 43C99.8 42.2 99.8667 41.5333 100 41H90C89.8667 40.4333 89.8 39.7667 89.8 39C89.8 38.2 89.8667 37.5333 90 37H88C87.8667 36.4333 87.8 35.7667 87.8 35C87.8 34.2 87.8667 33.5333 88 33C87.8667 32.4333 87.8 31.7667 87.8 31C87.8 30.2 87.8667 29.5333 88 29H90C89.8667 28.4333 89.8 27.7667 89.8 27C89.8 26.2 89.8667 25.5333 90 25H102C102.133 25.5333 102.2 26.2 102.2 27C102.2 27.7667 102.133 28.4333 102 29H104C104.133 29.5333 104.2 30.2 104.2 31C104.2 31.7667 104.133 32.4333 104 33H100C99.8667 32.4333 99.8 31.7667 99.8 31C99.8 30.2 99.8667 29.5333 100 29H92C92.1333 29.5333 92.2 30.2 92.2 31C92.2 31.7667 92.1333 32.4333 92 33C92.1333 33.5333 92.2 34.2 92.2 35C92.2 35.7667 92.1333 36.4333 92 37H102C102.133 37.5333 102.2 38.2 102.2 39C102.2 39.7667 102.133 40.4333 102 41H104ZM124.22 39C124.22 39.7667 124.153 40.4333 124.02 41C124.153 41.5333 124.22 42.2 124.22 43C124.22 43.7667 124.153 44.4333 124.02 45H113.52C113.653 45.5333 113.72 46.2 113.72 47C113.72 47.7667 113.653 48.4333 113.52 49H122.02C122.153 49.5333 122.22 50.2 122.22 51C122.22 51.7667 122.153 52.4333 122.02 53H112.02C111.886 52.4333 111.82 51.7667 111.82 51C111.82 50.2 111.886 49.5333 112.02 49H109.52C109.386 48.4333 109.32 47.7667 109.32 47C109.32 46.2 109.386 45.5333 109.52 45H108.02C107.886 44.4333 107.82 43.7667 107.82 43C107.82 42.2 107.886 41.5333 108.02 41H109.52C109.386 40.4333 109.32 39.7667 109.32 39C109.32 38.2 109.386 37.5333 109.52 37H112.02C111.886 36.4333 111.82 35.7667 111.82 35C111.82 34.2 111.886 33.5333 112.02 33H122.02C122.153 33.5333 122.22 34.2 122.22 35C122.22 35.7667 122.153 36.4333 122.02 37H124.02C124.153 37.5333 124.22 38.2 124.22 39ZM120.02 41C119.886 40.4333 119.82 39.7667 119.82 39C119.82 38.2 119.886 37.5333 120.02 37H113.52C113.653 37.5333 113.72 38.2 113.72 39C113.72 39.7667 113.653 40.4333 113.52 41H120.02ZM142.039 49C142.172 49.5333 142.239 50.2 142.239 51C142.239 51.7667 142.172 52.4333 142.039 53H130.039C129.906 52.4333 129.839 51.7667 129.839 51C129.839 50.2 129.906 49.5333 130.039 49H134.039C133.906 48.4333 133.839 47.7667 133.839 47C133.839 46.2 133.906 45.5333 134.039 45C133.906 44.4333 133.839 43.7667 133.839 43C133.839 42.2 133.906 41.5333 134.039 41C133.906 40.4333 133.839 39.7667 133.839 39C133.839 38.2 133.906 37.5333 134.039 37C133.906 36.4333 133.839 35.7667 133.839 35C133.839 34.2 133.906 33.5333 134.039 33C133.906 32.4333 133.839 31.7667 133.839 31C133.839 30.2 133.906 29.5333 134.039 29H131.039C130.906 28.4333 130.839 27.7667 130.839 27C130.839 26.2 130.906 25.5333 131.039 25H138.039C138.172 25.5333 138.239 26.2 138.239 27C138.239 27.7667 138.172 28.4333 138.039 29C138.172 29.5333 138.239 30.2 138.239 31C138.239 31.7667 138.172 32.4333 138.039 33C138.172 33.5333 138.239 34.2 138.239 35C138.239 35.7667 138.172 36.4333 138.039 37C138.172 37.5333 138.239 38.2 138.239 39C138.239 39.7667 138.172 40.4333 138.039 41C138.172 41.5333 138.239 42.2 138.239 43C138.239 43.7667 138.172 44.4333 138.039 45C138.172 45.5333 138.239 46.2 138.239 47C138.239 47.7667 138.172 48.4333 138.039 49H142.039ZM162.059 49C162.192 49.5333 162.259 50.2 162.259 51C162.259 51.7667 162.192 52.4333 162.059 53H150.059C149.925 52.4333 149.859 51.7667 149.859 51C149.859 50.2 149.925 49.5333 150.059 49H154.059C153.925 48.4333 153.859 47.7667 153.859 47C153.859 46.2 153.925 45.5333 154.059 45C153.925 44.4333 153.859 43.7667 153.859 43C153.859 42.2 153.925 41.5333 154.059 41C153.925 40.4333 153.859 39.7667 153.859 39C153.859 38.2 153.925 37.5333 154.059 37C153.925 36.4333 153.859 35.7667 153.859 35C153.859 34.2 153.925 33.5333 154.059 33C153.925 32.4333 153.859 31.7667 153.859 31C153.859 30.2 153.925 29.5333 154.059 29H151.059C150.925 28.4333 150.859 27.7667 150.859 27C150.859 26.2 150.925 25.5333 151.059 25H158.059C158.192 25.5333 158.259 26.2 158.259 27C158.259 27.7667 158.192 28.4333 158.059 29C158.192 29.5333 158.259 30.2 158.259 31C158.259 31.7667 158.192 32.4333 158.059 33C158.192 33.5333 158.259 34.2 158.259 35C158.259 35.7667 158.192 36.4333 158.059 37C158.192 37.5333 158.259 38.2 158.259 39C158.259 39.7667 158.192 40.4333 158.059 41C158.192 41.5333 158.259 42.2 158.259 43C158.259 43.7667 158.192 44.4333 158.059 45C158.192 45.5333 158.259 46.2 158.259 47C158.259 47.7667 158.192 48.4333 158.059 49H162.059Z" fill="black"/>
</svg>
