<svg width="477" height="171" viewBox="0 0 477 171" fill="none" xmlns="http://www.w3.org/2000/svg">
<rect x="4" y="4" width="469" height="57.6296" rx="6" fill="#025930" stroke="black" stroke-width="8"/>
<path d="M92.2094 38.436C92.2094 38.896 92.1694 39.296 92.0894 39.636H90.8894C90.9694 39.956 91.0094 40.356 91.0094 40.836C91.0094 41.296 90.9694 41.696 90.8894 42.036H92.0894C92.1694 42.356 92.2094 42.756 92.2094 43.236C92.2094 43.696 92.1694 44.096 92.0894 44.436C92.1694 44.756 92.2094 45.156 92.2094 45.636C92.2094 46.096 92.1694 46.496 92.0894 46.836H90.8894C90.9694 47.156 91.0094 47.556 91.0094 48.036C91.0094 48.496 90.9694 48.896 90.8894 49.236H82.4894C82.4094 48.896 82.3694 48.496 82.3694 48.036C82.3694 47.556 82.4094 47.156 82.4894 46.836C82.4094 46.496 82.3694 46.096 82.3694 45.636C82.3694 45.156 82.4094 44.756 82.4894 44.436C82.4094 44.096 82.3694 43.696 82.3694 43.236C82.3694 42.756 82.4094 42.356 82.4894 42.036C82.4094 41.696 82.3694 41.296 82.3694 40.836C82.3694 40.356 82.4094 39.956 82.4894 39.636C82.4094 39.296 82.3694 38.896 82.3694 38.436C82.3694 37.956 82.4094 37.556 82.4894 37.236C82.4094 36.896 82.3694 36.496 82.3694 36.036C82.3694 35.556 82.4094 35.156 82.4894 34.836C82.4094 34.496 82.3694 34.096 82.3694 33.636C82.3694 33.156 82.4094 32.756 82.4894 32.436H90.8894C90.9694 32.756 91.0094 33.156 91.0094 33.636C91.0094 34.096 90.9694 34.496 90.8894 34.836H92.0894C92.1694 35.156 92.2094 35.556 92.2094 36.036C92.2094 36.496 92.1694 36.896 92.0894 37.236C92.1694 37.556 92.2094 37.956 92.2094 38.436ZM89.6894 39.636C89.6094 39.296 89.5694 38.896 89.5694 38.436C89.5694 37.956 89.6094 37.556 89.6894 37.236C89.6094 36.896 89.5694 36.496 89.5694 36.036C89.5694 35.556 89.6094 35.156 89.6894 34.836H84.8894C84.9694 35.156 85.0094 35.556 85.0094 36.036C85.0094 36.496 84.9694 36.896 84.8894 37.236C84.9694 37.556 85.0094 37.956 85.0094 38.436C85.0094 38.896 84.9694 39.296 84.8894 39.636H89.6894ZM89.6894 44.436C89.6094 44.096 89.5694 43.696 89.5694 43.236C89.5694 42.756 89.6094 42.356 89.6894 42.036H84.8894C84.9694 42.356 85.0094 42.756 85.0094 43.236C85.0094 43.696 84.9694 44.096 84.8894 44.436C84.9694 44.756 85.0094 45.156 85.0094 45.636C85.0094 46.096 84.9694 46.496 84.8894 46.836H89.6894C89.6094 46.496 89.5694 46.096 89.5694 45.636C89.5694 45.156 89.6094 44.756 89.6894 44.436ZM104.101 44.436C104.181 44.756 104.221 45.156 104.221 45.636C104.221 46.096 104.181 46.496 104.101 46.836H102.901C102.981 47.156 103.021 47.556 103.021 48.036C103.021 48.496 102.981 48.896 102.901 49.236H96.9011C96.8211 48.896 96.7811 48.496 96.7811 48.036C96.7811 47.556 96.8211 47.156 96.9011 46.836H95.7011C95.6211 46.496 95.5811 46.096 95.5811 45.636C95.5811 45.156 95.6211 44.756 95.7011 44.436H94.5011C94.4211 44.096 94.3811 43.696 94.3811 43.236C94.3811 42.756 94.4211 42.356 94.5011 42.036C94.4211 41.696 94.3811 41.296 94.3811 40.836C94.3811 40.356 94.4211 39.956 94.5011 39.636C94.4211 39.296 94.3811 38.896 94.3811 38.436C94.3811 37.956 94.4211 37.556 94.5011 37.236H95.7011C95.6211 36.896 95.5811 36.496 95.5811 36.036C95.5811 35.556 95.6211 35.156 95.7011 34.836H96.9011C96.8211 34.496 96.7811 34.096 96.7811 33.636C96.7811 33.156 96.8211 32.756 96.9011 32.436H102.901C102.981 32.756 103.021 33.156 103.021 33.636C103.021 34.096 102.981 34.496 102.901 34.836H104.101C104.181 35.156 104.221 35.556 104.221 36.036C104.221 36.496 104.181 36.896 104.101 37.236H101.701C101.621 36.896 101.581 36.496 101.581 36.036C101.581 35.556 101.621 35.156 101.701 34.836H98.1011C98.1811 35.156 98.2211 35.556 98.2211 36.036C98.2211 36.496 98.1811 36.896 98.1011 37.236H96.9011C96.9811 37.556 97.0211 37.956 97.0211 38.436C97.0211 38.896 96.9811 39.296 96.9011 39.636C96.9811 39.956 97.0211 40.356 97.0211 40.836C97.0211 41.296 96.9811 41.696 96.9011 42.036C96.9811 42.356 97.0211 42.756 97.0211 43.236C97.0211 43.696 96.9811 44.096 96.9011 44.436H98.1011C98.1811 44.756 98.2211 45.156 98.2211 45.636C98.2211 46.096 98.1811 46.496 98.1011 46.836H101.701C101.621 46.496 101.581 46.096 101.581 45.636C101.581 45.156 101.621 44.756 101.701 44.436H104.101ZM116.113 34.836C116.193 35.156 116.233 35.556 116.233 36.036C116.233 36.496 116.193 36.896 116.113 37.236C116.193 37.556 116.233 37.956 116.233 38.436C116.233 38.896 116.193 39.296 116.113 39.636C116.193 39.956 116.233 40.356 116.233 40.836C116.233 41.296 116.193 41.696 116.113 42.036C116.193 42.356 116.233 42.756 116.233 43.236C116.233 43.696 116.193 44.096 116.113 44.436C116.193 44.756 116.233 45.156 116.233 45.636C116.233 46.096 116.193 46.496 116.113 46.836C116.193 47.156 116.233 47.556 116.233 48.036C116.233 48.496 116.193 48.896 116.113 49.236H113.713C113.633 48.896 113.593 48.496 113.593 48.036C113.593 47.556 113.633 47.156 113.713 46.836C113.633 46.496 113.593 46.096 113.593 45.636C113.593 45.156 113.633 44.756 113.713 44.436C113.633 44.096 113.593 43.696 113.593 43.236C113.593 42.756 113.633 42.356 113.713 42.036H108.913C108.993 42.356 109.033 42.756 109.033 43.236C109.033 43.696 108.993 44.096 108.913 44.436C108.993 44.756 109.033 45.156 109.033 45.636C109.033 46.096 108.993 46.496 108.913 46.836C108.993 47.156 109.033 47.556 109.033 48.036C109.033 48.496 108.993 48.896 108.913 49.236H106.513C106.433 48.896 106.393 48.496 106.393 48.036C106.393 47.556 106.433 47.156 106.513 46.836C106.433 46.496 106.393 46.096 106.393 45.636C106.393 45.156 106.433 44.756 106.513 44.436C106.433 44.096 106.393 43.696 106.393 43.236C106.393 42.756 106.433 42.356 106.513 42.036C106.433 41.696 106.393 41.296 106.393 40.836C106.393 40.356 106.433 39.956 106.513 39.636C106.433 39.296 106.393 38.896 106.393 38.436C106.393 37.956 106.433 37.556 106.513 37.236C106.433 36.896 106.393 36.496 106.393 36.036C106.393 35.556 106.433 35.156 106.513 34.836C106.433 34.496 106.393 34.096 106.393 33.636C106.393 33.156 106.433 32.756 106.513 32.436H108.913C108.993 32.756 109.033 33.156 109.033 33.636C109.033 34.096 108.993 34.496 108.913 34.836C108.993 35.156 109.033 35.556 109.033 36.036C109.033 36.496 108.993 36.896 108.913 37.236C108.993 37.556 109.033 37.956 109.033 38.436C109.033 38.896 108.993 39.296 108.913 39.636H113.713C113.633 39.296 113.593 38.896 113.593 38.436C113.593 37.956 113.633 37.556 113.713 37.236C113.633 36.896 113.593 36.496 113.593 36.036C113.593 35.556 113.633 35.156 113.713 34.836C113.633 34.496 113.593 34.096 113.593 33.636C113.593 33.156 113.633 32.756 113.713 32.436H116.113C116.193 32.756 116.233 33.156 116.233 33.636C116.233 34.096 116.193 34.496 116.113 34.836ZM140.136 34.836C140.216 35.156 140.256 35.556 140.256 36.036C140.256 36.496 140.216 36.896 140.136 37.236C140.216 37.556 140.256 37.956 140.256 38.436C140.256 38.896 140.216 39.296 140.136 39.636H139.236C139.316 39.956 139.356 40.356 139.356 40.836C139.356 41.296 139.316 41.696 139.236 42.036H138.336C138.416 42.356 138.456 42.756 138.456 43.236C138.456 43.696 138.416 44.096 138.336 44.436H137.736C137.816 44.756 137.856 45.156 137.856 45.636C137.856 46.096 137.816 46.496 137.736 46.836H136.536C136.616 47.156 136.656 47.556 136.656 48.036C136.656 48.496 136.616 48.896 136.536 49.236H134.136C134.056 48.896 134.016 48.496 134.016 48.036C134.016 47.556 134.056 47.156 134.136 46.836H132.936C132.856 46.496 132.816 46.096 132.816 45.636C132.816 45.156 132.856 44.756 132.936 44.436H132.336C132.256 44.096 132.216 43.696 132.216 43.236C132.216 42.756 132.256 42.356 132.336 42.036H131.436C131.356 41.696 131.316 41.296 131.316 40.836C131.316 40.356 131.356 39.956 131.436 39.636H130.536C130.456 39.296 130.416 38.896 130.416 38.436C130.416 37.956 130.456 37.556 130.536 37.236C130.456 36.896 130.416 36.496 130.416 36.036C130.416 35.556 130.456 35.156 130.536 34.836C130.456 34.496 130.416 34.096 130.416 33.636C130.416 33.156 130.456 32.756 130.536 32.436H132.936C133.016 32.756 133.056 33.156 133.056 33.636C133.056 34.096 133.016 34.496 132.936 34.836C133.016 35.156 133.056 35.556 133.056 36.036C133.056 36.496 133.016 36.896 132.936 37.236C133.016 37.556 133.056 37.956 133.056 38.436C133.056 38.896 133.016 39.296 132.936 39.636H133.836C133.916 39.956 133.956 40.356 133.956 40.836C133.956 41.296 133.916 41.696 133.836 42.036H134.736C134.816 42.356 134.856 42.756 134.856 43.236C134.856 43.696 134.816 44.096 134.736 44.436H135.936C135.856 44.096 135.816 43.696 135.816 43.236C135.816 42.756 135.856 42.356 135.936 42.036H136.836C136.756 41.696 136.716 41.296 136.716 40.836C136.716 40.356 136.756 39.956 136.836 39.636H137.736C137.656 39.296 137.616 38.896 137.616 38.436C137.616 37.956 137.656 37.556 137.736 37.236C137.656 36.896 137.616 36.496 137.616 36.036C137.616 35.556 137.656 35.156 137.736 34.836C137.656 34.496 137.616 34.096 137.616 33.636C137.616 33.156 137.656 32.756 137.736 32.436H140.136C140.216 32.756 140.256 33.156 140.256 33.636C140.256 34.096 140.216 34.496 140.136 34.836ZM152.148 46.836C152.228 47.156 152.268 47.556 152.268 48.036C152.268 48.496 152.228 48.896 152.148 49.236H149.748C149.668 48.896 149.628 48.496 149.628 48.036C149.628 47.556 149.668 47.156 149.748 46.836H148.548C148.468 46.496 148.428 46.096 148.428 45.636C148.428 45.156 148.468 44.756 148.548 44.436H144.948C145.028 44.756 145.068 45.156 145.068 45.636C145.068 46.096 145.028 46.496 144.948 46.836H148.548C148.628 47.156 148.668 47.556 148.668 48.036C148.668 48.496 148.628 48.896 148.548 49.236H143.748C143.668 48.896 143.628 48.496 143.628 48.036C143.628 47.556 143.668 47.156 143.748 46.836H142.548C142.468 46.496 142.428 46.096 142.428 45.636C142.428 45.156 142.468 44.756 142.548 44.436H143.748C143.668 44.096 143.628 43.696 143.628 43.236C143.628 42.756 143.668 42.356 143.748 42.036H148.548C148.468 41.696 148.428 41.296 148.428 40.836C148.428 40.356 148.468 39.956 148.548 39.636H144.348C144.268 39.296 144.228 38.896 144.228 38.436C144.228 37.956 144.268 37.556 144.348 37.236H149.748C149.828 37.556 149.868 37.956 149.868 38.436C149.868 38.896 149.828 39.296 149.748 39.636H150.948C151.028 39.956 151.068 40.356 151.068 40.836C151.068 41.296 151.028 41.696 150.948 42.036C151.028 42.356 151.068 42.756 151.068 43.236C151.068 43.696 151.028 44.096 150.948 44.436C151.028 44.756 151.068 45.156 151.068 45.636C151.068 46.096 151.028 46.496 150.948 46.836H152.148ZM162.96 46.836C163.04 47.156 163.08 47.556 163.08 48.036C163.08 48.496 163.04 48.896 162.96 49.236H155.76C155.68 48.896 155.64 48.496 155.64 48.036C155.64 47.556 155.68 47.156 155.76 46.836H158.16C158.08 46.496 158.04 46.096 158.04 45.636C158.04 45.156 158.08 44.756 158.16 44.436C158.08 44.096 158.04 43.696 158.04 43.236C158.04 42.756 158.08 42.356 158.16 42.036C158.08 41.696 158.04 41.296 158.04 40.836C158.04 40.356 158.08 39.956 158.16 39.636C158.08 39.296 158.04 38.896 158.04 38.436C158.04 37.956 158.08 37.556 158.16 37.236C158.08 36.896 158.04 36.496 158.04 36.036C158.04 35.556 158.08 35.156 158.16 34.836H156.36C156.28 34.496 156.24 34.096 156.24 33.636C156.24 33.156 156.28 32.756 156.36 32.436H160.56C160.64 32.756 160.68 33.156 160.68 33.636C160.68 34.096 160.64 34.496 160.56 34.836C160.64 35.156 160.68 35.556 160.68 36.036C160.68 36.496 160.64 36.896 160.56 37.236C160.64 37.556 160.68 37.956 160.68 38.436C160.68 38.896 160.64 39.296 160.56 39.636C160.64 39.956 160.68 40.356 160.68 40.836C160.68 41.296 160.64 41.696 160.56 42.036C160.64 42.356 160.68 42.756 160.68 43.236C160.68 43.696 160.64 44.096 160.56 44.436C160.64 44.756 160.68 45.156 160.68 45.636C160.68 46.096 160.64 46.496 160.56 46.836H162.96ZM169.991 45.636C169.991 46.096 169.951 46.496 169.871 46.836H172.871C172.951 47.156 172.991 47.556 172.991 48.036C172.991 48.496 172.951 48.896 172.871 49.236H168.071C167.991 48.896 167.951 48.496 167.951 48.036C167.951 47.556 167.991 47.156 168.071 46.836H166.571C166.491 46.496 166.451 46.096 166.451 45.636C166.451 45.156 166.491 44.756 166.571 44.436C166.491 44.096 166.451 43.696 166.451 43.236C166.451 42.756 166.491 42.356 166.571 42.036C166.491 41.696 166.451 41.296 166.451 40.836C166.451 40.356 166.491 39.956 166.571 39.636C166.491 39.296 166.451 38.896 166.451 38.436C166.451 37.956 166.491 37.556 166.571 37.236H168.971C169.051 37.556 169.091 37.956 169.091 38.436C169.091 38.896 169.051 39.296 168.971 39.636C169.051 39.956 169.091 40.356 169.091 40.836C169.091 41.296 169.051 41.696 168.971 42.036C169.051 42.356 169.091 42.756 169.091 43.236C169.091 43.696 169.051 44.096 168.971 44.436H169.871C169.951 44.756 169.991 45.156 169.991 45.636ZM176.171 39.636C176.251 39.956 176.291 40.356 176.291 40.836C176.291 41.296 176.251 41.696 176.171 42.036C176.251 42.356 176.291 42.756 176.291 43.236C176.291 43.696 176.251 44.096 176.171 44.436C176.251 44.756 176.291 45.156 176.291 45.636C176.291 46.096 176.251 46.496 176.171 46.836C176.251 47.156 176.291 47.556 176.291 48.036C176.291 48.496 176.251 48.896 176.171 49.236H173.771C173.691 48.896 173.651 48.496 173.651 48.036C173.651 47.556 173.691 47.156 173.771 46.836H172.871C172.791 46.496 172.751 46.096 172.751 45.636C172.751 45.156 172.791 44.756 172.871 44.436H173.771C173.691 44.096 173.651 43.696 173.651 43.236C173.651 42.756 173.691 42.356 173.771 42.036C173.691 41.696 173.651 41.296 173.651 40.836C173.651 40.356 173.691 39.956 173.771 39.636C173.691 39.296 173.651 38.896 173.651 38.436C173.651 37.956 173.691 37.556 173.771 37.236H176.171C176.251 37.556 176.291 37.956 176.291 38.436C176.291 38.896 176.251 39.296 176.171 39.636ZM188.303 40.836C188.303 41.296 188.263 41.696 188.183 42.036C188.263 42.356 188.303 42.756 188.303 43.236C188.303 43.696 188.263 44.096 188.183 44.436H181.883C181.963 44.756 182.003 45.156 182.003 45.636C182.003 46.096 181.963 46.496 181.883 46.836H186.983C187.063 47.156 187.103 47.556 187.103 48.036C187.103 48.496 187.063 48.896 186.983 49.236H180.983C180.903 48.896 180.863 48.496 180.863 48.036C180.863 47.556 180.903 47.156 180.983 46.836H179.483C179.403 46.496 179.363 46.096 179.363 45.636C179.363 45.156 179.403 44.756 179.483 44.436H178.583C178.503 44.096 178.463 43.696 178.463 43.236C178.463 42.756 178.503 42.356 178.583 42.036H179.483C179.403 41.696 179.363 41.296 179.363 40.836C179.363 40.356 179.403 39.956 179.483 39.636H180.983C180.903 39.296 180.863 38.896 180.863 38.436C180.863 37.956 180.903 37.556 180.983 37.236H186.983C187.063 37.556 187.103 37.956 187.103 38.436C187.103 38.896 187.063 39.296 186.983 39.636H188.183C188.263 39.956 188.303 40.356 188.303 40.836ZM185.783 42.036C185.703 41.696 185.663 41.296 185.663 40.836C185.663 40.356 185.703 39.956 185.783 39.636H181.883C181.963 39.956 182.003 40.356 182.003 40.836C182.003 41.296 181.963 41.696 181.883 42.036H185.783ZM197.015 36.036C197.015 36.496 196.975 36.896 196.895 37.236C196.975 37.556 197.015 37.956 197.015 38.436C197.015 38.896 196.975 39.296 196.895 39.636H193.895C193.815 39.296 193.775 38.896 193.775 38.436C193.775 37.956 193.815 37.556 193.895 37.236C193.815 36.896 193.775 36.496 193.775 36.036C193.775 35.556 193.815 35.156 193.895 34.836H196.895C196.975 35.156 197.015 35.556 197.015 36.036ZM196.895 44.436C196.975 44.756 197.015 45.156 197.015 45.636C197.015 46.096 196.975 46.496 196.895 46.836C196.975 47.156 197.015 47.556 197.015 48.036C197.015 48.496 196.975 48.896 196.895 49.236H193.895C193.815 48.896 193.775 48.496 193.775 48.036C193.775 47.556 193.815 47.156 193.895 46.836C193.815 46.496 193.775 46.096 193.775 45.636C193.775 45.156 193.815 44.756 193.895 44.436H196.895Z" fill="#D9D1BA"/>
<rect x="7.66876" y="14.8811" width="462.429" height="10.3023" fill="white"/>
<rect x="4" y="56.7553" width="469" height="57.4894" rx="6" fill="#038C4C" stroke="black" stroke-width="8"/>
<path d="M92.2094 98.331C92.2094 98.791 92.1694 99.191 92.0894 99.531C92.1694 99.851 92.2094 100.251 92.2094 100.731C92.2094 101.191 92.1694 101.591 92.0894 101.931H89.6894C89.6094 101.591 89.5694 101.191 89.5694 100.731C89.5694 100.251 89.6094 99.851 89.6894 99.531C89.6094 99.191 89.5694 98.791 89.5694 98.331C89.5694 97.851 89.6094 97.451 89.6894 97.131H84.8894C84.9694 97.451 85.0094 97.851 85.0094 98.331C85.0094 98.791 84.9694 99.191 84.8894 99.531C84.9694 99.851 85.0094 100.251 85.0094 100.731C85.0094 101.191 84.9694 101.591 84.8894 101.931H82.4894C82.4094 101.591 82.3694 101.191 82.3694 100.731C82.3694 100.251 82.4094 99.851 82.4894 99.531C82.4094 99.191 82.3694 98.791 82.3694 98.331C82.3694 97.851 82.4094 97.451 82.4894 97.131H83.3894C83.3094 96.791 83.2694 96.391 83.2694 95.931C83.2694 95.451 83.3094 95.051 83.3894 94.731C83.3094 94.391 83.2694 93.991 83.2694 93.531C83.2694 93.051 83.3094 92.651 83.3894 92.331H83.9894C83.9094 91.991 83.8694 91.591 83.8694 91.131C83.8694 90.651 83.9094 90.251 83.9894 89.931H84.8894C84.8094 89.591 84.7694 89.191 84.7694 88.731C84.7694 88.251 84.8094 87.851 84.8894 87.531H85.4894C85.4094 87.191 85.3694 86.791 85.3694 86.331C85.3694 85.851 85.4094 85.451 85.4894 85.131H89.0894C89.1694 85.451 89.2094 85.851 89.2094 86.331C89.2094 86.791 89.1694 87.191 89.0894 87.531H89.6894C89.7694 87.851 89.8094 88.251 89.8094 88.731C89.8094 89.191 89.7694 89.591 89.6894 89.931H90.5894C90.6694 90.251 90.7094 90.651 90.7094 91.131C90.7094 91.591 90.6694 91.991 90.5894 92.331H91.1894C91.2694 92.651 91.3094 93.051 91.3094 93.531C91.3094 93.991 91.2694 94.391 91.1894 94.731C91.2694 95.051 91.3094 95.451 91.3094 95.931C91.3094 96.391 91.2694 96.791 91.1894 97.131H92.0894C92.1694 97.451 92.2094 97.851 92.2094 98.331ZM88.7894 94.731C88.7094 94.391 88.6694 93.991 88.6694 93.531C88.6694 93.051 88.7094 92.651 88.7894 92.331H88.1894C88.1094 91.991 88.0694 91.591 88.0694 91.131C88.0694 90.651 88.1094 90.251 88.1894 89.931H86.3894C86.4694 90.251 86.5094 90.651 86.5094 91.131C86.5094 91.591 86.4694 91.991 86.3894 92.331H85.7894C85.8694 92.651 85.9094 93.051 85.9094 93.531C85.9094 93.991 85.8694 94.391 85.7894 94.731H88.7894ZM104.101 97.131C104.181 97.451 104.221 97.851 104.221 98.331C104.221 98.791 104.181 99.191 104.101 99.531H102.901C102.981 99.851 103.021 100.251 103.021 100.731C103.021 101.191 102.981 101.591 102.901 101.931H96.9011C96.8211 101.591 96.7811 101.191 96.7811 100.731C96.7811 100.251 96.8211 99.851 96.9011 99.531H95.7011C95.6211 99.191 95.5811 98.791 95.5811 98.331C95.5811 97.851 95.6211 97.451 95.7011 97.131H94.5011C94.4211 96.791 94.3811 96.391 94.3811 95.931C94.3811 95.451 94.4211 95.051 94.5011 94.731C94.4211 94.391 94.3811 93.991 94.3811 93.531C94.3811 93.051 94.4211 92.651 94.5011 92.331C94.4211 91.991 94.3811 91.591 94.3811 91.131C94.3811 90.651 94.4211 90.251 94.5011 89.931H95.7011C95.6211 89.591 95.5811 89.191 95.5811 88.731C95.5811 88.251 95.6211 87.851 95.7011 87.531H96.9011C96.8211 87.191 96.7811 86.791 96.7811 86.331C96.7811 85.851 96.8211 85.451 96.9011 85.131H102.901C102.981 85.451 103.021 85.851 103.021 86.331C103.021 86.791 102.981 87.191 102.901 87.531H104.101C104.181 87.851 104.221 88.251 104.221 88.731C104.221 89.191 104.181 89.591 104.101 89.931H101.701C101.621 89.591 101.581 89.191 101.581 88.731C101.581 88.251 101.621 87.851 101.701 87.531H98.1011C98.1811 87.851 98.2211 88.251 98.2211 88.731C98.2211 89.191 98.1811 89.591 98.1011 89.931H96.9011C96.9811 90.251 97.0211 90.651 97.0211 91.131C97.0211 91.591 96.9811 91.991 96.9011 92.331C96.9811 92.651 97.0211 93.051 97.0211 93.531C97.0211 93.991 96.9811 94.391 96.9011 94.731C96.9811 95.051 97.0211 95.451 97.0211 95.931C97.0211 96.391 96.9811 96.791 96.9011 97.131H98.1011C98.1811 97.451 98.2211 97.851 98.2211 98.331C98.2211 98.791 98.1811 99.191 98.1011 99.531H101.701C101.621 99.191 101.581 98.791 101.581 98.331C101.581 97.851 101.621 97.451 101.701 97.131H104.101ZM116.113 99.531C116.193 99.851 116.233 100.251 116.233 100.731C116.233 101.191 116.193 101.591 116.113 101.931H113.713C113.633 101.591 113.593 101.191 113.593 100.731C113.593 100.251 113.633 99.851 113.713 99.531H112.813C112.733 99.191 112.693 98.791 112.693 98.331C112.693 97.851 112.733 97.451 112.813 97.131H111.913C111.833 96.791 111.793 96.391 111.793 95.931C111.793 95.451 111.833 95.051 111.913 94.731H108.913C108.993 95.051 109.033 95.451 109.033 95.931C109.033 96.391 108.993 96.791 108.913 97.131C108.993 97.451 109.033 97.851 109.033 98.331C109.033 98.791 108.993 99.191 108.913 99.531C108.993 99.851 109.033 100.251 109.033 100.731C109.033 101.191 108.993 101.591 108.913 101.931H106.513C106.433 101.591 106.393 101.191 106.393 100.731C106.393 100.251 106.433 99.851 106.513 99.531C106.433 99.191 106.393 98.791 106.393 98.331C106.393 97.851 106.433 97.451 106.513 97.131C106.433 96.791 106.393 96.391 106.393 95.931C106.393 95.451 106.433 95.051 106.513 94.731C106.433 94.391 106.393 93.991 106.393 93.531C106.393 93.051 106.433 92.651 106.513 92.331C106.433 91.991 106.393 91.591 106.393 91.131C106.393 90.651 106.433 90.251 106.513 89.931C106.433 89.591 106.393 89.191 106.393 88.731C106.393 88.251 106.433 87.851 106.513 87.531C106.433 87.191 106.393 86.791 106.393 86.331C106.393 85.851 106.433 85.451 106.513 85.131H114.913C114.993 85.451 115.033 85.851 115.033 86.331C115.033 86.791 114.993 87.191 114.913 87.531H116.113C116.193 87.851 116.233 88.251 116.233 88.731C116.233 89.191 116.193 89.591 116.113 89.931H115.513C115.593 90.251 115.633 90.651 115.633 91.131C115.633 91.591 115.593 91.991 115.513 92.331H113.713C113.793 92.651 113.833 93.051 113.833 93.531C113.833 93.991 113.793 94.391 113.713 94.731H114.313C114.393 95.051 114.433 95.451 114.433 95.931C114.433 96.391 114.393 96.791 114.313 97.131H115.213C115.293 97.451 115.333 97.851 115.333 98.331C115.333 98.791 115.293 99.191 115.213 99.531H116.113ZM113.113 92.331C113.033 91.991 112.993 91.591 112.993 91.131C112.993 90.651 113.033 90.251 113.113 89.931C113.033 89.591 112.993 89.191 112.993 88.731C112.993 88.251 113.033 87.851 113.113 87.531H108.913C108.993 87.851 109.033 88.251 109.033 88.731C109.033 89.191 108.993 89.591 108.913 89.931C108.993 90.251 109.033 90.651 109.033 91.131C109.033 91.591 108.993 91.991 108.913 92.331H113.113ZM140.136 87.531C140.216 87.851 140.256 88.251 140.256 88.731C140.256 89.191 140.216 89.591 140.136 89.931C140.216 90.251 140.256 90.651 140.256 91.131C140.256 91.591 140.216 91.991 140.136 92.331H139.236C139.316 92.651 139.356 93.051 139.356 93.531C139.356 93.991 139.316 94.391 139.236 94.731H138.336C138.416 95.051 138.456 95.451 138.456 95.931C138.456 96.391 138.416 96.791 138.336 97.131H137.736C137.816 97.451 137.856 97.851 137.856 98.331C137.856 98.791 137.816 99.191 137.736 99.531H136.536C136.616 99.851 136.656 100.251 136.656 100.731C136.656 101.191 136.616 101.591 136.536 101.931H134.136C134.056 101.591 134.016 101.191 134.016 100.731C134.016 100.251 134.056 99.851 134.136 99.531H132.936C132.856 99.191 132.816 98.791 132.816 98.331C132.816 97.851 132.856 97.451 132.936 97.131H132.336C132.256 96.791 132.216 96.391 132.216 95.931C132.216 95.451 132.256 95.051 132.336 94.731H131.436C131.356 94.391 131.316 93.991 131.316 93.531C131.316 93.051 131.356 92.651 131.436 92.331H130.536C130.456 91.991 130.416 91.591 130.416 91.131C130.416 90.651 130.456 90.251 130.536 89.931C130.456 89.591 130.416 89.191 130.416 88.731C130.416 88.251 130.456 87.851 130.536 87.531C130.456 87.191 130.416 86.791 130.416 86.331C130.416 85.851 130.456 85.451 130.536 85.131H132.936C133.016 85.451 133.056 85.851 133.056 86.331C133.056 86.791 133.016 87.191 132.936 87.531C133.016 87.851 133.056 88.251 133.056 88.731C133.056 89.191 133.016 89.591 132.936 89.931C133.016 90.251 133.056 90.651 133.056 91.131C133.056 91.591 133.016 91.991 132.936 92.331H133.836C133.916 92.651 133.956 93.051 133.956 93.531C133.956 93.991 133.916 94.391 133.836 94.731H134.736C134.816 95.051 134.856 95.451 134.856 95.931C134.856 96.391 134.816 96.791 134.736 97.131H135.936C135.856 96.791 135.816 96.391 135.816 95.931C135.816 95.451 135.856 95.051 135.936 94.731H136.836C136.756 94.391 136.716 93.991 136.716 93.531C136.716 93.051 136.756 92.651 136.836 92.331H137.736C137.656 91.991 137.616 91.591 137.616 91.131C137.616 90.651 137.656 90.251 137.736 89.931C137.656 89.591 137.616 89.191 137.616 88.731C137.616 88.251 137.656 87.851 137.736 87.531C137.656 87.191 137.616 86.791 137.616 86.331C137.616 85.851 137.656 85.451 137.736 85.131H140.136C140.216 85.451 140.256 85.851 140.256 86.331C140.256 86.791 140.216 87.191 140.136 87.531ZM152.148 99.531C152.228 99.851 152.268 100.251 152.268 100.731C152.268 101.191 152.228 101.591 152.148 101.931H149.748C149.668 101.591 149.628 101.191 149.628 100.731C149.628 100.251 149.668 99.851 149.748 99.531H148.548C148.468 99.191 148.428 98.791 148.428 98.331C148.428 97.851 148.468 97.451 148.548 97.131H144.948C145.028 97.451 145.068 97.851 145.068 98.331C145.068 98.791 145.028 99.191 144.948 99.531H148.548C148.628 99.851 148.668 100.251 148.668 100.731C148.668 101.191 148.628 101.591 148.548 101.931H143.748C143.668 101.591 143.628 101.191 143.628 100.731C143.628 100.251 143.668 99.851 143.748 99.531H142.548C142.468 99.191 142.428 98.791 142.428 98.331C142.428 97.851 142.468 97.451 142.548 97.131H143.748C143.668 96.791 143.628 96.391 143.628 95.931C143.628 95.451 143.668 95.051 143.748 94.731H148.548C148.468 94.391 148.428 93.991 148.428 93.531C148.428 93.051 148.468 92.651 148.548 92.331H144.348C144.268 91.991 144.228 91.591 144.228 91.131C144.228 90.651 144.268 90.251 144.348 89.931H149.748C149.828 90.251 149.868 90.651 149.868 91.131C149.868 91.591 149.828 91.991 149.748 92.331H150.948C151.028 92.651 151.068 93.051 151.068 93.531C151.068 93.991 151.028 94.391 150.948 94.731C151.028 95.051 151.068 95.451 151.068 95.931C151.068 96.391 151.028 96.791 150.948 97.131C151.028 97.451 151.068 97.851 151.068 98.331C151.068 98.791 151.028 99.191 150.948 99.531H152.148ZM162.96 99.531C163.04 99.851 163.08 100.251 163.08 100.731C163.08 101.191 163.04 101.591 162.96 101.931H155.76C155.68 101.591 155.64 101.191 155.64 100.731C155.64 100.251 155.68 99.851 155.76 99.531H158.16C158.08 99.191 158.04 98.791 158.04 98.331C158.04 97.851 158.08 97.451 158.16 97.131C158.08 96.791 158.04 96.391 158.04 95.931C158.04 95.451 158.08 95.051 158.16 94.731C158.08 94.391 158.04 93.991 158.04 93.531C158.04 93.051 158.08 92.651 158.16 92.331C158.08 91.991 158.04 91.591 158.04 91.131C158.04 90.651 158.08 90.251 158.16 89.931C158.08 89.591 158.04 89.191 158.04 88.731C158.04 88.251 158.08 87.851 158.16 87.531H156.36C156.28 87.191 156.24 86.791 156.24 86.331C156.24 85.851 156.28 85.451 156.36 85.131H160.56C160.64 85.451 160.68 85.851 160.68 86.331C160.68 86.791 160.64 87.191 160.56 87.531C160.64 87.851 160.68 88.251 160.68 88.731C160.68 89.191 160.64 89.591 160.56 89.931C160.64 90.251 160.68 90.651 160.68 91.131C160.68 91.591 160.64 91.991 160.56 92.331C160.64 92.651 160.68 93.051 160.68 93.531C160.68 93.991 160.64 94.391 160.56 94.731C160.64 95.051 160.68 95.451 160.68 95.931C160.68 96.391 160.64 96.791 160.56 97.131C160.64 97.451 160.68 97.851 160.68 98.331C160.68 98.791 160.64 99.191 160.56 99.531H162.96ZM169.991 98.331C169.991 98.791 169.951 99.191 169.871 99.531H172.871C172.951 99.851 172.991 100.251 172.991 100.731C172.991 101.191 172.951 101.591 172.871 101.931H168.071C167.991 101.591 167.951 101.191 167.951 100.731C167.951 100.251 167.991 99.851 168.071 99.531H166.571C166.491 99.191 166.451 98.791 166.451 98.331C166.451 97.851 166.491 97.451 166.571 97.131C166.491 96.791 166.451 96.391 166.451 95.931C166.451 95.451 166.491 95.051 166.571 94.731C166.491 94.391 166.451 93.991 166.451 93.531C166.451 93.051 166.491 92.651 166.571 92.331C166.491 91.991 166.451 91.591 166.451 91.131C166.451 90.651 166.491 90.251 166.571 89.931H168.971C169.051 90.251 169.091 90.651 169.091 91.131C169.091 91.591 169.051 91.991 168.971 92.331C169.051 92.651 169.091 93.051 169.091 93.531C169.091 93.991 169.051 94.391 168.971 94.731C169.051 95.051 169.091 95.451 169.091 95.931C169.091 96.391 169.051 96.791 168.971 97.131H169.871C169.951 97.451 169.991 97.851 169.991 98.331ZM176.171 92.331C176.251 92.651 176.291 93.051 176.291 93.531C176.291 93.991 176.251 94.391 176.171 94.731C176.251 95.051 176.291 95.451 176.291 95.931C176.291 96.391 176.251 96.791 176.171 97.131C176.251 97.451 176.291 97.851 176.291 98.331C176.291 98.791 176.251 99.191 176.171 99.531C176.251 99.851 176.291 100.251 176.291 100.731C176.291 101.191 176.251 101.591 176.171 101.931H173.771C173.691 101.591 173.651 101.191 173.651 100.731C173.651 100.251 173.691 99.851 173.771 99.531H172.871C172.791 99.191 172.751 98.791 172.751 98.331C172.751 97.851 172.791 97.451 172.871 97.131H173.771C173.691 96.791 173.651 96.391 173.651 95.931C173.651 95.451 173.691 95.051 173.771 94.731C173.691 94.391 173.651 93.991 173.651 93.531C173.651 93.051 173.691 92.651 173.771 92.331C173.691 91.991 173.651 91.591 173.651 91.131C173.651 90.651 173.691 90.251 173.771 89.931H176.171C176.251 90.251 176.291 90.651 176.291 91.131C176.291 91.591 176.251 91.991 176.171 92.331ZM188.303 93.531C188.303 93.991 188.263 94.391 188.183 94.731C188.263 95.051 188.303 95.451 188.303 95.931C188.303 96.391 188.263 96.791 188.183 97.131H181.883C181.963 97.451 182.003 97.851 182.003 98.331C182.003 98.791 181.963 99.191 181.883 99.531H186.983C187.063 99.851 187.103 100.251 187.103 100.731C187.103 101.191 187.063 101.591 186.983 101.931H180.983C180.903 101.591 180.863 101.191 180.863 100.731C180.863 100.251 180.903 99.851 180.983 99.531H179.483C179.403 99.191 179.363 98.791 179.363 98.331C179.363 97.851 179.403 97.451 179.483 97.131H178.583C178.503 96.791 178.463 96.391 178.463 95.931C178.463 95.451 178.503 95.051 178.583 94.731H179.483C179.403 94.391 179.363 93.991 179.363 93.531C179.363 93.051 179.403 92.651 179.483 92.331H180.983C180.903 91.991 180.863 91.591 180.863 91.131C180.863 90.651 180.903 90.251 180.983 89.931H186.983C187.063 90.251 187.103 90.651 187.103 91.131C187.103 91.591 187.063 91.991 186.983 92.331H188.183C188.263 92.651 188.303 93.051 188.303 93.531ZM185.783 94.731C185.703 94.391 185.663 93.991 185.663 93.531C185.663 93.051 185.703 92.651 185.783 92.331H181.883C181.963 92.651 182.003 93.051 182.003 93.531C182.003 93.991 181.963 94.391 181.883 94.731H185.783ZM197.015 88.731C197.015 89.191 196.975 89.591 196.895 89.931C196.975 90.251 197.015 90.651 197.015 91.131C197.015 91.591 196.975 91.991 196.895 92.331H193.895C193.815 91.991 193.775 91.591 193.775 91.131C193.775 90.651 193.815 90.251 193.895 89.931C193.815 89.591 193.775 89.191 193.775 88.731C193.775 88.251 193.815 87.851 193.895 87.531H196.895C196.975 87.851 197.015 88.251 197.015 88.731ZM196.895 97.131C196.975 97.451 197.015 97.851 197.015 98.331C197.015 98.791 196.975 99.191 196.895 99.531C196.975 99.851 197.015 100.251 197.015 100.731C197.015 101.191 196.975 101.591 196.895 101.931H193.895C193.815 101.591 193.775 101.191 193.775 100.731C193.775 100.251 193.815 99.851 193.895 99.531C193.815 99.191 193.775 98.791 193.775 98.331C193.775 97.851 193.815 97.451 193.895 97.131H196.895Z" fill="#D9D1BA"/>
<rect x="7.66876" y="67.6047" width="462.429" height="10.2803" fill="white"/>
<rect x="4" y="109.511" width="469" height="57.4894" rx="6" fill="#D94A3D" stroke="black" stroke-width="8"/>
<path d="M92.0894 143.286C92.1694 143.606 92.2094 144.006 92.2094 144.486C92.2094 144.946 92.1694 145.346 92.0894 145.686C92.1694 146.006 92.2094 146.406 92.2094 146.886C92.2094 147.346 92.1694 147.746 92.0894 148.086C92.1694 148.406 92.2094 148.806 92.2094 149.286C92.2094 149.746 92.1694 150.146 92.0894 150.486C92.1694 150.806 92.2094 151.206 92.2094 151.686C92.2094 152.146 92.1694 152.546 92.0894 152.886C92.1694 153.206 92.2094 153.606 92.2094 154.086C92.2094 154.546 92.1694 154.946 92.0894 155.286H90.8894C90.9694 155.606 91.0094 156.006 91.0094 156.486C91.0094 156.946 90.9694 157.346 90.8894 157.686H83.6894C83.6094 157.346 83.5694 156.946 83.5694 156.486C83.5694 156.006 83.6094 155.606 83.6894 155.286H82.4894C82.4094 154.946 82.3694 154.546 82.3694 154.086C82.3694 153.606 82.4094 153.206 82.4894 152.886C82.4094 152.546 82.3694 152.146 82.3694 151.686C82.3694 151.206 82.4094 150.806 82.4894 150.486C82.4094 150.146 82.3694 149.746 82.3694 149.286C82.3694 148.806 82.4094 148.406 82.4894 148.086C82.4094 147.746 82.3694 147.346 82.3694 146.886C82.3694 146.406 82.4094 146.006 82.4894 145.686C82.4094 145.346 82.3694 144.946 82.3694 144.486C82.3694 144.006 82.4094 143.606 82.4894 143.286C82.4094 142.946 82.3694 142.546 82.3694 142.086C82.3694 141.606 82.4094 141.206 82.4894 140.886H84.8894C84.9694 141.206 85.0094 141.606 85.0094 142.086C85.0094 142.546 84.9694 142.946 84.8894 143.286C84.9694 143.606 85.0094 144.006 85.0094 144.486C85.0094 144.946 84.9694 145.346 84.8894 145.686C84.9694 146.006 85.0094 146.406 85.0094 146.886C85.0094 147.346 84.9694 147.746 84.8894 148.086C84.9694 148.406 85.0094 148.806 85.0094 149.286C85.0094 149.746 84.9694 150.146 84.8894 150.486C84.9694 150.806 85.0094 151.206 85.0094 151.686C85.0094 152.146 84.9694 152.546 84.8894 152.886C84.9694 153.206 85.0094 153.606 85.0094 154.086C85.0094 154.546 84.9694 154.946 84.8894 155.286H89.6894C89.6094 154.946 89.5694 154.546 89.5694 154.086C89.5694 153.606 89.6094 153.206 89.6894 152.886C89.6094 152.546 89.5694 152.146 89.5694 151.686C89.5694 151.206 89.6094 150.806 89.6894 150.486C89.6094 150.146 89.5694 149.746 89.5694 149.286C89.5694 148.806 89.6094 148.406 89.6894 148.086C89.6094 147.746 89.5694 147.346 89.5694 146.886C89.5694 146.406 89.6094 146.006 89.6894 145.686C89.6094 145.346 89.5694 144.946 89.5694 144.486C89.5694 144.006 89.6094 143.606 89.6894 143.286C89.6094 142.946 89.5694 142.546 89.5694 142.086C89.5694 141.606 89.6094 141.206 89.6894 140.886H92.0894C92.1694 141.206 92.2094 141.606 92.2094 142.086C92.2094 142.546 92.1694 142.946 92.0894 143.286ZM104.101 150.486C104.181 150.806 104.221 151.206 104.221 151.686C104.221 152.146 104.181 152.546 104.101 152.886C104.181 153.206 104.221 153.606 104.221 154.086C104.221 154.546 104.181 154.946 104.101 155.286H102.901C102.981 155.606 103.021 156.006 103.021 156.486C103.021 156.946 102.981 157.346 102.901 157.686H95.7011C95.6211 157.346 95.5811 156.946 95.5811 156.486C95.5811 156.006 95.6211 155.606 95.7011 155.286H94.5011C94.4211 154.946 94.3811 154.546 94.3811 154.086C94.3811 153.606 94.4211 153.206 94.5011 152.886H96.9011C96.9811 153.206 97.0211 153.606 97.0211 154.086C97.0211 154.546 96.9811 154.946 96.9011 155.286H101.701C101.621 154.946 101.581 154.546 101.581 154.086C101.581 153.606 101.621 153.206 101.701 152.886C101.621 152.546 101.581 152.146 101.581 151.686C101.581 151.206 101.621 150.806 101.701 150.486H95.7011C95.6211 150.146 95.5811 149.746 95.5811 149.286C95.5811 148.806 95.6211 148.406 95.7011 148.086H94.5011C94.4211 147.746 94.3811 147.346 94.3811 146.886C94.3811 146.406 94.4211 146.006 94.5011 145.686C94.4211 145.346 94.3811 144.946 94.3811 144.486C94.3811 144.006 94.4211 143.606 94.5011 143.286H95.7011C95.6211 142.946 95.5811 142.546 95.5811 142.086C95.5811 141.606 95.6211 141.206 95.7011 140.886H102.901C102.981 141.206 103.021 141.606 103.021 142.086C103.021 142.546 102.981 142.946 102.901 143.286H104.101C104.181 143.606 104.221 144.006 104.221 144.486C104.221 144.946 104.181 145.346 104.101 145.686H101.701C101.621 145.346 101.581 144.946 101.581 144.486C101.581 144.006 101.621 143.606 101.701 143.286H96.9011C96.9811 143.606 97.0211 144.006 97.0211 144.486C97.0211 144.946 96.9811 145.346 96.9011 145.686C96.9811 146.006 97.0211 146.406 97.0211 146.886C97.0211 147.346 96.9811 147.746 96.9011 148.086H102.901C102.981 148.406 103.021 148.806 103.021 149.286C103.021 149.746 102.981 150.146 102.901 150.486H104.101ZM116.113 148.086C116.193 148.406 116.233 148.806 116.233 149.286C116.233 149.746 116.193 150.146 116.113 150.486C116.193 150.806 116.233 151.206 116.233 151.686C116.233 152.146 116.193 152.546 116.113 152.886H114.913C114.993 153.206 115.033 153.606 115.033 154.086C115.033 154.546 114.993 154.946 114.913 155.286H113.713C113.793 155.606 113.833 156.006 113.833 156.486C113.833 156.946 113.793 157.346 113.713 157.686H106.513C106.433 157.346 106.393 156.946 106.393 156.486C106.393 156.006 106.433 155.606 106.513 155.286C106.433 154.946 106.393 154.546 106.393 154.086C106.393 153.606 106.433 153.206 106.513 152.886C106.433 152.546 106.393 152.146 106.393 151.686C106.393 151.206 106.433 150.806 106.513 150.486C106.433 150.146 106.393 149.746 106.393 149.286C106.393 148.806 106.433 148.406 106.513 148.086C106.433 147.746 106.393 147.346 106.393 146.886C106.393 146.406 106.433 146.006 106.513 145.686C106.433 145.346 106.393 144.946 106.393 144.486C106.393 144.006 106.433 143.606 106.513 143.286C106.433 142.946 106.393 142.546 106.393 142.086C106.393 141.606 106.433 141.206 106.513 140.886H113.713C113.793 141.206 113.833 141.606 113.833 142.086C113.833 142.546 113.793 142.946 113.713 143.286H114.913C114.993 143.606 115.033 144.006 115.033 144.486C115.033 144.946 114.993 145.346 114.913 145.686H116.113C116.193 146.006 116.233 146.406 116.233 146.886C116.233 147.346 116.193 147.746 116.113 148.086ZM113.713 152.886C113.633 152.546 113.593 152.146 113.593 151.686C113.593 151.206 113.633 150.806 113.713 150.486C113.633 150.146 113.593 149.746 113.593 149.286C113.593 148.806 113.633 148.406 113.713 148.086C113.633 147.746 113.593 147.346 113.593 146.886C113.593 146.406 113.633 146.006 113.713 145.686H112.513C112.433 145.346 112.393 144.946 112.393 144.486C112.393 144.006 112.433 143.606 112.513 143.286H108.913C108.993 143.606 109.033 144.006 109.033 144.486C109.033 144.946 108.993 145.346 108.913 145.686C108.993 146.006 109.033 146.406 109.033 146.886C109.033 147.346 108.993 147.746 108.913 148.086C108.993 148.406 109.033 148.806 109.033 149.286C109.033 149.746 108.993 150.146 108.913 150.486C108.993 150.806 109.033 151.206 109.033 151.686C109.033 152.146 108.993 152.546 108.913 152.886C108.993 153.206 109.033 153.606 109.033 154.086C109.033 154.546 108.993 154.946 108.913 155.286H112.513C112.433 154.946 112.393 154.546 112.393 154.086C112.393 153.606 112.433 153.206 112.513 152.886H113.713ZM140.256 146.886C140.256 147.346 140.216 147.746 140.136 148.086H138.936C139.016 148.406 139.056 148.806 139.056 149.286C139.056 149.746 139.016 150.146 138.936 150.486H140.136C140.216 150.806 140.256 151.206 140.256 151.686C140.256 152.146 140.216 152.546 140.136 152.886C140.216 153.206 140.256 153.606 140.256 154.086C140.256 154.546 140.216 154.946 140.136 155.286H138.936C139.016 155.606 139.056 156.006 139.056 156.486C139.056 156.946 139.016 157.346 138.936 157.686H130.536C130.456 157.346 130.416 156.946 130.416 156.486C130.416 156.006 130.456 155.606 130.536 155.286C130.456 154.946 130.416 154.546 130.416 154.086C130.416 153.606 130.456 153.206 130.536 152.886C130.456 152.546 130.416 152.146 130.416 151.686C130.416 151.206 130.456 150.806 130.536 150.486C130.456 150.146 130.416 149.746 130.416 149.286C130.416 148.806 130.456 148.406 130.536 148.086C130.456 147.746 130.416 147.346 130.416 146.886C130.416 146.406 130.456 146.006 130.536 145.686C130.456 145.346 130.416 144.946 130.416 144.486C130.416 144.006 130.456 143.606 130.536 143.286C130.456 142.946 130.416 142.546 130.416 142.086C130.416 141.606 130.456 141.206 130.536 140.886H138.936C139.016 141.206 139.056 141.606 139.056 142.086C139.056 142.546 139.016 142.946 138.936 143.286H140.136C140.216 143.606 140.256 144.006 140.256 144.486C140.256 144.946 140.216 145.346 140.136 145.686C140.216 146.006 140.256 146.406 140.256 146.886ZM137.736 148.086C137.656 147.746 137.616 147.346 137.616 146.886C137.616 146.406 137.656 146.006 137.736 145.686C137.656 145.346 137.616 144.946 137.616 144.486C137.616 144.006 137.656 143.606 137.736 143.286H132.936C133.016 143.606 133.056 144.006 133.056 144.486C133.056 144.946 133.016 145.346 132.936 145.686C133.016 146.006 133.056 146.406 133.056 146.886C133.056 147.346 133.016 147.746 132.936 148.086H137.736ZM137.736 152.886C137.656 152.546 137.616 152.146 137.616 151.686C137.616 151.206 137.656 150.806 137.736 150.486H132.936C133.016 150.806 133.056 151.206 133.056 151.686C133.056 152.146 133.016 152.546 132.936 152.886C133.016 153.206 133.056 153.606 133.056 154.086C133.056 154.546 133.016 154.946 132.936 155.286H137.736C137.656 154.946 137.616 154.546 137.616 154.086C137.616 153.606 137.656 153.206 137.736 152.886ZM152.148 155.286C152.228 155.606 152.268 156.006 152.268 156.486C152.268 156.946 152.228 157.346 152.148 157.686H149.748C149.668 157.346 149.628 156.946 149.628 156.486C149.628 156.006 149.668 155.606 149.748 155.286H148.548C148.468 154.946 148.428 154.546 148.428 154.086C148.428 153.606 148.468 153.206 148.548 152.886H144.948C145.028 153.206 145.068 153.606 145.068 154.086C145.068 154.546 145.028 154.946 144.948 155.286H148.548C148.628 155.606 148.668 156.006 148.668 156.486C148.668 156.946 148.628 157.346 148.548 157.686H143.748C143.668 157.346 143.628 156.946 143.628 156.486C143.628 156.006 143.668 155.606 143.748 155.286H142.548C142.468 154.946 142.428 154.546 142.428 154.086C142.428 153.606 142.468 153.206 142.548 152.886H143.748C143.668 152.546 143.628 152.146 143.628 151.686C143.628 151.206 143.668 150.806 143.748 150.486H148.548C148.468 150.146 148.428 149.746 148.428 149.286C148.428 148.806 148.468 148.406 148.548 148.086H144.348C144.268 147.746 144.228 147.346 144.228 146.886C144.228 146.406 144.268 146.006 144.348 145.686H149.748C149.828 146.006 149.868 146.406 149.868 146.886C149.868 147.346 149.828 147.746 149.748 148.086H150.948C151.028 148.406 151.068 148.806 151.068 149.286C151.068 149.746 151.028 150.146 150.948 150.486C151.028 150.806 151.068 151.206 151.068 151.686C151.068 152.146 151.028 152.546 150.948 152.886C151.028 153.206 151.068 153.606 151.068 154.086C151.068 154.546 151.028 154.946 150.948 155.286H152.148ZM162.96 155.286C163.04 155.606 163.08 156.006 163.08 156.486C163.08 156.946 163.04 157.346 162.96 157.686H155.76C155.68 157.346 155.64 156.946 155.64 156.486C155.64 156.006 155.68 155.606 155.76 155.286H158.16C158.08 154.946 158.04 154.546 158.04 154.086C158.04 153.606 158.08 153.206 158.16 152.886C158.08 152.546 158.04 152.146 158.04 151.686C158.04 151.206 158.08 150.806 158.16 150.486C158.08 150.146 158.04 149.746 158.04 149.286C158.04 148.806 158.08 148.406 158.16 148.086C158.08 147.746 158.04 147.346 158.04 146.886C158.04 146.406 158.08 146.006 158.16 145.686C158.08 145.346 158.04 144.946 158.04 144.486C158.04 144.006 158.08 143.606 158.16 143.286H156.36C156.28 142.946 156.24 142.546 156.24 142.086C156.24 141.606 156.28 141.206 156.36 140.886H160.56C160.64 141.206 160.68 141.606 160.68 142.086C160.68 142.546 160.64 142.946 160.56 143.286C160.64 143.606 160.68 144.006 160.68 144.486C160.68 144.946 160.64 145.346 160.56 145.686C160.64 146.006 160.68 146.406 160.68 146.886C160.68 147.346 160.64 147.746 160.56 148.086C160.64 148.406 160.68 148.806 160.68 149.286C160.68 149.746 160.64 150.146 160.56 150.486C160.64 150.806 160.68 151.206 160.68 151.686C160.68 152.146 160.64 152.546 160.56 152.886C160.64 153.206 160.68 153.606 160.68 154.086C160.68 154.546 160.64 154.946 160.56 155.286H162.96ZM176.171 155.286C176.251 155.606 176.291 156.006 176.291 156.486C176.291 156.946 176.251 157.346 176.171 157.686H173.771C173.691 157.346 173.651 156.946 173.651 156.486C173.651 156.006 173.691 155.606 173.771 155.286H172.571C172.491 154.946 172.451 154.546 172.451 154.086C172.451 153.606 172.491 153.206 172.571 152.886H168.971C169.051 153.206 169.091 153.606 169.091 154.086C169.091 154.546 169.051 154.946 168.971 155.286H172.571C172.651 155.606 172.691 156.006 172.691 156.486C172.691 156.946 172.651 157.346 172.571 157.686H167.771C167.691 157.346 167.651 156.946 167.651 156.486C167.651 156.006 167.691 155.606 167.771 155.286H166.571C166.491 154.946 166.451 154.546 166.451 154.086C166.451 153.606 166.491 153.206 166.571 152.886H167.771C167.691 152.546 167.651 152.146 167.651 151.686C167.651 151.206 167.691 150.806 167.771 150.486H172.571C172.491 150.146 172.451 149.746 172.451 149.286C172.451 148.806 172.491 148.406 172.571 148.086H168.371C168.291 147.746 168.251 147.346 168.251 146.886C168.251 146.406 168.291 146.006 168.371 145.686H173.771C173.851 146.006 173.891 146.406 173.891 146.886C173.891 147.346 173.851 147.746 173.771 148.086H174.971C175.051 148.406 175.091 148.806 175.091 149.286C175.091 149.746 175.051 150.146 174.971 150.486C175.051 150.806 175.091 151.206 175.091 151.686C175.091 152.146 175.051 152.546 174.971 152.886C175.051 153.206 175.091 153.606 175.091 154.086C175.091 154.546 175.051 154.946 174.971 155.286H176.171ZM180.803 146.886C180.803 147.346 180.763 147.746 180.683 148.086H181.883C181.963 148.406 182.003 148.806 182.003 149.286C182.003 149.746 181.963 150.146 181.883 150.486H180.983C181.063 150.806 181.103 151.206 181.103 151.686C181.103 152.146 181.063 152.546 180.983 152.886C181.063 153.206 181.103 153.606 181.103 154.086C181.103 154.546 181.063 154.946 180.983 155.286C181.063 155.606 181.103 156.006 181.103 156.486C181.103 156.946 181.063 157.346 180.983 157.686H178.583C178.503 157.346 178.463 156.946 178.463 156.486C178.463 156.006 178.503 155.606 178.583 155.286C178.503 154.946 178.463 154.546 178.463 154.086C178.463 153.606 178.503 153.206 178.583 152.886C178.503 152.546 178.463 152.146 178.463 151.686C178.463 151.206 178.503 150.806 178.583 150.486C178.503 150.146 178.463 149.746 178.463 149.286C178.463 148.806 178.503 148.406 178.583 148.086C178.503 147.746 178.463 147.346 178.463 146.886C178.463 146.406 178.503 146.006 178.583 145.686H180.683C180.763 146.006 180.803 146.406 180.803 146.886ZM188.183 150.486C188.263 150.806 188.303 151.206 188.303 151.686C188.303 152.146 188.263 152.546 188.183 152.886C188.263 153.206 188.303 153.606 188.303 154.086C188.303 154.546 188.263 154.946 188.183 155.286C188.263 155.606 188.303 156.006 188.303 156.486C188.303 156.946 188.263 157.346 188.183 157.686H185.783C185.703 157.346 185.663 156.946 185.663 156.486C185.663 156.006 185.703 155.606 185.783 155.286C185.703 154.946 185.663 154.546 185.663 154.086C185.663 153.606 185.703 153.206 185.783 152.886C185.703 152.546 185.663 152.146 185.663 151.686C185.663 151.206 185.703 150.806 185.783 150.486C185.703 150.146 185.663 149.746 185.663 149.286C185.663 148.806 185.703 148.406 185.783 148.086H181.883C181.803 147.746 181.763 147.346 181.763 146.886C181.763 146.406 181.803 146.006 181.883 145.686H186.683C186.763 146.006 186.803 146.406 186.803 146.886C186.803 147.346 186.763 147.746 186.683 148.086H188.183C188.263 148.406 188.303 148.806 188.303 149.286C188.303 149.746 188.263 150.146 188.183 150.486ZM200.195 152.886C200.275 153.206 200.315 153.606 200.315 154.086C200.315 154.546 200.275 154.946 200.195 155.286H198.995C199.075 155.606 199.115 156.006 199.115 156.486C199.115 156.946 199.075 157.346 198.995 157.686H192.995C192.915 157.346 192.875 156.946 192.875 156.486C192.875 156.006 192.915 155.606 192.995 155.286H191.795C191.715 154.946 191.675 154.546 191.675 154.086C191.675 153.606 191.715 153.206 191.795 152.886H190.595C190.515 152.546 190.475 152.146 190.475 151.686C190.475 151.206 190.515 150.806 190.595 150.486H191.795C191.715 150.146 191.675 149.746 191.675 149.286C191.675 148.806 191.715 148.406 191.795 148.086H192.995C192.915 147.746 192.875 147.346 192.875 146.886C192.875 146.406 192.915 146.006 192.995 145.686H198.995C199.075 146.006 199.115 146.406 199.115 146.886C199.115 147.346 199.075 147.746 198.995 148.086H200.195C200.275 148.406 200.315 148.806 200.315 149.286C200.315 149.746 200.275 150.146 200.195 150.486H197.795C197.715 150.146 197.675 149.746 197.675 149.286C197.675 148.806 197.715 148.406 197.795 148.086H194.195C194.275 148.406 194.315 148.806 194.315 149.286C194.315 149.746 194.275 150.146 194.195 150.486H192.995C193.075 150.806 193.115 151.206 193.115 151.686C193.115 152.146 193.075 152.546 192.995 152.886H194.195C194.275 153.206 194.315 153.606 194.315 154.086C194.315 154.546 194.275 154.946 194.195 155.286H197.795C197.715 154.946 197.675 154.546 197.675 154.086C197.675 153.606 197.715 153.206 197.795 152.886H200.195ZM212.327 149.286C212.327 149.746 212.287 150.146 212.207 150.486C212.287 150.806 212.327 151.206 212.327 151.686C212.327 152.146 212.287 152.546 212.207 152.886H205.907C205.987 153.206 206.027 153.606 206.027 154.086C206.027 154.546 205.987 154.946 205.907 155.286H211.007C211.087 155.606 211.127 156.006 211.127 156.486C211.127 156.946 211.087 157.346 211.007 157.686H205.007C204.927 157.346 204.887 156.946 204.887 156.486C204.887 156.006 204.927 155.606 205.007 155.286H203.507C203.427 154.946 203.387 154.546 203.387 154.086C203.387 153.606 203.427 153.206 203.507 152.886H202.607C202.527 152.546 202.487 152.146 202.487 151.686C202.487 151.206 202.527 150.806 202.607 150.486H203.507C203.427 150.146 203.387 149.746 203.387 149.286C203.387 148.806 203.427 148.406 203.507 148.086H205.007C204.927 147.746 204.887 147.346 204.887 146.886C204.887 146.406 204.927 146.006 205.007 145.686H211.007C211.087 146.006 211.127 146.406 211.127 146.886C211.127 147.346 211.087 147.746 211.007 148.086H212.207C212.287 148.406 212.327 148.806 212.327 149.286ZM209.807 150.486C209.727 150.146 209.687 149.746 209.687 149.286C209.687 148.806 209.727 148.406 209.807 148.086H205.907C205.987 148.406 206.027 148.806 206.027 149.286C206.027 149.746 205.987 150.146 205.907 150.486H209.807ZM221.038 144.486C221.038 144.946 220.998 145.346 220.918 145.686C220.998 146.006 221.038 146.406 221.038 146.886C221.038 147.346 220.998 147.746 220.918 148.086H217.918C217.838 147.746 217.798 147.346 217.798 146.886C217.798 146.406 217.838 146.006 217.918 145.686C217.838 145.346 217.798 144.946 217.798 144.486C217.798 144.006 217.838 143.606 217.918 143.286H220.918C220.998 143.606 221.038 144.006 221.038 144.486ZM220.918 152.886C220.998 153.206 221.038 153.606 221.038 154.086C221.038 154.546 220.998 154.946 220.918 155.286C220.998 155.606 221.038 156.006 221.038 156.486C221.038 156.946 220.998 157.346 220.918 157.686H217.918C217.838 157.346 217.798 156.946 217.798 156.486C217.798 156.006 217.838 155.606 217.918 155.286C217.838 154.946 217.798 154.546 217.798 154.086C217.798 153.606 217.838 153.206 217.918 152.886H220.918Z" fill="#D9D1BA"/>
<rect x="7.66876" y="120.36" width="462.429" height="10.2803" fill="white"/>
</svg>
